mtllib HeadYaw.mtl
o HeadYaw
usemtl nao_texture
v 0.1260001 0.1259997 -0.1247716
v 0.1260001 -0.1260002 -0.1247714
v 0.1260001 -0.1260002 0.1272286
v 0.1260001 0.1259999 0.1272285
v -0.126 -0.126 0.1272286
v -0.1259999 -0.1260001 -0.1247714
v -0.1259999 0.1259999 -0.1247715
v -0.1259999 0.126 0.1272285
vt 0.1111484 0.8631888
vt 0.1117857 0.8610982
vt 0.07133668 0.8250313
vt 0.1117486 0.8654554
vt 0.1438508 0.8931091
vt 0.1447283 0.828572
vt 0.1117857 0.8610982
vt 0.1138673 0.8630915
vt 0.1447283 0.828572
vt 0.1117486 0.8654554
vt 0.1111484 0.8631888
vt 0.07133853 0.9149685
vt 0.07133853 0.9149685
vt 0.1111484 0.8631888
vt 0.07133668 0.8250313
vt 0.1138673 0.8630915
vt 0.1117486 0.8654554
vt 0.1447283 0.828572
vt 0.07133668 0.8250313
vt 0.1117857 0.8610982
vt 0.1447283 0.828572
vt 0.1438508 0.8931091
vt 0.1117486 0.8654554
vt 0.07133853 0.9149685
usemtl HeadYawuv
f 6/1 2/2 3/3
f 7/4 8/5 4/6
f 2/7 1/8 4/9
f 7/10 6/11 5/12
f 5/13 6/14 3/15
f 1/16 7/17 4/18
f 3/19 2/20 4/21
f 8/22 7/23 5/24
