mtllib LAnklePitch.mtl
o LAnklePitch
usemtl nao_texture
v 0.4128249 0.1175798 0.1450244
v 0.4128249 0.1175798 0.1920242
v 0.4128249 -0.1234202 0.1920242
v 0.4128249 -0.1234202 0.1450244
v 0.2229055 0.1175798 0.3945892
v 0.2229054 -0.1234202 0.3945892
v 0.3232632 -0.1234202 0.3194626
v 0.3232632 0.1175798 0.3194626
v 0.1054472 0.1175798 0.438399
v 0.1054472 -0.1234201 0.438399
v -0.01959566 0.1175799 0.4473422
v -0.01959568 -0.1234201 0.4473422
v -0.1420931 0.1175799 0.4206946
v -0.1420931 -0.1234201 0.4206946
v -0.2521209 0.1175799 0.3606146
v -0.2521209 -0.1234201 0.3606146
v -0.3407654 0.1175799 0.2719702
v -0.3407654 -0.1234201 0.2719702
v -0.4008451 0.1175799 0.1619425
v -0.4008452 -0.1234201 0.1619425
v -0.4284928 0.1175799 0.0832779
v -0.4284928 -0.1234201 0.0832779
v 0.3773903 -0.1234202 0.2561044
v 0.3773903 0.1175798 0.2561044
v 0.3879655 0.1441676 0.1459326
v 0.3879655 0.1441676 0.1899246
v 0.3041357 0.1441677 0.3092069
v 0.2102008 0.1441677 0.3795254
v 0.1002599 0.1441677 0.4205313
v -0.01678025 0.1441677 0.4289023
v -0.1314379 0.1441677 0.4039599
v -0.2344239 0.1441677 0.3477252
v -0.3173952 0.1441677 0.264754
v -0.3736298 0.1441677 0.1617679
v -0.399572 0.1441677 0.08327759
v 0.3534547 0.1441676 0.2522714
v -0.3111751 0.06622276 -0.1580374
v -0.3111751 0.1210244 -0.1214203
v 0.293825 0.1210243 -0.1214203
v 0.293825 0.06622272 -0.1580374
v -0.3111751 0.001579895 -0.1708957
v 0.293825 0.001579818 -0.1708957
v -0.3111751 -0.06306301 -0.1580374
v 0.2938249 -0.06306305 -0.1580374
v -0.3111751 -0.1178646 -0.1214203
v 0.2938249 -0.1178646 -0.1214203
v -0.3111751 0.1439313 -0.09401947
v 0.293825 0.1439313 -0.09401947
v -0.3111751 -0.1407716 -0.09401947
v 0.2938249 -0.1407716 -0.09401947
v 0.293825 0.1210243 -0.1214203
v 0.293825 0.1439313 -0.09401947
v 0.2938249 -0.1407716 -0.09401947
v 0.2938249 -0.1178646 -0.1214203
v 0.2938249 -0.06306305 -0.1580374
v 0.293825 0.06622272 -0.1580374
v 0.293825 0.001579818 -0.1708957
v -0.3111751 0.1210244 -0.1214203
v -0.3111751 -0.1178646 -0.1214203
v -0.3111751 -0.1407716 -0.09401947
v -0.3111751 0.1439313 -0.09401947
v -0.3111751 0.06622276 -0.1580374
v -0.3111751 -0.06306301 -0.1580374
v -0.3111751 0.001579895 -0.1708957
v 0.3879654 -0.141008 0.1899246
v 0.3879654 -0.141008 0.1459326
v 0.3041357 -0.141008 0.3092069
v 0.3534547 -0.141008 0.2522714
v 0.2102008 -0.141008 0.3795257
v 0.1002599 -0.141008 0.4205313
v -0.01678027 -0.141008 0.4289023
v -0.1314379 -0.141008 0.4039599
v -0.2344239 -0.141008 0.3477255
v -0.3173953 -0.141008 0.264754
v -0.3736298 -0.141008 0.1617679
v -0.399572 -0.141008 0.0832779
v 0.2102008 0.1441677 0.3795254
v -0.1314379 0.1441677 0.4039599
v -0.01678025 0.1441677 0.4289023
v 0.1002599 0.1441677 0.4205313
v 0.3041357 0.1441677 0.3092069
v -0.2344239 0.1441677 0.3477252
v 0.3534547 0.1441676 0.2522714
v -0.3173952 0.1441677 0.264754
v -0.3111751 0.1441677 0.08598053
v 0.2938249 0.1441676 0.08598053
v 0.2938249 -0.141008 0.08598053
v -0.3111751 -0.141008 0.08598053
v 0.2938249 0.1441676 0.08598053
v 0.2938249 -0.141008 0.08598053
v -0.3111751 -0.141008 0.08598053
v -0.3111751 0.1441677 0.08598053
v -0.4284928 0.1175799 0.0832779
v -0.399572 0.1441677 0.08327759
v -0.399572 -0.141008 0.0832779
v -0.4284928 -0.1234201 0.0832779
v 0.4128249 0.1175798 0.1450244
v 0.4128249 -0.1234202 0.1450244
v 0.3879654 -0.141008 0.1459326
v 0.3879655 0.1441676 0.1459326
v -0.3111751 0.1441677 0.1559805
v 0.2938249 0.1441676 0.1559805
v 0.2938249 -0.141008 0.1559805
v -0.3111751 -0.141008 0.1559805
v 0.2938249 0.1441676 0.1559805
v 0.2938249 -0.141008 0.1559805
v -0.399572 0.1441677 0.08327759
v -0.3111751 0.1441677 0.08598053
v -0.3111751 -0.141008 0.08598053
v -0.399572 -0.141008 0.0832779
v -0.3736298 0.1441677 0.1617679
v -0.399572 0.1441677 0.08327759
v -0.399572 -0.141008 0.0832779
v -0.3736298 -0.141008 0.1617679
v 0.2938249 -0.141008 0.1559805
v 0.2938249 0.1441676 0.1559805
v 0.3879655 0.1441676 0.1459326
v 0.3879655 0.1441676 0.1899246
v 0.3534547 -0.141008 0.2522714
v 0.3879654 -0.141008 0.1459326
v 0.3879654 -0.141008 0.1899246
v -0.3173953 -0.141008 0.264754
v 0.3041357 -0.141008 0.3092069
v -0.2344239 -0.141008 0.3477255
v 0.2102008 -0.141008 0.3795257
v -0.1314379 -0.141008 0.4039599
v 0.1002599 -0.141008 0.4205313
v -0.01678027 -0.141008 0.4289023
vt 0.1394719 0.1073243
vt 0.1358371 0.1077393
vt 0.1356782 0.125713
vt 0.1139353 0.1071591
vt 0.1138237 0.1254713
vt 0.1234936 0.1257543
vt 0.1043031 0.1253097
vt 0.1138237 0.1254713
vt 0.1139353 0.1071591
vt 0.09478181 0.1252289
vt 0.1043031 0.1253097
vt 0.104284 0.1070154
vt 0.08488363 0.1068599
vt 0.08512294 0.1252339
vt 0.09478181 0.1252289
vt 0.07507759 0.1068659
vt 0.07542222 0.1252729
vt 0.08512294 0.1252339
vt 0.06568026 0.1253949
vt 0.07542222 0.1252729
vt 0.07507759 0.1068659
vt 0.05535203 0.1067003
vt 0.0557447 0.1258429
vt 0.06568026 0.1253949
vt 0.04888725 0.1262967
vt 0.0557447 0.1258429
vt 0.05535203 0.1067003
vt 0.1237424 0.1072835
vt 0.1234936 0.1257543
vt 0.1299808 0.125823
vt 0.1358371 0.1077393
vt 0.1302458 0.1074658
vt 0.1299808 0.125823
vt 0.1394719 0.1073243
vt 0.1389922 0.1043792
vt 0.1354206 0.1048698
vt 0.1232261 0.1045568
vt 0.1136428 0.104532
vt 0.1139353 0.1071591
vt 0.1136428 0.104532
vt 0.1042103 0.104491
vt 0.104284 0.1070154
vt 0.104284 0.1070154
vt 0.1042103 0.104491
vt 0.0947926 0.1043366
vt 0.09464281 0.1069223
vt 0.0947926 0.1043366
vt 0.08523386 0.1042123
vt 0.08488363 0.1068599
vt 0.08523386 0.1042123
vt 0.07560706 0.104135
vt 0.07507759 0.1068659
vt 0.07560706 0.104135
vt 0.06595647 0.1040493
vt 0.06525158 0.106882
vt 0.06595647 0.1040493
vt 0.05633431 0.1037534
vt 0.05535203 0.1067003
vt 0.05633431 0.1037534
vt 0.04950642 0.1033502
vt 0.1294918 0.1046592
vt 0.1232261 0.1045568
vt 0.1237424 0.1072835
vt 0.1354206 0.1048698
vt 0.1294918 0.1046592
vt 0.1302458 0.1074658
vt 0.05548739 0.18798
vt 0.05548739 0.1931163
vt 0.1026341 0.1931156
vt 0.05548733 0.1828438
vt 0.05548739 0.18798
vt 0.102634 0.1879795
vt 0.05548733 0.1777075
vt 0.05548733 0.1828438
vt 0.1026339 0.1828433
vt 0.05548733 0.1725714
vt 0.05548733 0.1777075
vt 0.1026338 0.1777071
vt 0.05548739 0.1931163
vt 0.05548739 0.1958995
vt 0.1026343 0.1958988
vt 0.05548739 0.1697882
vt 0.05548733 0.1725714
vt 0.1026338 0.1725709
vt 0.1304399 0.2327912
vt 0.1322243 0.2306552
vt 0.1100379 0.2306629
vt 0.1304399 0.2327912
vt 0.1118237 0.2327976
vt 0.1160953 0.2356496
vt 0.1261703 0.2356461
vt 0.1160953 0.2356496
vt 0.1211332 0.2366499
vt 0.1118162 0.1949692
vt 0.1100311 0.1971044
vt 0.1322175 0.1971044
vt 0.1304325 0.1949692
vt 0.1261619 0.1921157
vt 0.1160869 0.1921157
vt 0.1261619 0.1921157
vt 0.1211243 0.1911136
vt 0.1160869 0.1921157
vt 0.1394719 0.1262795
vt 0.1356782 0.125713
vt 0.1351795 0.1281722
vt 0.1234936 0.1257543
vt 0.1228737 0.1279063
vt 0.1291052 0.1281035
vt 0.1299808 0.125823
vt 0.1291052 0.1281035
vt 0.1351795 0.1281722
vt 0.1138237 0.1254713
vt 0.1134527 0.1275197
vt 0.1228737 0.1279063
vt 0.1043031 0.1253097
vt 0.1041752 0.1272665
vt 0.1134527 0.1275197
vt 0.1043031 0.1253097
vt 0.09478181 0.1252289
vt 0.09489852 0.1272477
vt 0.09478181 0.1252289
vt 0.08512294 0.1252339
vt 0.08546662 0.1273175
vt 0.08512294 0.1252339
vt 0.07542222 0.1252729
vt 0.07597094 0.1274503
vt 0.07542222 0.1252729
vt 0.06568026 0.1253949
vt 0.06643092 0.1277034
vt 0.06568026 0.1253949
vt 0.0557447 0.1258429
vt 0.05680626 0.128299
vt 0.0557447 0.1258429
vt 0.04888725 0.1262967
vt 0.04990297 0.1289964
vt 0.09611827 0.2328017
vt 0.06949472 0.2347064
vt 0.07842999 0.2366499
vt 0.09611827 0.2328017
vt 0.1034384 0.2273217
vt 0.06146901 0.2303241
vt 0.1072818 0.2228846
vt 0.05500304 0.2238585
vt 0.06146901 0.2303241
vt 0.1026343 0.1958988
vt 0.05548739 0.1958995
vt 0.05548751 0.2099267
vt 0.05548739 0.1697882
vt 0.1026337 0.1697878
vt 0.1026335 0.1557609
vt 0.1322379 0.2166282
vt 0.1100146 0.2166358
vt 0.1100379 0.2306629
vt 0.1322175 0.1971044
vt 0.1100311 0.1971044
vt 0.1100127 0.2111316
vt 0.130164 0.1747804
vt 0.132236 0.1725266
vt 0.1100127 0.1725266
vt 0.130164 0.1817555
vt 0.1113833 0.1817555
vt 0.1100127 0.1836941
vt 0.1026345 0.2099259
vt 0.05548751 0.2099267
vt 0.05548763 0.2153818
vt 0.05548733 0.1557612
vt 0.1026335 0.1557609
vt 0.1026335 0.150306
vt 0.1100146 0.2166358
vt 0.1322379 0.2166282
vt 0.132236 0.2111732
vt 0.132236 0.1817139
vt 0.132236 0.174822
vt 0.1100127 0.174822
vt 0.05062055 0.2158329
vt 0.05548763 0.2153818
vt 0.05548751 0.2099267
vt 0.05548733 0.1557612
vt 0.05548727 0.1503062
vt 0.05062031 0.1498552
vt 0.05500304 0.2238585
vt 0.05548763 0.2153818
vt 0.05062055 0.2158329
vt 0.05500304 0.2238585
vt 0.1072818 0.2228846
vt 0.1026347 0.2153809
vt 0.1100127 0.1836941
vt 0.1100127 0.191072
vt 0.132236 0.191072
vt 0.1026347 0.2153809
vt 0.1072818 0.2228846
vt 0.1099711 0.218026
vt 0.1026335 0.150306
vt 0.1099696 0.151089
vt 0.1099696 0.1476608
vt 0.05062031 0.1498552
vt 0.05548727 0.1503062
vt 0.05500257 0.1418297
vt 0.05500257 0.1418297
vt 0.05548727 0.1503062
vt 0.1026335 0.150306
vt 0.1072803 0.1428023
vt 0.103437 0.1383655
vt 0.0614683 0.1353639
vt 0.0614683 0.1353639
vt 0.103437 0.1383655
vt 0.09611678 0.1328857
vt 0.09611678 0.1328857
vt 0.08754932 0.1296903
vt 0.07842874 0.129038
vt 0.1394719 0.1262795
vt 0.1394719 0.1073243
vt 0.1356782 0.125713
vt 0.1237424 0.1072835
vt 0.1139353 0.1071591
vt 0.1234936 0.1257543
vt 0.104284 0.1070154
vt 0.1043031 0.1253097
vt 0.1139353 0.1071591
vt 0.09464281 0.1069223
vt 0.09478181 0.1252289
vt 0.104284 0.1070154
vt 0.09464281 0.1069223
vt 0.08488363 0.1068599
vt 0.09478181 0.1252289
vt 0.08488363 0.1068599
vt 0.07507759 0.1068659
vt 0.08512294 0.1252339
vt 0.06525158 0.106882
vt 0.06568026 0.1253949
vt 0.07507759 0.1068659
vt 0.06525158 0.106882
vt 0.05535203 0.1067003
vt 0.06568026 0.1253949
vt 0.0485987 0.1065042
vt 0.04888725 0.1262967
vt 0.05535203 0.1067003
vt 0.1302458 0.1074658
vt 0.1237424 0.1072835
vt 0.1299808 0.125823
vt 0.1356782 0.125713
vt 0.1358371 0.1077393
vt 0.1299808 0.125823
vt 0.1358371 0.1077393
vt 0.1394719 0.1073243
vt 0.1354206 0.1048698
vt 0.1237424 0.1072835
vt 0.1232261 0.1045568
vt 0.1139353 0.1071591
vt 0.1139353 0.1071591
vt 0.1136428 0.104532
vt 0.104284 0.1070154
vt 0.09464281 0.1069223
vt 0.104284 0.1070154
vt 0.0947926 0.1043366
vt 0.08488363 0.1068599
vt 0.09464281 0.1069223
vt 0.08523386 0.1042123
vt 0.07507759 0.1068659
vt 0.08488363 0.1068599
vt 0.07560706 0.104135
vt 0.06525158 0.106882
vt 0.07507759 0.1068659
vt 0.06595647 0.1040493
vt 0.05535203 0.1067003
vt 0.06525158 0.106882
vt 0.05633431 0.1037534
vt 0.0485987 0.1065042
vt 0.05535203 0.1067003
vt 0.04950642 0.1033502
vt 0.1302458 0.1074658
vt 0.1294918 0.1046592
vt 0.1237424 0.1072835
vt 0.1358371 0.1077393
vt 0.1354206 0.1048698
vt 0.1302458 0.1074658
vt 0.102634 0.1879795
vt 0.05548739 0.18798
vt 0.1026341 0.1931156
vt 0.1026339 0.1828433
vt 0.05548733 0.1828438
vt 0.102634 0.1879795
vt 0.1026338 0.1777071
vt 0.05548733 0.1777075
vt 0.1026339 0.1828433
vt 0.1026338 0.1725709
vt 0.05548733 0.1725714
vt 0.1026338 0.1777071
vt 0.1026341 0.1931156
vt 0.05548739 0.1931163
vt 0.1026343 0.1958988
vt 0.1026337 0.1697878
vt 0.05548739 0.1697882
vt 0.1026338 0.1725709
vt 0.1118237 0.2327976
vt 0.1304399 0.2327912
vt 0.1100379 0.2306629
vt 0.1261703 0.2356461
vt 0.1304399 0.2327912
vt 0.1160953 0.2356496
vt 0.1304325 0.1949692
vt 0.1118162 0.1949692
vt 0.1322175 0.1971044
vt 0.1118162 0.1949692
vt 0.1304325 0.1949692
vt 0.1160869 0.1921157
vt 0.1389216 0.1288557
vt 0.1394719 0.1262795
vt 0.1351795 0.1281722
vt 0.1299808 0.125823
vt 0.1234936 0.1257543
vt 0.1291052 0.1281035
vt 0.1356782 0.125713
vt 0.1299808 0.125823
vt 0.1351795 0.1281722
vt 0.1234936 0.1257543
vt 0.1138237 0.1254713
vt 0.1228737 0.1279063
vt 0.1138237 0.1254713
vt 0.1043031 0.1253097
vt 0.1134527 0.1275197
vt 0.1041752 0.1272665
vt 0.1043031 0.1253097
vt 0.09489852 0.1272477
vt 0.09489852 0.1272477
vt 0.09478181 0.1252289
vt 0.08546662 0.1273175
vt 0.08546662 0.1273175
vt 0.08512294 0.1252339
vt 0.07597094 0.1274503
vt 0.07597094 0.1274503
vt 0.07542222 0.1252729
vt 0.06643092 0.1277034
vt 0.06643092 0.1277034
vt 0.06568026 0.1253949
vt 0.05680626 0.128299
vt 0.05680626 0.128299
vt 0.0557447 0.1258429
vt 0.04990297 0.1289964
vt 0.08755081 0.2359974
vt 0.09611827 0.2328017
vt 0.07842999 0.2366499
vt 0.06949472 0.2347064
vt 0.09611827 0.2328017
vt 0.06146901 0.2303241
vt 0.1034384 0.2273217
vt 0.1072818 0.2228846
vt 0.06146901 0.2303241
vt 0.1026345 0.2099259
vt 0.1026343 0.1958988
vt 0.05548751 0.2099267
vt 0.05548733 0.1557612
vt 0.05548739 0.1697882
vt 0.1026335 0.1557609
vt 0.1322243 0.2306552
vt 0.1322379 0.2166282
vt 0.1100379 0.2306629
vt 0.132236 0.2111316
vt 0.1322175 0.1971044
vt 0.1100127 0.2111316
vt 0.1113833 0.1747804
vt 0.130164 0.1747804
vt 0.1100127 0.1725266
vt 0.132236 0.1836941
vt 0.130164 0.1817555
vt 0.1100127 0.1836941
vt 0.1026347 0.2153809
vt 0.1026345 0.2099259
vt 0.05548763 0.2153818
vt 0.05548727 0.1503062
vt 0.05548733 0.1557612
vt 0.1026335 0.150306
vt 0.1100127 0.2111809
vt 0.1100146 0.2166358
vt 0.132236 0.2111732
vt 0.1100127 0.1817139
vt 0.132236 0.1817139
vt 0.1100127 0.174822
vt 0.0485987 0.2097163
vt 0.05062055 0.2158329
vt 0.05548751 0.2099267
vt 0.0485987 0.1559718
vt 0.05548733 0.1557612
vt 0.05062031 0.1498552
vt 0.05548763 0.2153818
vt 0.05500304 0.2238585
vt 0.1026347 0.2153809
vt 0.132236 0.1836941
vt 0.1100127 0.1836941
vt 0.132236 0.191072
vt 0.109971 0.2145977
vt 0.1026347 0.2153809
vt 0.1099711 0.218026
vt 0.1072803 0.1428023
vt 0.1026335 0.150306
vt 0.1099696 0.1476608
vt 0.1072803 0.1428023
vt 0.05500257 0.1418297
vt 0.1026335 0.150306
vt 0.05500257 0.1418297
vt 0.1072803 0.1428023
vt 0.0614683 0.1353639
vt 0.06949377 0.1309817
vt 0.0614683 0.1353639
vt 0.09611678 0.1328857
vt 0.06949377 0.1309817
vt 0.09611678 0.1328857
vt 0.07842874 0.129038
usemtl RanklePitchUV
f 1/1 2/2 3/3
f 5/4 6/5 7/6
f 10/7 6/8 5/9
f 12/10 10/11 9/12
f 13/13 14/14 12/15
f 15/16 16/17 14/18
f 18/19 16/20 15/21
f 19/22 20/23 18/24
f 22/25 20/26 19/27
f 8/28 7/29 23/30
f 2/31 24/32 23/33
f 1/34 25/35 26/36
f 27/37 28/38 5/39
f 28/40 29/41 9/42
f 9/43 29/44 30/45
f 11/46 30/47 31/48
f 13/49 31/50 32/51
f 15/52 32/53 33/54
f 17/55 33/56 34/57
f 19/58 34/59 35/60
f 36/61 27/62 8/63
f 26/64 36/65 24/66
f 37/67 38/68 39/69
f 41/70 37/71 40/72
f 43/73 41/74 42/75
f 45/76 43/77 44/78
f 38/79 47/80 48/81
f 49/82 45/83 46/84
f 51/85 52/86 53/87
f 51/88 54/89 55/90
f 56/91 55/92 57/93
f 59/94 60/95 61/96
f 58/97 62/98 63/99
f 62/100 64/101 63/102
f 4/103 3/104 65/105
f 7/106 67/107 68/108
f 23/109 68/110 65/111
f 6/112 69/113 67/114
f 10/115 70/116 69/117
f 10/118 12/119 71/120
f 12/121 14/122 72/123
f 14/124 16/125 73/126
f 16/127 18/128 74/129
f 18/130 20/131 75/132
f 20/133 22/134 76/135
f 77/136 78/137 79/138
f 77/139 81/140 82/141
f 83/142 84/143 82/144
f 48/145 47/146 85/147
f 49/148 50/149 87/150
f 89/151 90/152 53/153
f 61/154 60/155 91/156
f 93/157 94/158 95/159
f 97/160 98/161 99/162
f 86/163 85/164 101/165
f 88/166 87/167 103/168
f 90/169 89/170 105/171
f 107/172 108/173 109/174
f 111/175 101/176 85/177
f 88/178 104/179 114/180
f 84/181 101/182 111/183
f 84/184 83/185 102/186
f 99/187 115/188 116/189
f 102/190 83/191 118/192
f 103/193 120/194 121/195
f 114/196 104/197 122/198
f 122/199 104/200 103/201
f 119/202 123/203 124/204
f 124/205 123/206 125/207
f 125/208 127/209 128/210
f 4/211 1/212 3/213
f 8/214 5/215 7/216
f 9/217 10/218 5/219
f 11/220 12/221 9/222
f 11/223 13/224 12/225
f 13/226 15/227 14/228
f 17/229 18/230 15/231
f 17/232 19/233 18/234
f 21/235 22/236 19/237
f 24/238 8/239 23/240
f 3/241 2/242 23/243
f 2/244 1/245 26/246
f 8/247 27/248 5/249
f 5/250 28/251 9/252
f 11/253 9/254 30/255
f 13/256 11/257 31/258
f 15/259 13/260 32/261
f 17/262 15/263 33/264
f 19/265 17/266 34/267
f 21/268 19/269 35/270
f 24/271 36/272 8/273
f 2/274 26/275 24/276
f 40/277 37/278 39/279
f 42/280 41/281 40/282
f 44/283 43/284 42/285
f 46/286 45/287 44/288
f 39/289 38/290 48/291
f 50/292 49/293 46/294
f 54/295 51/296 53/297
f 56/298 51/299 55/300
f 58/301 59/302 61/303
f 59/304 58/305 63/306
f 66/307 4/308 65/309
f 23/310 7/311 68/312
f 3/313 23/314 65/315
f 7/316 6/317 67/318
f 6/319 10/320 69/321
f 70/322 10/323 71/324
f 71/325 12/326 72/327
f 72/328 14/329 73/330
f 73/331 16/332 74/333
f 74/334 18/335 75/336
f 75/337 20/338 76/339
f 80/340 77/341 79/342
f 78/343 77/344 82/345
f 81/346 83/347 82/348
f 86/349 48/350 85/351
f 88/352 49/353 87/354
f 52/355 89/356 53/357
f 92/358 61/359 91/360
f 96/361 93/362 95/363
f 100/364 97/365 99/366
f 102/367 86/368 101/369
f 104/370 88/371 103/372
f 106/373 90/374 105/375
f 110/376 107/377 109/378
f 112/379 111/380 85/381
f 113/382 88/383 114/384
f 101/385 84/386 102/387
f 100/388 99/389 116/390
f 117/391 102/392 118/393
f 119/394 103/395 121/396
f 119/397 122/398 103/399
f 122/400 119/401 124/402
f 126/403 124/404 125/405
f 126/406 125/407 128/408
