mtllib LElbowRoll.mtl
o LElbowRoll
usemtl nao_texture
v 0.5636427 0.1824864 0.1059991
v 0.5636427 0.1487956 0.1499058
v 0.3992892 0.154837 0.155947
v 0.3992892 0.1898854 0.1102709
v 0.5636427 -0.1847078 0.1059991
v 0.399221 -0.1951153 0.109316
v 0.3992892 -0.1570583 0.155947
v 0.5636427 -0.1510171 0.1499057
v 0.5636427 0.2036653 0.05486875
v 0.3992892 0.2119178 0.05708
v 0.5636427 -0.2058867 0.05486873
v 0.3993227 -0.2126965 0.05687227
v 0.5636427 0.2108891 -9.1e-07
v 0.3992892 0.2194328 -9.1e-07
v 0.5636427 -0.2131104 -9.3e-07
v 0.399382 -0.2160703 0.00119719
v 0.5636427 0.2036653 -0.05487056
v 0.3992892 0.2119179 -0.05708182
v 0.5636427 -0.2058867 -0.05487058
v 0.3992892 -0.2141392 -0.05708184
v 0.5636427 0.1824865 -0.1060009
v 0.3992892 0.1898855 -0.1102727
v 0.5636427 -0.1847079 -0.1060009
v 0.399382 -0.187351 -0.1064536
v 0.5636427 0.1487957 -0.1499075
v 0.3992892 0.154837 -0.1559488
v 0.5636427 -0.151017 -0.1499075
v 0.3990993 -0.1607793 -0.1395726
v 0.5636427 0.1048891 -0.1835984
v 0.3993227 0.1102312 -0.1789341
v 0.5636427 -0.1071104 -0.1835984
v 0.399221 -0.1105481 -0.1732717
v 0.5636427 0.0537587 -0.2047772
v 0.3993227 0.05640915 -0.1983057
v 0.5636427 -0.05598007 -0.2047772
v 0.3993227 -0.0577642 -0.1994977
v 0.5636427 -0.001110684 -0.212001
v 0.399382 -0.0006774866 -0.2072463
v 0.5636427 0.05375847 0.2047755
v 0.5636427 -0.001110684 0.2119991
v 0.399382 -0.0007151758 0.2156844
v 0.399382 0.05744721 0.2052536
v 0.5636427 -0.05597984 0.2047755
v 0.399221 -0.05780181 0.2159825
v 0.5636427 0.1048888 0.1835967
v 0.399382 0.1101559 0.1823059
v 0.5636427 -0.1071102 0.1835967
v 0.399221 -0.1105857 0.1936307
v 0.3058136 0.1639304 0.1599144
v 0.3054126 0.1989484 0.115759
v 0.3056673 -0.2019424 0.1166972
v 0.3056673 -0.1650117 0.1648264
v 0.3043563 0.2224089 0.06032616
v 0.3125519 -0.215632 0.06464068
v 0.3049262 0.2295056 0.0003516495
v 0.3154051 -0.2181528 0.00649392
v 0.3045267 0.2180567 -0.05994658
v 0.3175684 -0.2095069 -0.0528035
v 0.3047898 0.1904521 -0.1153659
v 0.3181949 -0.1892566 -0.1079878
v 0.3063353 0.1573878 -0.1511508
v 0.3132663 -0.1563036 -0.1438451
v 0.3074915 0.1074385 -0.1854438
v 0.3113823 -0.1052314 -0.1808559
v 0.307954 0.05758454 -0.2027618
v 0.3051982 -0.06042007 -0.2006826
v 0.3052602 0.0003024321 -0.2095116
v 0.3075487 0.001258548 0.2322548
v 0.3064142 0.05996094 0.2188689
v 0.3061447 -0.060456 0.2316851
v 0.3062967 0.1155436 0.195515
v 0.3063291 -0.1160387 0.2074768
v 0.2258591 0.1779176 0.1724711
v 0.2254132 0.2171128 0.1251847
v 0.2309207 -0.2020508 0.1235758
v 0.2254132 -0.1767537 0.1770383
v 0.2249704 0.240365 0.06476618
v 0.2518233 -0.2151678 0.07287214
v 0.2243572 0.2475243 -0.0001271295
v 0.2673026 -0.2179279 0.00997081
v 0.2238302 0.2345744 -0.06534084
v 0.2684606 -0.2052937 -0.05380183
v 0.2251016 0.2038155 -0.11904
v 0.2418608 -0.1763278 -0.1114755
v 0.2246903 0.170886 -0.1537142
v 0.2251119 -0.1552049 -0.1468894
v 0.2246706 0.1259676 -0.1853466
v 0.2252983 -0.1083554 -0.1929034
v 0.2252625 0.06581589 -0.2106786
v 0.2251328 -0.06311195 -0.2121802
v 0.2256212 0.001503528 -0.2245194
v 0.2263744 0.001501163 0.2543064
v 0.2264621 0.06594696 0.2385604
v 0.2258092 -0.06422561 0.2528163
v 0.2262075 0.1262093 0.2079359
v 0.2263043 -0.1243664 0.2242061
v 0.1354679 0.1872964 0.1838696
v 0.1354679 0.2286203 0.1300151
v 0.1354679 0.2545977 0.06730035
v 0.1349426 0.261848 5.376994e-05
v 0.1340623 0.2455584 -0.06718558
v 0.1353611 0.2151709 -0.1193405
v 0.1352583 0.1775787 -0.1551208
v 0.1351885 0.1335799 -0.1838565
v 0.1985751 -0.1279066 -0.1802913
v 0.2141464 -0.1503992 -0.1497894
v 0.1346213 0.07085816 -0.215756
v 0.1801197 -0.06534126 -0.2208224
v 0.1510963 0.002977527 -0.2306572
v 0.1356208 0.00380524 0.2737271
v 0.1362463 0.07126008 0.2564418
v 0.1358595 -0.0636798 0.2698036
v 0.1359998 0.1336674 0.2255192
v 0.1355525 -0.1258742 0.2383342
v 0.1364645 -0.1545818 0.2130708
v 0.07551667 0.1927453 0.1865266
v 0.07551667 0.2346664 0.1318939
v 0.07551667 0.2610191 0.06827288
v 0.07510018 0.2691842 -0.0008175396
v 0.07385324 0.2493398 -0.06792005
v 0.07427423 0.2199165 -0.1162082
v 0.0730343 0.1823252 -0.1547518
v 0.06427369 0.1379279 -0.1838675
v 0.1068983 0.07362107 -0.2145639
v 0.07560082 0.006766285 0.2832147
v 0.07580903 0.07545731 0.2636662
v 0.07668832 -0.06118095 0.2769562
v 0.07587396 0.1389981 0.2317777
v 0.07334504 -0.1150983 0.2547662
v 0.0598211 -0.1260973 0.2422492
v -0.004483326 0.1916062 0.1853875
v -0.004483326 0.2332713 0.1310884
v -0.004483326 0.2594631 0.06785594
v -0.005196292 0.266998 -8.82399e-05
v -0.006421421 0.2474093 -0.0682777
v -0.005447452 0.234091 -0.09088129
v 0.0275477 0.1912598 -0.1439324
v -0.008958194 0.006788792 0.2762517
v -0.003904636 0.07501 0.261878
v 0.01942155 -0.05851394 0.2720794
v -0.004483326 0.137307 0.2270527
v 0.04486398 -0.1124352 0.2517859
v -0.07444068 0.1840672 0.1754054
v -0.07444068 0.2234888 0.12403
v -0.06756659 0.2480303 0.06420226
v -0.05870261 0.2565025 -0.002157
v -0.02631308 0.2480018 -0.06399673
v -0.03957869 0.07216965 0.2592644
v -0.06662116 0.1329388 0.2249918
v -0.08557579 0.1875279 0.1748099
v -0.09338798 0.2220438 0.1220106
v -0.08373023 0.2459403 0.06305656
v 0.001247036 -0.1085849 -0.1054874
v 0.001247036 -0.1085849 -0.1337628
v -0.07708518 -0.07772911 -0.1337628
v -0.07708518 -0.07772911 -0.1054874
v 0.07845468 -0.07501419 -0.1054874
v 0.07845468 -0.07501419 -0.1337628
v 0.1093105 0.003318103 -0.1054874
v 0.1093105 0.003318103 -0.1337628
v 0.0757396 0.08052567 -0.1054874
v 0.0757396 0.08052567 -0.1337628
v -0.002592533 0.1113815 -0.1054874
v -0.002592533 0.1113815 -0.1337628
v -0.07980018 0.07781067 -0.1054874
v -0.07980018 0.07781067 -0.1337628
v -0.110656 -0.0005214655 -0.1054874
v -0.110656 -0.0005214655 -0.1337628
v -0.05006949 -0.1240028 -0.1337628
v -0.07708518 -0.07772911 -0.1337628
v 0.001247036 -0.1085849 -0.1337628
v -0.09538253 -0.09667656 -0.1337628
v 0.001706783 -0.134921 -0.1337628
v 0.05307046 -0.1222026 -0.1337628
v 0.07845468 -0.07501419 -0.1337628
v 0.09740213 -0.09331162 -0.1337628
v 0.1247285 -0.04799858 -0.1337628
v 0.1093105 0.003318103 -0.1337628
v 0.1356466 0.003777774 -0.1337628
v 0.1229281 0.05514153 -0.1337628
v 0.0757396 0.08052567 -0.1337628
v 0.09403696 0.09947319 -0.1337628
v 0.04872399 0.1267995 -0.1337628
v -0.002592533 0.1113815 -0.1337628
v -0.00305228 0.1377177 -0.1337628
v -0.05441596 0.1249992 -0.1337628
v -0.07980018 0.07781067 -0.1337628
v -0.09874771 0.09610802 -0.1337628
v -0.126074 0.05079514 -0.1337628
v -0.110656 -0.0005214655 -0.1337628
v -0.1369921 -0.0009811365 -0.1337628
v -0.1242736 -0.05234489 -0.1337628
v -0.05006949 -0.1240028 -0.1337628
v -0.04121451 -0.1015231 -0.1537628
v -0.07840461 -0.07909538 -0.1537628
v -0.09538253 -0.09667656 -0.1337628
v 0.001706783 -0.134921 -0.1337628
v 0.001280224 -0.110484 -0.1537628
v 0.05307046 -0.1222026 -0.1337628
v 0.04343636 -0.1000455 -0.1537628
v 0.09740213 -0.09331162 -0.1337628
v 0.07982095 -0.07633361 -0.1537628
v -0.09874771 0.09610802 -0.1337628
v -0.08116645 0.0791301 -0.1537628
v -0.04478187 0.1028421 -0.1537628
v -0.05441596 0.1249992 -0.1337628
v -0.002625721 0.1132807 -0.1537628
v -0.00305228 0.1377177 -0.1337628
v -0.126074 0.05079514 -0.1337628
v -0.1035941 0.04194016 -0.1537628
v -0.1369921 -0.0009811365 -0.1337628
v -0.1125551 -0.0005545771 -0.1537628
v -0.1242736 -0.05234489 -0.1337628
v -0.1021166 -0.04271072 -0.1537628
v -0.02790465 -0.06773384 -0.1737628
v -0.05288512 -0.05266921 -0.1737628
v 0.00063905 -0.07375289 -0.1737628
v 0.02895517 -0.0667414 -0.1737628
v -0.05474029 0.05361069 -0.1737628
v -0.03030074 0.06953797 -0.1737628
v -0.001984546 0.07654953 -0.1737628
v -0.06980491 0.02863022 -0.1737628
v -0.07582404 8.652031e-05 -0.1737628
v -0.06881247 -0.02822967 -0.1737628
v -0.01012206 -0.02258995 -0.1856207
v -0.01879004 -0.01736267 -0.1856207
v -0.0002175784 -0.02467849 -0.1856207
v 0.009607861 -0.02224556 -0.1856207
v -0.01943381 0.01951554 -0.1856207
v -0.01095343 0.02504219 -0.1856207
v -0.001127994 0.02747513 -0.1856207
v -0.02466109 0.01084755 -0.1856207
v -0.02674964 0.0009431487 -0.1856207
v -0.02431662 -0.008882367 -0.1856207
v 0.02895532 -0.0667414 0.1671492
v 0.0006391263 -0.07375297 0.1671492
v -0.0002175021 -0.02467857 0.1790071
v 0.009607937 -0.02224563 0.1790071
v -0.02790457 -0.06773391 0.1671492
v -0.01012198 -0.02259002 0.1790071
v -0.05288505 -0.05266921 0.1671492
v -0.01878989 -0.01736267 0.1790071
v -0.06881232 -0.02822967 0.1671492
v -0.02431655 -0.008882367 0.1790071
v -0.07582396 8.652031e-05 0.1671492
v -0.02674948 0.0009431487 0.1790071
v -0.06980491 0.02863022 0.1671492
v -0.05474021 0.05361069 0.1671492
v -0.01943366 0.01951554 0.1790071
v -0.02466101 0.01084755 0.1790071
v -0.03030066 0.06953797 0.1671492
v -0.01095336 0.02504219 0.1790071
v 0.04343636 -0.1000455 0.1471492
v 0.0012803 -0.1104841 0.1471492
v -0.04121451 -0.1015231 0.1471492
v -0.07840445 -0.07909545 0.1471492
v -0.1021165 -0.0427108 0.1471492
v -0.1125551 -0.0005546534 0.1471492
v -0.1035941 0.04194016 0.1471492
v -0.08116645 0.07913025 0.1471492
v -0.04478179 0.1028422 0.1471492
v 0.05307054 -0.1222026 0.1271492
v 0.001706783 -0.1349211 0.1271492
v 0.09740228 -0.09331147 0.1271492
v 0.07982102 -0.07633354 0.1471492
v -0.05006949 -0.1240029 0.1271492
v -0.09538246 -0.09667664 0.1271492
v -0.1242736 -0.05234489 0.1271492
v -0.1369921 -0.0009812128 0.1271492
v -0.126074 0.05079514 0.1271492
v -0.09874763 0.09610817 0.1271492
v -0.05441596 0.1249992 0.1271492
v 0.1229281 0.05514145 0.1271492
v 0.1093105 0.003318027 0.1271492
v 0.1356468 0.003777698 0.1271492
v 0.09403711 0.09947319 0.1271492
v 0.07573968 0.08052567 0.1271492
v 0.1247285 -0.04799858 0.1271492
v 0.09740228 -0.09331147 0.1271492
v 0.07845468 -0.07501411 0.1271492
v 0.05307054 -0.1222026 0.1271492
v 0.001706783 -0.1349211 0.1271492
v 0.001247036 -0.108585 0.1271492
v -0.05006949 -0.1240029 0.1271492
v -0.07708503 -0.07772911 0.1271492
v -0.09538246 -0.09667664 0.1271492
v -0.1242736 -0.05234489 0.1271492
v -0.1369921 -0.0009812128 0.1271492
v -0.110656 -0.0005214655 0.1271492
v -0.126074 0.05079514 0.1271492
v -0.09874763 0.09610817 0.1271492
v -0.0798001 0.07781075 0.1271492
v -0.05441596 0.1249992 0.1271492
v -0.00305228 0.1377176 0.1271492
v -0.002592533 0.1113815 0.1271492
v 0.04872399 0.1267995 0.1271492
v 0.1093105 0.003318027 0.09887386
v 0.1093105 0.003318027 0.1271492
v 0.07573968 0.08052567 0.1271492
v 0.07573968 0.08052567 0.09887386
v 0.07845468 -0.07501411 0.09887385
v 0.07845468 -0.07501411 0.1271492
v 0.001247036 -0.108585 0.09887385
v 0.001247036 -0.108585 0.1271492
v -0.07708503 -0.07772911 0.09887385
v -0.07708503 -0.07772911 0.1271492
v -0.110656 -0.0005214655 0.09887385
v -0.110656 -0.0005214655 0.1271492
v -0.0798001 0.07781075 0.09887386
v -0.0798001 0.07781075 0.1271492
v -0.002592533 0.1113815 0.09887386
v -0.002592533 0.1113815 0.1271492
v 0.2178462 -0.1915487 0.1187165
v 0.2377036 -0.2040099 0.07054804
v 0.2476975 -0.2043589 0.07054804
v 0.2278401 -0.1918977 0.1187165
v 0.2524089 -0.2066319 0.01079178
v 0.2624028 -0.206981 0.01079178
v 0.2535089 -0.1946296 -0.04979225
v 0.2635028 -0.1949786 -0.04979225
v 0.2282392 -0.1671119 -0.1045822
v 0.2382331 -0.1674609 -0.1045822
v 0.2019105 -0.1424798 -0.1409805
v 0.1871179 -0.1211118 -0.1699572
v 0.1971118 -0.1214608 -0.1699572
v 0.2119044 -0.1428287 -0.1409805
v 0.1695851 -0.06167472 -0.2084618
v 0.179579 -0.06202369 -0.2084618
v 0.1420129 0.003228152 -0.2178049
v 0.1520068 0.002879184 -0.2178049
v 0.05530145 -0.119393 0.2314562
v 0.1281126 -0.1464532 0.2037368
v 0.1381065 -0.1468022 0.2037368
v 0.06529534 -0.119742 0.2314562
v 0.1000248 0.07033951 -0.2025163
v 0.05953141 0.131431 -0.1733547
v 0.06952531 0.131082 -0.1733547
v 0.1100187 0.06999054 -0.2025163
v 0.02464174 0.1820963 -0.1354163
v -0.006703708 0.222786 -0.08501773
v 0.003290265 0.2224369 -0.08501773
v 0.03463563 0.1817473 -0.1354163
v -0.0100389 0.006848835 0.2637587
v 0.01692193 -0.05518875 0.2597949
v 0.02691583 -0.05553771 0.2597949
v -4.50015e-05 0.00649979 0.2637587
v 0.04109223 -0.106414 0.2405162
v 0.05108621 -0.1067629 0.2405162
v -0.02652594 0.2360012 -0.05947739
v -0.05729606 0.2440769 -0.0007296496
v -0.04730216 0.2437278 -0.0007296496
v -0.01653205 0.2356522 -0.05947739
v -0.06481864 0.1266914 0.2150617
v -0.03912833 0.06896073 0.2476207
v -0.02913443 0.06861168 0.2476207
v -0.05482474 0.1263424 0.2150617
v -0.09024711 0.2113411 0.1172296
v -0.08282562 0.178551 0.1673889
v -0.07283164 0.178202 0.1673889
v -0.08025321 0.2109921 0.1172296
v -0.08107231 0.2340428 0.06122325
v -0.07107833 0.2336939 0.06122325
v 0.05661286 0.2269006 -0.08501773
v 0.08276575 0.1826942 -0.1354163
v 0.008992245 0.2541985 -0.0007296496
v 0.03854882 0.2424331 -0.05947739
v -0.02433257 0.1922723 0.1673889
v -0.0277027 0.2257224 0.1172296
v -0.01582953 0.2471368 0.06122325
v 0.1112209 0.1281545 -0.1733547
v -0.01277999 0.1386047 0.2150617
v 0.09781496 0.230443 -0.08501773
v 0.1084889 0.1867772 -0.1354163
v 0.07734109 0.2567929 -0.0007296496
v 0.09014963 0.2456124 -0.05947739
v 0.06143212 0.1942586 0.1673889
v 0.06059838 0.2276202 0.1172296
v 0.0662539 0.2492517 0.06122325
v 0.1197787 0.127561 -0.1721948
v 0.06548089 0.140853 0.2150617
v 0.1379797 0.2197006 -0.08501773
v 0.1367411 0.1764507 -0.1354163
v 0.1383976 0.2453209 -0.0007296496
v 0.138317 0.2345905 -0.05947739
v 0.1358917 0.1823185 0.1673889
v 0.1370097 0.215612 0.1172296
v 0.1378802 0.2374106 0.06122325
v 0.1351711 0.1229595 -0.1733547
v 0.1341655 0.1291146 0.2150617
v 0.179579 -0.06202369 -0.2084618
v 0.1520068 0.002879184 -0.2178049
v 0.0610415 0.006055759 -0.1978049
v 0.07565591 -0.05839462 -0.1884618
v 0.1100187 0.06999054 -0.2025163
v 0.03186509 0.1323971 -0.151281
v 0.03726861 0.07253106 -0.1825163
v 0.06295106 -0.06004257 -0.1665303
v 0.179579 -0.06202369 -0.1522618
v 0.2823572 -0.2055595 0.07054804
v 0.2827675 -0.1938062 0.1187165
v 0.2822837 -0.2076656 0.01079178
v 0.2827036 -0.1956394 -0.04979224
v 0.283705 -0.1690366 -0.1045822
v 0.2221989 -0.1220733 -0.1699572
v 0.2846036 -0.1453528 -0.1409805
v 0.2167026 -0.06332008 -0.2084618
v 0.2843036 -0.1527123 0.1730186
v 0.2852303 -0.1274076 0.1997647
v 0.2225337 -0.1124864 0.2225173
v 0.2167429 -0.06216659 0.2417961
v 0.1342924 0.1277639 -0.0007296496
v 0.1345862 0.1277536 -0.05947739
v 0.133987 0.1277745 0.1673889
v 0.1339425 0.1277761 0.1172296
v 0.1340515 0.1277723 0.06122324
v 0.1347686 0.1277473 -0.1309792
v 0.02691583 -0.05553771 0.2597949
v 0.2167362 -0.06235885 0.1667531
v 0.02895532 -0.0667414 0.1671492
v 0.2222547 -0.1204755 -0.1045448
v 0.2844535 -0.1423619 -0.08418961
v 0.2223104 -0.1188776 -0.03913236
v 0.2843917 -0.139371 -0.02739875
v 0.2223663 -0.1172798 0.02628006
v 0.2844962 -0.1363802 0.0293921
v 0.2224221 -0.1156821 0.09169249
v 0.2847148 -0.1333893 0.08618297
v 0.2224779 -0.1140842 0.1571049
v 0.2851258 -0.1303985 0.1429738
v 0.2167093 -0.06312782 -0.1260327
v 0.216716 -0.06293556 -0.05837584
v 0.2167227 -0.06274337 0.01666716
v 0.2167362 -0.06235885 0.1238984
v 0.04872399 0.1267995 0.1271492
v 0.1339425 0.1277761 0.1172296
v 0.133987 0.1277745 0.1673889
v 0.06548089 0.140853 0.2150617
v 0.1341655 0.1291146 0.2150617
v -0.01277999 0.1386047 0.2150617
v -0.00305228 0.1377176 0.1271492
v -0.05482474 0.1263424 0.2150617
v -0.05441596 0.1249992 0.1271492
v 0.04872399 0.1267995 -0.1337628
v -0.0006728243 0.001398319 -0.1054874
v -0.0006726717 0.001398319 0.09887387
v 0.179579 -0.06202369 -0.1263482
v 0.1339425 0.1277761 0.1172296
v 0.1619372 0.08934975 0.1185634
v 0.1625928 0.0891729 -0.1299899
v 0.1347686 0.1277473 -0.1309792
v 0.1819766 0.05120125 0.1198971
v 0.1824615 0.05087632 -0.1290006
v 0.1977494 0.01320168 0.1212309
v 0.1980638 0.01272873 -0.1280113
v 0.2094339 -0.02465515 0.1225647
v 0.2095777 -0.02527603 -0.127022
v 0.2167093 -0.06312782 -0.1260327
v 0.2167362 -0.06235885 0.1238984
v 0.1356466 0.003777774 -0.1337628
v 0.1229281 0.05514153 -0.1337628
v 0.1824615 0.05087632 -0.1290006
v 0.1980638 0.01272873 -0.1280113
v 0.09403696 0.09947319 -0.1337628
v 0.1625928 0.0891729 -0.1299899
v 0.2095777 -0.02527603 -0.127022
v 0.1247285 -0.04799858 -0.1337628
v 0.2167093 -0.06312782 -0.1260327
v 0.179579 -0.06202369 -0.1263482
v 0.04872399 0.1267995 0.1271492
v 0.09403711 0.09947319 0.1271492
v 0.1619372 0.08934975 0.1185634
v 0.1339425 0.1277761 0.1172296
v 0.1229281 0.05514145 0.1271492
v 0.1819766 0.05120125 0.1198971
v 0.1356468 0.003777698 0.1271492
v 0.1977494 0.01320168 0.1212309
v 0.1247285 -0.04799858 0.1271492
v 0.2094339 -0.02465515 0.1225647
v 0.2167362 -0.06235885 0.1238984
v -0.04478179 0.1028422 0.1471492
v -0.0006726717 0.001398319 0.1790071
v 0.009607937 -0.02224563 0.1790071
v -0.0006726717 0.001398319 0.1790071
v -4.50015e-05 0.00649979 0.2637587
v -0.01095336 0.02504219 0.1790071
v -0.0006728243 0.001398319 -0.1856207
v 0.2356826 -0.2090309 0.07159388
v 0.2153549 -0.1962747 0.1209032
v 0.2507361 -0.2117151 0.01042234
v 0.2518622 -0.1994285 -0.05159656
v 0.225994 -0.1712591 -0.1076842
v 0.1838986 -0.1241695 -0.1746076
v 0.1990417 -0.1460435 -0.1449445
v 0.1659507 -0.06332466 -0.2140241
v 0.1377255 0.00311539 -0.2235884
v 0.123496 -0.1501111 0.2079371
v 0.04896035 -0.12241 0.2363131
v 0.05329049 0.1343546 -0.1780855
v 0.0947429 0.07181626 -0.2079377
v -0.01451331 0.2278732 -0.08765633
v 0.01757447 0.1862199 -0.1392486
v 0.009671872 -0.05668502 0.265323
v -0.01792754 0.006821827 0.2693806
v 0.03441461 -0.1091235 0.2455875
v -0.06630393 0.2496684 -0.00137196
v -0.03480513 0.2414015 -0.06151109
v -0.04770591 0.07040474 0.2528604
v -0.07400474 0.1295027 0.2195302
v -0.09243812 0.1825906 0.1707283
v -0.1000354 0.2161573 0.1193811
v -0.09064323 0.2393968 0.06204824
v 0.06295106 -0.06004257 -0.1665303
v 0.09274133 -0.05490882 -0.1537628
v 0.09274133 -0.05490882 -0.1537628
v 0.1247285 -0.04799858 -0.1337628
v 0.1247285 -0.04799858 -0.1337628
v 0.0673243 -0.06426567 0.156607
v 0.07850709 -0.0621173 0.1518781
v 0.08968973 -0.05996902 0.1471492
v 0.08968973 -0.05996902 0.1471492
v 0.0673243 -0.06426567 0.156607
v 0.1247285 -0.04799858 0.1271492
v 0.1247285 -0.04799858 0.1271492
v -0.02913443 0.06861168 0.2476207
v -0.03030066 0.06953797 0.1671492
vt 0.1371327 0.7682804
vt 0.1362875 0.7656016
vt 0.1376129 0.7653778
vt 0.1403675 0.7711241
vt 0.1404078 0.7704665
vt 0.1435084 0.7702671
vt 0.1365531 0.768559
vt 0.1350428 0.7661416
vt 0.1362875 0.7656016
vt 0.140154 0.7717541
vt 0.1403675 0.7711241
vt 0.1434107 0.7718575
vt 0.1360657 0.768972
vt 0.1339894 0.7670115
vt 0.1350428 0.7661416
vt 0.140154 0.7717541
vt 0.1429109 0.7732154
vt 0.1420888 0.7744453
vt 0.1357036 0.7694933
vt 0.133133 0.7681087
vt 0.1339894 0.7670115
vt 0.1392754 0.7727197
vt 0.1397747 0.7722799
vt 0.1420888 0.7744453
vt 0.1354949 0.7700882
vt 0.1325702 0.7694158
vt 0.133133 0.7681087
vt 0.1392754 0.7727197
vt 0.1408706 0.7753937
vt 0.1395237 0.775997
vt 0.1354585 0.7707158
vt 0.1323929 0.7708533
vt 0.1325702 0.7694158
vt 0.1386764 0.7729633
vt 0.1395237 0.775997
vt 0.1384606 0.7762505
vt 0.1325743 0.7721079
vt 0.1323929 0.7708533
vt 0.1354585 0.7707158
vt 0.1380357 0.7730499
vt 0.1384606 0.7762505
vt 0.1368195 0.7761786
vt 0.1331096 0.7735133
vt 0.1325743 0.7721079
vt 0.1355951 0.7713245
vt 0.1373996 0.7729769
vt 0.1368195 0.7761786
vt 0.1353007 0.7756779
vt 0.1340313 0.7747671
vt 0.1331096 0.7735133
vt 0.1359029 0.7718713
vt 0.1368352 0.7727307
vt 0.1353007 0.7756779
vt 0.1340313 0.7747671
vt 0.139021 0.7684337
vt 0.1401433 0.765781
vt 0.1413912 0.7665021
vt 0.1399911 0.769259
vt 0.1395606 0.7687876
vt 0.1413912 0.7665021
vt 0.1384101 0.7682162
vt 0.1388145 0.7654421
vt 0.1401433 0.765781
vt 0.1399911 0.769259
vt 0.142406 0.7674845
vt 0.1431301 0.768748
vt 0.1388145 0.7654421
vt 0.1384101 0.7682162
vt 0.1377661 0.7681534
vt 0.1402825 0.7698346
vt 0.1431301 0.768748
vt 0.1435084 0.7702671
vt 0.1362875 0.7656016
vt 0.1354892 0.7630653
vt 0.1372928 0.7627252
vt 0.1435084 0.7702671
vt 0.1464983 0.7698833
vt 0.1465302 0.7722781
vt 0.1350428 0.7661416
vt 0.1336628 0.7638362
vt 0.1354892 0.7630653
vt 0.1434107 0.7718575
vt 0.1465302 0.7722781
vt 0.1456792 0.7742553
vt 0.1320036 0.76504
vt 0.1336628 0.7638362
vt 0.1350428 0.7661416
vt 0.1429109 0.7732154
vt 0.1456792 0.7742553
vt 0.1443467 0.7761911
vt 0.133133 0.7681087
vt 0.1306308 0.7667072
vt 0.1320036 0.76504
vt 0.1420888 0.7744453
vt 0.1443467 0.7761911
vt 0.1424291 0.7776949
vt 0.1325702 0.7694158
vt 0.1297289 0.768789
vt 0.1306308 0.7667072
vt 0.1408706 0.7753937
vt 0.1424291 0.7776949
vt 0.1402994 0.7786446
vt 0.1293987 0.7706191
vt 0.1297289 0.768789
vt 0.1325702 0.7694158
vt 0.1402994 0.7786446
vt 0.1384266 0.7791495
vt 0.1384606 0.7762505
vt 0.1295349 0.7730641
vt 0.1293987 0.7706191
vt 0.1323929 0.7708533
vt 0.1384266 0.7791495
vt 0.135843 0.7790556
vt 0.1368195 0.7761786
vt 0.1331096 0.7735133
vt 0.1302917 0.7751127
vt 0.1295349 0.7730641
vt 0.135843 0.7790556
vt 0.1338446 0.7786013
vt 0.1353007 0.7756779
vt 0.1340313 0.7747671
vt 0.131677 0.777149
vt 0.1302917 0.7751127
vt 0.1353007 0.7756779
vt 0.1338446 0.7786013
vt 0.131677 0.777149
vt 0.1401433 0.765781
vt 0.141165 0.7633349
vt 0.1429839 0.7642614
vt 0.1429839 0.7642614
vt 0.1446092 0.7656707
vt 0.142406 0.7674845
vt 0.1392544 0.762787
vt 0.141165 0.7633349
vt 0.1401433 0.765781
vt 0.142406 0.7674845
vt 0.1446092 0.7656707
vt 0.1457666 0.7675329
vt 0.1376129 0.7653778
vt 0.1372928 0.7627252
vt 0.1392544 0.762787
vt 0.1431301 0.768748
vt 0.1457666 0.7675329
vt 0.1464983 0.7698833
vt 0.1354892 0.7630653
vt 0.1345593 0.7602113
vt 0.1369652 0.7597721
vt 0.1464983 0.7698833
vt 0.1499249 0.7690991
vt 0.1502397 0.7724697
vt 0.1336628 0.7638362
vt 0.1321557 0.761208
vt 0.1345593 0.7602113
vt 0.1465302 0.7722781
vt 0.1502397 0.7724697
vt 0.1484738 0.7749038
vt 0.1320036 0.76504
vt 0.1298819 0.762714
vt 0.1321557 0.761208
vt 0.1456792 0.7742553
vt 0.1484738 0.7749038
vt 0.1462238 0.7775002
vt 0.1306308 0.7667072
vt 0.1279084 0.7648507
vt 0.1298819 0.762714
vt 0.1443467 0.7761911
vt 0.1462238 0.7775002
vt 0.1436176 0.779836
vt 0.1265034 0.7674245
vt 0.1279084 0.7648507
vt 0.1306308 0.7667072
vt 0.1402994 0.7786446
vt 0.1424291 0.7776949
vt 0.1436176 0.779836
vt 0.1257415 0.7697564
vt 0.1265034 0.7674245
vt 0.1297289 0.768789
vt 0.1384266 0.7791495
vt 0.1402994 0.7786446
vt 0.1406019 0.7823152
vt 0.1254641 0.7728131
vt 0.1257415 0.7697564
vt 0.1293987 0.7706191
vt 0.135843 0.7790556
vt 0.1384266 0.7791495
vt 0.1384003 0.7833253
vt 0.1262834 0.7766986
vt 0.1254641 0.7728131
vt 0.1295349 0.7730641
vt 0.1338446 0.7786013
vt 0.135843 0.7790556
vt 0.134687 0.7832281
vt 0.1284374 0.7801887
vt 0.1262834 0.7766986
vt 0.1302917 0.7751127
vt 0.131677 0.777149
vt 0.1338446 0.7786013
vt 0.1318664 0.7825259
vt 0.1422739 0.760354
vt 0.1448495 0.7615735
vt 0.1429839 0.7642614
vt 0.1446092 0.7656707
vt 0.1429839 0.7642614
vt 0.1448495 0.7615735
vt 0.1392544 0.762787
vt 0.139508 0.7597803
vt 0.1422739 0.760354
vt 0.1446092 0.7656707
vt 0.1470438 0.7634394
vt 0.1487367 0.7659634
vt 0.1372928 0.7627252
vt 0.1369652 0.7597721
vt 0.139508 0.7597803
vt 0.1457666 0.7675329
vt 0.1487367 0.7659634
vt 0.1499249 0.7690991
vt 0.1345593 0.7602113
vt 0.1333029 0.7563795
vt 0.136574 0.755597
vt 0.1321557 0.761208
vt 0.130244 0.7576437
vt 0.1333029 0.7563795
vt 0.1298819 0.762714
vt 0.1273331 0.7593726
vt 0.130244 0.7576437
vt 0.124382 0.7617871
vt 0.1273331 0.7593726
vt 0.1298819 0.762714
vt 0.1221297 0.7647081
vt 0.124382 0.7617871
vt 0.1279084 0.7648507
vt 0.1204624 0.7679146
vt 0.1221297 0.7647081
vt 0.1265034 0.7674245
vt 0.1192151 0.7720999
vt 0.1204624 0.7679146
vt 0.1257415 0.7697564
vt 0.1384003 0.7833253
vt 0.1381223 0.7839584
vt 0.1359456 0.7848768
vt 0.1197801 0.7787571
vt 0.1192151 0.7720999
vt 0.1254641 0.7728131
vt 0.134687 0.7832281
vt 0.1359456 0.7848768
vt 0.1304264 0.7859917
vt 0.1234794 0.7841766
vt 0.1197801 0.7787571
vt 0.1262834 0.7766986
vt 0.1284374 0.7801887
vt 0.1318664 0.7825259
vt 0.1304264 0.7859917
vt 0.143675 0.756138
vt 0.1471979 0.7576206
vt 0.1448495 0.7615735
vt 0.1448495 0.7615735
vt 0.1471979 0.7576206
vt 0.1501789 0.75994
vt 0.140029 0.7554892
vt 0.143675 0.756138
vt 0.1422739 0.760354
vt 0.1470438 0.7634394
vt 0.1501789 0.75994
vt 0.1527981 0.7630845
vt 0.139508 0.7597803
vt 0.1369652 0.7597721
vt 0.136574 0.755597
vt 0.1487367 0.7659634
vt 0.1527981 0.7630845
vt 0.1541422 0.765213
vt 0.1333029 0.7563795
vt 0.1322612 0.7534724
vt 0.1359585 0.7524255
vt 0.130244 0.7576437
vt 0.128858 0.7548968
vt 0.1322612 0.7534724
vt 0.1273331 0.7593726
vt 0.1254982 0.756667
vt 0.128858 0.7548968
vt 0.124382 0.7617871
vt 0.1219539 0.7590067
vt 0.1254982 0.756667
vt 0.1189693 0.761664
vt 0.1219539 0.7590067
vt 0.124382 0.7617871
vt 0.1158646 0.7650868
vt 0.1189693 0.761664
vt 0.1221297 0.7647081
vt 0.1192151 0.7720999
vt 0.1114933 0.7696108
vt 0.1158646 0.7650868
vt 0.117006 0.779762
vt 0.1114933 0.7696108
vt 0.1192151 0.7720999
vt 0.143675 0.756138
vt 0.1445273 0.7525843
vt 0.1490249 0.7541913
vt 0.1471979 0.7576206
vt 0.1490249 0.7541913
vt 0.1525406 0.7570652
vt 0.140029 0.7554892
vt 0.1400793 0.752042
vt 0.1445273 0.7525843
vt 0.1501789 0.75994
vt 0.1525406 0.7570652
vt 0.1549159 0.759664
vt 0.136574 0.755597
vt 0.1359585 0.7524255
vt 0.1400793 0.752042
vt 0.1527981 0.7630845
vt 0.1549159 0.759664
vt 0.1561426 0.7599071
vt 0.1307181 0.7491774
vt 0.1347955 0.7476382
vt 0.1359585 0.7524255
vt 0.1269808 0.750824
vt 0.1307181 0.7491774
vt 0.1322612 0.7534724
vt 0.1254982 0.756667
vt 0.1232689 0.7525013
vt 0.1269808 0.750824
vt 0.1219539 0.7590067
vt 0.1189699 0.7543198
vt 0.1232689 0.7525013
vt 0.117098 0.7551905
vt 0.1189699 0.7543198
vt 0.1219539 0.7590067
vt 0.113635 0.760922
vt 0.117098 0.7551905
vt 0.1189693 0.761664
vt 0.1458659 0.7463509
vt 0.1525694 0.7476787
vt 0.1490249 0.7541913
vt 0.1490249 0.7541913
vt 0.1525694 0.7476787
vt 0.1559771 0.7538806
vt 0.1400793 0.752042
vt 0.1397168 0.7463634
vt 0.1458659 0.7463509
vt 0.1525406 0.7570652
vt 0.1559771 0.7538806
vt 0.1562564 0.7586008
vt 0.1359585 0.7524255
vt 0.1347955 0.7476382
vt 0.1397168 0.7463634
vt 0.1307181 0.7491774
vt 0.1288177 0.745313
vt 0.1327846 0.7429625
vt 0.1254131 0.7474076
vt 0.1288177 0.745313
vt 0.1307181 0.7491774
vt 0.1218067 0.7494666
vt 0.1254131 0.7474076
vt 0.1269808 0.750824
vt 0.1187108 0.7529163
vt 0.1218067 0.7494666
vt 0.1232689 0.7525013
vt 0.1458659 0.7463509
vt 0.1464339 0.7427435
vt 0.1525694 0.7476787
vt 0.1397168 0.7463634
vt 0.1388075 0.7407144
vt 0.1464339 0.7427435
vt 0.1347955 0.7476382
vt 0.1327846 0.7429625
vt 0.1388075 0.7407144
vt 0.1288177 0.745313
vt 0.1281481 0.7442703
vt 0.1321607 0.7422799
vt 0.1249747 0.7465165
vt 0.1281481 0.7442703
vt 0.1288177 0.745313
vt 0.1158646 0.7650868
vt 0.1114933 0.7696108
vt 0.113635 0.760922
vt 0.1189699 0.7543198
vt 0.117098 0.7551905
vt 0.1187108 0.7529163
vt 0.1254131 0.7474076
vt 0.1218067 0.7494666
vt 0.1249747 0.7465165
vt 0.1327846 0.7429625
vt 0.1321607 0.7422799
vt 0.1388075 0.7407144
vt 0.1561426 0.7599071
vt 0.1549159 0.759664
vt 0.1562564 0.7586008
vt 0.1499249 0.7690991
vt 0.1541422 0.765213
vt 0.1502397 0.7724697
vt 0.1406019 0.7823152
vt 0.1381223 0.7839584
vt 0.1384003 0.7833253
vt 0.1197801 0.7787571
vt 0.1234794 0.7841766
vt 0.117006 0.779762
vt 0.1076055 0.6969147
vt 0.103559 0.7007167
vt 0.1015059 0.6998191
vt 0.1132373 0.6969033
vt 0.1076055 0.6969147
vt 0.1065574 0.6947228
vt 0.1132373 0.6969033
vt 0.1140337 0.6945173
vt 0.1196377 0.6997892
vt 0.1171249 0.7067105
vt 0.1172845 0.7009286
vt 0.1196377 0.6997892
vt 0.1171249 0.7067105
vt 0.1197643 0.7078444
vt 0.1139259 0.7129064
vt 0.1074593 0.7105406
vt 0.1130973 0.7107696
vt 0.1139259 0.7129064
vt 0.1035791 0.7063497
vt 0.1074593 0.7105406
vt 0.1065672 0.7129064
vt 0.1035791 0.7063497
vt 0.1009633 0.7073772
vt 0.1015059 0.6998191
vt 0.08965092 0.6936394
vt 0.09306025 0.6955005
vt 0.08704262 0.6965175
vt 0.08602821 0.6948999
vt 0.08965092 0.6936394
vt 0.08704262 0.6965175
vt 0.08965092 0.6936394
vt 0.09348672 0.6936394
vt 0.09306025 0.6955005
vt 0.09693974 0.6953097
vt 0.09803444 0.6990365
vt 0.09306025 0.6955005
vt 0.09348672 0.6936394
vt 0.09693974 0.6953097
vt 0.09306025 0.6955005
vt 0.09693974 0.6953097
vt 0.09965205 0.6980221
vt 0.09803444 0.6990365
vt 0.1009125 0.7016448
vt 0.09905141 0.705054
vt 0.09803444 0.6990365
vt 0.09965205 0.6980221
vt 0.1009125 0.7016448
vt 0.09803444 0.6990365
vt 0.1009125 0.7016448
vt 0.1009125 0.7054806
vt 0.09905141 0.705054
vt 0.09924215 0.7089335
vt 0.09551542 0.7100282
vt 0.09905141 0.705054
vt 0.1009125 0.7054806
vt 0.09924215 0.7089335
vt 0.09905141 0.705054
vt 0.09924215 0.7089335
vt 0.09652984 0.7116458
vt 0.09551542 0.7100282
vt 0.09290713 0.7129064
vt 0.08949786 0.7110452
vt 0.09551542 0.7100282
vt 0.08907133 0.7129064
vt 0.08949786 0.7110452
vt 0.09290713 0.7129064
vt 0.09290713 0.7129064
vt 0.09551542 0.7100282
vt 0.09652984 0.7116458
vt 0.08561837 0.711236
vt 0.08452367 0.7075093
vt 0.08949786 0.7110452
vt 0.08907133 0.7129064
vt 0.08561837 0.711236
vt 0.08949786 0.7110452
vt 0.08561837 0.711236
vt 0.08290606 0.7085237
vt 0.08452367 0.7075093
vt 0.08164554 0.7049009
vt 0.0835067 0.7014917
vt 0.08452367 0.7075093
vt 0.08290606 0.7085237
vt 0.08164554 0.7049009
vt 0.08452367 0.7075093
vt 0.08164554 0.7049009
vt 0.08164554 0.7010652
vt 0.0835067 0.7014917
vt 0.0833159 0.6976122
vt 0.08704262 0.6965175
vt 0.0835067 0.7014917
vt 0.08602821 0.6948999
vt 0.08704262 0.6965175
vt 0.0833159 0.6976122
vt 0.0833159 0.6976122
vt 0.0835067 0.7014917
vt 0.08164554 0.7010652
vt 0.1105054 0.819693
vt 0.1017141 0.819693
vt 0.1028193 0.8146782
vt 0.1105054 0.819693
vt 0.109675 0.8146489
vt 0.1161547 0.8124852
vt 0.125174 0.8110868
vt 0.1187219 0.8168679
vt 0.1161547 0.8124852
vt 0.125174 0.8110868
vt 0.1212485 0.8078264
vt 0.12489 0.8019083
vt 0.08876752 0.7853981
vt 0.09260529 0.7878881
vt 0.08981567 0.793733
vt 0.08876752 0.7853981
vt 0.09354311 0.7797997
vt 0.0967139 0.7829756
vt 0.08460772 0.8009643
vt 0.08515429 0.7925475
vt 0.08981567 0.793733
vt 0.08460772 0.8009643
vt 0.0896399 0.8003153
vt 0.09171116 0.8068552
vt 0.09359681 0.8160176
vt 0.09659814 0.8117369
vt 0.1028193 0.8146782
vt 0.09171116 0.8068552
vt 0.09659814 0.8117369
vt 0.09359681 0.8160176
vt 0.109675 0.8146489
vt 0.1028193 0.8146782
vt 0.1042425 0.8083779
vt 0.109675 0.8146489
vt 0.1086277 0.808332
vt 0.1128142 0.8068583
vt 0.1212485 0.8078264
vt 0.1161547 0.8124852
vt 0.1128142 0.8068583
vt 0.09260529 0.7878881
vt 0.09764236 0.7912066
vt 0.09582787 0.7950926
vt 0.09260529 0.7878881
vt 0.0967139 0.7829756
vt 0.1005082 0.7879591
vt 0.0896399 0.8003153
vt 0.08981567 0.793733
vt 0.09582787 0.7950926
vt 0.0896399 0.8003153
vt 0.09583723 0.7993499
vt 0.0972234 0.8034497
vt 0.09659814 0.8117369
vt 0.1003051 0.8065003
vt 0.1042425 0.8083779
vt 0.0972234 0.8034497
vt 0.1003051 0.8065003
vt 0.09659814 0.8117369
vt 0.1086277 0.808332
vt 0.1042425 0.8083779
vt 0.1058688 0.8010454
vt 0.1086277 0.808332
vt 0.1073297 0.8010114
vt 0.1087012 0.8004915
vt 0.1160538 0.8036404
vt 0.1128142 0.8068583
vt 0.1087012 0.8004915
vt 0.09764236 0.7912066
vt 0.1036131 0.7952301
vt 0.1029773 0.7966046
vt 0.09764236 0.7912066
vt 0.1005082 0.7879591
vt 0.1046599 0.7941228
vt 0.09583723 0.7993499
vt 0.09582787 0.7950926
vt 0.1029773 0.7966046
vt 0.09583723 0.7993499
vt 0.103005 0.7980636
vt 0.1035094 0.7994398
vt 0.1003051 0.8065003
vt 0.1045493 0.8004414
vt 0.1058688 0.8010454
vt 0.1035094 0.7994398
vt 0.1045493 0.8004414
vt 0.1003051 0.8065003
vt 0.1543728 0.7078516
vt 0.1510005 0.7093368
vt 0.1506102 0.7087081
vt 0.1513804 0.7050371
vt 0.1531584 0.7061055
vt 0.1506102 0.7087081
vt 0.1513804 0.7050371
vt 0.1499968 0.7083106
vt 0.1492957 0.7081321
vt 0.1492957 0.7081321
vt 0.1485875 0.7082659
vt 0.1473824 0.7049541
vt 0.1473824 0.7049541
vt 0.1485875 0.7082659
vt 0.1479589 0.7086188
vt 0.14437 0.7075875
vt 0.1475365 0.7092063
vt 0.1473222 0.7099054
vt 0.1479589 0.7086188
vt 0.1475365 0.7092063
vt 0.14437 0.7075875
vt 0.1473222 0.7099054
vt 0.1474279 0.710638
vt 0.1438913 0.7116719
vt 0.1570631 0.7064142
vt 0.1543728 0.7078516
vt 0.1531584 0.7061055
vt 0.1524766 0.7023008
vt 0.1551811 0.7038712
vt 0.1531584 0.7061055
vt 0.1524766 0.7023008
vt 0.1513804 0.7050371
vt 0.1493853 0.704556
vt 0.1493853 0.704556
vt 0.1473824 0.7049541
vt 0.1463828 0.7022036
vt 0.1463828 0.7022036
vt 0.1473824 0.7049541
vt 0.1455911 0.7059358
vt 0.1417702 0.7061918
vt 0.14437 0.7075875
vt 0.1436923 0.7095519
vt 0.1455911 0.7059358
vt 0.14437 0.7075875
vt 0.1417702 0.7061918
vt 0.1436923 0.7095519
vt 0.1438913 0.7116719
vt 0.1408758 0.7123418
vt 0.1591044 0.7052921
vt 0.1570631 0.7064142
vt 0.1551811 0.7038712
vt 0.1581933 0.7093872
vt 0.1570631 0.7064142
vt 0.1591044 0.7052921
vt 0.1533258 0.7001455
vt 0.1567218 0.7021427
vt 0.1551811 0.7038712
vt 0.1533258 0.7001455
vt 0.1524766 0.7023008
vt 0.1494357 0.7015961
vt 0.1494357 0.7015961
vt 0.1463828 0.7022036
vt 0.1455923 0.7000279
vt 0.1455923 0.7000279
vt 0.1463828 0.7022036
vt 0.1436516 0.7036979
vt 0.1397349 0.7050809
vt 0.1417702 0.7061918
vt 0.1407003 0.7091401
vt 0.1436516 0.7036979
vt 0.1417702 0.7061918
vt 0.1397349 0.7050809
vt 0.1407003 0.7091401
vt 0.1408758 0.7123418
vt 0.1385602 0.7127495
vt 0.07762205 0.6953097
vt 0.07871669 0.6990365
vt 0.08033436 0.6980221
vt 0.07416903 0.6936394
vt 0.0737425 0.6955005
vt 0.07762205 0.6953097
vt 0.07762205 0.6953097
vt 0.0737425 0.6955005
vt 0.07871669 0.6990365
vt 0.08159476 0.7016448
vt 0.08033436 0.6980221
vt 0.07871669 0.6990365
vt 0.08159476 0.7054806
vt 0.08159476 0.7016448
vt 0.07973366 0.705054
vt 0.08159476 0.7016448
vt 0.07871669 0.6990365
vt 0.07973366 0.705054
vt 0.07992446 0.7089335
vt 0.08159476 0.7054806
vt 0.07973366 0.705054
vt 0.07721215 0.7116459
vt 0.07992446 0.7089335
vt 0.07619768 0.7100283
vt 0.07992446 0.7089335
vt 0.07973366 0.705054
vt 0.07619768 0.7100283
vt 0.07358938 0.7129064
vt 0.07018011 0.7110452
vt 0.06975364 0.7129064
vt 0.07721215 0.7116459
vt 0.07619768 0.7100283
vt 0.07358938 0.7129064
vt 0.07358938 0.7129064
vt 0.07619768 0.7100283
vt 0.07018011 0.7110452
vt 0.06630063 0.711236
vt 0.06975364 0.7129064
vt 0.07018011 0.7110452
vt 0.06358832 0.7085237
vt 0.06630063 0.711236
vt 0.06520587 0.7075093
vt 0.06630063 0.711236
vt 0.07018011 0.7110452
vt 0.06520587 0.7075093
vt 0.0623278 0.7049009
vt 0.06358832 0.7085237
vt 0.06520587 0.7075093
vt 0.0623278 0.7010652
vt 0.0623278 0.7049009
vt 0.06418895 0.7014916
vt 0.0623278 0.7049009
vt 0.06520587 0.7075093
vt 0.06418895 0.7014916
vt 0.06399822 0.6976122
vt 0.0623278 0.7010652
vt 0.06418895 0.7014916
vt 0.06671053 0.6948999
vt 0.06399822 0.6976122
vt 0.06772488 0.6965175
vt 0.06399822 0.6976122
vt 0.06418895 0.7014916
vt 0.06772488 0.6965175
vt 0.0703333 0.6936394
vt 0.06671053 0.6948999
vt 0.06772488 0.6965175
vt 0.07416903 0.6936394
vt 0.0703333 0.6936394
vt 0.0737425 0.6955005
vt 0.0703333 0.6936394
vt 0.06772488 0.6965175
vt 0.0737425 0.6955005
vt 0.1357794 0.700359
vt 0.1317929 0.6963793
vt 0.1326007 0.6942892
vt 0.1357794 0.700359
vt 0.1383506 0.6992246
vt 0.1383326 0.7070969
vt 0.1360243 0.7060652
vt 0.1383326 0.7070969
vt 0.1331521 0.7123233
vt 0.1264997 0.7102336
vt 0.132218 0.7102306
vt 0.1331521 0.7123233
vt 0.1264997 0.7102336
vt 0.1254469 0.7129064
vt 0.1198151 0.7071457
vt 0.1198151 0.7071457
vt 0.120016 0.6994544
vt 0.1222712 0.7005684
vt 0.1222712 0.7005684
vt 0.120016 0.6994544
vt 0.125425 0.6942892
vt 0.126244 0.6965766
vt 0.125425 0.6942892
vt 0.1326007 0.6942892
vt 0.1516689 0.773282
vt 0.1498925 0.7759417
vt 0.1495673 0.7754704
vt 0.1498925 0.7759417
vt 0.1475861 0.7787548
vt 0.1472135 0.7783077
vt 0.1475861 0.7787548
vt 0.1448583 0.781377
vt 0.1443768 0.7809907
vt 0.1443768 0.7809907
vt 0.1448583 0.781377
vt 0.1415501 0.7836779
vt 0.1385207 0.785078
vt 0.1390279 0.785361
vt 0.1367321 0.7867033
vt 0.1362762 0.7862391
vt 0.1367321 0.7867033
vt 0.1300339 0.7890996
vt 0.1297828 0.7881838
vt 0.1300339 0.7890996
vt 0.1215952 0.7867418
vt 0.1572424 0.7605752
vt 0.1553539 0.7659891
vt 0.1552381 0.7653186
vt 0.1155362 0.7819745
vt 0.1158884 0.7824553
vt 0.1067755 0.7702858
vt 0.1118257 0.7599159
vt 0.11071 0.7598792
vt 0.1148156 0.7540584
vt 0.1554168 0.7458066
vt 0.1590241 0.7535193
vt 0.1579469 0.7532359
vt 0.1590241 0.7535193
vt 0.1580216 0.759216
vt 0.1575317 0.7585987
vt 0.117686 0.7520156
vt 0.1169112 0.7518841
vt 0.1202766 0.7482684
vt 0.1393088 0.7372411
vt 0.1483456 0.7398771
vt 0.1473448 0.7406709
vt 0.1270496 0.7424933
vt 0.1313712 0.7398162
vt 0.1315735 0.740699
vt 0.1242106 0.745518
vt 0.1236745 0.7451355
vt 0.1270496 0.7424933
vt 0.1083687 0.7693099
vt 0.1067755 0.7702858
vt 0.11071 0.7598792
vt 0.1157015 0.7541926
vt 0.1148156 0.7540584
vt 0.1169112 0.7518841
vt 0.1209203 0.7485116
vt 0.1202766 0.7482684
vt 0.1236745 0.7451355
vt 0.1313712 0.7398162
vt 0.1393088 0.7372411
vt 0.1388766 0.7384852
vt 0.1580216 0.759216
vt 0.1572424 0.7605752
vt 0.1571273 0.7599881
vt 0.1553539 0.7659891
vt 0.1516689 0.773282
vt 0.1514294 0.7727298
vt 0.1410511 0.7834289
vt 0.1415501 0.7836779
vt 0.1390279 0.785361
vt 0.1218034 0.7857379
vt 0.1215952 0.7867418
vt 0.1158884 0.7824553
vt 0.1483456 0.7398771
vt 0.1554168 0.7458066
vt 0.1541978 0.7460999
vt 0.11071 0.7598792
vt 0.1062749 0.7589757
vt 0.1102298 0.7529214
vt 0.1169112 0.7518841
vt 0.1124213 0.7507065
vt 0.1162732 0.7466749
vt 0.1270496 0.7424933
vt 0.1238981 0.739748
vt 0.1283058 0.7357117
vt 0.1236745 0.7451355
vt 0.1201462 0.7430692
vt 0.1238981 0.739748
vt 0.1067755 0.7702858
vt 0.1008666 0.7640626
vt 0.1062749 0.7589757
vt 0.1148156 0.7540584
vt 0.1102298 0.7529214
vt 0.1124213 0.7507065
vt 0.1202766 0.7482684
vt 0.1162732 0.7466749
vt 0.1201462 0.7430692
vt 0.1313712 0.7398162
vt 0.1283058 0.7357117
vt 0.1370472 0.7300529
vt 0.1062749 0.7589757
vt 0.1038333 0.7578204
vt 0.1066317 0.75175
vt 0.1124213 0.7507065
vt 0.1081341 0.7493332
vt 0.1109488 0.7446412
vt 0.1172589 0.7347005
vt 0.1210532 0.7288529
vt 0.1283058 0.7357117
vt 0.1201462 0.7430692
vt 0.1140297 0.7398037
vt 0.1172589 0.7347005
vt 0.1008666 0.7640626
vt 0.1001599 0.76329
vt 0.1038333 0.7578204
vt 0.1102298 0.7529214
vt 0.1066317 0.75175
vt 0.1081341 0.7493332
vt 0.1162732 0.7466749
vt 0.1109488 0.7446412
vt 0.1140297 0.7398037
vt 0.1210532 0.7288529
vt 0.1272132 0.719672
vt 0.1370472 0.7300529
vt 0.1038333 0.7578204
vt 0.1007166 0.7576271
vt 0.1026148 0.7510252
vt 0.1081341 0.7493332
vt 0.1036825 0.7482225
vt 0.1055999 0.7428331
vt 0.1098871 0.7305514
vt 0.1126796 0.7235499
vt 0.1210532 0.7288529
vt 0.1075683 0.7367829
vt 0.1098871 0.7305514
vt 0.1172589 0.7347005
vt 0.1001599 0.76329
vt 0.09905648 0.7626728
vt 0.1007166 0.7576271
vt 0.1066317 0.75175
vt 0.1026148 0.7510252
vt 0.1036825 0.7482225
vt 0.1109488 0.7446412
vt 0.1055999 0.7428331
vt 0.1075683 0.7367829
vt 0.1126796 0.7235499
vt 0.1164594 0.7129571
vt 0.1272132 0.719672
vt 0.1212946 0.7980819
vt 0.1133866 0.7918652
vt 0.1195821 0.7874234
vt 0.1062116 0.7851314
vt 0.09883373 0.7770071
vt 0.1067755 0.7702858
vt 0.1133866 0.7918652
vt 0.1062116 0.7851314
vt 0.1158891 0.7830644
vt 0.1212946 0.7980819
vt 0.1210641 0.8015067
vt 0.1160538 0.8036404
vt 0.1329333 0.7956994
vt 0.1210641 0.8015067
vt 0.1212946 0.7980819
vt 0.1531792 0.7760343
vt 0.1510396 0.7775584
vt 0.1498925 0.7759417
vt 0.1510396 0.7775584
vt 0.1483626 0.7796619
vt 0.1475861 0.7787548
vt 0.1483626 0.7796619
vt 0.1457398 0.7821808
vt 0.1448583 0.781377
vt 0.1448583 0.781377
vt 0.1457398 0.7821808
vt 0.1435527 0.7848835
vt 0.1390279 0.785361
vt 0.1424092 0.7863228
vt 0.1383104 0.7881754
vt 0.1367321 0.7867033
vt 0.1383104 0.7881754
vt 0.1341854 0.7900545
vt 0.1578478 0.7741744
vt 0.1562892 0.7746392
vt 0.1553539 0.7659891
vt 0.1635976 0.7685347
vt 0.1591857 0.7709162
vt 0.1580216 0.759216
vt 0.1591857 0.7709162
vt 0.1578478 0.7741744
vt 0.1572424 0.7605752
vt 0.1562892 0.7746392
vt 0.1531792 0.7760343
vt 0.1516689 0.773282
vt 0.1415501 0.7836779
vt 0.1435527 0.7848835
vt 0.1424092 0.7863228
vt 0.1036825 0.7482225
vt 0.09014993 0.7491552
vt 0.09021574 0.7388853
vt 0.1010301 0.7213516
vt 0.108518 0.7161512
vt 0.1126796 0.7235499
vt 0.09461206 0.728971
vt 0.1010301 0.7213516
vt 0.1098871 0.7305514
vt 0.1026148 0.7510252
vt 0.09406608 0.7609231
vt 0.09014993 0.7491552
vt 0.09021574 0.7388853
vt 0.09461206 0.728971
vt 0.1075683 0.7367829
vt 0.1126796 0.7235499
vt 0.108518 0.7161512
vt 0.1164594 0.7129571
vt 0.1007166 0.7576271
vt 0.09905648 0.7626728
vt 0.09406608 0.7609231
vt 0.184302 0.7714336
vt 0.1654385 0.7753122
vt 0.1635976 0.7685347
vt 0.1424092 0.7863228
vt 0.1451546 0.7860275
vt 0.1435666 0.7908889
vt 0.1451546 0.7860275
vt 0.1487751 0.7847264
vt 0.1499266 0.7903374
vt 0.1487751 0.7847264
vt 0.1521912 0.7824398
vt 0.1556513 0.7868834
vt 0.1556513 0.7868834
vt 0.1521912 0.7824398
vt 0.1549926 0.7796166
vt 0.15958 0.7817924
vt 0.1549926 0.7796166
vt 0.1568139 0.7766025
vt 0.1611922 0.7763328
vt 0.1568139 0.7766025
vt 0.1578478 0.7741744
vt 0.1383104 0.7881754
vt 0.1435666 0.7908889
vt 0.1390086 0.7963269
vt 0.1435666 0.7908889
vt 0.1499266 0.7903374
vt 0.1491522 0.7980504
vt 0.1499266 0.7903374
vt 0.1556513 0.7868834
vt 0.159696 0.7928793
vt 0.159696 0.7928793
vt 0.1556513 0.7868834
vt 0.15958 0.7817924
vt 0.1659438 0.7800513
vt 0.15958 0.7817924
vt 0.1611922 0.7763328
vt 0.1654385 0.7753122
vt 0.1611922 0.7763328
vt 0.1591857 0.7709162
vt 0.1341854 0.7900545
vt 0.1390086 0.7963269
vt 0.1329333 0.7956994
vt 0.1510396 0.7775584
vt 0.1549926 0.7796166
vt 0.1521912 0.7824398
vt 0.1483626 0.7796619
vt 0.1521912 0.7824398
vt 0.1487751 0.7847264
vt 0.1457398 0.7821808
vt 0.1487751 0.7847264
vt 0.1451546 0.7860275
vt 0.1435527 0.7848835
vt 0.1451546 0.7860275
vt 0.1424092 0.7863228
vt 0.1531792 0.7760343
vt 0.1568139 0.7766025
vt 0.1549926 0.7796166
vt 0.1562892 0.7746392
vt 0.1578478 0.7741744
vt 0.1568139 0.7766025
vt 0.2164841 0.7648021
vt 0.2151791 0.7555231
vt 0.2235384 0.758068
vt 0.2151791 0.7555231
vt 0.2220553 0.7533632
vt 0.2235384 0.758068
vt 0.2164841 0.7648021
vt 0.2112778 0.7664901
vt 0.2075184 0.758149
vt 0.2060806 0.7682061
vt 0.2032183 0.7595739
vt 0.2075184 0.758149
vt 0.09354311 0.7797997
vt 0.0977562 0.7736327
vt 0.09883373 0.7770071
vt 0.09406608 0.7609231
vt 0.09905648 0.7626728
vt 0.1067755 0.7702858
vt 0.09905648 0.7626728
vt 0.1001599 0.76329
vt 0.1008666 0.7640626
vt 0.0977562 0.7736327
vt 0.1067755 0.7702858
vt 0.09883373 0.7770071
vt 0.103559 0.7007167
vt 0.1076055 0.6969147
vt 0.1103715 0.7037271
vt 0.1076055 0.6969147
vt 0.1132373 0.6969033
vt 0.1103715 0.7037271
vt 0.1132373 0.6969033
vt 0.1172845 0.7009286
vt 0.1103715 0.7037271
vt 0.1172845 0.7009286
vt 0.1171249 0.7067105
vt 0.1103715 0.7037271
vt 0.1171249 0.7067105
vt 0.1130973 0.7107696
vt 0.1103715 0.7037271
vt 0.1130973 0.7107696
vt 0.1074593 0.7105406
vt 0.1103715 0.7037271
vt 0.1074593 0.7105406
vt 0.1035791 0.7063497
vt 0.1103715 0.7037271
vt 0.1035791 0.7063497
vt 0.103559 0.7007167
vt 0.1103715 0.7037271
vt 0.1357794 0.700359
vt 0.1291351 0.7033369
vt 0.1317929 0.6963793
vt 0.1360243 0.7060652
vt 0.1291351 0.7033369
vt 0.1357794 0.700359
vt 0.132218 0.7102306
vt 0.1291351 0.7033369
vt 0.1360243 0.7060652
vt 0.1264997 0.7102336
vt 0.1291351 0.7033369
vt 0.132218 0.7102306
vt 0.1222809 0.7062766
vt 0.1291351 0.7033369
vt 0.1264997 0.7102336
vt 0.1222712 0.7005684
vt 0.1291351 0.7033369
vt 0.1222809 0.7062766
vt 0.126244 0.6965766
vt 0.1291351 0.7033369
vt 0.1222712 0.7005684
vt 0.1317929 0.6963793
vt 0.1291351 0.7033369
vt 0.126244 0.6965766
vt 0.1329333 0.7956994
vt 0.1390086 0.7963269
vt 0.1346368 0.7984673
vt 0.1757518 0.6949137
vt 0.1723052 0.6948289
vt 0.1723287 0.7128464
vt 0.1723052 0.6948289
vt 0.1691812 0.6947421
vt 0.169201 0.7127846
vt 0.1691812 0.6947421
vt 0.1661985 0.6946545
vt 0.1662132 0.712722
vt 0.1661985 0.6946545
vt 0.1633262 0.6945664
vt 0.1633344 0.7126589
vt 0.160542 0.7125956
vt 0.1633344 0.7126589
vt 0.1633262 0.6945664
vt 0.07578223 0.7663164
vt 0.07432711 0.7566926
vt 0.08063477 0.7573056
vt 0.08390617 0.7659088
vt 0.08063477 0.7573056
vt 0.08715325 0.7585375
vt 0.09171497 0.7681859
vt 0.08715325 0.7585375
vt 0.09406608 0.7609231
vt 0.07578223 0.7663164
vt 0.06863969 0.7702085
vt 0.06822091 0.7566726
vt 0.06410533 0.7626932
vt 0.0623278 0.7572665
vt 0.06822091 0.7566726
vt 0.1531234 0.6956215
vt 0.1496509 0.69924
vt 0.1530985 0.69924
vt 0.1492917 0.6954448
vt 0.1465579 0.6987923
vt 0.1496509 0.69924
vt 0.1457265 0.6940297
vt 0.1436538 0.6981066
vt 0.1465579 0.6987923
vt 0.1409311 0.6971877
vt 0.1436538 0.6981066
vt 0.1457265 0.6940297
vt 0.1431343 0.6912025
vt 0.1384013 0.6960214
vt 0.1409311 0.6971877
vt 0.2030392 0.7670771
vt 0.2032183 0.7595739
vt 0.2060806 0.7682061
vt 0.1510005 0.7093368
vt 0.1492266 0.7100212
vt 0.1506102 0.7087081
vt 0.1506102 0.7087081
vt 0.1492266 0.7100212
vt 0.1499968 0.7083106
vt 0.1499968 0.7083106
vt 0.1492266 0.7100212
vt 0.1492957 0.7081321
vt 0.1492957 0.7081321
vt 0.1492266 0.7100212
vt 0.1485875 0.7082659
vt 0.1485875 0.7082659
vt 0.1492266 0.7100212
vt 0.1479589 0.7086188
vt 0.1475365 0.7092063
vt 0.1492266 0.7100212
vt 0.1473222 0.7099054
vt 0.1479589 0.7086188
vt 0.1492266 0.7100212
vt 0.1475365 0.7092063
vt 0.1473222 0.7099054
vt 0.1492266 0.7100212
vt 0.1474279 0.710638
vt 0.1886345 0.7686201
vt 0.1886894 0.7593102
vt 0.1911516 0.76774
vt 0.1911516 0.76774
vt 0.1886894 0.7593102
vt 0.1936687 0.7668601
vt 0.1073297 0.8010114
vt 0.1058688 0.8010454
vt 0.1066699 0.7973062
vt 0.1087012 0.8004915
vt 0.1073297 0.8010114
vt 0.1066699 0.7973062
vt 0.1097196 0.7994018
vt 0.1087012 0.8004915
vt 0.1066699 0.7973062
vt 0.1029773 0.7966046
vt 0.1036131 0.7952301
vt 0.1066699 0.7973062
vt 0.1036131 0.7952301
vt 0.1046599 0.7941228
vt 0.1066699 0.7973062
vt 0.103005 0.7980636
vt 0.1029773 0.7966046
vt 0.1066699 0.7973062
vt 0.1035094 0.7994398
vt 0.103005 0.7980636
vt 0.1066699 0.7973062
vt 0.1058688 0.8010454
vt 0.1045493 0.8004414
vt 0.1066699 0.7973062
vt 0.1045493 0.8004414
vt 0.1035094 0.7994398
vt 0.1066699 0.7973062
vt 0.1097196 0.7994018
vt 0.1133866 0.7918652
vt 0.1212946 0.7980819
vt 0.1066699 0.7973062
vt 0.1133866 0.7918652
vt 0.1097196 0.7994018
vt 0.1097196 0.7994018
vt 0.1212946 0.7980819
vt 0.1160538 0.8036404
vt 0.1046599 0.7941228
vt 0.1062116 0.7851314
vt 0.1133866 0.7918652
vt 0.1005082 0.7879591
vt 0.1062116 0.7851314
vt 0.1046599 0.7941228
vt 0.1046599 0.7941228
vt 0.1133866 0.7918652
vt 0.1066699 0.7973062
vt 0.0967139 0.7829756
vt 0.09883373 0.7770071
vt 0.1062116 0.7851314
vt 0.09354311 0.7797997
vt 0.09883373 0.7770071
vt 0.0967139 0.7829756
vt 0.0967139 0.7829756
vt 0.1062116 0.7851314
vt 0.1005082 0.7879591
vt 0.1502397 0.7724697
vt 0.1512014 0.7724764
vt 0.1493566 0.7752449
vt 0.1493566 0.7752449
vt 0.1512014 0.7724764
vt 0.1514294 0.7727298
vt 0.1484738 0.7749038
vt 0.1493566 0.7752449
vt 0.1470045 0.7780901
vt 0.1470045 0.7780901
vt 0.1493566 0.7752449
vt 0.1495673 0.7754704
vt 0.1462238 0.7775002
vt 0.1470045 0.7780901
vt 0.1441507 0.7807598
vt 0.1470045 0.7780901
vt 0.1472135 0.7783077
vt 0.1443768 0.7809907
vt 0.1406019 0.7823152
vt 0.1436176 0.779836
vt 0.1441507 0.7807598
vt 0.1441507 0.7807598
vt 0.1443768 0.7809907
vt 0.1410511 0.7834289
vt 0.1359456 0.7848768
vt 0.1381223 0.7839584
vt 0.1382558 0.7848787
vt 0.1382558 0.7848787
vt 0.1385207 0.785078
vt 0.1362762 0.7862391
vt 0.1304264 0.7859917
vt 0.1359456 0.7848768
vt 0.1360289 0.7859232
vt 0.1360289 0.7859232
vt 0.1362762 0.7862391
vt 0.1297828 0.7881838
vt 0.1234794 0.7841766
vt 0.1304264 0.7859917
vt 0.1297808 0.787528
vt 0.1297808 0.787528
vt 0.1297828 0.7881838
vt 0.1218034 0.7857379
vt 0.1561426 0.7599071
vt 0.1568479 0.7595768
vt 0.1550189 0.7649031
vt 0.1550189 0.7649031
vt 0.1568479 0.7595768
vt 0.1571273 0.7599881
vt 0.1114933 0.7696108
vt 0.117006 0.779762
vt 0.1156854 0.7806298
vt 0.1156854 0.7806298
vt 0.1155362 0.7819745
vt 0.1083687 0.7693099
vt 0.117098 0.7551905
vt 0.113635 0.760922
vt 0.1127929 0.7600157
vt 0.1127929 0.7600157
vt 0.1118257 0.7599159
vt 0.1157015 0.7541926
vt 0.1525694 0.7476787
vt 0.1531431 0.7465681
vt 0.1569689 0.7531734
vt 0.1569689 0.7531734
vt 0.1531431 0.7465681
vt 0.1541978 0.7460999
vt 0.1559771 0.7538806
vt 0.1569689 0.7531734
vt 0.1570038 0.7582678
vt 0.1570038 0.7582678
vt 0.1569689 0.7531734
vt 0.1579469 0.7532359
vt 0.1218067 0.7494666
vt 0.1187108 0.7529163
vt 0.1183938 0.7522283
vt 0.1183938 0.7522283
vt 0.117686 0.7520156
vt 0.1209203 0.7485116
vt 0.1388075 0.7407144
vt 0.1385751 0.7397047
vt 0.146533 0.7415769
vt 0.146533 0.7415769
vt 0.1385751 0.7397047
vt 0.1388766 0.7384852
vt 0.1281481 0.7442703
vt 0.1278519 0.743738
vt 0.1317915 0.7416093
vt 0.1317915 0.7416093
vt 0.1278519 0.743738
vt 0.127449 0.7430841
vt 0.1281481 0.7442703
vt 0.1249747 0.7465165
vt 0.1247333 0.7459745
vt 0.1247333 0.7459745
vt 0.1242106 0.745518
vt 0.127449 0.7430841
vt 0.113635 0.760922
vt 0.1114933 0.7696108
vt 0.1096727 0.7688951
vt 0.1096727 0.7688951
vt 0.1083687 0.7693099
vt 0.1118257 0.7599159
vt 0.1187108 0.7529163
vt 0.117098 0.7551905
vt 0.116541 0.7543625
vt 0.116541 0.7543625
vt 0.1157015 0.7541926
vt 0.117686 0.7520156
vt 0.1249747 0.7465165
vt 0.1218067 0.7494666
vt 0.1215469 0.7488499
vt 0.1215469 0.7488499
vt 0.1209203 0.7485116
vt 0.1242106 0.745518
vt 0.1321607 0.7422799
vt 0.1317915 0.7416093
vt 0.1385751 0.7397047
vt 0.1385751 0.7397047
vt 0.1317915 0.7416093
vt 0.1315735 0.740699
vt 0.1562564 0.7586008
vt 0.1570038 0.7582678
vt 0.1568479 0.7595768
vt 0.1568479 0.7595768
vt 0.1570038 0.7582678
vt 0.1575317 0.7585987
vt 0.1541422 0.765213
vt 0.1550189 0.7649031
vt 0.1512014 0.7724764
vt 0.1512014 0.7724764
vt 0.1550189 0.7649031
vt 0.1552381 0.7653186
vt 0.1381223 0.7839584
vt 0.1406019 0.7823152
vt 0.1408037 0.7832295
vt 0.1408037 0.7832295
vt 0.1410511 0.7834289
vt 0.1385207 0.785078
vt 0.117006 0.779762
vt 0.1234794 0.7841766
vt 0.1221508 0.7850396
vt 0.1221508 0.7850396
vt 0.1218034 0.7857379
vt 0.1155362 0.7819745
vt 0.1464339 0.7427435
vt 0.146533 0.7415769
vt 0.1531431 0.7465681
vt 0.1531431 0.7465681
vt 0.146533 0.7415769
vt 0.1473448 0.7406709
vt 0.1208362 0.8003752
vt 0.1212485 0.8078264
vt 0.1160538 0.8036404
vt 0.1208362 0.8003752
vt 0.12489 0.8019083
vt 0.1212485 0.8078264
vt 0.12489 0.8019083
vt 0.1208362 0.8003752
vt 0.1256054 0.7979144
vt 0.1210641 0.8015067
vt 0.1329333 0.7956994
vt 0.1245722 0.8010536
vt 0.1329333 0.7956994
vt 0.1346368 0.7984673
vt 0.1287347 0.8012308
vt 0.1296693 0.8037169
vt 0.12489 0.8019083
vt 0.1256054 0.7979144
vt 0.1581933 0.7093872
vt 0.1581829 0.7108027
vt 0.157463 0.7102268
vt 0.1787003 0.7747498
vt 0.1659438 0.7800513
vt 0.1654385 0.7753122
vt 0.1757196 0.7781216
vt 0.1659438 0.7800513
vt 0.1787003 0.7747498
vt 0.1807353 0.773268
vt 0.1654385 0.7753122
vt 0.184302 0.7714336
vt 0.1570631 0.7064142
vt 0.1581933 0.7093872
vt 0.1567496 0.7096423
vt 0.1581829 0.7108027
vt 0.1581933 0.7093872
vt 0.1604913 0.7089794
vt 0.2032183 0.7595739
vt 0.2030392 0.7670771
vt 0.1988109 0.7663628
vt 0.1886345 0.7686201
vt 0.184302 0.7714336
vt 0.1822203 0.7620063
vt 0.1959375 0.7585497
vt 0.1988109 0.7663628
vt 0.1936687 0.7668601
vt 0.1377661 0.7681534
vt 0.1371327 0.7682804
vt 0.1376129 0.7653778
vt 0.1434107 0.7718575
vt 0.1403675 0.7711241
vt 0.1435084 0.7702671
vt 0.1371327 0.7682804
vt 0.1365531 0.768559
vt 0.1362875 0.7656016
vt 0.1429109 0.7732154
vt 0.140154 0.7717541
vt 0.1434107 0.7718575
vt 0.1365531 0.768559
vt 0.1360657 0.768972
vt 0.1350428 0.7661416
vt 0.1397747 0.7722799
vt 0.140154 0.7717541
vt 0.1420888 0.7744453
vt 0.1360657 0.768972
vt 0.1357036 0.7694933
vt 0.1339894 0.7670115
vt 0.1408706 0.7753937
vt 0.1392754 0.7727197
vt 0.1420888 0.7744453
vt 0.1357036 0.7694933
vt 0.1354949 0.7700882
vt 0.133133 0.7681087
vt 0.1386764 0.7729633
vt 0.1392754 0.7727197
vt 0.1395237 0.775997
vt 0.1354949 0.7700882
vt 0.1354585 0.7707158
vt 0.1325702 0.7694158
vt 0.1380357 0.7730499
vt 0.1386764 0.7729633
vt 0.1384606 0.7762505
vt 0.1355951 0.7713245
vt 0.1325743 0.7721079
vt 0.1354585 0.7707158
vt 0.1373996 0.7729769
vt 0.1380357 0.7730499
vt 0.1368195 0.7761786
vt 0.1359029 0.7718713
vt 0.1331096 0.7735133
vt 0.1355951 0.7713245
vt 0.1368352 0.7727307
vt 0.1373996 0.7729769
vt 0.1353007 0.7756779
vt 0.1363764 0.7723126
vt 0.1340313 0.7747671
vt 0.1359029 0.7718713
vt 0.1363764 0.7723126
vt 0.1368352 0.7727307
vt 0.1340313 0.7747671
vt 0.1395606 0.7687876
vt 0.139021 0.7684337
vt 0.1413912 0.7665021
vt 0.142406 0.7674845
vt 0.1399911 0.769259
vt 0.1413912 0.7665021
vt 0.139021 0.7684337
vt 0.1384101 0.7682162
vt 0.1401433 0.765781
vt 0.1402825 0.7698346
vt 0.1399911 0.769259
vt 0.1431301 0.768748
vt 0.1376129 0.7653778
vt 0.1388145 0.7654421
vt 0.1377661 0.7681534
vt 0.1404078 0.7704665
vt 0.1402825 0.7698346
vt 0.1435084 0.7702671
vt 0.1376129 0.7653778
vt 0.1362875 0.7656016
vt 0.1372928 0.7627252
vt 0.1434107 0.7718575
vt 0.1435084 0.7702671
vt 0.1465302 0.7722781
vt 0.1362875 0.7656016
vt 0.1350428 0.7661416
vt 0.1354892 0.7630653
vt 0.1429109 0.7732154
vt 0.1434107 0.7718575
vt 0.1456792 0.7742553
vt 0.1339894 0.7670115
vt 0.1320036 0.76504
vt 0.1350428 0.7661416
vt 0.1420888 0.7744453
vt 0.1429109 0.7732154
vt 0.1443467 0.7761911
vt 0.1339894 0.7670115
vt 0.133133 0.7681087
vt 0.1320036 0.76504
vt 0.1408706 0.7753937
vt 0.1420888 0.7744453
vt 0.1424291 0.7776949
vt 0.133133 0.7681087
vt 0.1325702 0.7694158
vt 0.1306308 0.7667072
vt 0.1395237 0.775997
vt 0.1408706 0.7753937
vt 0.1402994 0.7786446
vt 0.1323929 0.7708533
vt 0.1293987 0.7706191
vt 0.1325702 0.7694158
vt 0.1395237 0.775997
vt 0.1402994 0.7786446
vt 0.1384606 0.7762505
vt 0.1325743 0.7721079
vt 0.1295349 0.7730641
vt 0.1323929 0.7708533
vt 0.1384606 0.7762505
vt 0.1384266 0.7791495
vt 0.1368195 0.7761786
vt 0.1325743 0.7721079
vt 0.1331096 0.7735133
vt 0.1295349 0.7730641
vt 0.1368195 0.7761786
vt 0.135843 0.7790556
vt 0.1353007 0.7756779
vt 0.1331096 0.7735133
vt 0.1340313 0.7747671
vt 0.1302917 0.7751127
vt 0.1340313 0.7747671
vt 0.1353007 0.7756779
vt 0.131677 0.777149
vt 0.1413912 0.7665021
vt 0.1401433 0.765781
vt 0.1429839 0.7642614
vt 0.1413912 0.7665021
vt 0.1429839 0.7642614
vt 0.142406 0.7674845
vt 0.1388145 0.7654421
vt 0.1392544 0.762787
vt 0.1401433 0.765781
vt 0.1431301 0.768748
vt 0.142406 0.7674845
vt 0.1457666 0.7675329
vt 0.1388145 0.7654421
vt 0.1376129 0.7653778
vt 0.1392544 0.762787
vt 0.1435084 0.7702671
vt 0.1431301 0.768748
vt 0.1464983 0.7698833
vt 0.1372928 0.7627252
vt 0.1354892 0.7630653
vt 0.1369652 0.7597721
vt 0.1465302 0.7722781
vt 0.1464983 0.7698833
vt 0.1502397 0.7724697
vt 0.1354892 0.7630653
vt 0.1336628 0.7638362
vt 0.1345593 0.7602113
vt 0.1456792 0.7742553
vt 0.1465302 0.7722781
vt 0.1484738 0.7749038
vt 0.1336628 0.7638362
vt 0.1320036 0.76504
vt 0.1321557 0.761208
vt 0.1443467 0.7761911
vt 0.1456792 0.7742553
vt 0.1462238 0.7775002
vt 0.1320036 0.76504
vt 0.1306308 0.7667072
vt 0.1298819 0.762714
vt 0.1424291 0.7776949
vt 0.1443467 0.7761911
vt 0.1436176 0.779836
vt 0.1297289 0.768789
vt 0.1265034 0.7674245
vt 0.1306308 0.7667072
vt 0.1406019 0.7823152
vt 0.1402994 0.7786446
vt 0.1436176 0.779836
vt 0.1293987 0.7706191
vt 0.1257415 0.7697564
vt 0.1297289 0.768789
vt 0.1384003 0.7833253
vt 0.1384266 0.7791495
vt 0.1406019 0.7823152
vt 0.1295349 0.7730641
vt 0.1254641 0.7728131
vt 0.1293987 0.7706191
vt 0.134687 0.7832281
vt 0.135843 0.7790556
vt 0.1384003 0.7833253
vt 0.1302917 0.7751127
vt 0.1262834 0.7766986
vt 0.1295349 0.7730641
vt 0.1318664 0.7825259
vt 0.1338446 0.7786013
vt 0.134687 0.7832281
vt 0.131677 0.777149
vt 0.1284374 0.7801887
vt 0.1302917 0.7751127
vt 0.1284374 0.7801887
vt 0.131677 0.777149
vt 0.1318664 0.7825259
vt 0.141165 0.7633349
vt 0.1422739 0.760354
vt 0.1429839 0.7642614
vt 0.1470438 0.7634394
vt 0.1446092 0.7656707
vt 0.1448495 0.7615735
vt 0.141165 0.7633349
vt 0.1392544 0.762787
vt 0.1422739 0.760354
vt 0.1457666 0.7675329
vt 0.1446092 0.7656707
vt 0.1487367 0.7659634
vt 0.1392544 0.762787
vt 0.1372928 0.7627252
vt 0.139508 0.7597803
vt 0.1464983 0.7698833
vt 0.1457666 0.7675329
vt 0.1499249 0.7690991
vt 0.1369652 0.7597721
vt 0.1345593 0.7602113
vt 0.136574 0.755597
vt 0.1345593 0.7602113
vt 0.1321557 0.761208
vt 0.1333029 0.7563795
vt 0.1321557 0.761208
vt 0.1298819 0.762714
vt 0.130244 0.7576437
vt 0.1279084 0.7648507
vt 0.124382 0.7617871
vt 0.1298819 0.762714
vt 0.1265034 0.7674245
vt 0.1221297 0.7647081
vt 0.1279084 0.7648507
vt 0.1257415 0.7697564
vt 0.1204624 0.7679146
vt 0.1265034 0.7674245
vt 0.1254641 0.7728131
vt 0.1192151 0.7720999
vt 0.1257415 0.7697564
vt 0.134687 0.7832281
vt 0.1384003 0.7833253
vt 0.1359456 0.7848768
vt 0.1262834 0.7766986
vt 0.1197801 0.7787571
vt 0.1254641 0.7728131
vt 0.1318664 0.7825259
vt 0.134687 0.7832281
vt 0.1304264 0.7859917
vt 0.1284374 0.7801887
vt 0.1234794 0.7841766
vt 0.1262834 0.7766986
vt 0.1234794 0.7841766
vt 0.1284374 0.7801887
vt 0.1304264 0.7859917
vt 0.1422739 0.760354
vt 0.143675 0.756138
vt 0.1448495 0.7615735
vt 0.1470438 0.7634394
vt 0.1448495 0.7615735
vt 0.1501789 0.75994
vt 0.139508 0.7597803
vt 0.140029 0.7554892
vt 0.1422739 0.760354
vt 0.1487367 0.7659634
vt 0.1470438 0.7634394
vt 0.1527981 0.7630845
vt 0.140029 0.7554892
vt 0.139508 0.7597803
vt 0.136574 0.755597
vt 0.1499249 0.7690991
vt 0.1487367 0.7659634
vt 0.1541422 0.765213
vt 0.136574 0.755597
vt 0.1333029 0.7563795
vt 0.1359585 0.7524255
vt 0.1333029 0.7563795
vt 0.130244 0.7576437
vt 0.1322612 0.7534724
vt 0.130244 0.7576437
vt 0.1273331 0.7593726
vt 0.128858 0.7548968
vt 0.1273331 0.7593726
vt 0.124382 0.7617871
vt 0.1254982 0.756667
vt 0.1221297 0.7647081
vt 0.1189693 0.761664
vt 0.124382 0.7617871
vt 0.1204624 0.7679146
vt 0.1158646 0.7650868
vt 0.1221297 0.7647081
vt 0.1204624 0.7679146
vt 0.1192151 0.7720999
vt 0.1158646 0.7650868
vt 0.1197801 0.7787571
vt 0.117006 0.779762
vt 0.1192151 0.7720999
vt 0.1471979 0.7576206
vt 0.143675 0.756138
vt 0.1490249 0.7541913
vt 0.1501789 0.75994
vt 0.1471979 0.7576206
vt 0.1525406 0.7570652
vt 0.143675 0.756138
vt 0.140029 0.7554892
vt 0.1445273 0.7525843
vt 0.1527981 0.7630845
vt 0.1501789 0.75994
vt 0.1549159 0.759664
vt 0.140029 0.7554892
vt 0.136574 0.755597
vt 0.1400793 0.752042
vt 0.1541422 0.765213
vt 0.1527981 0.7630845
vt 0.1561426 0.7599071
vt 0.1322612 0.7534724
vt 0.1307181 0.7491774
vt 0.1359585 0.7524255
vt 0.128858 0.7548968
vt 0.1269808 0.750824
vt 0.1322612 0.7534724
vt 0.128858 0.7548968
vt 0.1254982 0.756667
vt 0.1269808 0.750824
vt 0.1254982 0.756667
vt 0.1219539 0.7590067
vt 0.1232689 0.7525013
vt 0.1189693 0.761664
vt 0.117098 0.7551905
vt 0.1219539 0.7590067
vt 0.1158646 0.7650868
vt 0.113635 0.760922
vt 0.1189693 0.761664
vt 0.1445273 0.7525843
vt 0.1458659 0.7463509
vt 0.1490249 0.7541913
vt 0.1525406 0.7570652
vt 0.1490249 0.7541913
vt 0.1559771 0.7538806
vt 0.1445273 0.7525843
vt 0.1400793 0.752042
vt 0.1458659 0.7463509
vt 0.1549159 0.759664
vt 0.1525406 0.7570652
vt 0.1562564 0.7586008
vt 0.1400793 0.752042
vt 0.1359585 0.7524255
vt 0.1397168 0.7463634
vt 0.1347955 0.7476382
vt 0.1307181 0.7491774
vt 0.1327846 0.7429625
vt 0.1269808 0.750824
vt 0.1254131 0.7474076
vt 0.1307181 0.7491774
vt 0.1232689 0.7525013
vt 0.1218067 0.7494666
vt 0.1269808 0.750824
vt 0.1189699 0.7543198
vt 0.1187108 0.7529163
vt 0.1232689 0.7525013
vt 0.1458659 0.7463509
vt 0.1397168 0.7463634
vt 0.1464339 0.7427435
vt 0.1397168 0.7463634
vt 0.1347955 0.7476382
vt 0.1388075 0.7407144
vt 0.1327846 0.7429625
vt 0.1288177 0.745313
vt 0.1321607 0.7422799
vt 0.1254131 0.7474076
vt 0.1249747 0.7465165
vt 0.1288177 0.745313
vt 0.1065574 0.6947228
vt 0.1076055 0.6969147
vt 0.1015059 0.6998191
vt 0.1140337 0.6945173
vt 0.1132373 0.6969033
vt 0.1065574 0.6947228
vt 0.1172845 0.7009286
vt 0.1132373 0.6969033
vt 0.1196377 0.6997892
vt 0.1197643 0.7078444
vt 0.1171249 0.7067105
vt 0.1196377 0.6997892
vt 0.1130973 0.7107696
vt 0.1171249 0.7067105
vt 0.1139259 0.7129064
vt 0.1065672 0.7129064
vt 0.1074593 0.7105406
vt 0.1139259 0.7129064
vt 0.1009633 0.7073772
vt 0.1035791 0.7063497
vt 0.1065672 0.7129064
vt 0.103559 0.7007167
vt 0.1035791 0.7063497
vt 0.1015059 0.6998191
vt 0.109675 0.8146489
vt 0.1105054 0.819693
vt 0.1028193 0.8146782
vt 0.1187219 0.8168679
vt 0.1105054 0.819693
vt 0.1161547 0.8124852
vt 0.1212485 0.8078264
vt 0.125174 0.8110868
vt 0.1161547 0.8124852
vt 0.1296693 0.8037169
vt 0.125174 0.8110868
vt 0.12489 0.8019083
vt 0.08515429 0.7925475
vt 0.08876752 0.7853981
vt 0.08981567 0.793733
vt 0.09260529 0.7878881
vt 0.08876752 0.7853981
vt 0.0967139 0.7829756
vt 0.0896399 0.8003153
vt 0.08460772 0.8009643
vt 0.08981567 0.793733
vt 0.08717876 0.8095968
vt 0.08460772 0.8009643
vt 0.09171116 0.8068552
vt 0.1017141 0.819693
vt 0.09359681 0.8160176
vt 0.1028193 0.8146782
vt 0.08717876 0.8095968
vt 0.09171116 0.8068552
vt 0.09359681 0.8160176
vt 0.1086277 0.808332
vt 0.109675 0.8146489
vt 0.1042425 0.8083779
vt 0.1161547 0.8124852
vt 0.109675 0.8146489
vt 0.1128142 0.8068583
vt 0.1160538 0.8036404
vt 0.1212485 0.8078264
vt 0.1128142 0.8068583
vt 0.08981567 0.793733
vt 0.09260529 0.7878881
vt 0.09582787 0.7950926
vt 0.09764236 0.7912066
vt 0.09260529 0.7878881
vt 0.1005082 0.7879591
vt 0.09583723 0.7993499
vt 0.0896399 0.8003153
vt 0.09582787 0.7950926
vt 0.09171116 0.8068552
vt 0.0896399 0.8003153
vt 0.0972234 0.8034497
vt 0.1028193 0.8146782
vt 0.09659814 0.8117369
vt 0.1042425 0.8083779
vt 0.09171116 0.8068552
vt 0.0972234 0.8034497
vt 0.09659814 0.8117369
vt 0.1073297 0.8010114
vt 0.1086277 0.808332
vt 0.1058688 0.8010454
vt 0.1128142 0.8068583
vt 0.1086277 0.808332
vt 0.1087012 0.8004915
vt 0.1097196 0.7994018
vt 0.1160538 0.8036404
vt 0.1087012 0.8004915
vt 0.09582787 0.7950926
vt 0.09764236 0.7912066
vt 0.1029773 0.7966046
vt 0.1036131 0.7952301
vt 0.09764236 0.7912066
vt 0.1046599 0.7941228
vt 0.103005 0.7980636
vt 0.09583723 0.7993499
vt 0.1029773 0.7966046
vt 0.0972234 0.8034497
vt 0.09583723 0.7993499
vt 0.1035094 0.7994398
vt 0.1042425 0.8083779
vt 0.1003051 0.8065003
vt 0.1058688 0.8010454
vt 0.0972234 0.8034497
vt 0.1035094 0.7994398
vt 0.1003051 0.8065003
vt 0.1531584 0.7061055
vt 0.1543728 0.7078516
vt 0.1506102 0.7087081
vt 0.1499968 0.7083106
vt 0.1513804 0.7050371
vt 0.1506102 0.7087081
vt 0.1493853 0.704556
vt 0.1513804 0.7050371
vt 0.1492957 0.7081321
vt 0.1493853 0.704556
vt 0.1492957 0.7081321
vt 0.1473824 0.7049541
vt 0.1455911 0.7059358
vt 0.1473824 0.7049541
vt 0.1479589 0.7086188
vt 0.1436923 0.7095519
vt 0.14437 0.7075875
vt 0.1473222 0.7099054
vt 0.1455911 0.7059358
vt 0.1479589 0.7086188
vt 0.14437 0.7075875
vt 0.1436923 0.7095519
vt 0.1473222 0.7099054
vt 0.1438913 0.7116719
vt 0.1551811 0.7038712
vt 0.1570631 0.7064142
vt 0.1531584 0.7061055
vt 0.1513804 0.7050371
vt 0.1524766 0.7023008
vt 0.1531584 0.7061055
vt 0.1494357 0.7015961
vt 0.1524766 0.7023008
vt 0.1493853 0.704556
vt 0.1494357 0.7015961
vt 0.1493853 0.704556
vt 0.1463828 0.7022036
vt 0.1436516 0.7036979
vt 0.1463828 0.7022036
vt 0.1455911 0.7059358
vt 0.1407003 0.7091401
vt 0.1417702 0.7061918
vt 0.1436923 0.7095519
vt 0.1436516 0.7036979
vt 0.1455911 0.7059358
vt 0.1417702 0.7061918
vt 0.1407003 0.7091401
vt 0.1436923 0.7095519
vt 0.1408758 0.7123418
vt 0.1567218 0.7021427
vt 0.1591044 0.7052921
vt 0.1551811 0.7038712
vt 0.1604913 0.7089794
vt 0.1581933 0.7093872
vt 0.1591044 0.7052921
vt 0.1524766 0.7023008
vt 0.1533258 0.7001455
vt 0.1551811 0.7038712
vt 0.1494708 0.6992907
vt 0.1533258 0.7001455
vt 0.1494357 0.7015961
vt 0.1494708 0.6992907
vt 0.1494357 0.7015961
vt 0.1455923 0.7000279
vt 0.142145 0.7019517
vt 0.1455923 0.7000279
vt 0.1436516 0.7036979
vt 0.1384013 0.7087901
vt 0.1397349 0.7050809
vt 0.1407003 0.7091401
vt 0.142145 0.7019517
vt 0.1436516 0.7036979
vt 0.1397349 0.7050809
vt 0.1384013 0.7087901
vt 0.1407003 0.7091401
vt 0.1385602 0.7127495
vt 0.1383506 0.6992246
vt 0.1357794 0.700359
vt 0.1326007 0.6942892
vt 0.1360243 0.7060652
vt 0.1357794 0.700359
vt 0.1383326 0.7070969
vt 0.132218 0.7102306
vt 0.1360243 0.7060652
vt 0.1331521 0.7123233
vt 0.1254469 0.7129064
vt 0.1264997 0.7102336
vt 0.1331521 0.7123233
vt 0.1222809 0.7062766
vt 0.1264997 0.7102336
vt 0.1198151 0.7071457
vt 0.1222809 0.7062766
vt 0.1198151 0.7071457
vt 0.1222712 0.7005684
vt 0.126244 0.6965766
vt 0.1222712 0.7005684
vt 0.125425 0.6942892
vt 0.1317929 0.6963793
vt 0.126244 0.6965766
vt 0.1326007 0.6942892
vt 0.1514294 0.7727298
vt 0.1516689 0.773282
vt 0.1495673 0.7754704
vt 0.1495673 0.7754704
vt 0.1498925 0.7759417
vt 0.1472135 0.7783077
vt 0.1472135 0.7783077
vt 0.1475861 0.7787548
vt 0.1443768 0.7809907
vt 0.1410511 0.7834289
vt 0.1443768 0.7809907
vt 0.1415501 0.7836779
vt 0.1362762 0.7862391
vt 0.1385207 0.785078
vt 0.1367321 0.7867033
vt 0.1297828 0.7881838
vt 0.1362762 0.7862391
vt 0.1300339 0.7890996
vt 0.1218034 0.7857379
vt 0.1297828 0.7881838
vt 0.1215952 0.7867418
vt 0.1571273 0.7599881
vt 0.1572424 0.7605752
vt 0.1552381 0.7653186
vt 0.1083687 0.7693099
vt 0.1155362 0.7819745
vt 0.1067755 0.7702858
vt 0.1157015 0.7541926
vt 0.1118257 0.7599159
vt 0.1148156 0.7540584
vt 0.1541978 0.7460999
vt 0.1554168 0.7458066
vt 0.1579469 0.7532359
vt 0.1579469 0.7532359
vt 0.1590241 0.7535193
vt 0.1575317 0.7585987
vt 0.1209203 0.7485116
vt 0.117686 0.7520156
vt 0.1202766 0.7482684
vt 0.1388766 0.7384852
vt 0.1393088 0.7372411
vt 0.1473448 0.7406709
vt 0.127449 0.7430841
vt 0.1270496 0.7424933
vt 0.1315735 0.740699
vt 0.127449 0.7430841
vt 0.1242106 0.745518
vt 0.1270496 0.7424933
vt 0.1118257 0.7599159
vt 0.1083687 0.7693099
vt 0.11071 0.7598792
vt 0.117686 0.7520156
vt 0.1157015 0.7541926
vt 0.1169112 0.7518841
vt 0.1242106 0.745518
vt 0.1209203 0.7485116
vt 0.1236745 0.7451355
vt 0.1315735 0.740699
vt 0.1313712 0.7398162
vt 0.1388766 0.7384852
vt 0.1575317 0.7585987
vt 0.1580216 0.759216
vt 0.1571273 0.7599881
vt 0.1552381 0.7653186
vt 0.1553539 0.7659891
vt 0.1514294 0.7727298
vt 0.1385207 0.785078
vt 0.1410511 0.7834289
vt 0.1390279 0.785361
vt 0.1155362 0.7819745
vt 0.1218034 0.7857379
vt 0.1158884 0.7824553
vt 0.1473448 0.7406709
vt 0.1483456 0.7398771
vt 0.1541978 0.7460999
vt 0.1148156 0.7540584
vt 0.11071 0.7598792
vt 0.1102298 0.7529214
vt 0.1202766 0.7482684
vt 0.1169112 0.7518841
vt 0.1162732 0.7466749
vt 0.1313712 0.7398162
vt 0.1270496 0.7424933
vt 0.1283058 0.7357117
vt 0.1270496 0.7424933
vt 0.1236745 0.7451355
vt 0.1238981 0.739748
vt 0.11071 0.7598792
vt 0.1067755 0.7702858
vt 0.1062749 0.7589757
vt 0.1169112 0.7518841
vt 0.1148156 0.7540584
vt 0.1124213 0.7507065
vt 0.1236745 0.7451355
vt 0.1202766 0.7482684
vt 0.1201462 0.7430692
vt 0.1393088 0.7372411
vt 0.1313712 0.7398162
vt 0.1370472 0.7300529
vt 0.1102298 0.7529214
vt 0.1062749 0.7589757
vt 0.1066317 0.75175
vt 0.1162732 0.7466749
vt 0.1124213 0.7507065
vt 0.1109488 0.7446412
vt 0.1238981 0.739748
vt 0.1172589 0.7347005
vt 0.1283058 0.7357117
vt 0.1238981 0.739748
vt 0.1201462 0.7430692
vt 0.1172589 0.7347005
vt 0.1062749 0.7589757
vt 0.1008666 0.7640626
vt 0.1038333 0.7578204
vt 0.1124213 0.7507065
vt 0.1102298 0.7529214
vt 0.1081341 0.7493332
vt 0.1201462 0.7430692
vt 0.1162732 0.7466749
vt 0.1140297 0.7398037
vt 0.1283058 0.7357117
vt 0.1210532 0.7288529
vt 0.1370472 0.7300529
vt 0.1066317 0.75175
vt 0.1038333 0.7578204
vt 0.1026148 0.7510252
vt 0.1109488 0.7446412
vt 0.1081341 0.7493332
vt 0.1055999 0.7428331
vt 0.1172589 0.7347005
vt 0.1098871 0.7305514
vt 0.1210532 0.7288529
vt 0.1140297 0.7398037
vt 0.1075683 0.7367829
vt 0.1172589 0.7347005
vt 0.1038333 0.7578204
vt 0.1001599 0.76329
vt 0.1007166 0.7576271
vt 0.1081341 0.7493332
vt 0.1066317 0.75175
vt 0.1036825 0.7482225
vt 0.1140297 0.7398037
vt 0.1109488 0.7446412
vt 0.1075683 0.7367829
vt 0.1210532 0.7288529
vt 0.1126796 0.7235499
vt 0.1272132 0.719672
vt 0.1214422 0.7879238
vt 0.1212946 0.7980819
vt 0.1195821 0.7874234
vt 0.1158891 0.7830644
vt 0.1062116 0.7851314
vt 0.1067755 0.7702858
vt 0.1195821 0.7874234
vt 0.1133866 0.7918652
vt 0.1158891 0.7830644
vt 0.1300339 0.7890996
vt 0.1329333 0.7956994
vt 0.1212946 0.7980819
vt 0.1516689 0.773282
vt 0.1531792 0.7760343
vt 0.1498925 0.7759417
vt 0.1498925 0.7759417
vt 0.1510396 0.7775584
vt 0.1475861 0.7787548
vt 0.1475861 0.7787548
vt 0.1483626 0.7796619
vt 0.1448583 0.781377
vt 0.1415501 0.7836779
vt 0.1448583 0.781377
vt 0.1435527 0.7848835
vt 0.1367321 0.7867033
vt 0.1390279 0.785361
vt 0.1383104 0.7881754
vt 0.1300339 0.7890996
vt 0.1367321 0.7867033
vt 0.1341854 0.7900545
vt 0.1572424 0.7605752
vt 0.1578478 0.7741744
vt 0.1553539 0.7659891
vt 0.1590241 0.7535193
vt 0.1635976 0.7685347
vt 0.1580216 0.759216
vt 0.1580216 0.759216
vt 0.1591857 0.7709162
vt 0.1572424 0.7605752
vt 0.1553539 0.7659891
vt 0.1562892 0.7746392
vt 0.1516689 0.773282
vt 0.1390279 0.785361
vt 0.1415501 0.7836779
vt 0.1424092 0.7863228
vt 0.1055999 0.7428331
vt 0.1036825 0.7482225
vt 0.09021574 0.7388853
vt 0.1098871 0.7305514
vt 0.1010301 0.7213516
vt 0.1126796 0.7235499
vt 0.1075683 0.7367829
vt 0.09461206 0.728971
vt 0.1098871 0.7305514
vt 0.1036825 0.7482225
vt 0.1026148 0.7510252
vt 0.09014993 0.7491552
vt 0.1055999 0.7428331
vt 0.09021574 0.7388853
vt 0.1075683 0.7367829
vt 0.1026148 0.7510252
vt 0.1007166 0.7576271
vt 0.09406608 0.7609231
vt 0.1822203 0.7620063
vt 0.184302 0.7714336
vt 0.1635976 0.7685347
vt 0.1383104 0.7881754
vt 0.1424092 0.7863228
vt 0.1435666 0.7908889
vt 0.1435666 0.7908889
vt 0.1451546 0.7860275
vt 0.1499266 0.7903374
vt 0.1499266 0.7903374
vt 0.1487751 0.7847264
vt 0.1556513 0.7868834
vt 0.15958 0.7817924
vt 0.1556513 0.7868834
vt 0.1549926 0.7796166
vt 0.1611922 0.7763328
vt 0.15958 0.7817924
vt 0.1568139 0.7766025
vt 0.1591857 0.7709162
vt 0.1611922 0.7763328
vt 0.1578478 0.7741744
vt 0.1341854 0.7900545
vt 0.1383104 0.7881754
vt 0.1390086 0.7963269
vt 0.1390086 0.7963269
vt 0.1435666 0.7908889
vt 0.1491522 0.7980504
vt 0.1491522 0.7980504
vt 0.1499266 0.7903374
vt 0.159696 0.7928793
vt 0.1659438 0.7800513
vt 0.159696 0.7928793
vt 0.15958 0.7817924
vt 0.1654385 0.7753122
vt 0.1659438 0.7800513
vt 0.1611922 0.7763328
vt 0.1635976 0.7685347
vt 0.1654385 0.7753122
vt 0.1591857 0.7709162
vt 0.1300339 0.7890996
vt 0.1341854 0.7900545
vt 0.1329333 0.7956994
vt 0.1483626 0.7796619
vt 0.1510396 0.7775584
vt 0.1521912 0.7824398
vt 0.1457398 0.7821808
vt 0.1483626 0.7796619
vt 0.1487751 0.7847264
vt 0.1435527 0.7848835
vt 0.1457398 0.7821808
vt 0.1451546 0.7860275
vt 0.1510396 0.7775584
vt 0.1531792 0.7760343
vt 0.1549926 0.7796166
vt 0.1531792 0.7760343
vt 0.1562892 0.7746392
vt 0.1568139 0.7766025
vt 0.2251722 0.7629922
vt 0.2164841 0.7648021
vt 0.2235384 0.758068
vt 0.2151791 0.7555231
vt 0.2164841 0.7648021
vt 0.2075184 0.758149
vt 0.2112778 0.7664901
vt 0.2060806 0.7682061
vt 0.2075184 0.758149
vt 0.0977562 0.7736327
vt 0.09406608 0.7609231
vt 0.1067755 0.7702858
vt 0.1067755 0.7702858
vt 0.09905648 0.7626728
vt 0.1008666 0.7640626
vt 0.1757767 0.7129064
vt 0.1757518 0.6949137
vt 0.1723287 0.7128464
vt 0.1723287 0.7128464
vt 0.1723052 0.6948289
vt 0.169201 0.7127846
vt 0.169201 0.7127846
vt 0.1691812 0.6947421
vt 0.1662132 0.712722
vt 0.1662132 0.712722
vt 0.1661985 0.6946545
vt 0.1633344 0.7126589
vt 0.160542 0.6944781
vt 0.160542 0.7125956
vt 0.1633262 0.6945664
vt 0.08390617 0.7659088
vt 0.07578223 0.7663164
vt 0.08063477 0.7573056
vt 0.09171497 0.7681859
vt 0.08390617 0.7659088
vt 0.08715325 0.7585375
vt 0.0977562 0.7736327
vt 0.09171497 0.7681859
vt 0.09406608 0.7609231
vt 0.07432711 0.7566926
vt 0.07578223 0.7663164
vt 0.06822091 0.7566726
vt 0.06863969 0.7702085
vt 0.06410533 0.7626932
vt 0.06822091 0.7566726
vt 0.1566628 0.6941431
vt 0.1531234 0.6956215
vt 0.1530985 0.69924
vt 0.1531234 0.6956215
vt 0.1492917 0.6954448
vt 0.1496509 0.69924
vt 0.1492917 0.6954448
vt 0.1457265 0.6940297
vt 0.1465579 0.6987923
vt 0.1431343 0.6912025
vt 0.1409311 0.6971877
vt 0.1457265 0.6940297
vt 0.1484738 0.7749038
vt 0.1502397 0.7724697
vt 0.1493566 0.7752449
vt 0.1495673 0.7754704
vt 0.1493566 0.7752449
vt 0.1514294 0.7727298
vt 0.1462238 0.7775002
vt 0.1484738 0.7749038
vt 0.1470045 0.7780901
vt 0.1472135 0.7783077
vt 0.1470045 0.7780901
vt 0.1495673 0.7754704
vt 0.1436176 0.779836
vt 0.1462238 0.7775002
vt 0.1441507 0.7807598
vt 0.1441507 0.7807598
vt 0.1470045 0.7780901
vt 0.1443768 0.7809907
vt 0.1408037 0.7832295
vt 0.1406019 0.7823152
vt 0.1441507 0.7807598
vt 0.1408037 0.7832295
vt 0.1441507 0.7807598
vt 0.1410511 0.7834289
vt 0.1360289 0.7859232
vt 0.1359456 0.7848768
vt 0.1382558 0.7848787
vt 0.1360289 0.7859232
vt 0.1382558 0.7848787
vt 0.1362762 0.7862391
vt 0.1297808 0.787528
vt 0.1304264 0.7859917
vt 0.1360289 0.7859232
vt 0.1297808 0.787528
vt 0.1360289 0.7859232
vt 0.1297828 0.7881838
vt 0.1221508 0.7850396
vt 0.1234794 0.7841766
vt 0.1297808 0.787528
vt 0.1221508 0.7850396
vt 0.1297808 0.787528
vt 0.1218034 0.7857379
vt 0.1541422 0.765213
vt 0.1561426 0.7599071
vt 0.1550189 0.7649031
vt 0.1552381 0.7653186
vt 0.1550189 0.7649031
vt 0.1571273 0.7599881
vt 0.1096727 0.7688951
vt 0.1114933 0.7696108
vt 0.1156854 0.7806298
vt 0.1096727 0.7688951
vt 0.1156854 0.7806298
vt 0.1083687 0.7693099
vt 0.116541 0.7543625
vt 0.117098 0.7551905
vt 0.1127929 0.7600157
vt 0.116541 0.7543625
vt 0.1127929 0.7600157
vt 0.1157015 0.7541926
vt 0.1559771 0.7538806
vt 0.1525694 0.7476787
vt 0.1569689 0.7531734
vt 0.1579469 0.7532359
vt 0.1569689 0.7531734
vt 0.1541978 0.7460999
vt 0.1562564 0.7586008
vt 0.1559771 0.7538806
vt 0.1570038 0.7582678
vt 0.1575317 0.7585987
vt 0.1570038 0.7582678
vt 0.1579469 0.7532359
vt 0.1215469 0.7488499
vt 0.1218067 0.7494666
vt 0.1183938 0.7522283
vt 0.1215469 0.7488499
vt 0.1183938 0.7522283
vt 0.1209203 0.7485116
vt 0.1464339 0.7427435
vt 0.1388075 0.7407144
vt 0.146533 0.7415769
vt 0.1473448 0.7406709
vt 0.146533 0.7415769
vt 0.1388766 0.7384852
vt 0.1321607 0.7422799
vt 0.1281481 0.7442703
vt 0.1317915 0.7416093
vt 0.1315735 0.740699
vt 0.1317915 0.7416093
vt 0.127449 0.7430841
vt 0.1278519 0.743738
vt 0.1281481 0.7442703
vt 0.1247333 0.7459745
vt 0.1278519 0.743738
vt 0.1247333 0.7459745
vt 0.127449 0.7430841
vt 0.1127929 0.7600157
vt 0.113635 0.760922
vt 0.1096727 0.7688951
vt 0.1127929 0.7600157
vt 0.1096727 0.7688951
vt 0.1118257 0.7599159
vt 0.1183938 0.7522283
vt 0.1187108 0.7529163
vt 0.116541 0.7543625
vt 0.1183938 0.7522283
vt 0.116541 0.7543625
vt 0.117686 0.7520156
vt 0.1247333 0.7459745
vt 0.1249747 0.7465165
vt 0.1215469 0.7488499
vt 0.1247333 0.7459745
vt 0.1215469 0.7488499
vt 0.1242106 0.745518
vt 0.1388075 0.7407144
vt 0.1321607 0.7422799
vt 0.1385751 0.7397047
vt 0.1388766 0.7384852
vt 0.1385751 0.7397047
vt 0.1315735 0.740699
vt 0.1561426 0.7599071
vt 0.1562564 0.7586008
vt 0.1568479 0.7595768
vt 0.1571273 0.7599881
vt 0.1568479 0.7595768
vt 0.1575317 0.7585987
vt 0.1502397 0.7724697
vt 0.1541422 0.765213
vt 0.1512014 0.7724764
vt 0.1514294 0.7727298
vt 0.1512014 0.7724764
vt 0.1552381 0.7653186
vt 0.1382558 0.7848787
vt 0.1381223 0.7839584
vt 0.1408037 0.7832295
vt 0.1382558 0.7848787
vt 0.1408037 0.7832295
vt 0.1385207 0.785078
vt 0.1156854 0.7806298
vt 0.117006 0.779762
vt 0.1221508 0.7850396
vt 0.1156854 0.7806298
vt 0.1221508 0.7850396
vt 0.1155362 0.7819745
vt 0.1525694 0.7476787
vt 0.1464339 0.7427435
vt 0.1531431 0.7465681
vt 0.1541978 0.7460999
vt 0.1531431 0.7465681
vt 0.1473448 0.7406709
vt 0.1245722 0.8010536
vt 0.1329333 0.7956994
vt 0.1287347 0.8012308
vt 0.1312492 0.7952555
vt 0.1296693 0.8037169
vt 0.1256054 0.7979144
vt 0.1567496 0.7096423
vt 0.1581933 0.7093872
vt 0.157463 0.7102268
vt 0.1807353 0.773268
vt 0.1787003 0.7747498
vt 0.1654385 0.7753122
vt 0.1543728 0.7078516
vt 0.1570631 0.7064142
vt 0.1567496 0.7096423
vt 0.1604913 0.7129064
vt 0.1581829 0.7108027
vt 0.1604913 0.7089794
vt 0.1959375 0.7585497
vt 0.2032183 0.7595739
vt 0.1988109 0.7663628
vt 0.1886894 0.7593102
vt 0.1886345 0.7686201
vt 0.1822203 0.7620063
vt 0.1886894 0.7593102
vt 0.1959375 0.7585497
vt 0.1936687 0.7668601
usemtl LElbowRollUV
f 1/1 4/2 3/3
f 5/4 8/5 7/6
f 9/7 10/8 4/9
f 11/10 5/11 6/12
f 13/13 14/14 10/15
f 11/16 12/17 16/18
f 17/19 18/20 14/21
f 19/22 15/23 16/24
f 21/25 22/26 18/27
f 19/28 20/29 24/30
f 25/31 26/32 22/33
f 23/34 24/35 28/36
f 30/37 26/38 25/39
f 27/40 28/41 32/42
f 34/43 30/44 29/45
f 31/46 32/47 36/48
f 38/49 34/50 33/51
f 35/52 36/53 38/54
f 39/55 42/56 41/57
f 43/58 40/59 41/60
f 45/61 46/62 42/63
f 43/64 44/65 48/66
f 46/67 45/68 2/69
f 47/70 48/71 7/72
f 4/73 50/74 49/75
f 7/76 52/77 51/78
f 10/79 53/80 50/81
f 6/82 51/83 54/84
f 55/85 53/86 10/87
f 12/88 54/89 56/90
f 18/91 57/92 55/93
f 16/94 56/95 58/96
f 22/97 59/98 57/99
f 20/100 58/101 60/102
f 61/103 59/104 22/105
f 60/106 62/107 28/108
f 63/109 61/110 26/111
f 62/112 64/113 32/114
f 34/115 65/116 63/117
f 64/118 66/119 36/120
f 38/121 67/122 65/123
f 36/124 66/125 67/126
f 42/127 69/128 68/129
f 68/130 70/131 44/132
f 71/133 69/134 42/135
f 44/136 70/137 72/138
f 3/139 49/140 71/141
f 48/142 72/143 52/144
f 50/145 74/146 73/147
f 52/148 76/149 75/150
f 53/151 77/152 74/153
f 51/154 75/155 78/156
f 55/157 79/158 77/159
f 54/160 78/161 80/162
f 57/163 81/164 79/165
f 56/166 80/167 82/168
f 83/169 81/170 57/171
f 60/172 58/173 82/174
f 85/175 83/176 59/177
f 62/178 60/179 84/180
f 87/181 85/182 61/183
f 64/184 62/185 86/186
f 89/187 87/188 63/189
f 66/190 64/191 88/192
f 91/193 89/194 65/195
f 67/196 66/197 90/198
f 93/199 92/200 68/201
f 70/202 68/203 92/204
f 71/205 95/206 93/207
f 70/208 94/209 96/210
f 49/211 73/212 95/213
f 72/214 96/215 76/216
f 74/217 98/218 97/219
f 77/220 99/221 98/222
f 79/223 100/224 99/225
f 101/226 100/227 79/228
f 102/229 101/230 81/231
f 103/232 102/233 83/234
f 104/235 103/236 85/237
f 86/238 106/239 105/240
f 107/241 104/242 87/243
f 88/244 105/245 108/246
f 109/247 107/248 89/249
f 91/250 90/251 108/252
f 111/253 110/254 92/255
f 92/256 110/257 112/258
f 113/259 111/260 93/261
f 94/262 112/263 114/264
f 95/265 73/266 97/267
f 96/268 114/269 115/270
f 98/271 117/272 116/273
f 99/274 118/275 117/276
f 100/277 119/278 118/279
f 101/280 120/281 119/282
f 121/283 120/284 101/285
f 122/286 121/287 102/288
f 104/289 123/290 122/291
f 124/292 123/293 104/294
f 111/295 126/296 125/297
f 110/298 125/299 127/300
f 113/301 128/302 126/303
f 112/304 127/305 129/306
f 97/307 116/308 128/309
f 114/310 129/311 130/312
f 132/313 131/314 116/315
f 133/316 132/317 117/318
f 119/319 134/320 133/321
f 120/322 135/323 134/324
f 136/325 135/326 120/327
f 137/328 136/329 121/330
f 139/331 138/332 125/333
f 125/334 138/335 140/336
f 128/337 141/338 139/339
f 127/340 140/341 142/342
f 116/343 131/344 141/345
f 132/346 144/347 143/348
f 145/349 144/350 132/351
f 146/352 145/353 133/354
f 147/355 146/356 134/357
f 139/358 148/359 138/360
f 141/361 149/362 148/363
f 131/364 143/365 149/366
f 144/367 151/368 150/369
f 152/370 151/371 144/372
f 122/373 123/374 137/375
f 135/376 136/377 147/378
f 145/379 146/380 152/381
f 143/382 150/383 149/384
f 130/385 129/386 142/387
f 76/388 115/389 75/390
f 84/391 106/392 86/393
f 107/394 109/395 124/396
f 153/397 156/398 155/399
f 157/400 153/401 154/402
f 157/403 158/404 160/405
f 161/406 159/407 160/408
f 161/409 162/410 164/411
f 165/412 163/413 164/414
f 167/415 165/416 166/417
f 167/418 168/419 155/420
f 169/421 171/422 170/423
f 172/424 169/425 170/426
f 169/427 173/428 171/429
f 174/430 175/431 171/432
f 173/433 174/434 171/435
f 174/436 176/437 175/438
f 177/439 178/440 175/441
f 176/442 177/443 175/444
f 177/445 179/446 178/447
f 180/448 181/449 178/450
f 179/451 180/452 178/453
f 180/454 182/455 181/456
f 183/457 184/458 181/459
f 185/460 184/461 183/462
f 183/463 181/464 182/465
f 186/466 187/467 184/468
f 185/469 186/470 184/471
f 186/472 188/473 187/474
f 189/475 190/476 187/477
f 188/478 189/479 187/480
f 189/481 191/482 190/483
f 192/484 170/485 190/486
f 172/487 170/488 192/489
f 192/490 190/491 191/492
f 193/493 196/494 195/495
f 193/496 194/497 198/498
f 199/499 197/500 198/501
f 199/502 200/503 202/504
f 206/505 205/506 204/507
f 206/508 208/509 207/510
f 209/511 203/512 204/513
f 209/514 210/515 212/516
f 213/517 214/518 195/519
f 212/520 214/521 213/522
f 194/523 195/524 216/525
f 194/526 215/527 217/528
f 200/529 198/530 217/531
f 205/532 220/533 219/534
f 205/535 207/536 221/537
f 210/538 204/539 219/540
f 210/541 222/542 223/543
f 214/544 224/545 216/546
f 223/547 224/548 214/549
f 215/550 216/551 226/552
f 215/553 225/554 227/555
f 218/556 217/557 227/558
f 220/559 230/560 229/561
f 220/562 221/563 231/564
f 222/565 219/566 229/567
f 222/568 232/569 233/570
f 224/571 234/572 226/573
f 233/574 234/575 224/576
f 235/577 238/578 237/579
f 239/580 236/581 237/582
f 239/583 240/584 242/585
f 242/586 244/587 243/588
f 243/589 244/590 246/591
f 247/592 250/593 249/594
f 246/595 250/596 247/597
f 249/598 252/599 251/600
f 253/601 235/602 236/603
f 255/604 254/605 236/606
f 255/607 239/608 241/609
f 241/610 243/611 257/612
f 257/613 243/614 245/615
f 259/616 247/617 248/618
f 245/619 247/620 259/621
f 248/622 251/623 261/624
f 262/625 253/626 254/627
f 265/628 253/629 262/630
f 266/631 263/632 254/633
f 266/634 255/635 256/636
f 256/637 257/638 268/639
f 268/640 257/641 258/642
f 270/643 259/644 260/645
f 258/646 259/647 270/648
f 260/649 261/650 272/651
f 273/652 274/653 275/654
f 276/655 277/656 273/657
f 273/658 277/659 274/660
f 278/661 275/662 274/663
f 279/664 278/665 280/666
f 278/667 274/668 280/669
f 281/670 279/671 280/672
f 282/673 281/674 283/675
f 281/676 280/677 283/678
f 284/679 285/680 286/681
f 282/682 283/683 284/684
f 284/685 283/686 285/687
f 287/688 286/689 285/690
f 288/691 287/692 289/693
f 287/694 285/695 289/696
f 290/697 288/698 289/699
f 291/700 290/701 292/702
f 290/703 289/704 292/705
f 293/706 291/707 292/708
f 294/709 293/710 295/711
f 293/712 292/713 295/714
f 296/715 294/716 295/717
f 276/718 296/719 277/720
f 296/721 295/722 277/723
f 297/724 300/725 299/726
f 297/727 298/728 302/729
f 301/730 302/731 304/732
f 305/733 303/734 304/735
f 305/736 306/737 308/738
f 308/739 310/740 309/741
f 309/742 310/743 312/744
f 311/745 312/746 299/747
f 316/748 315/749 314/750
f 315/751 318/752 317/753
f 318/754 320/755 319/756
f 319/757 320/758 322/759
f 323/760 326/761 325/762
f 324/763 325/764 328/765
f 327/766 328/767 330/768
f 334/769 333/770 332/771
f 335/772 338/773 337/774
f 339/775 342/776 341/777
f 346/778 345/779 344/780
f 345/781 348/782 347/783
f 349/784 352/785 351/786
f 356/787 355/788 354/789
f 360/790 359/791 358/792
f 361/793 362/794 360/795
f 336/796 337/797 342/798
f 340/799 341/800 352/801
f 350/802 351/803 362/804
f 359/805 356/806 353/807
f 348/808 334/809 331/810
f 333/811 316/812 313/813
f 321/814 322/815 326/816
f 329/817 330/818 338/819
f 355/820 346/821 343/822
f 342/823 364/824 363/825
f 352/826 366/827 365/828
f 360/829 368/830 367/831
f 362/832 369/833 368/834
f 337/835 370/836 364/837
f 341/838 363/839 366/840
f 351/841 365/842 369/843
f 359/844 367/845 371/846
f 364/847 373/848 372/849
f 366/850 375/851 374/852
f 377/853 376/854 367/855
f 369/856 378/857 377/858
f 370/859 379/860 373/861
f 363/862 372/863 375/864
f 365/865 374/866 378/867
f 376/868 380/869 371/870
f 373/871 382/872 381/873
f 375/874 384/875 383/876
f 386/877 385/878 376/879
f 387/880 386/881 377/882
f 379/883 388/884 382/885
f 372/886 381/887 384/888
f 374/889 383/890 387/891
f 385/892 389/893 380/894
f 393/895 392/896 391/897
f 396/898 395/899 337/900
f 392/901 396/902 394/903
f 393/904 397/905 218/906
f 398/907 397/908 393/909
f 400/910 399/911 315/912
f 399/913 401/914 318/915
f 401/916 402/917 320/918
f 320/919 402/920 403/921
f 326/922 405/923 404/924
f 325/925 404/926 406/927
f 408/928 407/929 333/930
f 410/931 409/932 348/933
f 409/934 408/935 334/936
f 407/937 400/938 316/939
f 322/940 403/941 405/942
f 384/943 412/944 411/945
f 414/946 413/947 385/948
f 415/949 414/950 386/951
f 381/952 416/953 412/954
f 411/955 415/956 387/957
f 385/958 413/959 389/960
f 382/961 388/962 416/963
f 419/964 418/965 410/966
f 405/967 421/968 420/969
f 421/970 423/971 422/972
f 423/973 425/974 424/975
f 424/976 425/977 427/978
f 426/979 427/980 429/981
f 428/982 429/983 408/984
f 404/985 420/986 430/987
f 420/988 422/989 431/990
f 422/991 424/992 432/993
f 432/994 424/995 426/996
f 433/997 426/998 428/999
f 418/1000 428/1001 409/1002
f 406/1003 430/1004 398/1005
f 399/1006 427/1007 425/1008
f 401/1009 425/1010 423/1011
f 402/1012 423/1013 421/1014
f 403/1015 421/1016 405/1017
f 400/1018 429/1019 427/1020
f 407/1021 408/1022 429/1023
f 434/1024 437/1025 436/1026
f 437/1027 438/1028 436/1029
f 434/1030 440/1031 439/1032
f 442/1033 441/1034 439/1035
f 208/1036 443/1037 395/1038
f 416/1039 388/1040 337/1041
f 388/1042 379/1043 370/1044
f 443/1045 337/1046 395/1047
f 156/1048 153/1049 444/1050
f 153/1051 157/1052 444/1053
f 157/1054 159/1055 444/1056
f 159/1057 161/1058 444/1059
f 161/1060 163/1061 444/1062
f 163/1063 165/1064 444/1065
f 165/1066 167/1067 444/1068
f 167/1069 156/1070 444/1071
f 297/1072 445/1073 300/1074
f 301/1075 445/1076 297/1077
f 303/1078 445/1079 301/1080
f 305/1081 445/1082 303/1083
f 307/1084 445/1085 305/1086
f 309/1087 445/1088 307/1089
f 311/1090 445/1091 309/1092
f 300/1093 445/1094 311/1095
f 398/1096 430/1097 446/1098
f 447/1099 448/1100 449/1101
f 448/1102 451/1103 452/1104
f 451/1105 453/1106 454/1107
f 453/1108 455/1109 456/1110
f 457/1111 456/1112 455/1113
f 459/1114 462/1115 461/1116
f 460/1117 461/1118 464/1119
f 463/1120 464/1121 416/1122
f 459/1123 466/1124 465/1125
f 468/1126 467/1127 465/1128
f 470/1129 471/1130 472/1131
f 473/1132 474/1133 471/1134
f 475/1135 476/1136 474/1137
f 478/1138 476/1139 475/1140
f 477/1141 479/1142 478/1143
f 480/1144 441/1145 442/1146
f 238/1147 481/1148 237/1149
f 237/1150 481/1151 240/1152
f 240/1153 481/1154 242/1155
f 242/1156 481/1157 244/1158
f 244/1159 481/1160 246/1161
f 250/1162 481/1163 249/1164
f 246/1165 481/1166 250/1167
f 249/1168 481/1169 252/1170
f 482/1171 484/1172 483/1173
f 483/1174 484/1175 485/1176
f 225/1177 226/1178 486/1179
f 227/1180 225/1181 486/1182
f 228/1183 227/1184 486/1185
f 229/1186 230/1187 486/1188
f 230/1189 231/1190 486/1191
f 232/1192 229/1193 486/1194
f 233/1195 232/1196 486/1197
f 226/1198 234/1199 486/1200
f 234/1201 233/1202 486/1203
f 228/1204 392/1205 393/1206
f 486/1207 392/1208 228/1209
f 228/1210 393/1211 218/1212
f 231/1213 396/1214 392/1215
f 221/1216 396/1217 231/1218
f 231/1219 392/1220 486/1221
f 207/1222 395/1223 396/1224
f 208/1225 395/1226 207/1227
f 207/1228 396/1229 221/1230
f 75/1231 488/1232 487/1233
f 487/1234 488/1235 313/1236
f 78/1237 487/1238 489/1239
f 489/1240 487/1241 314/1242
f 80/1243 489/1244 490/1245
f 489/1246 317/1247 319/1248
f 84/1249 82/1250 490/1251
f 490/1252 319/1253 321/1254
f 105/1255 106/1256 493/1257
f 493/1258 323/1259 324/1260
f 108/1261 105/1262 492/1263
f 492/1264 324/1265 327/1266
f 109/1267 108/1268 494/1269
f 494/1270 327/1271 329/1272
f 130/1273 497/1274 496/1275
f 496/1276 497/1277 331/1278
f 123/1279 124/1280 499/1281
f 499/1282 335/1283 336/1284
f 136/1285 137/1286 501/1287
f 501/1288 339/1289 340/1290
f 138/1291 503/1292 502/1293
f 502/1294 503/1295 343/1296
f 140/1297 502/1298 504/1299
f 504/1300 502/1301 344/1302
f 146/1303 147/1304 506/1305
f 506/1306 349/1307 350/1308
f 149/1309 508/1310 507/1311
f 507/1312 508/1313 353/1314
f 151/1315 510/1316 509/1317
f 509/1318 510/1319 357/1320
f 151/1321 152/1322 511/1323
f 511/1324 361/1325 357/1326
f 137/1327 123/1328 498/1329
f 498/1330 336/1331 339/1332
f 147/1333 136/1334 500/1335
f 500/1336 340/1337 349/1338
f 152/1339 146/1340 505/1341
f 505/1342 350/1343 361/1344
f 150/1345 509/1346 508/1347
f 508/1348 509/1349 358/1350
f 142/1351 504/1352 497/1353
f 497/1354 504/1355 347/1356
f 115/1357 496/1358 488/1359
f 488/1360 496/1361 332/1362
f 106/1363 84/1364 491/1365
f 491/1366 321/1367 323/1368
f 124/1369 109/1370 495/1371
f 495/1372 329/1373 335/1374
f 148/1375 507/1376 503/1377
f 503/1378 507/1379 354/1380
f 512/1381 200/1382 218/1383
f 512/1384 202/1385 200/1386
f 202/1387 512/1388 513/1389
f 397/1390 398/1391 514/1392
f 398/1393 446/1394 515/1395
f 201/1396 202/1397 513/1398
f 265/1399 519/1400 518/1401
f 520/1402 433/1403 418/1404
f 522/1405 433/1406 520/1407
f 521/1408 418/1409 419/1410
f 253/1411 265/1412 517/1413
f 519/1414 265/1415 264/1416
f 441/1417 480/1418 525/1419
f 482/1420 419/1421 417/1422
f 524/1423 525/1424 485/1425
f 2/1426 1/1427 3/1428
f 6/1429 5/1430 7/1431
f 1/1432 9/1433 4/1434
f 12/1435 11/1436 6/1437
f 9/1438 13/1439 10/1440
f 15/1441 11/1442 16/1443
f 13/1444 17/1445 14/1446
f 20/1447 19/1448 16/1449
f 17/1450 21/1451 18/1452
f 23/1453 19/1454 24/1455
f 21/1456 25/1457 22/1458
f 27/1459 23/1460 28/1461
f 29/1462 30/1463 25/1464
f 31/1465 27/1466 32/1467
f 33/1468 34/1469 29/1470
f 35/1471 31/1472 36/1473
f 37/1474 38/1475 33/1476
f 37/1477 35/1478 38/1479
f 40/1480 39/1481 41/1482
f 44/1483 43/1484 41/1485
f 39/1486 45/1487 42/1488
f 47/1489 43/1490 48/1491
f 3/1492 46/1493 2/1494
f 8/1495 47/1496 7/1497
f 3/1498 4/1499 49/1500
f 6/1501 7/1502 51/1503
f 4/1504 10/1505 50/1506
f 12/1507 6/1508 54/1509
f 14/1510 55/1511 10/1512
f 16/1513 12/1514 56/1515
f 14/1516 18/1517 55/1518
f 20/1519 16/1520 58/1521
f 18/1522 22/1523 57/1524
f 24/1525 20/1526 60/1527
f 26/1528 61/1529 22/1530
f 24/1531 60/1532 28/1533
f 30/1534 63/1535 26/1536
f 28/1537 62/1538 32/1539
f 30/1540 34/1541 63/1542
f 32/1543 64/1544 36/1545
f 34/1546 38/1547 65/1548
f 38/1549 36/1550 67/1551
f 41/1552 42/1553 68/1554
f 41/1555 68/1556 44/1557
f 46/1558 71/1559 42/1560
f 48/1561 44/1562 72/1563
f 46/1564 3/1565 71/1566
f 7/1567 48/1568 52/1569
f 49/1570 50/1571 73/1572
f 51/1573 52/1574 75/1575
f 50/1576 53/1577 74/1578
f 54/1579 51/1580 78/1581
f 53/1582 55/1583 77/1584
f 56/1585 54/1586 80/1587
f 55/1588 57/1589 79/1590
f 58/1591 56/1592 82/1593
f 59/1594 83/1595 57/1596
f 84/1597 60/1598 82/1599
f 61/1600 85/1601 59/1602
f 86/1603 62/1604 84/1605
f 63/1606 87/1607 61/1608
f 88/1609 64/1610 86/1611
f 65/1612 89/1613 63/1614
f 90/1615 66/1616 88/1617
f 67/1618 91/1619 65/1620
f 91/1621 67/1622 90/1623
f 69/1624 93/1625 68/1626
f 94/1627 70/1628 92/1629
f 69/1630 71/1631 93/1632
f 72/1633 70/1634 96/1635
f 71/1636 49/1637 95/1638
f 52/1639 72/1640 76/1641
f 73/1642 74/1643 97/1644
f 74/1645 77/1646 98/1647
f 77/1648 79/1649 99/1650
f 81/1651 101/1652 79/1653
f 83/1654 102/1655 81/1656
f 85/1657 103/1658 83/1659
f 87/1660 104/1661 85/1662
f 88/1663 86/1664 105/1665
f 89/1666 107/1667 87/1668
f 90/1669 88/1670 108/1671
f 91/1672 109/1673 89/1674
f 109/1675 91/1676 108/1677
f 93/1678 111/1679 92/1680
f 94/1681 92/1682 112/1683
f 95/1684 113/1685 93/1686
f 96/1687 94/1688 114/1689
f 113/1690 95/1691 97/1692
f 76/1693 96/1694 115/1695
f 97/1696 98/1697 116/1698
f 98/1699 99/1700 117/1701
f 99/1702 100/1703 118/1704
f 100/1705 101/1706 119/1707
f 102/1708 121/1709 101/1710
f 103/1711 122/1712 102/1713
f 103/1714 104/1715 122/1716
f 107/1717 124/1718 104/1719
f 110/1720 111/1721 125/1722
f 112/1723 110/1724 127/1725
f 111/1726 113/1727 126/1728
f 114/1729 112/1730 129/1731
f 113/1732 97/1733 128/1734
f 115/1735 114/1736 130/1737
f 117/1738 132/1739 116/1740
f 118/1741 133/1742 117/1743
f 118/1744 119/1745 133/1746
f 119/1747 120/1748 134/1749
f 121/1750 136/1751 120/1752
f 122/1753 137/1754 121/1755
f 126/1756 139/1757 125/1758
f 127/1759 125/1760 140/1761
f 126/1762 128/1763 139/1764
f 129/1765 127/1766 142/1767
f 128/1768 116/1769 141/1770
f 131/1771 132/1772 143/1773
f 133/1774 145/1775 132/1776
f 134/1777 146/1778 133/1779
f 135/1780 147/1781 134/1782
f 139/1783 141/1784 148/1785
f 141/1786 131/1787 149/1788
f 143/1789 144/1790 150/1791
f 145/1792 152/1793 144/1794
f 154/1795 153/1796 155/1797
f 158/1798 157/1799 154/1800
f 159/1801 157/1802 160/1803
f 162/1804 161/1805 160/1806
f 163/1807 161/1808 164/1809
f 166/1810 165/1811 164/1812
f 168/1813 167/1814 166/1815
f 156/1816 167/1817 155/1818
f 194/1819 193/1820 195/1821
f 197/1822 193/1823 198/1824
f 200/1825 199/1826 198/1827
f 201/1828 199/1829 202/1830
f 203/1831 206/1832 204/1833
f 205/1834 206/1835 207/1836
f 210/1837 209/1838 204/1839
f 211/1840 209/1841 212/1842
f 196/1843 213/1844 195/1845
f 211/1846 212/1847 213/1848
f 215/1849 194/1850 216/1851
f 198/1852 194/1853 217/1854
f 218/1855 200/1856 217/1857
f 204/1858 205/1859 219/1860
f 220/1861 205/1862 221/1863
f 222/1864 210/1865 219/1866
f 212/1867 210/1868 223/1869
f 195/1870 214/1871 216/1872
f 212/1873 223/1874 214/1875
f 225/1876 215/1877 226/1878
f 217/1879 215/1880 227/1881
f 228/1882 218/1883 227/1884
f 219/1885 220/1886 229/1887
f 230/1888 220/1889 231/1890
f 232/1891 222/1892 229/1893
f 223/1894 222/1895 233/1896
f 216/1897 224/1898 226/1899
f 223/1900 233/1901 224/1902
f 236/1903 235/1904 237/1905
f 240/1906 239/1907 237/1908
f 241/1909 239/1910 242/1911
f 241/1912 242/1913 243/1914
f 245/1915 243/1916 246/1917
f 248/1918 247/1919 249/1920
f 245/1921 246/1922 247/1923
f 248/1924 249/1925 251/1926
f 254/1927 253/1928 236/1929
f 239/1930 255/1931 236/1932
f 256/1933 255/1934 241/1935
f 256/1936 241/1937 257/1938
f 258/1939 257/1940 245/1941
f 260/1942 259/1943 248/1944
f 258/1945 245/1946 259/1947
f 260/1948 248/1949 261/1950
f 263/1951 262/1952 254/1953
f 264/1954 265/1955 262/1956
f 255/1957 266/1958 254/1959
f 267/1960 266/1961 256/1962
f 267/1963 256/1964 268/1965
f 269/1966 268/1967 258/1968
f 271/1969 270/1970 260/1971
f 269/1972 258/1973 270/1974
f 271/1975 260/1976 272/1977
f 298/1978 297/1979 299/1980
f 301/1981 297/1982 302/1983
f 303/1984 301/1985 304/1986
f 306/1987 305/1988 304/1989
f 307/1990 305/1991 308/1992
f 307/1993 308/1994 309/1995
f 311/1996 309/1997 312/1998
f 300/1999 311/2000 299/2001
f 313/2002 316/2003 314/2004
f 314/2005 315/2006 317/2007
f 317/2008 318/2009 319/2010
f 321/2011 319/2012 322/2013
f 324/2014 323/2015 325/2016
f 327/2017 324/2018 328/2019
f 329/2020 327/2021 330/2022
f 331/2023 334/2024 332/2025
f 336/2026 335/2027 337/2028
f 340/2029 339/2030 341/2031
f 343/2032 346/2033 344/2034
f 344/2035 345/2036 347/2037
f 350/2038 349/2039 351/2040
f 353/2041 356/2042 354/2043
f 357/2044 360/2045 358/2046
f 357/2047 361/2048 360/2049
f 339/2050 336/2051 342/2052
f 349/2053 340/2054 352/2055
f 361/2056 350/2057 362/2058
f 358/2059 359/2060 353/2061
f 347/2062 348/2063 331/2064
f 332/2065 333/2066 313/2067
f 323/2068 321/2069 326/2070
f 335/2071 329/2072 338/2073
f 354/2074 355/2075 343/2076
f 341/2077 342/2078 363/2079
f 351/2080 352/2081 365/2082
f 359/2083 360/2084 367/2085
f 360/2086 362/2087 368/2088
f 342/2089 337/2090 364/2091
f 352/2092 341/2093 366/2094
f 362/2095 351/2096 369/2097
f 356/2098 359/2099 371/2100
f 363/2101 364/2102 372/2103
f 365/2104 366/2105 374/2106
f 368/2107 377/2108 367/2109
f 368/2110 369/2111 377/2112
f 364/2113 370/2114 373/2115
f 366/2116 363/2117 375/2118
f 369/2119 365/2120 378/2121
f 367/2122 376/2123 371/2124
f 372/2125 373/2126 381/2127
f 374/2128 375/2129 383/2130
f 377/2131 386/2132 376/2133
f 378/2134 387/2135 377/2136
f 373/2137 379/2138 382/2139
f 375/2140 372/2141 384/2142
f 378/2143 374/2144 387/2145
f 376/2146 385/2147 380/2148
f 390/2149 393/2150 391/2151
f 394/2152 396/2153 337/2154
f 391/2155 392/2156 394/2157
f 328/2158 398/2159 393/2160
f 316/2161 400/2162 315/2163
f 315/2164 399/2165 318/2166
f 318/2167 401/2168 320/2169
f 322/2170 320/2171 403/2172
f 325/2173 326/2174 404/2175
f 328/2176 325/2177 406/2178
f 334/2179 408/2180 333/2181
f 345/2182 410/2183 348/2184
f 348/2185 409/2186 334/2187
f 333/2188 407/2189 316/2190
f 326/2191 322/2192 405/2193
f 383/2194 384/2195 411/2196
f 386/2197 414/2198 385/2199
f 387/2200 415/2201 386/2202
f 384/2203 381/2204 412/2205
f 383/2206 411/2207 387/2208
f 381/2209 382/2210 416/2211
f 417/2212 419/2213 410/2214
f 404/2215 405/2216 420/2217
f 420/2218 421/2219 422/2220
f 422/2221 423/2222 424/2223
f 426/2224 424/2225 427/2226
f 428/2227 426/2228 429/2229
f 409/2230 428/2231 408/2232
f 406/2233 404/2234 430/2235
f 430/2236 420/2237 431/2238
f 431/2239 422/2240 432/2241
f 433/2242 432/2243 426/2244
f 418/2245 433/2246 428/2247
f 410/2248 418/2249 409/2250
f 328/2251 406/2252 398/2253
f 401/2254 399/2255 425/2256
f 402/2257 401/2258 423/2259
f 403/2260 402/2261 421/2262
f 399/2263 400/2264 427/2265
f 400/2266 407/2267 429/2268
f 435/2269 434/2270 436/2271
f 437/2272 434/2273 439/2274
f 440/2275 442/2276 439/2277
f 443/2278 416/2279 337/2280
f 337/2281 388/2282 370/2283
f 450/2284 447/2285 449/2286
f 449/2287 448/2288 452/2289
f 452/2290 451/2291 454/2292
f 454/2293 453/2294 456/2295
f 458/2296 457/2297 455/2298
f 460/2299 459/2300 461/2301
f 463/2302 460/2303 464/2304
f 443/2305 463/2306 416/2307
f 462/2308 459/2309 465/2310
f 466/2311 468/2312 465/2313
f 469/2314 470/2315 472/2316
f 470/2317 473/2318 471/2319
f 473/2320 475/2321 474/2322
f 477/2323 478/2324 475/2325
f 78/2326 75/2327 487/2328
f 314/2329 487/2330 313/2331
f 80/2332 78/2333 489/2334
f 317/2335 489/2336 314/2337
f 82/2338 80/2339 490/2340
f 490/2341 489/2342 319/2343
f 491/2344 84/2345 490/2346
f 491/2347 490/2348 321/2349
f 492/2350 105/2351 493/2352
f 492/2353 493/2354 324/2355
f 494/2356 108/2357 492/2358
f 494/2359 492/2360 327/2361
f 495/2362 109/2363 494/2364
f 495/2365 494/2366 329/2367
f 115/2368 130/2369 496/2370
f 332/2371 496/2372 331/2373
f 498/2374 123/2375 499/2376
f 498/2377 499/2378 336/2379
f 500/2380 136/2381 501/2382
f 500/2383 501/2384 340/2385
f 140/2386 138/2387 502/2388
f 344/2389 502/2390 343/2391
f 142/2392 140/2393 504/2394
f 347/2395 504/2396 344/2397
f 505/2398 146/2399 506/2400
f 505/2401 506/2402 350/2403
f 148/2404 149/2405 507/2406
f 354/2407 507/2408 353/2409
f 150/2410 151/2411 509/2412
f 358/2413 509/2414 357/2415
f 510/2416 151/2417 511/2418
f 510/2419 511/2420 357/2421
f 501/2422 137/2423 498/2424
f 501/2425 498/2426 339/2427
f 506/2428 147/2429 500/2430
f 506/2431 500/2432 349/2433
f 511/2434 152/2435 505/2436
f 511/2437 505/2438 361/2439
f 149/2440 150/2441 508/2442
f 353/2443 508/2444 358/2445
f 130/2446 142/2447 497/2448
f 331/2449 497/2450 347/2451
f 75/2452 115/2453 488/2454
f 313/2455 488/2456 332/2457
f 493/2458 106/2459 491/2460
f 493/2461 491/2462 323/2463
f 499/2464 124/2465 495/2466
f 499/2467 495/2468 335/2469
f 138/2470 148/2471 503/2472
f 343/2473 503/2474 354/2475
f 514/2476 398/2477 515/2478
f 516/2479 201/2480 513/2481
f 517/2482 265/2483 518/2484
f 521/2485 520/2486 418/2487
f 235/2488 253/2489 517/2490
f 523/2491 519/2492 264/2493
f 524/2494 441/2495 525/2496
f 484/2497 482/2498 417/2499
f 484/2500 524/2501 485/2502
