mtllib LHipRoll.mtl
o LHipRoll
usemtl nao_texture
v -0.427 -0.1112723 0.1211211
v -0.427 -0.1362503 0.09284424
v 0.086 -0.1362503 0.09284424
v 0.086 -0.1112723 0.1211211
v -0.427 -0.05799549 0.1567195
v 0.086 -0.05799549 0.1567195
v -0.427 0.004848785 0.16922
v 0.086 0.004848747 0.16922
v -0.427 0.06769306 0.1567195
v 0.086 0.06769302 0.1567195
v -0.427 0.1209698 0.1211211
v 0.086 0.1209698 0.1211211
v -0.427 0.1459479 0.09284424
v 0.086 0.1459479 0.09284424
v -0.427 -0.1362504 -0.1731557
v 0.08599999 -0.1362504 -0.1731558
v 0.08599999 0.1459479 -0.1731558
v -0.427 0.1459479 -0.1731558
v -0.2418306 0.1258487 -0.2478305
v -0.2709669 0.1258487 -0.2118778
v -0.2709669 0.1448487 -0.1878778
v -0.2418306 0.1448487 -0.2238306
v -0.1308778 0.1258487 -0.3219668
v -0.1308778 0.1448487 -0.2979669
v -1e-08 0.1258487 -0.3480002
v -1e-08 0.1448487 -0.3240001
v 0.1308778 0.1258487 -0.3219668
v 0.1308778 0.1448487 -0.2979669
v 0.2418306 0.1258487 -0.2478305
v 0.2418306 0.1448487 -0.2238306
v -0.4269668 0.1258487 -0.2118778
v -0.4269668 0.1448487 -0.1878778
v -0.2418306 0.1448487 -0.2238306
v 0.1308778 0.1448487 -0.2979669
v -1e-08 0.1448487 -0.3240001
v -0.1308778 0.1448487 -0.2979669
v -0.2709669 0.1448487 -0.1878778
v 0.2418306 0.1448487 -0.2238306
v -0.4269668 0.1448487 -0.1878778
v -0.4269668 -0.1161513 -0.2118778
v -0.2709669 -0.1161513 -0.2118778
v -0.2709669 -0.1351513 -0.1878777
v -0.4269668 -0.1351513 -0.1878777
v 0.2418306 -0.1161513 -0.2478305
v 0.2418306 -0.1351513 -0.2238306
v 0.1308778 -0.1351513 -0.2979669
v 0.1308778 -0.1161513 -0.3219668
v -2e-08 -0.1351513 -0.3240001
v -2e-08 -0.1161513 -0.348
v -0.1308778 -0.1351513 -0.2979669
v -0.1308778 -0.1161513 -0.3219668
v -0.2418306 -0.1351513 -0.2238306
v -0.2418306 -0.1161513 -0.2478305
v -0.4269668 -0.1351513 -0.1878777
v -0.2709669 -0.1351513 -0.1878777
v -2e-08 -0.1351513 -0.3240001
v 0.1308778 -0.1351513 -0.2979669
v -0.2418306 -0.1351513 -0.2238306
v -0.1308778 -0.1351513 -0.2979669
v 0.2418306 -0.1351513 -0.2238306
v -0.4269668 0.1258487 -0.2118778
v -0.4269668 -0.1161513 -0.2118778
v -0.4269668 -0.1351513 -0.1878777
v -0.4269668 0.1448487 -0.1878778
v -0.427 -0.1362504 -0.1731557
v -0.427 0.1459479 -0.1731558
v -0.427 -0.1362503 0.09284424
v -0.427 0.1459479 0.09284424
v -0.427 -0.1112723 0.1211211
v -0.427 0.1209698 0.1211211
v -0.427 -0.05799549 0.1567195
v -0.427 0.06769306 0.1567195
v -0.427 0.004848785 0.16922
v 0.086 -0.1362503 0.09284424
v 0.08599999 -0.1362504 -0.1731558
v 0.08599999 0.1459479 -0.1731558
v 0.086 0.1459479 0.09284424
v 0.086 0.1209698 0.1211211
v 0.086 -0.1112723 0.1211211
v 0.086 0.06769302 0.1567195
v 0.086 -0.05799549 0.1567195
v 0.086 0.004848747 0.16922
v 0.2418306 -0.1351513 -0.2238306
v 0.2418306 0.1448487 -0.2238306
v 0.2418306 0.1448487 -0.1738306
v 0.2418306 -0.1351513 -0.1738306
v 0.08599999 -0.1362504 -0.1731558
v 0.2418306 -0.1351513 -0.1738306
v 0.2418306 0.1448487 -0.1738306
v 0.08599999 0.1459479 -0.1731558
v 0.2418306 -0.1351513 -0.1738306
v 0.2418306 0.1448487 -0.1738306
vt 0.1156282 0.1256905
vt 0.1118006 0.1256905
vt 0.1118 0.1777348
vt 0.1221288 0.1256906
vt 0.1156282 0.1256905
vt 0.1156276 0.177735
vt 0.1221288 0.1256906
vt 0.1221281 0.1777351
vt 0.1286286 0.1777352
vt 0.1286293 0.1256906
vt 0.1286286 0.1777352
vt 0.135129 0.1777353
vt 0.1416305 0.1256907
vt 0.1351299 0.1256906
vt 0.135129 0.1777353
vt 0.1454583 0.1256908
vt 0.1416305 0.1256907
vt 0.1416296 0.1777355
vt 0.1118 0.1777348
vt 0.1118006 0.1256905
vt 0.08481466 0.1256902
vt 0.1454583 0.1256908
vt 0.1454572 0.1777356
vt 0.1724434 0.1777363
vt 0.08895796 0.1223674
vt 0.0882703 0.1256423
vt 0.09272265 0.1239426
vt 0.09377646 0.1211333
vt 0.09272265 0.1239426
vt 0.1063766 0.122602
vt 0.1071002 0.1195502
vt 0.1063766 0.122602
vt 0.1203942 0.1220981
vt 0.1332311 0.1183767
vt 0.1202483 0.1188524
vt 0.1203942 0.1220981
vt 0.1458067 0.1173413
vt 0.1332311 0.1183767
vt 0.1343938 0.1212901
vt 0.0882703 0.1256423
vt 0.08895796 0.1223674
vt 0.0725106 0.1220506
vt 0.1775891 0.1444774
vt 0.1851069 0.1822903
vt 0.1877493 0.1690127
vt 0.1739419 0.1415211
vt 0.1775845 0.193546
vt 0.1851069 0.1822903
vt 0.1739419 0.1415211
vt 0.1739423 0.1256947
vt 0.1724445 0.1256913
vt 0.07012861 0.0975763
vt 0.08758223 0.0943333
vt 0.08639436 0.090915
vt 0.1459575 0.0958843
vt 0.1481363 0.0934557
vt 0.1342746 0.0924027
vt 0.1332256 0.0953922
vt 0.1342746 0.0924027
vt 0.1201521 0.0922599
vt 0.1201521 0.0922599
vt 0.1059275 0.092555
vt 0.1068842 0.0956306
vt 0.1059275 0.092555
vt 0.09151118 0.0922165
vt 0.09295374 0.0951464
vt 0.09151118 0.0922165
vt 0.08639436 0.090915
vt 0.08758223 0.0943333
vt 0.1071002 0.1195502
vt 0.1202483 0.1188524
vt 0.1201794 0.0955394
vt 0.1202483 0.1188524
vt 0.1332311 0.1183767
vt 0.1332256 0.0953922
vt 0.1332311 0.1183767
vt 0.1458067 0.1173413
vt 0.1459575 0.0958843
vt 0.09377646 0.1211333
vt 0.1071002 0.1195502
vt 0.1068842 0.0956306
vt 0.08895796 0.1223674
vt 0.09377646 0.1211333
vt 0.09295374 0.0951464
vt 0.08895796 0.1223674
vt 0.08758223 0.0943333
vt 0.07012861 0.0975763
vt 0.08481466 0.1256902
vt 0.08331692 0.1256936
vt 0.08331674 0.1415199
vt 0.06950873 0.1690106
vt 0.07215064 0.1822882
vt 0.07966947 0.144476
vt 0.08331674 0.1415199
vt 0.07966947 0.144476
vt 0.07215064 0.1822882
vt 0.1502234 0.1256423
vt 0.1747747 0.1256423
vt 0.1767023 0.1232074
vt 0.1768138 0.1217139
vt 0.1481843 0.1217139
vt 0.1482958 0.1232074
vt 0.1481844 0.0947277
vt 0.1481843 0.1217139
vt 0.1768138 0.1217139
vt 0.1768138 0.0947277
vt 0.1742797 0.0918591
vt 0.1507184 0.0918591
vt 0.1688747 0.0882475
vt 0.1561234 0.0882475
vt 0.1507184 0.0918591
vt 0.1688747 0.0882475
vt 0.162499 0.0869794
vt 0.1561234 0.0882475
vt 0.1768618 0.0986562
vt 0.1768618 0.1256423
vt 0.2054912 0.1256423
vt 0.1768618 0.0986562
vt 0.2054912 0.0986562
vt 0.2029571 0.0957875
vt 0.1793958 0.0957875
vt 0.2029571 0.0957875
vt 0.1975521 0.092176
vt 0.1848008 0.092176
vt 0.1975521 0.092176
vt 0.1911764 0.0909077
vt 0.1481363 0.1197167
vt 0.1481363 0.0934557
vt 0.1459575 0.0958843
vt 0.09818613 0.090867
vt 0.1265926 0.090867
vt 0.1265926 0.0857944
vt 0.06950873 0.0750576
vt 0.06962025 0.090867
vt 0.09802669 0.090867
vt 0.07967257 0.1935439
vt 0.0847451 0.1935441
vt 0.08481407 0.1777346
vt 0.1724434 0.1777363
vt 0.1725118 0.193546
vt 0.1775845 0.193546
vt 0.1156276 0.177735
vt 0.1156282 0.1256905
vt 0.1118 0.1777348
vt 0.1221281 0.1777351
vt 0.1221288 0.1256906
vt 0.1156276 0.177735
vt 0.1286293 0.1256906
vt 0.1221288 0.1256906
vt 0.1286286 0.1777352
vt 0.1351299 0.1256906
vt 0.1286293 0.1256906
vt 0.135129 0.1777353
vt 0.1416296 0.1777355
vt 0.1416305 0.1256907
vt 0.135129 0.1777353
vt 0.1454572 0.1777356
vt 0.1454583 0.1256908
vt 0.1416296 0.1777355
vt 0.08481407 0.1777346
vt 0.1118 0.1777348
vt 0.08481466 0.1256902
vt 0.1724445 0.1256913
vt 0.1454583 0.1256908
vt 0.1724434 0.1777363
vt 0.09377646 0.1211333
vt 0.08895796 0.1223674
vt 0.09272265 0.1239426
vt 0.1071002 0.1195502
vt 0.09377646 0.1211333
vt 0.1063766 0.122602
vt 0.1202483 0.1188524
vt 0.1071002 0.1195502
vt 0.1203942 0.1220981
vt 0.1343938 0.1212901
vt 0.1332311 0.1183767
vt 0.1203942 0.1220981
vt 0.1481363 0.1197167
vt 0.1458067 0.1173413
vt 0.1343938 0.1212901
vt 0.0724138 0.1249243
vt 0.0882703 0.1256423
vt 0.0725106 0.1220506
vt 0.1851094 0.1557345
vt 0.1775891 0.1444774
vt 0.1877493 0.1690127
vt 0.1775891 0.1444774
vt 0.1739419 0.1415211
vt 0.1851069 0.1822903
vt 0.1724434 0.1777363
vt 0.1739419 0.1415211
vt 0.1724445 0.1256913
vt 0.06950873 0.0945102
vt 0.07012861 0.0975763
vt 0.08639436 0.090915
vt 0.1332256 0.0953922
vt 0.1459575 0.0958843
vt 0.1342746 0.0924027
vt 0.1201794 0.0955394
vt 0.1332256 0.0953922
vt 0.1201521 0.0922599
vt 0.1201794 0.0955394
vt 0.1201521 0.0922599
vt 0.1068842 0.0956306
vt 0.1068842 0.0956306
vt 0.1059275 0.092555
vt 0.09295374 0.0951464
vt 0.09295374 0.0951464
vt 0.09151118 0.0922165
vt 0.08758223 0.0943333
vt 0.1068842 0.0956306
vt 0.1071002 0.1195502
vt 0.1201794 0.0955394
vt 0.1201794 0.0955394
vt 0.1202483 0.1188524
vt 0.1332256 0.0953922
vt 0.1332256 0.0953922
vt 0.1332311 0.1183767
vt 0.1459575 0.0958843
vt 0.09295374 0.0951464
vt 0.09377646 0.1211333
vt 0.1068842 0.0956306
vt 0.08758223 0.0943333
vt 0.08895796 0.1223674
vt 0.09295374 0.0951464
vt 0.0725106 0.1220506
vt 0.08895796 0.1223674
vt 0.07012861 0.0975763
vt 0.08481407 0.1777346
vt 0.08481466 0.1256902
vt 0.08331674 0.1415199
vt 0.07214897 0.1557327
vt 0.06950873 0.1690106
vt 0.07966947 0.144476
vt 0.07967257 0.1935439
vt 0.08331674 0.1415199
vt 0.07215064 0.1822882
vt 0.1482958 0.1232074
vt 0.1502234 0.1256423
vt 0.1767023 0.1232074
vt 0.1767023 0.1232074
vt 0.1768138 0.1217139
vt 0.1482958 0.1232074
vt 0.1768138 0.0947277
vt 0.1481844 0.0947277
vt 0.1768138 0.1217139
vt 0.1481844 0.0947277
vt 0.1768138 0.0947277
vt 0.1507184 0.0918591
vt 0.1742797 0.0918591
vt 0.1688747 0.0882475
vt 0.1507184 0.0918591
vt 0.2054912 0.0986562
vt 0.1768618 0.0986562
vt 0.2054912 0.1256423
vt 0.1793958 0.0957875
vt 0.1768618 0.0986562
vt 0.2029571 0.0957875
vt 0.1848008 0.092176
vt 0.1793958 0.0957875
vt 0.1975521 0.092176
vt 0.1458067 0.1173413
vt 0.1481363 0.1197167
vt 0.1459575 0.0958843
vt 0.09818613 0.0857944
vt 0.09818613 0.090867
vt 0.1265926 0.0857944
vt 0.09813815 0.0750576
vt 0.06950873 0.0750576
vt 0.09802669 0.090867
vt 0.08331674 0.1415199
vt 0.07967257 0.1935439
vt 0.08481407 0.1777346
vt 0.1739419 0.1415211
vt 0.1724434 0.1777363
vt 0.1775845 0.193546
usemtl LHipRollUV
f 1/1 2/2 3/3
f 5/4 1/5 4/6
f 5/7 6/8 8/9
f 7/10 8/11 10/12
f 11/13 9/14 10/15
f 13/16 11/17 12/18
f 3/19 2/20 15/21
f 13/22 14/23 17/24
f 20/25 21/26 22/27
f 19/28 22/29 24/30
f 23/31 24/32 26/33
f 27/34 25/35 26/36
f 29/37 27/38 28/39
f 21/40 20/41 31/42
f 33/43 34/44 35/45
f 37/46 38/47 34/48
f 37/49 39/50 18/51
f 40/52 41/53 42/54
f 44/55 45/56 46/57
f 47/58 46/59 48/60
f 48/61 50/62 51/63
f 50/64 52/65 53/66
f 52/67 42/68 41/69
f 23/70 25/71 49/72
f 25/73 27/74 47/75
f 27/76 29/77 44/78
f 19/79 23/80 51/81
f 20/82 19/83 53/84
f 20/85 41/86 40/87
f 15/88 54/89 55/90
f 56/91 57/92 58/93
f 55/94 58/95 57/96
f 61/97 62/98 63/99
f 65/100 66/101 64/102
f 68/103 66/104 65/105
f 67/106 69/107 70/108
f 71/109 72/110 70/111
f 71/112 73/113 72/114
f 74/115 75/116 76/117
f 74/118 77/119 78/120
f 79/121 78/122 80/123
f 81/124 80/125 82/126
f 30/127 45/128 44/129
f 83/130 84/131 85/132
f 87/133 88/134 89/135
f 60/136 91/137 16/138
f 17/139 92/140 38/141
f 4/142 1/143 3/144
f 6/145 5/146 4/147
f 7/148 5/149 8/150
f 9/151 7/152 10/153
f 12/154 11/155 10/156
f 14/157 13/158 12/159
f 16/160 3/161 15/162
f 18/163 13/164 17/165
f 19/166 20/167 22/168
f 23/169 19/170 24/171
f 25/172 23/173 26/174
f 28/175 27/176 26/177
f 30/178 29/179 28/180
f 32/181 21/182 31/183
f 36/184 33/185 35/186
f 33/187 37/188 34/189
f 17/190 37/191 18/192
f 43/193 40/194 42/195
f 47/196 44/197 46/198
f 49/199 47/200 48/201
f 49/202 48/203 51/204
f 51/205 50/206 53/207
f 53/208 52/209 41/210
f 51/211 23/212 49/213
f 49/214 25/215 47/216
f 47/217 27/218 44/219
f 53/220 19/221 51/222
f 41/223 20/224 53/225
f 31/226 20/227 40/228
f 16/229 15/230 55/231
f 59/232 56/233 58/234
f 60/235 55/236 57/237
f 64/238 61/239 63/240
f 63/241 65/242 64/243
f 67/244 68/245 65/246
f 68/247 67/248 70/249
f 69/250 71/251 70/252
f 77/253 74/254 76/255
f 79/256 74/257 78/258
f 81/259 79/260 80/261
f 29/262 30/263 44/264
f 86/265 83/266 85/267
f 90/268 87/269 89/270
f 55/271 60/272 16/273
f 37/274 17/275 38/276
