mtllib LShoulderPitch.mtl
o LShoulderPitch
usemtl nao_texture
v -0.2974478 -0.2556307 -0.1106786
v -0.2474478 -0.03998764 -0.1106786
v -0.2818304 -0.2556307 0.1496898
v -0.216885 -0.2556307 0.2212795
v -0.186885 -0.07931763 0.2212795
v -0.2318304 -0.0501297 0.1496898
v -0.1268452 -0.2556307 0.2748706
v -0.1268452 -0.1183079 0.2748706
v -0.049768 -0.2556307 0.3061218
v -0.049768 -0.1702136 0.3061218
v 0.1895281 -0.2556307 0.250635
v 0.1895281 -0.2447458 0.250635
v 0.02746458 -0.2556307 0.3125013
v 0.1129406 -0.2556307 0.2934924
v 0.1129406 -0.2380959 0.2934924
v 0.02746458 -0.2091773 0.3125013
v 0.2769973 -0.2447458 -0.1514545
v 0.2769973 -0.2556307 -0.1514545
v 0.06802928 -0.2556307 -0.3078862
v 0.06802928 -0.2257458 -0.3078862
v -0.01136854 -0.2556307 -0.3142658
v -0.01136854 -0.190575 -0.3142658
v -0.3133901 -0.2556307 -0.02329621
v -0.3080398 -0.2556307 0.06590207
v -0.2580398 -0.03310913 0.06590205
v -0.2633901 -0.02963463 -0.02329623
v -0.2415046 -0.2556307 -0.189166
v -0.2115046 -0.06332947 -0.189166
v -0.09264717 -0.2556307 -0.295257
v -0.1584722 -0.2556307 -0.2523997
v -0.1584722 -0.09776909 -0.2523997
v -0.09264717 -0.1405164 -0.295257
v 0.2527618 -0.2556307 0.1874012
v 0.2956192 -0.2556307 0.1089139
v 0.2956192 -0.2447458 0.1089139
v 0.2527618 -0.2447458 0.1874012
v 0.2234064 -0.2556307 -0.2230438
v 0.151817 -0.2556307 -0.2766349
v 0.151817 -0.2447458 -0.2766349
v 0.2234064 -0.2447458 -0.2230438
v 0.3146281 -0.2556307 0.02153146
v 0.3082486 -0.2556307 -0.06766676
v 0.3082486 -0.2447458 -0.06766676
v 0.3146281 -0.2447458 0.02153146
v -0.2474478 -0.03998764 -0.1106786
v -0.2613882 -0.03037483 -0.1164573
v -0.2318325 -0.0501297 0.1496898
v -0.186885 -0.07931763 0.2212795
v -0.1976379 -0.07177483 0.2329722
v -0.2449489 -0.04105064 0.1576147
v -0.1268452 -0.1183079 0.2748706
v -0.1344381 -0.1128172 0.2893839
v -0.049768 -0.1702136 0.3061218
v -0.05330421 -0.1674548 0.3222799
v 0.1895281 -0.2447458 0.250635
v 0.1985864 -0.2459097 0.2638728
v 0.02746458 -0.2091773 0.3125013
v 0.1129406 -0.2380959 0.2934924
v 0.117968 -0.2389098 0.3089858
v 0.02799324 -0.2084692 0.3289952
v 0.2906593 -0.2459097 -0.1593794
v 0.2769973 -0.2447458 -0.1514545
v 0.06802928 -0.2257458 -0.3078862
v 0.07069291 -0.2259097 -0.3240442
v -0.01136854 -0.190575 -0.3142658
v -0.01288373 -0.1888879 -0.3307596
v -0.2633901 -0.02963463 -0.02329623
v -0.2580398 -0.03310913 0.06590205
v -0.2725377 -0.02313431 0.069417
v -0.2781696 -0.01947693 -0.02447591
v -0.2115046 -0.06332947 -0.189166
v -0.2235532 -0.05494514 -0.1990756
v -0.09264717 -0.1405164 -0.295257
v -0.1584722 -0.09776909 -0.2523997
v -0.1677297 -0.09119744 -0.2656374
v -0.09844017 -0.1361945 -0.3107504
v 0.2527618 -0.2447458 0.1874012
v 0.2956192 -0.2447458 0.1089139
v 0.3102613 -0.2459097 0.1146926
v 0.2651482 -0.2459097 0.1973109
v 0.2234064 -0.2447458 -0.2230438
v 0.151817 -0.2447458 -0.2766349
v 0.1588906 -0.2459097 -0.2911482
v 0.2342477 -0.2459097 -0.2347365
v 0.3146281 -0.2447458 0.02153146
v 0.3082486 -0.2447458 -0.06766676
v 0.3235552 -0.2459097 -0.07118174
v 0.3302705 -0.2459097 0.02271113
v 0.2906593 -0.2459097 -0.1593794
v 0.2906593 -0.2579097 -0.1593794
v -0.01288373 -0.1888879 -0.3307596
v 0.117968 -0.2389098 0.3089858
v -0.05330421 -0.1674548 0.3222799
v -0.2449489 -0.04105064 0.1576147
v -0.2725377 -0.02313431 0.069417
v -0.2781696 -0.01947693 -0.02447591
v -0.2613882 -0.03037483 -0.1164573
v -0.2235532 -0.05494514 -0.1990756
v -0.09844017 -0.1361945 -0.3107504
v -0.1677297 -0.09119744 -0.2656374
v -0.1976379 -0.07177483 0.2329722
v -0.1344381 -0.1128172 0.2893839
v -0.2705026 -0.11148 0.15761
v -0.3017908 -0.101316 0.06941701
v -0.3081774 -0.0992408 -0.0244759
v -0.2891472 -0.1054241 -0.1164573
v -0.2462422 -0.1193649 -0.1990756
v -0.182938 -0.1399336 -0.2656374
v -0.01688373 -0.1938879 -0.3307596
v -0.1043633 -0.165464 -0.3107504
v 0.02799324 -0.2084692 0.3289952
v -0.06130422 -0.1794547 0.3222799
v -0.2168541 -0.1289136 0.2329722
v -0.1451852 -0.1522002 0.2893839
v -0.286364 -0.1757287 0.1576147
v -0.3189398 -0.1711504 0.06941701
v -0.3255897 -0.1702158 -0.02447588
v -0.305775 -0.1730006 -0.1164573
v -0.2611009 -0.1792792 -0.1990756
v -0.1951867 -0.1885428 -0.2656374
v -0.1133725 -0.200041 -0.3107504
v 0.07069291 -0.2259097 -0.3240442
v -0.02228616 -0.2128424 -0.3307596
v 0.02444105 -0.2194094 0.3289952
v -0.06853807 -0.2063421 0.3222799
v -0.2305011 -0.1835797 0.2329722
v -0.1558774 -0.1940673 0.2893839
v -0.289873 -0.2459097 0.1576147
v -0.289873 -0.2579097 0.1576147
v -0.322769 -0.2459097 0.06941701
v -0.322769 -0.2579097 0.06941701
v -0.3294843 -0.2459097 -0.02447587
v -0.3294843 -0.2579097 -0.02447587
v -0.3094747 -0.2459097 -0.1164573
v -0.3094747 -0.2579097 -0.1164573
v -0.2643617 -0.2459097 -0.1990756
v -0.2643617 -0.2579097 -0.1990756
v -0.1977997 -0.2459097 -0.2656374
v -0.1977997 -0.2579097 -0.2656374
v -0.1151814 -0.2459097 -0.3107504
v -0.1151814 -0.2579097 -0.3107504
v -0.02319993 -0.2459097 -0.3307596
v -0.02319993 -0.2579097 -0.3307596
v 0.07069291 -0.2459097 -0.3240442
v 0.07069291 -0.2579097 -0.3240442
v 0.2342477 -0.2579097 -0.2347365
v 0.2342477 -0.2459097 -0.2347365
v 0.1588906 -0.2459097 -0.2911482
v 0.1588906 -0.2579097 -0.2911482
v 0.3235552 -0.2459097 -0.07118174
v 0.3235552 -0.2579097 -0.07118174
v 0.3302705 -0.2459097 0.02271113
v 0.3302705 -0.2579097 0.02271113
v 0.3102613 -0.2459097 0.1146926
v 0.3102613 -0.2579097 0.1146926
v 0.2651482 -0.2459097 0.1973109
v 0.2651482 -0.2579097 0.1973109
v 0.1985864 -0.2459097 0.2638728
v 0.1985864 -0.2579097 0.2638728
v 0.115968 -0.2459097 0.3089858
v 0.115968 -0.2579097 0.3089858
v 0.02398651 -0.2459097 0.3289952
v 0.02398651 -0.2579097 0.3289952
v -0.06990638 -0.2459097 0.3222799
v -0.06990638 -0.2579097 0.3222799
v -0.1581041 -0.2459097 0.2893839
v -0.1581041 -0.2579097 0.2893839
v -0.2334612 -0.2579097 0.2329722
v -0.2334612 -0.2459097 0.2329722
vt 0.1065117 0.775607
vt 0.09679734 0.7708561
vt 0.09659856 0.7744357
vt 0.1142549 0.8320399
vt 0.1209157 0.8248799
vt 0.1199349 0.8241894
vt 0.1252134 0.8162056
vt 0.1267967 0.8066412
vt 0.1255915 0.806615
vt 0.06770867 0.8483764
vt 0.07967454 0.833522
vt 0.07116156 0.827176
vt 0.06361144 0.8000181
vt 0.06817018 0.792644
vt 0.04647713 0.7813116
vt 0.06250399 0.8069146
vt 0.06361144 0.8000181
vt 0.03948605 0.7934048
vt 0.04367381 0.8319892
vt 0.06568819 0.8206425
vt 0.06320434 0.81406
vt 0.05390256 0.8424245
vt 0.07116156 0.827176
vt 0.06568819 0.8206425
vt 0.08402609 0.8478696
vt 0.08776885 0.8371457
vt 0.07967454 0.833522
vt 0.09626758 0.8438172
vt 0.09611189 0.8379859
vt 0.08776885 0.8371457
vt 0.1142549 0.8320399
vt 0.1135011 0.8310867
vt 0.1054353 0.8358406
vt 0.1061651 0.8377331
vt 0.1054353 0.8358406
vt 0.09611189 0.8379859
vt 0.1213328 0.7879609
vt 0.1203339 0.788631
vt 0.12431 0.7972392
vt 0.1148703 0.7808181
vt 0.1141226 0.7817167
vt 0.1203339 0.788631
vt 0.09679734 0.7708561
vt 0.08553791 0.7674004
vt 0.08814114 0.7752061
vt 0.08553791 0.7674004
vt 0.07067573 0.7674004
vt 0.0802468 0.7788294
vt 0.03813529 0.8194597
vt 0.06320434 0.81406
vt 0.06250399 0.8069146
vt 0.05738931 0.7721842
vt 0.04647713 0.7813116
vt 0.06817018 0.792644
vt 0.07067573 0.7674004
vt 0.05738931 0.7721842
vt 0.07428079 0.7844204
vt 0.1209157 0.8248799
vt 0.1252134 0.8162056
vt 0.1240782 0.8158302
vt 0.1148703 0.7808181
vt 0.1065117 0.775607
vt 0.1060224 0.7767777
vt 0.1267967 0.8066412
vt 0.1255097 0.7968879
vt 0.12431 0.7972392
vt 0.1681478 0.8483764
vt 0.178024 0.8452695
vt 0.1771848 0.8437198
vt 0.1268461 0.8132617
vt 0.128581 0.8132433
vt 0.1294484 0.8034508
vt 0.1330094 0.8324841
vt 0.1344256 0.8315532
vt 0.1302519 0.8228309
vt 0.1578101 0.7769873
vt 0.1579425 0.7788749
vt 0.1677156 0.7788667
vt 0.1990379 0.8122798
vt 0.197519 0.80224
vt 0.1956859 0.8028485
vt 0.197519 0.80224
vt 0.1932396 0.7930163
vt 0.1916167 0.7940851
vt 0.1779267 0.7798561
vt 0.1770606 0.7815866
vt 0.1852418 0.7868019
vt 0.1680946 0.7769871
vt 0.1677156 0.7788667
vt 0.1770606 0.7815866
vt 0.1470436 0.7805218
vt 0.1476908 0.7822468
vt 0.1579425 0.7788749
vt 0.1384418 0.7856582
vt 0.1395039 0.7871089
vt 0.1476908 0.7822468
vt 0.1277422 0.8029775
vt 0.1294484 0.8034508
vt 0.1328291 0.7944987
vt 0.1313502 0.7935011
vt 0.1328291 0.7944987
vt 0.1395039 0.7871089
vt 0.1489515 0.8439558
vt 0.1408178 0.83878
vt 0.1397307 0.8400829
vt 0.1581974 0.8466633
vt 0.1489515 0.8439558
vt 0.1482869 0.8455269
vt 0.178024 0.8452695
vt 0.1862694 0.8398617
vt 0.1850087 0.8385894
vt 0.1862694 0.8398617
vt 0.1935567 0.8315898
vt 0.1919274 0.8307344
vt 0.1865336 0.7853488
vt 0.1852418 0.7868019
vt 0.1916167 0.7940851
vt 0.1976804 0.8223318
vt 0.1990379 0.8122798
vt 0.1971315 0.8123879
vt 0.1935567 0.8315898
vt 0.1976804 0.8223318
vt 0.1958434 0.821939
vt 0.128618 0.8233213
vt 0.1302519 0.8228309
vt 0.128581 0.8132433
vt 0.1580172 0.8483764
vt 0.1681478 0.8483764
vt 0.1678146 0.8466656
vt 0.1330094 0.8324841
vt 0.1397307 0.8400829
vt 0.1408178 0.83878
vt 0.1267498 0.90523458
vt 0.1279414 0.90602166
vt 0.1324312 0.8960948
vt 0.1337496 0.8854043
vt 0.1323713 0.885445
vt 0.1310818 0.8957252
vt 0.1202972 0.91421909
vt 0.1098501 0.91882808
vt 0.1104852 0.92130894
vt 0.1104852 0.92130894
vt 0.09923624 0.9260797
vt 0.09970933 0.92678041
vt 0.1104852 0.92130894
vt 0.09872716 0.92365087
vt 0.09923624 0.9260797
vt 0.08707064 0.9277224
vt 0.08650302 0.93193758
vt 0.09970933 0.92678041
vt 0.08903294 0.8497797
vt 0.1000907 0.8504958
vt 0.08903789 0.8484259
vt 0.09987318 0.8512874
vt 0.1103075 0.8530655
vt 0.1000907 0.8504958
vt 0.08984798 0.8525922
vt 0.09987318 0.8512874
vt 0.1000907 0.8504958
vt 0.07788974 0.8502221
vt 0.08903789 0.8484259
vt 0.07780063 0.8484259
vt 0.06735801 0.8551151
vt 0.07788974 0.8502221
vt 0.07780063 0.8484259
vt 0.0523706 0.8741107
vt 0.0584647 0.863426
vt 0.05150282 0.8580458
vt 0.04959332 0.8860563
vt 0.0523706 0.8741107
vt 0.04189848 0.870119
vt 0.05036604 0.8983088
vt 0.04959332 0.8860563
vt 0.03715324 0.8852879
vt 0.05036604 0.8983088
vt 0.03836983 0.90115142
vt 0.04481685 0.91590733
vt 0.055247 0.90965659
vt 0.04481685 0.91590733
vt 0.05667412 0.92712009
vt 0.06347906 0.91908741
vt 0.05667412 0.92712009
vt 0.07165127 0.93259967
vt 0.07453143 0.92541808
vt 0.07165127 0.93259967
vt 0.08650302 0.93193758
vt 0.06397485 0.850634
vt 0.05150282 0.8580458
vt 0.0584647 0.863426
vt 0.0640394 0.8673761
vt 0.0584647 0.863426
vt 0.0523706 0.8741107
vt 0.05989032 0.8767571
vt 0.0523706 0.8741107
vt 0.04959332 0.8860563
vt 0.058052 0.8866122
vt 0.04959332 0.8860563
vt 0.05036604 0.8983088
vt 0.06237483 0.90538812
vt 0.05901706 0.896259
vt 0.05036604 0.8983088
vt 0.06848216 0.91342152
vt 0.06237483 0.90538812
vt 0.055247 0.90965659
vt 0.07702976 0.91960919
vt 0.06848216 0.91342152
vt 0.06347906 0.91908741
vt 0.08744943 0.92318374
vt 0.07702976 0.91960919
vt 0.07453143 0.92541808
vt 0.09872716 0.92365087
vt 0.08744943 0.92318374
vt 0.08707064 0.9277224
vt 0.08903294 0.8497797
vt 0.08903789 0.8484259
vt 0.07788974 0.8502221
vt 0.07902765 0.8532443
vt 0.07788974 0.8502221
vt 0.06735801 0.8551151
vt 0.0705251 0.8592162
vt 0.06735801 0.8551151
vt 0.0584647 0.863426
vt 0.06678134 0.8786325
vt 0.06973046 0.8703183
vt 0.0640394 0.8673761
vt 0.06504875 0.8868111
vt 0.06678134 0.8786325
vt 0.05989032 0.8767571
vt 0.0656709 0.8947649
vt 0.06504875 0.8868111
vt 0.058052 0.8866122
vt 0.0656709 0.8947649
vt 0.05901706 0.896259
vt 0.06237483 0.90538812
vt 0.06848025 0.90220649
vt 0.06237483 0.90538812
vt 0.06848216 0.91342152
vt 0.07334303 0.90887946
vt 0.06848216 0.91342152
vt 0.07702976 0.91960919
vt 0.08019328 0.91440034
vt 0.07702976 0.91960919
vt 0.08744943 0.92318374
vt 0.08883702 0.91822309
vt 0.08744943 0.92318374
vt 0.09872716 0.92365087
vt 0.09885209 0.91980678
vt 0.09872716 0.92365087
vt 0.1104852 0.92130894
vt 0.08903294 0.8497797
vt 0.07902765 0.8532443
vt 0.08131515 0.8566883
vt 0.07454824 0.862765
vt 0.08131515 0.8566883
vt 0.07902765 0.8532443
vt 0.06973046 0.8703183
vt 0.07454824 0.862765
vt 0.0705251 0.8592162
vt 0.06973046 0.8703183
vt 0.06678134 0.8786325
vt 0.06785339 0.8789498
vt 0.06609272 0.8868903
vt 0.06785339 0.8789498
vt 0.06678134 0.8786325
vt 0.06667518 0.8945493
vt 0.06609272 0.8868903
vt 0.06504875 0.8868111
vt 0.06939882 0.90171385
vt 0.06667518 0.8945493
vt 0.0656709 0.8947649
vt 0.0741378 0.90812254
vt 0.06939882 0.90171385
vt 0.06848025 0.90220649
vt 0.080805 0.91339613
vt 0.0741378 0.90812254
vt 0.07334303 0.90887946
vt 0.08919429 0.91701139
vt 0.080805 0.91339613
vt 0.08019328 0.91440034
vt 0.09890067 0.91844708
vt 0.08919429 0.91701139
vt 0.08883702 0.91822309
vt 0.1094942 0.91741467
vt 0.09890067 0.91844708
vt 0.09885209 0.91980678
vt 0.1194203 0.91297168
vt 0.1094942 0.91741467
vt 0.1098501 0.91882808
vt 0.1194203 0.91297168
vt 0.1202972 0.91421909
vt 0.1279414 0.90602166
vt 0.1323713 0.885445
vt 0.1337496 0.8854043
vt 0.1319478 0.874972
vt 0.1260609 0.8662958
vt 0.130683 0.8753875
vt 0.1319478 0.874972
vt 0.1260609 0.8662958
vt 0.1272041 0.8654678
vt 0.1196399 0.8580304
vt 0.1098498 0.8544071
vt 0.118853 0.859102
vt 0.1196399 0.8580304
vt 0.1098498 0.8544071
vt 0.1103075 0.8530655
vt 0.09987318 0.8512874
vt 0.0998466 0.8526272
vt 0.09987318 0.8512874
vt 0.08984798 0.8525922
vt 0.09019899 0.853789
vt 0.08984798 0.8525922
vt 0.08131515 0.8566883
vt 0.07546091 0.863537
vt 0.08196604 0.8576524
vt 0.08131515 0.8566883
vt 0.06973046 0.8703183
vt 0.07073557 0.8708108
vt 0.07546091 0.863537
vt 0.1060224 0.7767777
vt 0.1065117 0.775607
vt 0.09659856 0.7744357
vt 0.1135011 0.8310867
vt 0.1142549 0.8320399
vt 0.1199349 0.8241894
vt 0.1240782 0.8158302
vt 0.1252134 0.8162056
vt 0.1255915 0.806615
vt 0.05390256 0.8424245
vt 0.06770867 0.8483764
vt 0.07116156 0.827176
vt 0.03948605 0.7934048
vt 0.06361144 0.8000181
vt 0.04647713 0.7813116
vt 0.03715324 0.8063282
vt 0.06250399 0.8069146
vt 0.03948605 0.7934048
vt 0.03813529 0.8194597
vt 0.04367381 0.8319892
vt 0.06320434 0.81406
vt 0.04367381 0.8319892
vt 0.05390256 0.8424245
vt 0.06568819 0.8206425
vt 0.06770867 0.8483764
vt 0.08402609 0.8478696
vt 0.07967454 0.833522
vt 0.08402609 0.8478696
vt 0.09626758 0.8438172
vt 0.08776885 0.8371457
vt 0.1061651 0.8377331
vt 0.1142549 0.8320399
vt 0.1054353 0.8358406
vt 0.09626758 0.8438172
vt 0.1061651 0.8377331
vt 0.09611189 0.8379859
vt 0.1255097 0.7968879
vt 0.1213328 0.7879609
vt 0.12431 0.7972392
vt 0.1213328 0.7879609
vt 0.1148703 0.7808181
vt 0.1203339 0.788631
vt 0.09659856 0.7744357
vt 0.09679734 0.7708561
vt 0.08814114 0.7752061
vt 0.08814114 0.7752061
vt 0.08553791 0.7674004
vt 0.0802468 0.7788294
vt 0.03715324 0.8063282
vt 0.03813529 0.8194597
vt 0.06250399 0.8069146
vt 0.07428079 0.7844204
vt 0.05738931 0.7721842
vt 0.06817018 0.792644
vt 0.0802468 0.7788294
vt 0.07067573 0.7674004
vt 0.07428079 0.7844204
vt 0.1199349 0.8241894
vt 0.1209157 0.8248799
vt 0.1240782 0.8158302
vt 0.1141226 0.7817167
vt 0.1148703 0.7808181
vt 0.1060224 0.7767777
vt 0.1255915 0.806615
vt 0.1267967 0.8066412
vt 0.12431 0.7972392
vt 0.1678146 0.8466656
vt 0.1681478 0.8483764
vt 0.1771848 0.8437198
vt 0.1277422 0.8029775
vt 0.1268461 0.8132617
vt 0.1294484 0.8034508
vt 0.128618 0.8233213
vt 0.1330094 0.8324841
vt 0.1302519 0.8228309
vt 0.1680946 0.7769871
vt 0.1578101 0.7769873
vt 0.1677156 0.7788667
vt 0.1971315 0.8123879
vt 0.1990379 0.8122798
vt 0.1956859 0.8028485
vt 0.1956859 0.8028485
vt 0.197519 0.80224
vt 0.1916167 0.7940851
vt 0.1865336 0.7853488
vt 0.1779267 0.7798561
vt 0.1852418 0.7868019
vt 0.1779267 0.7798561
vt 0.1680946 0.7769871
vt 0.1770606 0.7815866
vt 0.1578101 0.7769873
vt 0.1470436 0.7805218
vt 0.1579425 0.7788749
vt 0.1470436 0.7805218
vt 0.1384418 0.7856582
vt 0.1476908 0.7822468
vt 0.1313502 0.7935011
vt 0.1277422 0.8029775
vt 0.1328291 0.7944987
vt 0.1384418 0.7856582
vt 0.1313502 0.7935011
vt 0.1395039 0.7871089
vt 0.1482869 0.8455269
vt 0.1489515 0.8439558
vt 0.1397307 0.8400829
vt 0.1580172 0.8483764
vt 0.1581974 0.8466633
vt 0.1482869 0.8455269
vt 0.1771848 0.8437198
vt 0.178024 0.8452695
vt 0.1850087 0.8385894
vt 0.1850087 0.8385894
vt 0.1862694 0.8398617
vt 0.1919274 0.8307344
vt 0.1932396 0.7930163
vt 0.1865336 0.7853488
vt 0.1916167 0.7940851
vt 0.1958434 0.821939
vt 0.1976804 0.8223318
vt 0.1971315 0.8123879
vt 0.1919274 0.8307344
vt 0.1935567 0.8315898
vt 0.1958434 0.821939
vt 0.1268461 0.8132617
vt 0.128618 0.8233213
vt 0.128581 0.8132433
vt 0.1581974 0.8466633
vt 0.1580172 0.8483764
vt 0.1678146 0.8466656
vt 0.1344256 0.8315532
vt 0.1330094 0.8324841
vt 0.1408178 0.83878
vt 0.1310818 0.8957252
vt 0.1267498 0.90523458
vt 0.1324312 0.8960948
vt 0.1324312 0.8960948
vt 0.1337496 0.8854043
vt 0.1310818 0.8957252
vt 0.09923624 0.9260797
vt 0.08707064 0.9277224
vt 0.09970933 0.92678041
vt 0.08903294 0.8497797
vt 0.08984798 0.8525922
vt 0.1000907 0.8504958
vt 0.06397485 0.850634
vt 0.06735801 0.8551151
vt 0.07780063 0.8484259
vt 0.04189848 0.870119
vt 0.0523706 0.8741107
vt 0.05150282 0.8580458
vt 0.03715324 0.8852879
vt 0.04959332 0.8860563
vt 0.04189848 0.870119
vt 0.03836983 0.90115142
vt 0.05036604 0.8983088
vt 0.03715324 0.8852879
vt 0.055247 0.90965659
vt 0.05036604 0.8983088
vt 0.04481685 0.91590733
vt 0.06347906 0.91908741
vt 0.055247 0.90965659
vt 0.05667412 0.92712009
vt 0.07453143 0.92541808
vt 0.06347906 0.91908741
vt 0.07165127 0.93259967
vt 0.08707064 0.9277224
vt 0.07453143 0.92541808
vt 0.08650302 0.93193758
vt 0.06735801 0.8551151
vt 0.06397485 0.850634
vt 0.0584647 0.863426
vt 0.05989032 0.8767571
vt 0.0640394 0.8673761
vt 0.0523706 0.8741107
vt 0.058052 0.8866122
vt 0.05989032 0.8767571
vt 0.04959332 0.8860563
vt 0.05901706 0.896259
vt 0.058052 0.8866122
vt 0.05036604 0.8983088
vt 0.055247 0.90965659
vt 0.06237483 0.90538812
vt 0.05036604 0.8983088
vt 0.06347906 0.91908741
vt 0.06848216 0.91342152
vt 0.055247 0.90965659
vt 0.07453143 0.92541808
vt 0.07702976 0.91960919
vt 0.06347906 0.91908741
vt 0.08707064 0.9277224
vt 0.08744943 0.92318374
vt 0.07453143 0.92541808
vt 0.09923624 0.9260797
vt 0.09872716 0.92365087
vt 0.08707064 0.9277224
vt 0.07902765 0.8532443
vt 0.08903294 0.8497797
vt 0.07788974 0.8502221
vt 0.0705251 0.8592162
vt 0.07902765 0.8532443
vt 0.06735801 0.8551151
vt 0.0640394 0.8673761
vt 0.0705251 0.8592162
vt 0.0584647 0.863426
vt 0.05989032 0.8767571
vt 0.06678134 0.8786325
vt 0.0640394 0.8673761
vt 0.058052 0.8866122
vt 0.06504875 0.8868111
vt 0.05989032 0.8767571
vt 0.05901706 0.896259
vt 0.0656709 0.8947649
vt 0.058052 0.8866122
vt 0.06848025 0.90220649
vt 0.0656709 0.8947649
vt 0.06237483 0.90538812
vt 0.07334303 0.90887946
vt 0.06848025 0.90220649
vt 0.06848216 0.91342152
vt 0.08019328 0.91440034
vt 0.07334303 0.90887946
vt 0.07702976 0.91960919
vt 0.08883702 0.91822309
vt 0.08019328 0.91440034
vt 0.08744943 0.92318374
vt 0.09885209 0.91980678
vt 0.08883702 0.91822309
vt 0.09872716 0.92365087
vt 0.1098501 0.91882808
vt 0.09885209 0.91980678
vt 0.1104852 0.92130894
vt 0.08984798 0.8525922
vt 0.08903294 0.8497797
vt 0.08131515 0.8566883
vt 0.0705251 0.8592162
vt 0.07454824 0.862765
vt 0.07902765 0.8532443
vt 0.0640394 0.8673761
vt 0.06973046 0.8703183
vt 0.0705251 0.8592162
vt 0.07073557 0.8708108
vt 0.06973046 0.8703183
vt 0.06785339 0.8789498
vt 0.06504875 0.8868111
vt 0.06609272 0.8868903
vt 0.06678134 0.8786325
vt 0.0656709 0.8947649
vt 0.06667518 0.8945493
vt 0.06504875 0.8868111
vt 0.06848025 0.90220649
vt 0.06939882 0.90171385
vt 0.0656709 0.8947649
vt 0.07334303 0.90887946
vt 0.0741378 0.90812254
vt 0.06848025 0.90220649
vt 0.08019328 0.91440034
vt 0.080805 0.91339613
vt 0.07334303 0.90887946
vt 0.08883702 0.91822309
vt 0.08919429 0.91701139
vt 0.08019328 0.91440034
vt 0.09885209 0.91980678
vt 0.09890067 0.91844708
vt 0.08883702 0.91822309
vt 0.1098501 0.91882808
vt 0.1094942 0.91741467
vt 0.09885209 0.91980678
vt 0.1202972 0.91421909
vt 0.1194203 0.91297168
vt 0.1098501 0.91882808
vt 0.1267498 0.90523458
vt 0.1194203 0.91297168
vt 0.1279414 0.90602166
vt 0.130683 0.8753875
vt 0.1323713 0.885445
vt 0.1319478 0.874972
vt 0.1272041 0.8654678
vt 0.1260609 0.8662958
vt 0.1319478 0.874972
vt 0.118853 0.859102
vt 0.1260609 0.8662958
vt 0.1196399 0.8580304
vt 0.1103075 0.8530655
vt 0.1098498 0.8544071
vt 0.1196399 0.8580304
vt 0.0998466 0.8526272
vt 0.1098498 0.8544071
vt 0.09987318 0.8512874
vt 0.09019899 0.853789
vt 0.0998466 0.8526272
vt 0.08984798 0.8525922
vt 0.08196604 0.8576524
vt 0.09019899 0.853789
vt 0.08131515 0.8566883
vt 0.07454824 0.862765
vt 0.07546091 0.863537
vt 0.08131515 0.8566883
vt 0.07454824 0.862765
vt 0.06973046 0.8703183
vt 0.07546091 0.863537
usemtl NaoMat_MainSkin
f 39/1 20/2 19/3
f 12/4 36/5 33/6
f 35/7 44/8 41/9
f 8/10 7/11 4/12
f 1/13 27/14 28/15
f 23/16 1/17 2/18
f 6/19 3/20 24/21
f 5/22 4/23 3/24
f 10/25 9/26 7/27
f 16/28 13/29 9/30
f 12/31 11/32 14/33
f 15/34 14/35 13/36
f 17/37 18/38 42/39
f 40/40 37/41 18/42
f 20/43 22/44 21/45
f 22/46 32/47 29/48
f 25/49 24/50 23/51
f 31/52 28/53 27/54
f 32/55 31/56 30/57
f 36/58 35/59 34/60
f 40/61 39/62 38/63
f 44/64 43/65 42/66
f 83/67 64/68 63/69
f 80/70 77/71 55/72
f 88/73 85/74 78/75
f 52/76 51/77 48/78
f 72/79 46/80 45/81
f 46/82 70/83 67/84
f 50/85 47/86 68/87
f 49/88 48/89 47/90
f 54/91 53/92 51/93
f 60/94 57/95 53/96
f 56/97 55/98 58/99
f 59/100 58/101 57/102
f 62/103 86/104 87/105
f 81/106 62/107 61/108
f 64/109 66/110 65/111
f 66/112 76/113 73/114
f 69/115 68/116 67/117
f 75/118 72/119 71/120
f 76/121 75/122 74/123
f 79/124 78/125 77/126
f 84/127 83/128 82/129
f 88/130 87/131 86/132
f 146/133 147/134 89/135
f 150/136 151/137 90/138
f 148/139 144/140 122/141
f 122/142 109/143 91/144
f 122/145 123/146 109/147
f 110/148 99/149 91/150
f 124/151 92/152 111/153
f 160/154 158/155 92/156
f 162/157 160/158 92/159
f 112/160 111/161 93/162
f 114/163 112/164 93/165
f 103/166 113/167 101/168
f 104/169 103/170 94/171
f 105/172 104/173 95/174
f 105/175 96/176 97/177
f 106/178 97/179 98/180
f 107/181 98/182 100/183
f 108/184 100/185 99/186
f 102/187 101/188 113/189
f 126/190 113/191 103/192
f 115/193 103/194 104/195
f 116/196 104/197 105/198
f 118/199 117/200 105/201
f 119/202 118/203 106/204
f 120/205 119/206 107/207
f 121/208 120/209 108/210
f 123/211 121/212 110/213
f 124/214 111/215 112/216
f 125/217 112/218 114/219
f 127/220 114/221 113/222
f 128/223 169/224 126/225
f 130/226 128/227 115/228
f 132/229 130/230 116/231
f 132/232 117/233 118/234
f 134/235 118/236 119/237
f 136/238 119/239 120/240
f 138/241 120/242 121/243
f 140/244 121/245 123/246
f 142/247 123/248 122/249
f 124/250 125/251 164/252
f 166/253 164/254 125/255
f 169/256 166/257 127/258
f 169/259 128/260 129/261
f 131/262 129/263 128/264
f 133/265 131/266 130/267
f 135/268 133/269 132/270
f 137/271 135/272 134/273
f 139/274 137/275 136/276
f 141/277 139/278 138/279
f 143/280 141/281 140/282
f 145/283 143/284 142/285
f 149/286 145/287 144/288
f 149/289 148/290 147/291
f 151/292 150/293 152/294
f 155/295 153/296 152/297
f 155/298 154/299 156/300
f 159/301 157/302 156/303
f 159/304 158/305 160/306
f 161/307 160/308 162/309
f 163/310 162/311 164/312
f 167/313 165/314 164/315
f 169/316 168/317 167/318
f 38/319 39/320 19/321
f 11/322 12/323 33/324
f 34/325 35/326 41/327
f 5/328 8/329 4/330
f 2/331 1/332 28/333
f 26/334 23/335 2/336
f 25/337 6/338 24/339
f 6/340 5/341 3/342
f 8/343 10/344 7/345
f 10/346 16/347 9/348
f 15/349 12/350 14/351
f 16/352 15/353 13/354
f 43/355 17/356 42/357
f 17/358 40/359 18/360
f 19/361 20/362 21/363
f 21/364 22/365 29/366
f 26/367 25/368 23/369
f 30/370 31/371 27/372
f 29/373 32/374 30/375
f 33/376 36/377 34/378
f 37/379 40/380 38/381
f 41/382 44/383 42/384
f 82/385 83/386 63/387
f 56/388 80/389 55/390
f 79/391 88/392 78/393
f 49/394 52/395 48/396
f 71/397 72/398 45/399
f 45/400 46/401 67/402
f 69/403 50/404 68/405
f 50/406 49/407 47/408
f 52/409 54/410 51/411
f 54/412 60/413 53/414
f 59/415 56/416 58/417
f 60/418 59/419 57/420
f 61/421 62/422 87/423
f 84/424 81/425 61/426
f 63/427 64/428 65/429
f 65/430 66/431 73/432
f 70/433 69/434 67/435
f 74/436 75/437 71/438
f 73/439 76/440 74/441
f 80/442 79/443 77/444
f 81/445 84/446 82/447
f 85/448 88/449 86/450
f 90/451 146/452 89/453
f 89/454 150/455 90/456
f 109/457 110/458 91/459
f 124/460 162/461 92/462
f 102/463 114/464 93/465
f 94/466 103/467 101/468
f 95/469 104/470 94/471
f 96/472 105/473 95/474
f 106/475 105/476 97/477
f 107/478 106/479 98/480
f 108/481 107/482 100/483
f 110/484 108/485 99/486
f 114/487 102/488 113/489
f 115/490 126/491 103/492
f 116/493 115/494 104/495
f 117/496 116/497 105/498
f 106/499 118/500 105/501
f 107/502 119/503 106/504
f 108/505 120/506 107/507
f 110/508 121/509 108/510
f 109/511 123/512 110/513
f 125/514 124/515 112/516
f 127/517 125/518 114/519
f 126/520 127/521 113/522
f 115/523 128/524 126/525
f 116/526 130/527 115/528
f 117/529 132/530 116/531
f 134/532 132/533 118/534
f 136/535 134/536 119/537
f 138/538 136/539 120/540
f 140/541 138/542 121/543
f 142/544 140/545 123/546
f 144/547 142/548 122/549
f 162/550 124/551 164/552
f 127/553 166/554 125/555
f 126/556 169/557 127/558
f 168/559 169/560 129/561
f 130/562 131/563 128/564
f 132/565 133/566 130/567
f 134/568 135/569 132/570
f 136/571 137/572 134/573
f 138/574 139/575 136/576
f 140/577 141/578 138/579
f 142/580 143/581 140/582
f 144/583 145/584 142/585
f 148/586 149/587 144/588
f 146/589 149/590 147/591
f 153/592 151/593 152/594
f 154/595 155/596 152/597
f 157/598 155/599 156/600
f 158/601 159/602 156/603
f 161/604 159/605 160/606
f 163/607 161/608 162/609
f 165/610 163/611 164/612
f 166/613 167/614 164/615
f 166/616 169/617 167/618
