mtllib RAnklePitch.mtl
o RAnklePitch
usemtl nao_texture
v 0.4128249 0.1234199 0.1920242
v 0.4128249 -0.1175801 0.1920242
v 0.4128249 -0.1175801 0.1450244
v 0.4128249 0.1234199 0.1450244
v 0.2229055 -0.1175801 0.3945892
v 0.3232632 -0.1175801 0.3194626
v 0.3232632 0.1234199 0.3194626
v 0.2229054 0.1234199 0.3945892
v 0.1054472 -0.1175801 0.438399
v 0.1054472 0.1234199 0.438399
v -0.01959566 -0.1175801 0.4473422
v -0.01959568 0.1234199 0.4473422
v -0.1420931 -0.1175801 0.4206946
v -0.1420931 0.1234199 0.4206946
v -0.2521209 -0.1175801 0.3606146
v -0.2521209 0.1234198 0.3606146
v -0.3407654 -0.1175801 0.2719702
v -0.3407654 0.1234198 0.2719702
v -0.4008451 -0.1175802 0.1619425
v -0.4008452 0.1234198 0.1619425
v -0.4284928 -0.1175802 0.0832779
v -0.4284928 0.1234198 0.0832779
v 0.3773903 -0.1175801 0.2561044
v 0.3773903 0.1234199 0.2561044
v 0.3879655 -0.1441679 0.1899246
v 0.3879655 -0.1441679 0.1459326
v 0.2102008 -0.1441679 0.3795257
v 0.3041357 -0.1441679 0.3092069
v 0.1002599 -0.1441679 0.4205313
v -0.01678025 -0.1441679 0.4289023
v -0.1314379 -0.144168 0.4039599
v -0.2344239 -0.144168 0.3477255
v -0.3173952 -0.144168 0.264754
v -0.3736298 -0.144168 0.1617679
v -0.399572 -0.144168 0.0832779
v 0.3534547 -0.1441679 0.2522714
v -0.3111751 -0.06622307 -0.1580374
v 0.293825 -0.06622303 -0.1580374
v 0.293825 -0.1210246 -0.1214203
v -0.3111751 -0.1210247 -0.1214203
v -0.3111751 -0.0015802 -0.1708957
v 0.293825 -0.001580162 -0.1708957
v -0.3111751 0.06306267 -0.1580374
v 0.2938249 0.06306274 -0.1580374
v -0.3111751 0.1178643 -0.1214203
v 0.2938249 0.1178643 -0.1214203
v 0.293825 -0.1439316 -0.09401947
v -0.3111751 -0.1439316 -0.09401947
v -0.3111751 0.1407713 -0.09401947
v 0.2938249 0.1407713 -0.09401947
v 0.293825 -0.1210246 -0.1214203
v 0.2938249 0.1178643 -0.1214203
v 0.2938249 0.1407713 -0.09401947
v 0.293825 -0.1439316 -0.09401947
v 0.293825 -0.06622303 -0.1580374
v 0.2938249 0.06306274 -0.1580374
v 0.293825 -0.001580162 -0.1708957
v -0.3111751 -0.1210247 -0.1214203
v -0.3111751 -0.1439316 -0.09401947
v -0.3111751 0.1407713 -0.09401947
v -0.3111751 0.1178643 -0.1214203
v -0.3111751 0.06306267 -0.1580374
v -0.3111751 -0.06622307 -0.1580374
v -0.3111751 -0.0015802 -0.1708957
v 0.3879654 0.1410078 0.1459326
v 0.3879654 0.1410078 0.1899246
v 0.3534547 0.1410078 0.2522714
v 0.3041357 0.1410078 0.3092069
v 0.2102008 0.1410078 0.3795254
v 0.1002599 0.1410077 0.4205313
v -0.01678027 0.1410077 0.4289023
v -0.1314379 0.1410077 0.4039599
v -0.2344239 0.1410077 0.3477252
v -0.3173953 0.1410077 0.264754
v -0.3736298 0.1410077 0.1617679
v -0.399572 0.1410077 0.08327759
v 0.2102008 -0.1441679 0.3795257
v 0.1002599 -0.1441679 0.4205313
v -0.01678025 -0.1441679 0.4289023
v -0.1314379 -0.144168 0.4039599
v -0.2344239 -0.144168 0.3477255
v 0.3041357 -0.1441679 0.3092069
v -0.3173952 -0.144168 0.264754
v 0.3534547 -0.1441679 0.2522714
v 0.2938249 -0.1441679 0.08598053
v -0.3111751 -0.144168 0.08598053
v -0.3111751 0.1410077 0.08598053
v 0.2938249 0.1410077 0.08598053
v 0.2938249 0.1410077 0.08598053
v 0.2938249 -0.1441679 0.08598053
v -0.3111751 -0.144168 0.08598053
v -0.3111751 0.1410077 0.08598053
v -0.4284928 -0.1175802 0.0832779
v -0.399572 -0.144168 0.0832779
v -0.399572 0.1410077 0.08327759
v -0.4284928 0.1234198 0.0832779
v 0.4128249 -0.1175801 0.1450244
v 0.4128249 0.1234199 0.1450244
v 0.3879654 0.1410078 0.1459326
v 0.3879655 -0.1441679 0.1459326
v 0.2938249 -0.1441679 0.1559805
v -0.3111751 -0.144168 0.1559805
v -0.3111751 0.1410077 0.1559805
v 0.2938249 0.1410077 0.1559805
v 0.2938249 0.1410077 0.1559805
v 0.2938249 -0.1441679 0.1559805
v -0.399572 -0.144168 0.0832779
v -0.3111751 -0.144168 0.08598053
v -0.3111751 0.1410077 0.08598053
v -0.399572 0.1410077 0.08327759
v -0.3736298 -0.144168 0.1617679
v -0.399572 -0.144168 0.0832779
v -0.399572 0.1410077 0.08327759
v -0.3736298 0.1410077 0.1617679
v 0.2938249 0.1410077 0.1559805
v 0.2938249 -0.1441679 0.1559805
v 0.3879655 -0.1441679 0.1459326
v 0.3879655 -0.1441679 0.1899246
v 0.3534547 0.1410078 0.2522714
v 0.3879654 0.1410078 0.1899246
v 0.3879654 0.1410078 0.1459326
v -0.3173953 0.1410077 0.264754
v -0.2344239 0.1410077 0.3477252
v 0.3041357 0.1410078 0.3092069
v -0.1314379 0.1410077 0.4039599
v 0.2102008 0.1410078 0.3795254
v -0.01678027 0.1410077 0.4289023
v 0.1002599 0.1410077 0.4205313
vt 0.1009318 0.0765448
vt 0.1010896 0.0916744
vt 0.1041498 0.0920188
vt 0.08265393 0.092192
vt 0.09090912 0.0920741
vt 0.09067511 0.0765262
vt 0.07452988 0.0923258
vt 0.08265393 0.092192
vt 0.08253556 0.0767772
vt 0.06641423 0.092417
vt 0.07452988 0.0923258
vt 0.07452154 0.076926
vt 0.06641423 0.092417
vt 0.0665068 0.0770066
vt 0.05837613 0.0770153
vt 0.0581991 0.0924826
vt 0.05837613 0.0770153
vt 0.05021017 0.0769954
vt 0.04167312 0.0924901
vt 0.04994457 0.0924905
vt 0.05021017 0.0769954
vt 0.04167312 0.0924901
vt 0.04200941 0.0769057
vt 0.03364515 0.0765417
vt 0.02765548 0.0928303
vt 0.03334009 0.0926562
vt 0.03364515 0.0765417
vt 0.09638333 0.091912
vt 0.09613579 0.0764597
vt 0.09067511 0.0765262
vt 0.1009318 0.0765448
vt 0.09613579 0.0764597
vt 0.09638333 0.091912
vt 0.1007428 0.0940903
vt 0.10375 0.0944986
vt 0.1041498 0.0920188
vt 0.08265393 0.092192
vt 0.08241111 0.0944037
vt 0.09047818 0.0943701
vt 0.07452988 0.0923258
vt 0.07447117 0.0944509
vt 0.08241111 0.0944037
vt 0.07452988 0.0923258
vt 0.06641423 0.092417
vt 0.06654369 0.0945935
vt 0.06641423 0.092417
vt 0.0581991 0.0924826
vt 0.05849754 0.0947108
vt 0.0581991 0.0924826
vt 0.04994457 0.0924905
vt 0.05039399 0.0947887
vt 0.04994457 0.0924905
vt 0.04167312 0.0924901
vt 0.04227024 0.0948737
vt 0.04167312 0.0924901
vt 0.03334009 0.0926562
vt 0.03417086 0.0951356
vt 0.03334009 0.0926562
vt 0.02765548 0.0928303
vt 0.02842378 0.0954841
vt 0.09090912 0.0920741
vt 0.09047818 0.0943701
vt 0.09575241 0.0942756
vt 0.09638333 0.091912
vt 0.09575241 0.0942756
vt 0.1007428 0.0940903
vt 0.03345501 0.1364878
vt 0.07314217 0.1364887
vt 0.07314223 0.1321651
vt 0.03345489 0.1408114
vt 0.07314211 0.1408123
vt 0.07314217 0.1364887
vt 0.03345471 0.145135
vt 0.07314211 0.1451359
vt 0.07314211 0.1408123
vt 0.03345459 0.1494586
vt 0.07314199 0.1494595
vt 0.07314211 0.1451359
vt 0.03345513 0.1321642
vt 0.07314223 0.1321651
vt 0.07314223 0.1298222
vt 0.03345453 0.1518015
vt 0.07314193 0.1518024
vt 0.07314199 0.1494595
vt 0.08087104 0.1828596
vt 0.09654188 0.1828596
vt 0.09804451 0.1810622
vt 0.08087104 0.1828596
vt 0.08446598 0.1852617
vt 0.09294694 0.1852617
vt 0.08446598 0.1852617
vt 0.08870643 0.1861052
vt 0.09294694 0.1852617
vt 0.07936841 0.1528197
vt 0.09804451 0.1528197
vt 0.09654188 0.1510222
vt 0.08087104 0.1510222
vt 0.09654188 0.1510222
vt 0.09294694 0.1486202
vt 0.08446598 0.1486202
vt 0.09294694 0.1486202
vt 0.08870643 0.1477767
vt 0.1005088 0.0744753
vt 0.1009318 0.0765448
vt 0.1041245 0.0760628
vt 0.09067511 0.0765262
vt 0.09613579 0.0764597
vt 0.09539562 0.0745412
vt 0.1005088 0.0744753
vt 0.09539562 0.0745412
vt 0.09613579 0.0764597
vt 0.08253556 0.0767772
vt 0.09067511 0.0765262
vt 0.09015041 0.0747155
vt 0.08222061 0.0750534
vt 0.07441139 0.075279
vt 0.07452154 0.076926
vt 0.07452154 0.076926
vt 0.07441139 0.075279
vt 0.0666024 0.0753071
vt 0.0665068 0.0770066
vt 0.0666024 0.0753071
vt 0.05866265 0.0752609
vt 0.05837613 0.0770153
vt 0.05866265 0.0752609
vt 0.05066919 0.0751617
vt 0.05021017 0.0769954
vt 0.05066919 0.0751617
vt 0.04263824 0.0749614
vt 0.04200941 0.0769057
vt 0.04263824 0.0749614
vt 0.03453546 0.0744728
vt 0.03364515 0.0765417
vt 0.03453546 0.0744728
vt 0.02872347 0.073895
vt 0.06765717 0.0987584
vt 0.0604453 0.0960684
vt 0.05276775 0.0955191
vt 0.06765717 0.0987584
vt 0.04524636 0.0971551
vt 0.03849065 0.1008439
vt 0.03849065 0.1008439
vt 0.03304779 0.1062866
vt 0.07705408 0.1071061
vt 0.07314223 0.1298222
vt 0.0731424 0.1180144
vt 0.03345555 0.1180137
vt 0.03345453 0.1518015
vt 0.03345423 0.1636094
vt 0.07314169 0.1636103
vt 0.09804451 0.1810622
vt 0.09806001 0.1692545
vt 0.07935291 0.1692544
vt 0.07936841 0.1528197
vt 0.07935291 0.1646275
vt 0.09806013 0.1646275
vt 0.081097 0.1321305
vt 0.07935291 0.1340277
vt 0.09806001 0.1340277
vt 0.081097 0.1477417
vt 0.0969063 0.1477417
vt 0.09806013 0.1461098
vt 0.0731424 0.1180144
vt 0.07314246 0.1134226
vt 0.03345566 0.1134218
vt 0.03345423 0.1636094
vt 0.03345412 0.1682013
vt 0.07314157 0.1682023
vt 0.09806001 0.1692545
vt 0.09806001 0.1646625
vt 0.07935291 0.1646626
vt 0.07935291 0.1340628
vt 0.07935291 0.1398642
vt 0.09806001 0.1398642
vt 0.0293588 0.1130422
vt 0.02765703 0.1181909
vt 0.03345555 0.1180137
vt 0.02935713 0.1685808
vt 0.03345412 0.1682013
vt 0.03345423 0.1636094
vt 0.03304779 0.1062866
vt 0.0293588 0.1130422
vt 0.03345566 0.1134218
vt 0.03304779 0.1062866
vt 0.03345566 0.1134218
vt 0.07314246 0.1134226
vt 0.07935291 0.1461098
vt 0.09806013 0.1461098
vt 0.09806013 0.1398992
vt 0.0793178 0.1111959
vt 0.07705408 0.1071061
vt 0.07314246 0.1134226
vt 0.07931703 0.1704291
vt 0.07931715 0.1675433
vt 0.07314157 0.1682023
vt 0.02935713 0.1685808
vt 0.03304588 0.1753368
vt 0.03345412 0.1682013
vt 0.07314157 0.1682023
vt 0.03345412 0.1682013
vt 0.03304588 0.1753368
vt 0.07705307 0.174519
vt 0.03304588 0.1753368
vt 0.03848856 0.1807797
vt 0.03848856 0.1807797
vt 0.04524427 0.1844689
vt 0.06765556 0.1828665
vt 0.05276566 0.1861052
vt 0.0604434 0.1855563
vt 0.06765556 0.1828665
vt 0.1041245 0.0760628
vt 0.1009318 0.0765448
vt 0.1041498 0.0920188
vt 0.08253556 0.0767772
vt 0.08265393 0.092192
vt 0.09067511 0.0765262
vt 0.07452154 0.076926
vt 0.07452988 0.0923258
vt 0.08253556 0.0767772
vt 0.0665068 0.0770066
vt 0.06641423 0.092417
vt 0.07452154 0.076926
vt 0.0581991 0.0924826
vt 0.06641423 0.092417
vt 0.05837613 0.0770153
vt 0.04994457 0.0924905
vt 0.0581991 0.0924826
vt 0.05021017 0.0769954
vt 0.04200941 0.0769057
vt 0.04167312 0.0924901
vt 0.05021017 0.0769954
vt 0.03334009 0.0926562
vt 0.04167312 0.0924901
vt 0.03364515 0.0765417
vt 0.02787202 0.0761688
vt 0.02765548 0.0928303
vt 0.03364515 0.0765417
vt 0.09090912 0.0920741
vt 0.09638333 0.091912
vt 0.09067511 0.0765262
vt 0.1010896 0.0916744
vt 0.1009318 0.0765448
vt 0.09638333 0.091912
vt 0.1010896 0.0916744
vt 0.1007428 0.0940903
vt 0.1041498 0.0920188
vt 0.09090912 0.0920741
vt 0.08265393 0.092192
vt 0.09047818 0.0943701
vt 0.08265393 0.092192
vt 0.07452988 0.0923258
vt 0.08241111 0.0944037
vt 0.07447117 0.0944509
vt 0.07452988 0.0923258
vt 0.06654369 0.0945935
vt 0.06654369 0.0945935
vt 0.06641423 0.092417
vt 0.05849754 0.0947108
vt 0.05849754 0.0947108
vt 0.0581991 0.0924826
vt 0.05039399 0.0947887
vt 0.05039399 0.0947887
vt 0.04994457 0.0924905
vt 0.04227024 0.0948737
vt 0.04227024 0.0948737
vt 0.04167312 0.0924901
vt 0.03417086 0.0951356
vt 0.03417086 0.0951356
vt 0.03334009 0.0926562
vt 0.02842378 0.0954841
vt 0.09638333 0.091912
vt 0.09090912 0.0920741
vt 0.09575241 0.0942756
vt 0.1010896 0.0916744
vt 0.09638333 0.091912
vt 0.1007428 0.0940903
vt 0.03345513 0.1321642
vt 0.03345501 0.1364878
vt 0.07314223 0.1321651
vt 0.03345501 0.1364878
vt 0.03345489 0.1408114
vt 0.07314217 0.1364887
vt 0.03345489 0.1408114
vt 0.03345471 0.145135
vt 0.07314211 0.1408123
vt 0.03345471 0.145135
vt 0.03345459 0.1494586
vt 0.07314211 0.1451359
vt 0.03345525 0.1298214
vt 0.03345513 0.1321642
vt 0.07314223 0.1298222
vt 0.03345459 0.1494586
vt 0.03345453 0.1518015
vt 0.07314199 0.1494595
vt 0.07936841 0.1810622
vt 0.08087104 0.1828596
vt 0.09804451 0.1810622
vt 0.09654188 0.1828596
vt 0.08087104 0.1828596
vt 0.09294694 0.1852617
vt 0.08087104 0.1510222
vt 0.07936841 0.1528197
vt 0.09654188 0.1510222
vt 0.08446598 0.1486202
vt 0.08087104 0.1510222
vt 0.09294694 0.1486202
vt 0.1036578 0.073895
vt 0.1005088 0.0744753
vt 0.1041245 0.0760628
vt 0.09015041 0.0747155
vt 0.09067511 0.0765262
vt 0.09539562 0.0745412
vt 0.1009318 0.0765448
vt 0.1005088 0.0744753
vt 0.09613579 0.0764597
vt 0.08222061 0.0750534
vt 0.08253556 0.0767772
vt 0.09015041 0.0747155
vt 0.08253556 0.0767772
vt 0.08222061 0.0750534
vt 0.07452154 0.076926
vt 0.0665068 0.0770066
vt 0.07452154 0.076926
vt 0.0666024 0.0753071
vt 0.05837613 0.0770153
vt 0.0665068 0.0770066
vt 0.05866265 0.0752609
vt 0.05021017 0.0769954
vt 0.05837613 0.0770153
vt 0.05066919 0.0751617
vt 0.04200941 0.0769057
vt 0.05021017 0.0769954
vt 0.04263824 0.0749614
vt 0.03364515 0.0765417
vt 0.04200941 0.0769057
vt 0.03453546 0.0744728
vt 0.02787202 0.0761688
vt 0.03364515 0.0765417
vt 0.02872347 0.073895
vt 0.04524636 0.0971551
vt 0.06765717 0.0987584
vt 0.05276775 0.0955191
vt 0.07381898 0.1033713
vt 0.06765717 0.0987584
vt 0.03849065 0.1008439
vt 0.07381898 0.1033713
vt 0.03849065 0.1008439
vt 0.07705408 0.1071061
vt 0.03345525 0.1298214
vt 0.07314223 0.1298222
vt 0.03345555 0.1180137
vt 0.07314193 0.1518024
vt 0.03345453 0.1518015
vt 0.07314169 0.1636103
vt 0.07936841 0.1810622
vt 0.09804451 0.1810622
vt 0.07935291 0.1692544
vt 0.09804451 0.1528197
vt 0.07936841 0.1528197
vt 0.09806013 0.1646275
vt 0.09690624 0.1321305
vt 0.081097 0.1321305
vt 0.09806001 0.1340277
vt 0.07935291 0.1461098
vt 0.081097 0.1477417
vt 0.09806013 0.1461098
vt 0.03345555 0.1180137
vt 0.0731424 0.1180144
vt 0.03345566 0.1134218
vt 0.07314169 0.1636103
vt 0.03345423 0.1636094
vt 0.07314157 0.1682023
vt 0.07935291 0.1692544
vt 0.09806001 0.1692545
vt 0.07935291 0.1646626
vt 0.09806001 0.1340628
vt 0.07935291 0.1340628
vt 0.09806001 0.1398642
vt 0.03345566 0.1134218
vt 0.0293588 0.1130422
vt 0.03345555 0.1180137
vt 0.02765548 0.1634319
vt 0.02935713 0.1685808
vt 0.03345423 0.1636094
vt 0.07705408 0.1071061
vt 0.03304779 0.1062866
vt 0.07314246 0.1134226
vt 0.07935291 0.1398992
vt 0.07935291 0.1461098
vt 0.09806013 0.1398992
vt 0.0793178 0.1140817
vt 0.0793178 0.1111959
vt 0.07314246 0.1134226
vt 0.07705307 0.174519
vt 0.07931703 0.1704291
vt 0.07314157 0.1682023
vt 0.07705307 0.174519
vt 0.07314157 0.1682023
vt 0.03304588 0.1753368
vt 0.07381772 0.1782538
vt 0.07705307 0.174519
vt 0.03848856 0.1807797
vt 0.07381772 0.1782538
vt 0.03848856 0.1807797
vt 0.06765556 0.1828665
vt 0.04524427 0.1844689
vt 0.05276566 0.1861052
vt 0.06765556 0.1828665
usemtl RAnklePitchUV
f 1/1 2/2 3/3
f 5/4 6/5 7/6
f 9/7 5/8 8/9
f 11/10 9/11 10/12
f 11/13 12/14 14/15
f 13/16 14/17 16/18
f 17/19 15/20 16/21
f 17/22 18/23 20/24
f 21/25 19/26 20/27
f 23/28 24/29 7/30
f 1/31 24/32 23/33
f 25/34 26/35 3/36
f 5/37 27/38 28/39
f 9/40 29/41 27/42
f 9/43 11/44 30/45
f 11/46 13/47 31/48
f 13/49 15/50 32/51
f 15/52 17/53 33/54
f 17/55 19/56 34/57
f 19/58 21/59 35/60
f 6/61 28/62 36/63
f 23/64 36/65 25/66
f 37/67 38/68 39/69
f 41/70 42/71 38/72
f 43/73 44/74 42/75
f 45/76 46/77 44/78
f 40/79 39/80 47/81
f 49/82 50/83 46/84
f 51/85 52/86 53/87
f 51/88 55/89 56/90
f 55/91 57/92 56/93
f 59/94 60/95 61/96
f 58/97 61/98 62/99
f 63/100 62/101 64/102
f 66/103 1/104 4/105
f 7/106 24/107 67/108
f 66/109 67/110 24/111
f 8/112 7/113 68/114
f 69/115 70/116 10/117
f 10/118 70/119 71/120
f 12/121 71/122 72/123
f 14/124 72/125 73/126
f 16/127 73/128 74/129
f 18/130 74/131 75/132
f 20/133 75/134 76/135
f 77/136 78/137 79/138
f 77/139 80/140 81/141
f 81/142 83/143 84/144
f 47/145 85/146 86/147
f 49/148 87/149 88/150
f 53/151 89/152 90/153
f 59/154 91/155 92/156
f 93/157 94/158 95/159
f 97/160 98/161 99/162
f 85/163 101/164 102/165
f 87/166 103/167 104/168
f 89/169 105/170 106/171
f 107/172 108/173 109/174
f 111/175 112/176 86/177
f 114/178 103/179 87/180
f 83/181 111/182 102/183
f 83/184 102/185 101/186
f 100/187 99/188 115/189
f 118/190 84/191 101/192
f 120/193 121/194 104/195
f 114/196 122/197 103/198
f 104/199 103/200 122/201
f 119/202 122/203 123/204
f 123/205 125/206 126/207
f 127/208 128/209 126/210
f 4/211 1/212 3/213
f 8/214 5/215 7/216
f 10/217 9/218 8/219
f 12/220 11/221 10/222
f 13/223 11/224 14/225
f 15/226 13/227 16/228
f 18/229 17/230 16/231
f 19/232 17/233 20/234
f 22/235 21/236 20/237
f 6/238 23/239 7/240
f 2/241 1/242 23/243
f 2/244 25/245 3/246
f 6/247 5/248 28/249
f 5/250 9/251 27/252
f 29/253 9/254 30/255
f 30/256 11/257 31/258
f 31/259 13/260 32/261
f 32/262 15/263 33/264
f 33/265 17/266 34/267
f 34/268 19/269 35/270
f 23/271 6/272 36/273
f 2/274 23/275 25/276
f 40/277 37/278 39/279
f 37/280 41/281 38/282
f 41/283 43/284 42/285
f 43/286 45/287 44/288
f 48/289 40/290 47/291
f 45/292 49/293 46/294
f 54/295 51/296 53/297
f 52/298 51/299 56/300
f 58/301 59/302 61/303
f 63/304 58/305 62/306
f 65/307 66/308 4/309
f 68/310 7/311 67/312
f 1/313 66/314 24/315
f 69/316 8/317 68/318
f 8/319 69/320 10/321
f 12/322 10/323 71/324
f 14/325 12/326 72/327
f 16/328 14/329 73/330
f 18/331 16/332 74/333
f 20/334 18/335 75/336
f 22/337 20/338 76/339
f 80/340 77/341 79/342
f 82/343 77/344 81/345
f 82/346 81/347 84/348
f 48/349 47/350 86/351
f 50/352 49/353 88/354
f 54/355 53/356 90/357
f 60/358 59/359 92/360
f 96/361 93/362 95/363
f 100/364 97/365 99/366
f 86/367 85/368 102/369
f 88/370 87/371 104/372
f 90/373 89/374 106/375
f 110/376 107/377 109/378
f 102/379 111/380 86/381
f 113/382 114/383 87/384
f 84/385 83/386 101/387
f 116/388 100/389 115/390
f 117/391 118/392 101/393
f 119/394 120/395 104/396
f 119/397 104/398 122/399
f 124/400 119/401 123/402
f 124/403 123/404 126/405
f 125/406 127/407 126/408
