mtllib RElbowRoll.mtl
o RElbowRoll
usemtl nao_texture
v 0.5723057 -0.1817905 0.1080839
v 0.5723057 -0.1480997 0.1519906
v 0.4079521 -0.1541411 0.1580319
v 0.4079521 -0.1891895 0.1123557
v 0.5723057 0.1854037 0.1080839
v 0.4078839 0.1958112 0.1114008
v 0.4079521 0.1577542 0.1580319
v 0.5723057 0.1517129 0.1519906
v 0.5723057 -0.2029694 0.0569536
v 0.4079521 -0.2112219 0.05916485
v 0.5723057 0.2065826 0.05695358
v 0.4079855 0.2133924 0.05895712
v 0.5723057 -0.2101933 0.002083941
v 0.4079521 -0.2187369 0.002083941
v 0.5723057 0.2138063 0.002083922
v 0.4080449 0.2167661 0.003282042
v 0.5723057 -0.2029694 -0.05278571
v 0.4079521 -0.211222 -0.05499697
v 0.5723057 0.2065826 -0.05278573
v 0.4079521 0.2148351 -0.05499699
v 0.5723057 -0.1817906 -0.1039161
v 0.4079521 -0.1891896 -0.1081879
v 0.5723057 0.1854038 -0.1039161
v 0.4080449 0.1880469 -0.1043688
v 0.5723057 -0.1480998 -0.1478227
v 0.4079521 -0.1541411 -0.1538639
v 0.5723057 0.1517129 -0.1478227
v 0.4077621 0.1614752 -0.1374878
v 0.5723057 -0.1041932 -0.1815135
v 0.4079855 -0.1095353 -0.1768493
v 0.5723057 0.1078063 -0.1815135
v 0.4078839 0.111244 -0.1711869
v 0.5723057 -0.05306282 -0.2026924
v 0.4079855 -0.05571327 -0.1962208
v 0.5723057 0.05667595 -0.2026924
v 0.4079855 0.05846008 -0.1974129
v 0.5723057 0.001806564 -0.2099162
v 0.4080449 0.001373367 -0.2051615
v 0.5723057 -0.05306259 0.2068603
v 0.5723057 0.001806564 0.2140839
v 0.4080449 0.001411056 0.2177693
v 0.4080449 -0.05675133 0.2073385
v 0.5723057 0.05667572 0.2068603
v 0.4078839 0.0584977 0.2180673
v 0.5723057 -0.104193 0.1856815
v 0.4080449 -0.1094601 0.1843907
v 0.5723057 0.1078061 0.1856815
v 0.4078839 0.1112816 0.1957156
v 0.3144765 -0.1632345 0.1619992
v 0.3140755 -0.1982525 0.1178438
v 0.3143302 0.2026383 0.1187821
v 0.3143302 0.1657076 0.1669112
v 0.3130191 -0.221713 0.06241101
v 0.3212147 0.2163279 0.06672553
v 0.313589 -0.2288097 0.002436501
v 0.324068 0.2188487 0.008578772
v 0.3131896 -0.2173608 -0.05786173
v 0.3262312 0.2102028 -0.05071865
v 0.3134526 -0.1897562 -0.113281
v 0.3268577 0.1899525 -0.1059029
v 0.3149982 -0.156692 -0.1490659
v 0.3219292 0.1569995 -0.1417602
v 0.3161544 -0.1067426 -0.1833589
v 0.3200452 0.1059273 -0.1787711
v 0.3166168 -0.05688866 -0.2006769
v 0.3138611 0.06111595 -0.1985978
v 0.3139231 0.0003934478 -0.2074267
v 0.3162116 -0.0005626678 0.2343396
v 0.3150771 -0.05926506 0.2209538
v 0.3148076 0.06115189 0.23377
v 0.3149596 -0.1148477 0.1975998
v 0.3149919 0.1167345 0.2095616
v 0.234522 -0.1772217 0.1745559
v 0.234076 -0.2164169 0.1272695
v 0.2395836 0.2027467 0.1256606
v 0.234076 0.1774496 0.1791231
v 0.2336333 -0.2396691 0.06685103
v 0.2604862 0.2158637 0.07495699
v 0.2330201 -0.2468285 0.001957721
v 0.2759654 0.2186237 0.01205566
v 0.2324931 -0.2338785 -0.06325599
v 0.2771234 0.2059896 -0.05171698
v 0.2337644 -0.2031197 -0.1169551
v 0.2505237 0.1770237 -0.1093906
v 0.2333531 -0.1701901 -0.1516293
v 0.2337747 0.1559008 -0.1448045
v 0.2333335 -0.1252718 -0.1832618
v 0.2339612 0.1090513 -0.1908185
v 0.2339253 -0.06512001 -0.2085938
v 0.2337957 0.06380783 -0.2100953
v 0.2342841 -0.0008076477 -0.2224346
v 0.2350373 -0.0008052825 0.2563912
v 0.235125 -0.06525108 0.2406452
v 0.2344721 0.06492149 0.2549011
v 0.2348703 -0.1255135 0.2100207
v 0.2349672 0.1250623 0.2262909
v 0.1441308 -0.1866005 0.1859544
v 0.1441308 -0.2279244 0.1320999
v 0.1441308 -0.2539018 0.0693852
v 0.1436055 -0.2611521 0.002138621
v 0.1427252 -0.2448625 -0.06510073
v 0.144024 -0.214475 -0.1172557
v 0.1439212 -0.1768828 -0.1530359
v 0.1438514 -0.132884 -0.1817717
v 0.207238 0.1286025 -0.1782064
v 0.2228092 0.1510951 -0.1477046
v 0.1432842 -0.07016228 -0.2136712
v 0.1887825 0.06603714 -0.2187376
v 0.1597592 -0.002281646 -0.2285724
v 0.1442837 -0.00310936 0.275812
v 0.1449092 -0.07056419 0.2585266
v 0.1445223 0.06437569 0.2718885
v 0.1446627 -0.1329716 0.2276041
v 0.1442153 0.1265701 0.2404191
v 0.1451274 0.1552777 0.2151557
v 0.08417957 -0.1920494 0.1886114
v 0.08417957 -0.2339705 0.1339787
v 0.08417957 -0.2603233 0.07035773
v 0.08376308 -0.2684883 0.001267312
v 0.08251613 -0.248644 -0.0658352
v 0.08293712 -0.2192206 -0.1141233
v 0.08169719 -0.1816293 -0.152667
v 0.07293658 -0.137232 -0.1817827
v 0.1155612 -0.07292519 -0.2124791
v 0.08426372 -0.006070404 0.2852995
v 0.08447193 -0.07476143 0.265751
v 0.08535121 0.06187683 0.279041
v 0.08453685 -0.1383022 0.2338626
v 0.08200794 0.1157942 0.256851
v 0.06848399 0.1267932 0.244334
v 0.004179554 -0.1909103 0.1874723
v 0.004179554 -0.2325754 0.1331733
v 0.004179554 -0.2587672 0.06994079
v 0.003466587 -0.2663021 0.001996611
v 0.002241458 -0.2467134 -0.06619285
v 0.003215427 -0.2333951 -0.08879644
v 0.03621058 -0.1905639 -0.1418476
v -0.0002953147 -0.006092911 0.2783366
v 0.004758244 -0.07431412 0.2639629
v 0.02808444 0.05920982 0.2741643
v 0.004179554 -0.1366111 0.2291376
v 0.05352687 0.1131311 0.2538708
v -0.0657778 -0.1833713 0.1774903
v -0.0657778 -0.2227929 0.1261149
v -0.05890371 -0.2473344 0.06628711
v -0.05003973 -0.2558066 -7.214784e-05
v -0.0176502 -0.2473059 -0.06191188
v -0.03091581 -0.07147377 0.2613493
v -0.05795828 -0.1322429 0.2270766
v -0.0769129 -0.186832 0.1768947
v -0.0847251 -0.221348 0.1240955
v -0.07506735 -0.2452445 0.06514141
v 0.009909916 0.1092808 -0.1034026
v 0.009909916 0.1092808 -0.1316779
v -0.0684223 0.07842499 -0.1316779
v -0.0684223 0.07842499 -0.1034026
v 0.08711757 0.07571007 -0.1034026
v 0.08711757 0.07571007 -0.1316779
v 0.1179734 -0.002622223 -0.1034026
v 0.1179734 -0.002622223 -0.1316779
v 0.0844025 -0.07982979 -0.1034026
v 0.0844025 -0.07982979 -0.1316779
v 0.006070347 -0.1106857 -0.1034026
v 0.006070347 -0.1106857 -0.1316779
v -0.07113729 -0.07711479 -0.1034026
v -0.07113729 -0.07711479 -0.1316779
v -0.1019932 0.001217346 -0.1034026
v -0.1019932 0.001217346 -0.1316779
v -0.04140661 0.1246987 -0.1316779
v -0.0684223 0.07842499 -0.1316779
v 0.009909916 0.1092808 -0.1316779
v -0.08671965 0.09737244 -0.1316779
v 0.01036966 0.1356169 -0.1316779
v 0.06173335 0.1228985 -0.1316779
v 0.08711757 0.07571007 -0.1316779
v 0.106065 0.0940075 -0.1316779
v 0.1333914 0.04869446 -0.1316779
v 0.1179734 -0.002622223 -0.1316779
v 0.1443095 -0.003081894 -0.1316779
v 0.131591 -0.05444565 -0.1316779
v 0.0844025 -0.07982979 -0.1316779
v 0.1026998 -0.09877732 -0.1316779
v 0.05738688 -0.1261037 -0.1316779
v 0.006070347 -0.1106857 -0.1316779
v 0.0056106 -0.1370218 -0.1316779
v -0.04575308 -0.1243033 -0.1316779
v -0.07113729 -0.07711479 -0.1316779
v -0.09008482 -0.09541214 -0.1316779
v -0.1174111 -0.05009926 -0.1316779
v -0.1019932 0.001217346 -0.1316779
v -0.1283292 0.001677017 -0.1316779
v -0.1156107 0.05304077 -0.1316779
v -0.04140661 0.1246987 -0.1316779
v -0.03255163 0.102219 -0.1516779
v -0.06974173 0.07979126 -0.1516779
v -0.08671965 0.09737244 -0.1316779
v 0.01036966 0.1356169 -0.1316779
v 0.009943104 0.1111799 -0.1516779
v 0.06173335 0.1228985 -0.1316779
v 0.05209926 0.1007414 -0.1516779
v 0.106065 0.0940075 -0.1316779
v 0.08848384 0.0770295 -0.1516779
v -0.09008482 -0.09541214 -0.1316779
v -0.07250357 -0.07843422 -0.1516779
v -0.03611898 -0.1021462 -0.1516779
v -0.04575308 -0.1243033 -0.1316779
v 0.006037159 -0.1125848 -0.1516779
v 0.0056106 -0.1370218 -0.1316779
v -0.1174111 -0.05009926 -0.1316779
v -0.09493124 -0.04124428 -0.1516779
v -0.1283292 0.001677017 -0.1316779
v -0.1038923 0.001250457 -0.1516779
v -0.1156107 0.05304077 -0.1316779
v -0.09345374 0.0434066 -0.1516779
v -0.01924177 0.06842972 -0.171678
v -0.04422224 0.0533651 -0.171678
v 0.00930193 0.07444878 -0.171678
v 0.03761806 0.06743729 -0.171678
v -0.0460774 -0.05291481 -0.171678
v -0.02163786 -0.06884209 -0.171678
v 0.006678333 -0.07585365 -0.171678
v -0.06114202 -0.02793434 -0.171678
v -0.06716116 0.0006093597 -0.171678
v -0.06014959 0.02892555 -0.171678
v -0.001459178 0.02328583 -0.1835359
v -0.01012716 0.01805855 -0.1835359
v 0.008445301 0.02537437 -0.1835359
v 0.01827074 0.02294144 -0.1835359
v -0.01077093 -0.01881966 -0.1835359
v -0.002290554 -0.02434631 -0.1835359
v 0.007534886 -0.02677925 -0.1835359
v -0.01599821 -0.01015167 -0.1835359
v -0.01808676 -0.0002472686 -0.1835359
v -0.01565374 0.009578247 -0.1835359
v 0.03761821 0.06743729 0.1692341
v 0.009302006 0.07444885 0.1692341
v 0.008445377 0.02537445 0.181092
v 0.01827082 0.02294151 0.181092
v -0.0192417 0.06842979 0.1692341
v -0.001459102 0.0232859 0.181092
v -0.04422216 0.0533651 0.1692341
v -0.01012701 0.01805855 0.181092
v -0.06014944 0.02892555 0.1692341
v -0.01565367 0.009578247 0.181092
v -0.06716108 0.0006093597 0.1692341
v -0.0180866 -0.0002472686 0.181092
v -0.06114202 -0.02793434 0.1692341
v -0.04607733 -0.05291481 0.1692341
v -0.01077078 -0.01881966 0.181092
v -0.01599813 -0.01015167 0.181092
v -0.02163778 -0.06884209 0.1692341
v -0.002290477 -0.02434631 0.181092
v 0.05209926 0.1007414 0.149234
v 0.00994318 0.11118 0.149234
v -0.03255163 0.102219 0.149234
v -0.06974157 0.07979134 0.149234
v -0.09345366 0.04340668 0.149234
v -0.1038922 0.001250534 0.149234
v -0.09493124 -0.04124428 0.1492341
v -0.07250357 -0.07843437 0.1492341
v -0.03611891 -0.1021463 0.1492341
v 0.06173343 0.1228985 0.129234
v 0.01036966 0.135617 0.129234
v 0.1060652 0.09400734 0.129234
v 0.08848392 0.07702942 0.149234
v -0.04140661 0.1246988 0.129234
v -0.08671957 0.09737252 0.129234
v -0.1156107 0.05304077 0.129234
v -0.1283292 0.001677093 0.129234
v -0.1174111 -0.05009926 0.1292341
v -0.09008475 -0.0954123 0.1292341
v -0.04575308 -0.1243033 0.1292341
v 0.131591 -0.05444557 0.1292341
v 0.1179734 -0.002622147 0.1292341
v 0.1443096 -0.003081818 0.1292341
v 0.1027 -0.09877732 0.1292341
v 0.08440258 -0.07982979 0.1292341
v 0.1333914 0.04869446 0.129234
v 0.1060652 0.09400734 0.129234
v 0.08711757 0.07570999 0.129234
v 0.06173343 0.1228985 0.129234
v 0.01036966 0.135617 0.129234
v 0.009909916 0.1092809 0.129234
v -0.04140661 0.1246988 0.129234
v -0.06842215 0.07842499 0.129234
v -0.08671957 0.09737252 0.129234
v -0.1156107 0.05304077 0.129234
v -0.1283292 0.001677093 0.129234
v -0.1019931 0.001217346 0.129234
v -0.1174111 -0.05009926 0.1292341
v -0.09008475 -0.0954123 0.1292341
v -0.07113722 -0.07711487 0.1292341
v -0.04575308 -0.1243033 0.1292341
v 0.0056106 -0.1370217 0.1292341
v 0.006070347 -0.1106857 0.1292341
v 0.05738688 -0.1261036 0.1292341
v 0.1179734 -0.002622147 0.1009587
v 0.1179734 -0.002622147 0.1292341
v 0.08440258 -0.07982979 0.1292341
v 0.08440258 -0.07982979 0.1009587
v 0.08711757 0.07570999 0.1009587
v 0.08711757 0.07570999 0.129234
v 0.009909916 0.1092809 0.1009587
v 0.009909916 0.1092809 0.129234
v -0.06842215 0.07842499 0.1009587
v -0.06842215 0.07842499 0.129234
v -0.1019931 0.001217346 0.1009587
v -0.1019931 0.001217346 0.129234
v -0.07113722 -0.07711487 0.1009587
v -0.07113722 -0.07711487 0.1292341
v 0.006070347 -0.1106857 0.1009587
v 0.006070347 -0.1106857 0.1292341
v 0.2265091 0.1922446 0.1208013
v 0.2463665 0.2047057 0.07263289
v 0.2563603 0.2050548 0.07263289
v 0.236503 0.1925936 0.1208013
v 0.2610718 0.2073278 0.01287663
v 0.2710657 0.2076769 0.01287663
v 0.2621718 0.1953255 -0.0477074
v 0.2721657 0.1956744 -0.0477074
v 0.236902 0.1678078 -0.1024974
v 0.2468959 0.1681568 -0.1024974
v 0.2105734 0.1431757 -0.1388956
v 0.1957807 0.1218077 -0.1678724
v 0.2057746 0.1221567 -0.1678724
v 0.2205673 0.1435246 -0.1388956
v 0.178248 0.06237061 -0.206377
v 0.1882419 0.06271957 -0.206377
v 0.1506758 -0.002532272 -0.21572
v 0.1606698 -0.002183303 -0.21572
v 0.06396434 0.1200889 0.2335411
v 0.1367755 0.1471491 0.2058216
v 0.1467694 0.1474981 0.2058216
v 0.07395823 0.1204378 0.2335411
v 0.1086877 -0.06964363 -0.2004314
v 0.0681943 -0.1307351 -0.1712698
v 0.0781882 -0.1303861 -0.1712698
v 0.1186816 -0.06929466 -0.2004314
v 0.03330462 -0.1814004 -0.1333315
v 0.001959171 -0.2220901 -0.08293288
v 0.01195314 -0.221741 -0.08293288
v 0.04329852 -0.1810514 -0.1333315
v -0.001376018 -0.006152954 0.2658435
v 0.02558482 0.05588463 0.2618798
v 0.03557872 0.0562336 0.2618798
v 0.008617878 -0.005803909 0.2658435
v 0.04975512 0.1071098 0.242601
v 0.0597491 0.1074588 0.242601
v -0.01786306 -0.2353053 -0.05739254
v -0.04863317 -0.243381 0.001355201
v -0.03863928 -0.2430319 0.001355201
v -0.007869167 -0.2349564 -0.05739254
v -0.05615576 -0.1259955 0.2171465
v -0.03046545 -0.06826485 0.2497056
v -0.02047155 -0.0679158 0.2497056
v -0.04616186 -0.1256465 0.2171465
v -0.08158423 -0.2106452 0.1193145
v -0.07416273 -0.1778551 0.1694738
v -0.06416876 -0.1775061 0.1694738
v -0.07159033 -0.2102963 0.1193145
v -0.07240942 -0.2333469 0.0633081
v -0.06241545 -0.232998 0.0633081
v 0.06527575 -0.2262047 -0.08293288
v 0.09142864 -0.1819983 -0.1333315
v 0.01765512 -0.2535026 0.001355201
v 0.04721171 -0.2417372 -0.05739254
v -0.01566969 -0.1915764 0.1694738
v -0.01903982 -0.2250266 0.1193145
v -0.007166653 -0.2464409 0.0633081
v 0.1198838 -0.1274586 -0.1712698
v -0.004117107 -0.1379088 0.2171465
v 0.1064778 -0.2297472 -0.08293288
v 0.1171517 -0.1860813 -0.1333315
v 0.08600399 -0.256097 0.001355201
v 0.09881252 -0.2449165 -0.05739254
v 0.07009501 -0.1935627 0.1694738
v 0.06926127 -0.2269244 0.1193145
v 0.07491679 -0.2485558 0.0633081
v 0.1284416 -0.1268651 -0.17011
v 0.07414378 -0.1401572 0.2171465
v 0.1466426 -0.2190047 -0.08293288
v 0.145404 -0.1757548 -0.1333315
v 0.1470605 -0.244625 0.001355201
v 0.1469799 -0.2338946 -0.05739254
v 0.1445545 -0.1816226 0.1694738
v 0.1456726 -0.2149161 0.1193145
v 0.1465431 -0.2367147 0.0633081
v 0.143834 -0.1222636 -0.1712698
v 0.1428284 -0.1284187 0.2171465
v 0.1882419 0.06271957 -0.206377
v 0.1606698 -0.002183303 -0.21572
v 0.06970439 -0.005359879 -0.19572
v 0.0843188 0.0590905 -0.186377
v 0.1186816 -0.06929466 -0.2004314
v 0.04052798 -0.1317012 -0.1491962
v 0.0459315 -0.07183517 -0.1804314
v 0.07161395 0.06073845 -0.1644455
v 0.1882419 0.06271957 -0.150177
v 0.2910201 0.2062554 0.07263289
v 0.2914304 0.194502 0.1208013
v 0.2909465 0.2083614 0.01287663
v 0.2913665 0.1963353 -0.04770739
v 0.2923679 0.1697325 -0.1024974
v 0.2308618 0.1227692 -0.1678724
v 0.2932665 0.1460487 -0.1388956
v 0.2253655 0.06401596 -0.206377
v 0.2929665 0.1534082 0.1751034
v 0.2938932 0.1281035 0.2018495
v 0.2311965 0.1131823 0.2246022
v 0.2254058 0.06286247 0.243881
v 0.1429553 -0.127068 0.001355201
v 0.1432491 -0.1270577 -0.05739254
v 0.1426499 -0.1270786 0.1694738
v 0.1426054 -0.1270802 0.1193145
v 0.1427144 -0.1270764 0.06330809
v 0.1434315 -0.1270514 -0.1288943
v 0.03557872 0.0562336 0.2618798
v 0.225399 0.06305473 0.168838
v 0.03761821 0.06743729 0.1692341
v 0.2309176 0.1211713 -0.1024599
v 0.2931163 0.1430578 -0.08210475
v 0.2309733 0.1195735 -0.03704751
v 0.2930545 0.1400669 -0.0253139
v 0.2310292 0.1179757 0.02836491
v 0.2931591 0.137076 0.03147695
v 0.231085 0.1163779 0.09377735
v 0.2933777 0.1340852 0.08826783
v 0.2311408 0.1147801 0.1591898
v 0.2937886 0.1310944 0.1450587
v 0.2253722 0.0638237 -0.1239478
v 0.2253789 0.06363144 -0.05629099
v 0.2253856 0.06343925 0.01875201
v 0.225399 0.06305473 0.1259833
v 0.05738688 -0.1261036 0.1292341
v 0.1426054 -0.1270802 0.1193145
v 0.1426499 -0.1270786 0.1694738
v 0.07414378 -0.1401572 0.2171465
v 0.1428284 -0.1284187 0.2171465
v -0.004117107 -0.1379088 0.2171465
v 0.0056106 -0.1370217 0.1292341
v -0.04616186 -0.1256465 0.2171465
v -0.04575308 -0.1243033 0.1292341
v 0.05738688 -0.1261037 -0.1316779
v 0.007990055 -0.0007024383 -0.1034026
v 0.007990208 -0.0007024383 0.1009587
v 0.1882419 0.06271957 -0.1242633
v 0.1426054 -0.1270802 0.1193145
v 0.1706001 -0.08865387 0.1206482
v 0.1712557 -0.08847702 -0.127905
v 0.1434315 -0.1270514 -0.1288943
v 0.1906394 -0.05050537 0.121982
v 0.1911244 -0.05018043 -0.1269157
v 0.2064123 -0.0125058 0.1233158
v 0.2067266 -0.01203285 -0.1259264
v 0.2180968 0.02535103 0.1246495
v 0.2182405 0.02597191 -0.1249371
v 0.2253722 0.0638237 -0.1239478
v 0.225399 0.06305473 0.1259833
v 0.1443095 -0.003081894 -0.1316779
v 0.131591 -0.05444565 -0.1316779
v 0.1911244 -0.05018043 -0.1269157
v 0.2067266 -0.01203285 -0.1259264
v 0.1026998 -0.09877732 -0.1316779
v 0.1712557 -0.08847702 -0.127905
v 0.2182405 0.02597191 -0.1249371
v 0.1333914 0.04869446 -0.1316779
v 0.2253722 0.0638237 -0.1239478
v 0.1882419 0.06271957 -0.1242633
v 0.05738688 -0.1261036 0.1292341
v 0.1027 -0.09877732 0.1292341
v 0.1706001 -0.08865387 0.1206482
v 0.1426054 -0.1270802 0.1193145
v 0.131591 -0.05444557 0.1292341
v 0.1906394 -0.05050537 0.121982
v 0.1443096 -0.003081818 0.1292341
v 0.2064123 -0.0125058 0.1233158
v 0.1333914 0.04869446 0.129234
v 0.2180968 0.02535103 0.1246495
v 0.225399 0.06305473 0.1259833
v -0.03611891 -0.1021463 0.1492341
v 0.007990208 -0.0007024383 0.181092
v 0.01827082 0.02294151 0.181092
v 0.007990208 -0.0007024383 0.181092
v 0.008617878 -0.005803909 0.2658435
v -0.002290477 -0.02434631 0.181092
v 0.007990055 -0.0007024383 -0.1835359
v 0.2443454 0.2097268 0.07367873
v 0.2240177 0.1969705 0.122988
v 0.259399 0.212411 0.01250719
v 0.2605251 0.2001244 -0.04951171
v 0.2346569 0.171955 -0.1055993
v 0.1925615 0.1248653 -0.1725227
v 0.2077046 0.1467394 -0.1428596
v 0.1746136 0.06402054 -0.2119393
v 0.1463883 -0.002419509 -0.2215036
v 0.1321589 0.150807 0.210022
v 0.05762324 0.1231058 0.2383979
v 0.06195338 -0.1336587 -0.1760006
v 0.1034058 -0.07112038 -0.2058529
v -0.00585043 -0.2271773 -0.08557147
v 0.02623736 -0.185524 -0.1371637
v 0.01833475 0.0573809 0.2674078
v -0.00926466 -0.006125946 0.2714654
v 0.0430775 0.1098194 0.2476724
v -0.05764105 -0.2489725 0.0007128912
v -0.02614225 -0.2407056 -0.05942624
v -0.03904303 -0.06970886 0.2549452
v -0.06534185 -0.1288068 0.2216151
v -0.08377524 -0.1818947 0.1728132
v -0.09137251 -0.2154614 0.1214659
v -0.08198035 -0.2387009 0.06413309
v 0.07161395 0.06073845 -0.1644455
v 0.1014042 0.05560471 -0.1516779
v 0.1014042 0.05560471 -0.1516779
v 0.1333914 0.04869446 -0.1316779
v 0.1333914 0.04869446 -0.1316779
v 0.0759872 0.06496155 0.1586919
v 0.08716999 0.06281319 0.1539629
v 0.09835262 0.0606649 0.149234
v 0.09835262 0.0606649 0.149234
v 0.0759872 0.06496155 0.1586919
v 0.1333914 0.04869446 0.129234
v 0.1333914 0.04869446 0.129234
v -0.02047155 -0.0679158 0.2497056
v -0.02163778 -0.06884209 0.1692341
vt 0.05594104 0.7905026
vt 0.05596327 0.7909147
vt 0.05776333 0.7910131
vt 0.05382001 0.792373
vt 0.0530548 0.7942259
vt 0.05406618 0.7944381
vt 0.05581873 0.7901175
vt 0.05594104 0.7905026
vt 0.05771648 0.7901325
vt 0.05344194 0.7921977
vt 0.05224084 0.793781
vt 0.0530548 0.7942259
vt 0.05560594 0.7897866
vt 0.05581873 0.7901175
vt 0.05745357 0.7892884
vt 0.0515449 0.7931501
vt 0.05224084 0.793781
vt 0.05344194 0.7921977
vt 0.05531877 0.7895341
vt 0.05560594 0.7897866
vt 0.05696296 0.7885544
vt 0.05292683 0.7915985
vt 0.05107504 0.7923081
vt 0.0515449 0.7931501
vt 0.05497968 0.7893821
vt 0.05531877 0.7895341
vt 0.05631172 0.7879417
vt 0.05082899 0.7914297
vt 0.05107504 0.7923081
vt 0.05292683 0.7915985
vt 0.05461609 0.7893474
vt 0.05497968 0.7893821
vt 0.05551141 0.7875132
vt 0.05076521 0.7907657
vt 0.05082899 0.7914297
vt 0.05284649 0.7912263
vt 0.05461609 0.7893474
vt 0.0546118 0.7873297
vt 0.05381673 0.7873834
vt 0.05095207 0.789772
vt 0.05076521 0.7907657
vt 0.05287498 0.7908451
vt 0.05426204 0.7894361
vt 0.05381673 0.7873834
vt 0.05290198 0.787651
vt 0.0513851 0.7888805
vt 0.05095207 0.789772
vt 0.05302494 0.7904915
vt 0.05395323 0.7896583
vt 0.05290198 0.787651
vt 0.05205124 0.7881583
vt 0.05205124 0.7881583
vt 0.0513851 0.7888805
vt 0.05330443 0.7902136
vt 0.05566936 0.7916994
vt 0.05539226 0.7920206
vt 0.05671405 0.7933959
vt 0.05504739 0.7922611
vt 0.05597949 0.7939736
vt 0.05671405 0.7933959
vt 0.05586475 0.7913226
vt 0.05566936 0.7916994
vt 0.05729448 0.792638
vt 0.0550881 0.7943327
vt 0.05597949 0.7939736
vt 0.05504739 0.7922611
vt 0.05596327 0.7909147
vt 0.05586475 0.7913226
vt 0.05762684 0.7917945
vt 0.05465078 0.7924076
vt 0.05423498 0.7924441
vt 0.05406618 0.7944381
vt 0.05771648 0.7901325
vt 0.05776333 0.7910131
vt 0.05952566 0.7909883
vt 0.05406618 0.7944381
vt 0.0530548 0.7942259
vt 0.05245226 0.7961638
vt 0.05745357 0.7892884
vt 0.05771648 0.7901325
vt 0.05942535 0.7897729
vt 0.0530548 0.7942259
vt 0.05224084 0.793781
vt 0.05128479 0.7954056
vt 0.05745357 0.7892884
vt 0.05903339 0.7885228
vt 0.05834054 0.7873667
vt 0.05224084 0.793781
vt 0.0515449 0.7931501
vt 0.05021297 0.7943581
vt 0.05631172 0.7879417
vt 0.05696296 0.7885544
vt 0.05834054 0.7873667
vt 0.0515449 0.7931501
vt 0.05107504 0.7923081
vt 0.04948705 0.7930134
vt 0.05551141 0.7875132
vt 0.05631172 0.7879417
vt 0.05732709 0.7863883
vt 0.05107504 0.7923081
vt 0.05082899 0.7914297
vt 0.04912006 0.7916225
vt 0.05551141 0.7875132
vt 0.05602383 0.7857092
vt 0.05486279 0.7854152
vt 0.05076521 0.7907657
vt 0.04898703 0.7904503
vt 0.04912006 0.7916225
vt 0.0546118 0.7873297
vt 0.05486279 0.7854152
vt 0.05329704 0.7853979
vt 0.05095207 0.789772
vt 0.04924798 0.788916
vt 0.04898703 0.7904503
vt 0.05290198 0.787651
vt 0.05381673 0.7873834
vt 0.05329704 0.7853979
vt 0.0513851 0.7888805
vt 0.04964739 0.7877523
vt 0.04924798 0.788916
vt 0.05205124 0.7881583
vt 0.05290198 0.787651
vt 0.05197155 0.785779
vt 0.0513851 0.7888805
vt 0.05205124 0.7881583
vt 0.05063849 0.7865263
vt 0.05729448 0.792638
vt 0.05671405 0.7933959
vt 0.05804598 0.7946377
vt 0.05597949 0.7939736
vt 0.05696225 0.795584
vt 0.05804598 0.7946377
vt 0.05729448 0.792638
vt 0.05881989 0.7935099
vt 0.05933803 0.7922839
vt 0.05597949 0.7939736
vt 0.0550881 0.7943327
vt 0.05562096 0.796166
vt 0.05776333 0.7910131
vt 0.05762684 0.7917945
vt 0.05933803 0.7922839
vt 0.0550881 0.7943327
vt 0.05406618 0.7944381
vt 0.05400687 0.7964019
vt 0.05942535 0.7897729
vt 0.05952566 0.7909883
vt 0.06151223 0.7909707
vt 0.05188792 0.7985217
vt 0.05413568 0.798724
vt 0.05400687 0.7964019
vt 0.05903339 0.7885228
vt 0.05942535 0.7897729
vt 0.06137382 0.7893312
vt 0.05054259 0.7970917
vt 0.05188792 0.7985217
vt 0.05245226 0.7961638
vt 0.05834054 0.7873667
vt 0.05903339 0.7885228
vt 0.06084936 0.7876711
vt 0.04917901 0.7953645
vt 0.05054259 0.7970917
vt 0.05128479 0.7954056
vt 0.05732709 0.7863883
vt 0.05834054 0.7873667
vt 0.05996823 0.7860862
vt 0.04804152 0.7934833
vt 0.04917901 0.7953645
vt 0.05021297 0.7943581
vt 0.05732709 0.7863883
vt 0.05864876 0.7846896
vt 0.0570181 0.7836705
vt 0.04912006 0.7916225
vt 0.0468834 0.7913931
vt 0.04804152 0.7934833
vt 0.05602383 0.7857092
vt 0.0570181 0.7836705
vt 0.05552905 0.7830949
vt 0.04898703 0.7904503
vt 0.04651087 0.7900014
vt 0.0468834 0.7913931
vt 0.05486279 0.7854152
vt 0.05552905 0.7830949
vt 0.05356913 0.782825
vt 0.04924798 0.788916
vt 0.04686343 0.787885
vt 0.04651087 0.7900014
vt 0.05329704 0.7853979
vt 0.05356913 0.782825
vt 0.05107939 0.7832344
vt 0.04964739 0.7877523
vt 0.0474019 0.7863321
vt 0.04686343 0.787885
vt 0.05197155 0.785779
vt 0.05107939 0.7832344
vt 0.04885667 0.7844278
vt 0.05063849 0.7865263
vt 0.04885667 0.7844278
vt 0.0474019 0.7863321
vt 0.05804598 0.7946377
vt 0.05966949 0.7961217
vt 0.06071698 0.7944951
vt 0.05696225 0.795584
vt 0.05820739 0.7974183
vt 0.05966949 0.7961217
vt 0.05933803 0.7922839
vt 0.05881989 0.7935099
vt 0.06071698 0.7944951
vt 0.0563451 0.7982893
vt 0.05820739 0.7974183
vt 0.05696225 0.795584
vt 0.06132334 0.7926786
vt 0.06151223 0.7909707
vt 0.05952566 0.7909883
vt 0.05562096 0.796166
vt 0.05400687 0.7964019
vt 0.05413568 0.798724
vt 0.06137382 0.7893312
vt 0.06151223 0.7909707
vt 0.06435555 0.7909772
vt 0.06084936 0.7876711
vt 0.06137382 0.7893312
vt 0.06402164 0.7887074
vt 0.05996823 0.7860862
vt 0.06084936 0.7876711
vt 0.06332904 0.7865725
vt 0.05996823 0.7860862
vt 0.06229913 0.7845362
vt 0.06079608 0.7824693
vt 0.05864876 0.7846896
vt 0.06079608 0.7824693
vt 0.05892187 0.7808829
vt 0.0570181 0.7836705
vt 0.05892187 0.7808829
vt 0.05684125 0.7797083
vt 0.05552905 0.7830949
vt 0.05684125 0.7797083
vt 0.05411851 0.7788365
vt 0.04585009 0.7884338
vt 0.04617452 0.789748
vt 0.04651087 0.7900014
vt 0.05356913 0.782825
vt 0.05411851 0.7788365
vt 0.04980176 0.7791729
vt 0.04547047 0.7853457
vt 0.04585009 0.7884338
vt 0.04686343 0.787885
vt 0.05107939 0.7832344
vt 0.04980176 0.7791729
vt 0.04639905 0.7815465
vt 0.04885667 0.7844278
vt 0.04639905 0.7815465
vt 0.04547047 0.7853457
vt 0.05966949 0.7961217
vt 0.06213384 0.7980781
vt 0.06346356 0.795791
vt 0.0602532 0.7998948
vt 0.06213384 0.7980781
vt 0.05966949 0.7961217
vt 0.06071698 0.7944951
vt 0.06346356 0.795791
vt 0.06419181 0.7933434
vt 0.05782628 0.8013332
vt 0.0602532 0.7998948
vt 0.05820739 0.7974183
vt 0.06132334 0.7926786
vt 0.06419181 0.7933434
vt 0.06435555 0.7909772
vt 0.0563451 0.7982893
vt 0.05413568 0.798724
vt 0.05622762 0.8019844
vt 0.06402164 0.7887074
vt 0.06435555 0.7909772
vt 0.06656271 0.7907525
vt 0.06332904 0.7865725
vt 0.06402164 0.7887074
vt 0.06605541 0.7881561
vt 0.06229913 0.7845362
vt 0.06332904 0.7865725
vt 0.06525236 0.7857636
vt 0.06079608 0.7824693
vt 0.06229913 0.7845362
vt 0.06419295 0.7834084
vt 0.06079608 0.7824693
vt 0.06273508 0.7809319
vt 0.06102401 0.7788513
vt 0.05892187 0.7808829
vt 0.06102401 0.7788513
vt 0.05878669 0.7767005
vt 0.05411851 0.7788365
vt 0.05684125 0.7797083
vt 0.05878669 0.7767005
vt 0.05411851 0.7788365
vt 0.05579751 0.7737512
vt 0.04914128 0.7774172
vt 0.06346356 0.795791
vt 0.06213384 0.7980781
vt 0.06432795 0.7996589
vt 0.06198322 0.8018229
vt 0.06432795 0.7996589
vt 0.06213384 0.7980781
vt 0.06419181 0.7933434
vt 0.06346356 0.795791
vt 0.06584793 0.7966699
vt 0.05991959 0.8031771
vt 0.06198322 0.8018229
vt 0.0602532 0.7998948
vt 0.06655877 0.7936223
vt 0.06656271 0.7907525
vt 0.06435555 0.7909772
vt 0.05782628 0.8013332
vt 0.05622762 0.8019844
vt 0.05960148 0.803996
vt 0.06656271 0.7907525
vt 0.06994616 0.7902236
vt 0.06908589 0.78731
vt 0.06605541 0.7881561
vt 0.06908589 0.78731
vt 0.06811738 0.7846575
vt 0.06419295 0.7834084
vt 0.06525236 0.7857636
vt 0.06811738 0.7846575
vt 0.06273508 0.7809319
vt 0.06419295 0.7834084
vt 0.06710869 0.7820452
vt 0.06273508 0.7809319
vt 0.06600254 0.7790484
vt 0.06545162 0.7777433
vt 0.06102401 0.7788513
vt 0.06545162 0.7777433
vt 0.06163042 0.775263
vt 0.06432795 0.7996589
vt 0.06860244 0.802771
vt 0.07013249 0.7981058
vt 0.0638495 0.8045874
vt 0.06860244 0.802771
vt 0.06432795 0.7996589
vt 0.06655877 0.7936223
vt 0.06584793 0.7966699
vt 0.07013249 0.7981058
vt 0.06049603 0.8042406
vt 0.0638495 0.8045874
vt 0.06198322 0.8018229
vt 0.07055085 0.7937508
vt 0.06994616 0.7902236
vt 0.06656271 0.7907525
vt 0.06908589 0.78731
vt 0.06994616 0.7902236
vt 0.07332974 0.7890531
vt 0.06908589 0.78731
vt 0.07185626 0.7861653
vt 0.0705372 0.7837127
vt 0.06811738 0.7846575
vt 0.0705372 0.7837127
vt 0.06924235 0.7811467
vt 0.06710869 0.7820452
vt 0.06924235 0.7811467
vt 0.06696957 0.7789103
vt 0.07013249 0.7981058
vt 0.06860244 0.802771
vt 0.07267355 0.7987807
vt 0.07055085 0.7937508
vt 0.07013249 0.7981058
vt 0.07267355 0.7987807
vt 0.07462322 0.7934423
vt 0.07332974 0.7890531
vt 0.06994616 0.7902236
vt 0.07185626 0.7861653
vt 0.07332974 0.7890531
vt 0.07383477 0.7886442
vt 0.07185626 0.7861653
vt 0.07260918 0.7857423
vt 0.07116973 0.7834437
vt 0.05878669 0.7767005
vt 0.06163042 0.775263
vt 0.05579751 0.7737512
vt 0.06600254 0.7790484
vt 0.06696957 0.7789103
vt 0.06545162 0.7777433
vt 0.0705372 0.7837127
vt 0.07116973 0.7834437
vt 0.06924235 0.7811467
vt 0.07332974 0.7890531
vt 0.07462322 0.7934423
vt 0.07383477 0.7886442
vt 0.05960148 0.803996
vt 0.06049603 0.8042406
vt 0.05991959 0.8031771
vt 0.05413568 0.798724
vt 0.05188792 0.7985217
vt 0.05622762 0.8019844
vt 0.0468834 0.7913931
vt 0.04651087 0.7900014
vt 0.04617452 0.789748
vt 0.04980176 0.7791729
vt 0.04914128 0.7774172
vt 0.04639905 0.7815465
vt 0.09968948 0.8123659
vt 0.09896266 0.8108459
vt 0.09545969 0.8143799
vt 0.1035948 0.812358
vt 0.104147 0.8107034
vt 0.09896266 0.8108459
vt 0.1080331 0.8143592
vt 0.104147 0.8107034
vt 0.1035948 0.812358
vt 0.1062905 0.8191587
vt 0.1081209 0.819945
vt 0.1080331 0.8143592
vt 0.1062905 0.8191587
vt 0.1034976 0.8219734
vt 0.1040722 0.8234551
vt 0.09958803 0.8218146
vt 0.09896939 0.8234551
vt 0.1040722 0.8234551
vt 0.09689736 0.8189085
vt 0.09508341 0.819621
vt 0.09896939 0.8234551
vt 0.09689736 0.8189085
vt 0.09688347 0.8150024
vt 0.09545969 0.8143799
vt 0.09624171 0.8262452
vt 0.09637403 0.8289354
vt 0.09882599 0.8254861
vt 0.09508341 0.8286397
vt 0.09637403 0.8289354
vt 0.09624171 0.8262452
vt 0.09624171 0.8262452
vt 0.09882599 0.8254861
vt 0.09812253 0.8243644
vt 0.1006347 0.8234903
vt 0.09882599 0.8254861
vt 0.1029989 0.8247809
vt 0.09812253 0.8243644
vt 0.09882599 0.8254861
vt 0.1006347 0.8234903
vt 0.1006347 0.8234903
vt 0.1029989 0.8247809
vt 0.1032946 0.8234903
vt 0.1056891 0.8246486
vt 0.1029989 0.8247809
vt 0.1064481 0.8272329
vt 0.1032946 0.8234903
vt 0.1029989 0.8247809
vt 0.1056891 0.8246486
vt 0.1056891 0.8246486
vt 0.1064481 0.8272329
vt 0.1075699 0.8265295
vt 0.108444 0.8290416
vt 0.1064481 0.8272329
vt 0.1071534 0.8314057
vt 0.1075699 0.8265295
vt 0.1064481 0.8272329
vt 0.108444 0.8290416
vt 0.108444 0.8290416
vt 0.1071534 0.8314057
vt 0.108444 0.8317015
vt 0.1072856 0.8340959
vt 0.1071534 0.8314057
vt 0.1047014 0.834855
vt 0.1054048 0.8359768
vt 0.1072856 0.8340959
vt 0.1047014 0.834855
vt 0.1072856 0.8340959
vt 0.108444 0.8317015
vt 0.1071534 0.8314057
vt 0.1028927 0.8368508
vt 0.1047014 0.834855
vt 0.1005285 0.8355603
vt 0.1054048 0.8359768
vt 0.1047014 0.834855
vt 0.1028927 0.8368508
vt 0.1028927 0.8368508
vt 0.1005285 0.8355603
vt 0.1002328 0.8368508
vt 0.09783834 0.8356925
vt 0.1005285 0.8355603
vt 0.09707927 0.8331083
vt 0.1002328 0.8368508
vt 0.1005285 0.8355603
vt 0.09783834 0.8356925
vt 0.09783834 0.8356925
vt 0.09707927 0.8331083
vt 0.09595751 0.8338117
vt 0.09508341 0.8312995
vt 0.09707927 0.8331083
vt 0.09637403 0.8289354
vt 0.09508341 0.8286397
vt 0.09508341 0.8312995
vt 0.09637403 0.8289354
vt 0.09508341 0.8312995
vt 0.09595751 0.8338117
vt 0.09707927 0.8331083
vt 0.02286863 0.7824756
vt 0.02631616 0.7798809
vt 0.02377986 0.774694
vt 0.03042513 0.783674
vt 0.02631616 0.7798809
vt 0.02286863 0.7824756
vt 0.03512519 0.7894494
vt 0.03576427 0.7853129
vt 0.03042513 0.783674
vt 0.04145103 0.7853456
vt 0.03576427 0.7853129
vt 0.03512519 0.7894494
vt 0.03727334 0.7594137
vt 0.0422523 0.761073
vt 0.0439732 0.7578558
vt 0.0439732 0.7578558
vt 0.0422523 0.761073
vt 0.04622745 0.763889
vt 0.03036659 0.7559107
vt 0.03178685 0.7601775
vt 0.03727334 0.7594137
vt 0.02666598 0.7632954
vt 0.03178685 0.7601775
vt 0.03036659 0.7559107
vt 0.01940983 0.7676409
vt 0.01940983 0.7756631
vt 0.02377986 0.774694
vt 0.01940983 0.7676409
vt 0.02398425 0.7687623
vt 0.02666598 0.7632954
vt 0.02631616 0.7798809
vt 0.03056317 0.7768434
vt 0.02907788 0.773689
vt 0.03307956 0.7791386
vt 0.03056317 0.7768434
vt 0.02631616 0.7798809
vt 0.03576427 0.7853129
vt 0.03646284 0.7799024
vt 0.03307956 0.7791386
vt 0.03701138 0.7644045
vt 0.04021096 0.7652698
vt 0.0422523 0.761073
vt 0.0422523 0.761073
vt 0.04021096 0.7652698
vt 0.04285424 0.7670211
vt 0.03178685 0.7601775
vt 0.03373116 0.7650889
vt 0.03701138 0.7644045
vt 0.03083527 0.7670422
vt 0.03373116 0.7650889
vt 0.03178685 0.7601775
vt 0.02398425 0.7687623
vt 0.02377986 0.774694
vt 0.02907788 0.773689
vt 0.02398425 0.7687623
vt 0.02927285 0.7701937
vt 0.03083527 0.7670422
vt 0.03056317 0.7768434
vt 0.03516626 0.7738562
vt 0.03478485 0.7728513
vt 0.03585934 0.7746425
vt 0.03516626 0.7738562
vt 0.03056317 0.7768434
vt 0.03646284 0.7799024
vt 0.03686618 0.7751747
vt 0.03585934 0.7746425
vt 0.03712493 0.7699817
vt 0.03820484 0.7701715
vt 0.04021096 0.7652698
vt 0.04021096 0.7652698
vt 0.03820484 0.7701715
vt 0.03914028 0.7706957
vt 0.03373116 0.7650889
vt 0.03614205 0.7702698
vt 0.03712493 0.7699817
vt 0.03531157 0.7709005
vt 0.03614205 0.7702698
vt 0.03373116 0.7650889
vt 0.02927285 0.7701937
vt 0.02907788 0.773689
vt 0.03478485 0.7728513
vt 0.02927285 0.7701937
vt 0.03486245 0.771828
vt 0.03531157 0.7709005
vt 0.1061586 0.7942181
vt 0.1053165 0.7930072
vt 0.1035495 0.794812
vt 0.1040835 0.7922664
vt 0.1031242 0.7945364
vt 0.1035495 0.794812
vt 0.102638 0.7944127
vt 0.1031242 0.7945364
vt 0.1040835 0.7922664
vt 0.1013112 0.792209
vt 0.1021468 0.7945054
vt 0.102638 0.7944127
vt 0.1013112 0.792209
vt 0.100069 0.7928898
vt 0.101711 0.7947501
vt 0.09922224 0.7940351
vt 0.09875237 0.7953973
vt 0.1012696 0.7956424
vt 0.09922224 0.7940351
vt 0.1014181 0.7951576
vt 0.101711 0.7947501
vt 0.09889048 0.7968674
vt 0.1013429 0.7961503
vt 0.1012696 0.7956424
vt 0.1080241 0.7932212
vt 0.1067191 0.7914579
vt 0.1053165 0.7930072
vt 0.1048436 0.7903689
vt 0.1040835 0.7922664
vt 0.1053165 0.7930072
vt 0.1027001 0.7919329
vt 0.1040835 0.7922664
vt 0.1048436 0.7903689
vt 0.1006179 0.7903016
vt 0.1013112 0.792209
vt 0.1027001 0.7919329
vt 0.1006179 0.7903016
vt 0.098724 0.7913379
vt 0.100069 0.7928898
vt 0.09741944 0.7930674
vt 0.09667766 0.7951118
vt 0.09875237 0.7953973
vt 0.09741944 0.7930674
vt 0.09922224 0.7940351
vt 0.100069 0.7928898
vt 0.09679943 0.797332
vt 0.09889048 0.7968674
vt 0.09875237 0.7953973
vt 0.1094397 0.7924431
vt 0.1077875 0.7902592
vt 0.1067191 0.7914579
vt 0.1094397 0.7924431
vt 0.1080241 0.7932212
vt 0.1088079 0.7952829
vt 0.1054325 0.7888743
vt 0.1048436 0.7903689
vt 0.1067191 0.7914579
vt 0.1027349 0.7898803
vt 0.1048436 0.7903689
vt 0.1054325 0.7888743
vt 0.1000698 0.7887929
vt 0.1006179 0.7903016
vt 0.1027349 0.7898803
vt 0.1000698 0.7887929
vt 0.09767919 0.7901271
vt 0.098724 0.7913379
vt 0.09600806 0.7922971
vt 0.09508341 0.7948693
vt 0.09667766 0.7951118
vt 0.09600806 0.7922971
vt 0.09741944 0.7930674
vt 0.098724 0.7913379
vt 0.09519374 0.7976149
vt 0.09679943 0.797332
vt 0.09667766 0.7951118
vt 0.108444 0.8424373
vt 0.1071534 0.8448014
vt 0.108444 0.8450972
vt 0.1075699 0.8399252
vt 0.1064482 0.8406286
vt 0.108444 0.8424373
vt 0.108444 0.8424373
vt 0.1064482 0.8406286
vt 0.1071534 0.8448014
vt 0.1072856 0.8474916
vt 0.108444 0.8450972
vt 0.1071534 0.8448014
vt 0.1054048 0.8493724
vt 0.1072856 0.8474916
vt 0.1047014 0.8482507
vt 0.1072856 0.8474916
vt 0.1071534 0.8448014
vt 0.1047014 0.8482507
vt 0.1028927 0.8502465
vt 0.1054048 0.8493724
vt 0.1047014 0.8482507
vt 0.1002328 0.8502465
vt 0.1028927 0.8502465
vt 0.1005285 0.8489559
vt 0.1028927 0.8502465
vt 0.1047014 0.8482507
vt 0.1005285 0.8489559
vt 0.09783834 0.8490882
vt 0.09707927 0.846504
vt 0.09595751 0.8472074
vt 0.1002328 0.8502465
vt 0.1005285 0.8489559
vt 0.09783834 0.8490882
vt 0.09783834 0.8490882
vt 0.1005285 0.8489559
vt 0.09707927 0.846504
vt 0.09508341 0.8446952
vt 0.09595751 0.8472074
vt 0.09707927 0.846504
vt 0.09508341 0.8420353
vt 0.09508341 0.8446952
vt 0.09637403 0.8423311
vt 0.09508341 0.8446952
vt 0.09707927 0.846504
vt 0.09637403 0.8423311
vt 0.09624171 0.8396409
vt 0.09508341 0.8420353
vt 0.09637403 0.8423311
vt 0.09812259 0.8377601
vt 0.09624171 0.8396409
vt 0.09882599 0.8388818
vt 0.09624171 0.8396409
vt 0.09637403 0.8423311
vt 0.09882599 0.8388818
vt 0.1006348 0.836886
vt 0.09812259 0.8377601
vt 0.09882599 0.8388818
vt 0.1032946 0.836886
vt 0.1006348 0.836886
vt 0.1029989 0.8381766
vt 0.1006348 0.836886
vt 0.09882599 0.8388818
vt 0.1029989 0.8381766
vt 0.1056891 0.8380443
vt 0.1032946 0.836886
vt 0.1029989 0.8381766
vt 0.1075699 0.8399252
vt 0.1056891 0.8380443
vt 0.1064482 0.8406286
vt 0.1056891 0.8380443
vt 0.1029989 0.8381766
vt 0.1064482 0.8406286
vt 0.1061537 0.8019674
vt 0.1079367 0.8011807
vt 0.1039496 0.7977583
vt 0.1061537 0.8019674
vt 0.1063236 0.8059243
vt 0.1079242 0.8066397
vt 0.1063236 0.8059243
vt 0.1036841 0.8088127
vt 0.1043319 0.8102639
vt 0.09971886 0.8088148
vt 0.09898883 0.8106682
vt 0.1043319 0.8102639
vt 0.09971886 0.8088148
vt 0.09679335 0.8060709
vt 0.09508341 0.8066736
vt 0.09678661 0.8021126
vt 0.09522277 0.8013401
vt 0.09508341 0.8066736
vt 0.09678661 0.8021126
vt 0.09954154 0.7993446
vt 0.09897363 0.7977583
vt 0.09954154 0.7993446
vt 0.1033893 0.7992077
vt 0.1039496 0.7977583
vt 0.0500403 0.7977025
vt 0.0496959 0.797843
vt 0.05117982 0.799315
vt 0.04855233 0.7958652
vt 0.0482257 0.7960325
vt 0.0496959 0.797843
vt 0.04724955 0.7937807
vt 0.04695516 0.7940122
vt 0.0482257 0.7960325
vt 0.04724955 0.7937807
vt 0.0461778 0.7914885
vt 0.04597604 0.7917342
vt 0.04550391 0.7898118
vt 0.0450837 0.788401
vt 0.04480057 0.7885536
vt 0.0450837 0.788401
vt 0.04427415 0.7846441
vt 0.04378056 0.7845734
vt 0.04427415 0.7846441
vt 0.04509413 0.7807929
vt 0.04432666 0.7808196
vt 0.05602198 0.8027016
vt 0.05555713 0.8026904
vt 0.05899697 0.804679
vt 0.04774063 0.7765537
vt 0.0559833 0.7716271
vt 0.05531477 0.7705449
vt 0.06234002 0.7740502
vt 0.06616914 0.7768142
vt 0.06628215 0.7762111
vt 0.06405818 0.8060785
vt 0.06371432 0.8068253
vt 0.06969016 0.8050045
vt 0.06033945 0.8051248
vt 0.05984979 0.805387
vt 0.06371432 0.8068253
vt 0.06761044 0.778234
vt 0.06992655 0.7805686
vt 0.07011306 0.7801326
vt 0.07410407 0.7995931
vt 0.07460576 0.8003804
vt 0.07712352 0.7939554
vt 0.07496732 0.788301
vt 0.07559573 0.7881967
vt 0.07388633 0.7850472
vt 0.07188713 0.7829517
vt 0.07346045 0.7853028
vt 0.07388633 0.7850472
vt 0.0559833 0.7716271
vt 0.06234002 0.7740502
vt 0.06237947 0.7732907
vt 0.06616914 0.7768142
vt 0.06761044 0.778234
vt 0.06771892 0.7777062
vt 0.06992655 0.7805686
vt 0.07188713 0.7829517
vt 0.07217007 0.7825935
vt 0.07623809 0.7935908
vt 0.07712352 0.7939554
vt 0.07559573 0.7881967
vt 0.05941987 0.8046707
vt 0.05899697 0.804679
vt 0.05984979 0.805387
vt 0.05157023 0.7992414
vt 0.05117982 0.799315
vt 0.05555713 0.8026904
vt 0.0461778 0.7914885
vt 0.04550391 0.7898118
vt 0.04529511 0.790053
vt 0.04509413 0.7807929
vt 0.04774063 0.7765537
vt 0.0474677 0.7768404
vt 0.06959152 0.8040931
vt 0.06969016 0.8050045
vt 0.07460576 0.8003804
vt 0.06237947 0.7732907
vt 0.06628215 0.7762111
vt 0.06715631 0.7730846
vt 0.06771892 0.7777062
vt 0.07011306 0.7801326
vt 0.07133156 0.7774082
vt 0.07388633 0.7850472
vt 0.07559573 0.7881967
vt 0.07861107 0.7861802
vt 0.07217007 0.7825935
vt 0.07388633 0.7850472
vt 0.0759226 0.7829378
vt 0.05531477 0.7705449
vt 0.06237947 0.7732907
vt 0.06304752 0.7702626
vt 0.06628215 0.7762111
vt 0.06771892 0.7777062
vt 0.06863886 0.7746422
vt 0.07011306 0.7801326
vt 0.07217007 0.7825935
vt 0.07372391 0.7802064
vt 0.07559573 0.7881967
vt 0.07712352 0.7939554
vt 0.08234047 0.7925758
vt 0.06304752 0.7702626
vt 0.06715631 0.7730846
vt 0.06802874 0.7706226
vt 0.06863886 0.7746422
vt 0.07133156 0.7774082
vt 0.07287621 0.7737628
vt 0.07861107 0.7861802
vt 0.08367508 0.7812686
vt 0.07966428 0.7784303
vt 0.07372391 0.7802064
vt 0.0759226 0.7829378
vt 0.07966428 0.7784303
vt 0.05958652 0.7665089
vt 0.06304752 0.7702626
vt 0.0638653 0.7685952
vt 0.06715631 0.7730846
vt 0.06863886 0.7746422
vt 0.0696761 0.7717075
vt 0.07133156 0.7774082
vt 0.07372391 0.7802064
vt 0.07617545 0.7760304
vt 0.08234047 0.7925758
vt 0.0900048 0.785895
vt 0.08367508 0.7812686
vt 0.0638653 0.7685952
vt 0.06802874 0.7706226
vt 0.06859743 0.7678503
vt 0.0696761 0.7717075
vt 0.07287621 0.7737628
vt 0.07425069 0.7700736
vt 0.08367508 0.7812686
vt 0.08764076 0.7754915
vt 0.08276957 0.773352
vt 0.07966428 0.7784303
vt 0.08276957 0.773352
vt 0.07844465 0.7715796
vt 0.06011384 0.7660165
vt 0.0638653 0.7685952
vt 0.06402522 0.7664392
vt 0.06802874 0.7706226
vt 0.0696761 0.7717075
vt 0.07052546 0.7686389
vt 0.07287621 0.7737628
vt 0.07617545 0.7760304
vt 0.07844465 0.7715796
vt 0.0900048 0.785895
vt 0.09504824 0.7784396
vt 0.08764076 0.7754915
vt 0.04394239 0.7787772
vt 0.04165691 0.7759352
vt 0.04075187 0.7806572
vt 0.05531477 0.7705449
vt 0.05057728 0.7652177
vt 0.04526007 0.7707068
vt 0.04702258 0.7768693
vt 0.04526007 0.7707068
vt 0.04165691 0.7759352
vt 0.04075187 0.7806572
vt 0.03646284 0.7799024
vt 0.03923362 0.7810942
vt 0.04075187 0.7806572
vt 0.03923362 0.7810942
vt 0.04070514 0.7854711
vt 0.0496959 0.797843
vt 0.04851859 0.7983576
vt 0.04919987 0.7999333
vt 0.0482257 0.7960325
vt 0.04756039 0.7963913
vt 0.04851859 0.7983576
vt 0.04695516 0.7940122
vt 0.04635745 0.7944372
vt 0.04756039 0.7963913
vt 0.04695516 0.7940122
vt 0.04597604 0.7917342
vt 0.0450136 0.7927561
vt 0.04529511 0.790053
vt 0.04480057 0.7885536
vt 0.04377901 0.7892659
vt 0.04480057 0.7885536
vt 0.04378056 0.7845734
vt 0.04319292 0.7867505
vt 0.05555713 0.8026904
vt 0.04966127 0.8021549
vt 0.04972755 0.8032372
vt 0.05984979 0.805387
vt 0.05170422 0.8045846
vt 0.05265098 0.8079314
vt 0.05899697 0.804679
vt 0.04972755 0.8032372
vt 0.05170422 0.8045846
vt 0.05117982 0.799315
vt 0.04919987 0.7999333
vt 0.04966127 0.8021549
vt 0.04597604 0.7917342
vt 0.04529511 0.790053
vt 0.04431623 0.791879
vt 0.07052546 0.7686389
vt 0.07425069 0.7700736
vt 0.07728409 0.7593371
vt 0.08764076 0.7754915
vt 0.09297686 0.7727229
vt 0.08945488 0.7673024
vt 0.08276957 0.773352
vt 0.08945488 0.7673024
vt 0.08419704 0.762614
vt 0.06859743 0.7678503
vt 0.07052546 0.7686389
vt 0.07005321 0.7591424
vt 0.07844465 0.7715796
vt 0.08419704 0.762614
vt 0.07728409 0.7593371
vt 0.08764076 0.7754915
vt 0.09504824 0.7784396
vt 0.09297686 0.7727229
vt 0.06402522 0.7664392
vt 0.06859743 0.7678503
vt 0.06175446 0.7617768
vt 0.05265098 0.8079314
vt 0.04778337 0.8080506
vt 0.04721796 0.8213578
vt 0.04152685 0.7918447
vt 0.04412043 0.7935436
vt 0.04431623 0.791879
vt 0.04080295 0.7956994
vt 0.04438191 0.7959163
vt 0.04412043 0.7935436
vt 0.04195141 0.7997903
vt 0.04528141 0.7983677
vt 0.04438191 0.7959163
vt 0.04195141 0.7997903
vt 0.0445196 0.8031415
vt 0.04664212 0.8005668
vt 0.0445196 0.8031415
vt 0.04779267 0.8050845
vt 0.04830628 0.8021962
vt 0.04779267 0.8050845
vt 0.05170422 0.8045846
vt 0.04972755 0.8032372
vt 0.03932136 0.7883152
vt 0.04152685 0.7918447
vt 0.04377901 0.7892659
vt 0.03634524 0.7938254
vt 0.04080295 0.7956994
vt 0.04152685 0.7918447
vt 0.03749334 0.8012223
vt 0.04195141 0.7997903
vt 0.04080295 0.7956994
vt 0.03749334 0.8012223
vt 0.04454302 0.8075607
vt 0.0445196 0.8031415
vt 0.04454302 0.8075607
vt 0.04778337 0.8080506
vt 0.04779267 0.8050845
vt 0.04778337 0.8080506
vt 0.05265098 0.8079314
vt 0.05170422 0.8045846
vt 0.04070514 0.7854711
vt 0.03932136 0.7883152
vt 0.04319292 0.7867505
vt 0.04851859 0.7983576
vt 0.04756039 0.7963913
vt 0.04528141 0.7983677
vt 0.04756039 0.7963913
vt 0.04635745 0.7944372
vt 0.04438191 0.7959163
vt 0.04635745 0.7944372
vt 0.0450136 0.7927561
vt 0.04412043 0.7935436
vt 0.0450136 0.7927561
vt 0.04431623 0.791879
vt 0.04412043 0.7935436
vt 0.04664212 0.8005668
vt 0.04830628 0.8021962
vt 0.04919987 0.7999333
vt 0.04830628 0.8021962
vt 0.04972755 0.8032372
vt 0.04966127 0.8021549
vt 0.04626095 0.8441029
vt 0.04601591 0.8502465
vt 0.04960024 0.8499768
vt 0.05271673 0.8447866
vt 0.04960024 0.8499768
vt 0.05301171 0.8497713
vt 0.04626095 0.8441029
vt 0.05271673 0.8447866
vt 0.05224049 0.8391963
vt 0.05224049 0.8391963
vt 0.05200612 0.8360666
vt 0.04572319 0.8365383
vt 0.04847478 0.7614072
vt 0.05057728 0.7652177
vt 0.05295395 0.7643824
vt 0.05531477 0.7705449
vt 0.06053686 0.7652481
vt 0.06175446 0.7617768
vt 0.05958652 0.7665089
vt 0.06011384 0.7660165
vt 0.06053686 0.7652481
vt 0.05295395 0.7643824
vt 0.05057728 0.7652177
vt 0.05531477 0.7705449
vt 0.09688347 0.8150024
vt 0.1016076 0.8170899
vt 0.09968948 0.8123659
vt 0.09968948 0.8123659
vt 0.1016076 0.8170899
vt 0.1035948 0.812358
vt 0.1035948 0.812358
vt 0.1016076 0.8170899
vt 0.1064013 0.8151493
vt 0.1064013 0.8151493
vt 0.1016076 0.8170899
vt 0.1062905 0.8191587
vt 0.1062905 0.8191587
vt 0.1016076 0.8170899
vt 0.1034976 0.8219734
vt 0.1034976 0.8219734
vt 0.1016076 0.8170899
vt 0.09958803 0.8218146
vt 0.09958803 0.8218146
vt 0.1016076 0.8170899
vt 0.09689736 0.8189085
vt 0.09689736 0.8189085
vt 0.1016076 0.8170899
vt 0.09688347 0.8150024
vt 0.1061537 0.8019674
vt 0.1033893 0.7992077
vt 0.1015463 0.8040324
vt 0.1063236 0.8059243
vt 0.1061537 0.8019674
vt 0.1015463 0.8040324
vt 0.1036841 0.8088127
vt 0.1063236 0.8059243
vt 0.1015463 0.8040324
vt 0.09971886 0.8088148
vt 0.1036841 0.8088127
vt 0.1015463 0.8040324
vt 0.09679335 0.8060709
vt 0.09971886 0.8088148
vt 0.1015463 0.8040324
vt 0.09678661 0.8021126
vt 0.09679335 0.8060709
vt 0.1015463 0.8040324
vt 0.09954154 0.7993446
vt 0.09678661 0.8021126
vt 0.1015463 0.8040324
vt 0.1033893 0.7992077
vt 0.09954154 0.7993446
vt 0.1015463 0.8040324
vt 0.04070514 0.7854711
vt 0.03931844 0.7858456
vt 0.03932136 0.7883152
vt 0.1075603 0.7882293
vt 0.1076191 0.7858392
vt 0.09512501 0.7858555
vt 0.1076191 0.7858392
vt 0.1076793 0.7836729
vt 0.09516787 0.7836867
vt 0.1076793 0.7836729
vt 0.1077401 0.7816046
vt 0.09521132 0.7816148
vt 0.1077401 0.7816046
vt 0.1078011 0.7796128
vt 0.09525507 0.7796185
vt 0.095299 0.7776822
vt 0.09525507 0.7796185
vt 0.1078011 0.7796128
vt 0.05794763 0.7491168
vt 0.0582599 0.7547492
vt 0.06421416 0.7524493
vt 0.06338363 0.7569742
vt 0.06421416 0.7524493
vt 0.0582599 0.7547492
vt 0.05670917 0.7601729
vt 0.05295395 0.7643824
vt 0.06175446 0.7617768
vt 0.05794763 0.7491168
vt 0.06461638 0.7480727
vt 0.06460809 0.7438381
vt 0.06460809 0.7438381
vt 0.06417483 0.7397534
vt 0.06041795 0.7410058
vt 0.09753781 0.7745826
vt 0.09994584 0.7720734
vt 0.0975551 0.7720734
vt 0.1001949 0.7747052
vt 0.1020907 0.7723839
vt 0.09994584 0.7720734
vt 0.1026672 0.7756864
vt 0.1041045 0.7728594
vt 0.1020907 0.7723839
vt 0.1059925 0.7734966
vt 0.1041045 0.7728594
vt 0.1026672 0.7756864
vt 0.1044647 0.777647
vt 0.1077467 0.7743054
vt 0.1059925 0.7734966
vt 0.04699349 0.8346841
vt 0.04572319 0.8365383
vt 0.05200612 0.8360666
vt 0.1038202 0.795248
vt 0.1035495 0.794812
vt 0.1025902 0.7957226
vt 0.1035495 0.794812
vt 0.1031242 0.7945364
vt 0.1025902 0.7957226
vt 0.1031242 0.7945364
vt 0.102638 0.7944127
vt 0.1025902 0.7957226
vt 0.102638 0.7944127
vt 0.1021468 0.7945054
vt 0.1025902 0.7957226
vt 0.1021468 0.7945054
vt 0.101711 0.7947501
vt 0.1025902 0.7957226
vt 0.1014181 0.7951576
vt 0.1012696 0.7956424
vt 0.1025902 0.7957226
vt 0.101711 0.7947501
vt 0.1014181 0.7951576
vt 0.1025902 0.7957226
vt 0.1012696 0.7956424
vt 0.1013429 0.7961503
vt 0.1025902 0.7957226
vt 0.04837977 0.8247431
vt 0.04854774 0.826583
vt 0.05462741 0.8263466
vt 0.04854774 0.826583
vt 0.04871565 0.8284229
vt 0.05462741 0.8263466
vt 0.03516626 0.7738562
vt 0.03744626 0.7726658
vt 0.03478485 0.7728513
vt 0.03585934 0.7746425
vt 0.03744626 0.7726658
vt 0.03516626 0.7738562
vt 0.03686618 0.7751747
vt 0.03744626 0.7726658
vt 0.03585934 0.7746425
vt 0.03712493 0.7699817
vt 0.03744626 0.7726658
vt 0.03820484 0.7701715
vt 0.03820484 0.7701715
vt 0.03744626 0.7726658
vt 0.03914028 0.7706957
vt 0.03614205 0.7702698
vt 0.03744626 0.7726658
vt 0.03712493 0.7699817
vt 0.03531157 0.7709005
vt 0.03744626 0.7726658
vt 0.03614205 0.7702698
vt 0.03478485 0.7728513
vt 0.03744626 0.7726658
vt 0.03486245 0.771828
vt 0.03486245 0.771828
vt 0.03744626 0.7726658
vt 0.03531157 0.7709005
vt 0.03686618 0.7751747
vt 0.04075187 0.7806572
vt 0.04165691 0.7759352
vt 0.03744626 0.7726658
vt 0.03686618 0.7751747
vt 0.04165691 0.7759352
vt 0.03686618 0.7751747
vt 0.03646284 0.7799024
vt 0.04075187 0.7806572
vt 0.03914028 0.7706957
vt 0.04165691 0.7759352
vt 0.04526007 0.7707068
vt 0.04285424 0.7670211
vt 0.03914028 0.7706957
vt 0.04526007 0.7707068
vt 0.03914028 0.7706957
vt 0.03744626 0.7726658
vt 0.04165691 0.7759352
vt 0.04622745 0.763889
vt 0.04526007 0.7707068
vt 0.05057728 0.7652177
vt 0.04847478 0.7614072
vt 0.04622745 0.763889
vt 0.05057728 0.7652177
vt 0.04622745 0.763889
vt 0.04285424 0.7670211
vt 0.04526007 0.7707068
vt 0.05021369 0.797604
vt 0.05176448 0.7991364
vt 0.05188792 0.7985217
vt 0.05021369 0.797604
vt 0.0500403 0.7977025
vt 0.05157023 0.7992414
vt 0.04871523 0.7957706
vt 0.05021369 0.797604
vt 0.05054259 0.7970917
vt 0.04871523 0.7957706
vt 0.04855233 0.7958652
vt 0.0500403 0.7977025
vt 0.0474168 0.7936857
vt 0.04871523 0.7957706
vt 0.04917901 0.7953645
vt 0.04724955 0.7937807
vt 0.04855233 0.7958652
vt 0.04871523 0.7957706
vt 0.0468834 0.7913931
vt 0.04631942 0.7913872
vt 0.0474168 0.7936857
vt 0.0461778 0.7914885
vt 0.04724955 0.7937807
vt 0.0474168 0.7936857
vt 0.04585009 0.7884338
vt 0.04526698 0.7883518
vt 0.04563647 0.7897057
vt 0.0450837 0.788401
vt 0.04550391 0.7898118
vt 0.04563647 0.7897057
vt 0.04547047 0.7853457
vt 0.04464036 0.7848167
vt 0.04526698 0.7883518
vt 0.04427415 0.7846441
vt 0.0450837 0.788401
vt 0.04526698 0.7883518
vt 0.04639905 0.7815465
vt 0.04569035 0.780879
vt 0.04464036 0.7848167
vt 0.04509413 0.7807929
vt 0.04427415 0.7846441
vt 0.04464036 0.7848167
vt 0.05632889 0.8026094
vt 0.05974084 0.8045272
vt 0.05960148 0.803996
vt 0.05632889 0.8026094
vt 0.05602198 0.8027016
vt 0.05941987 0.8046707
vt 0.05579751 0.7737512
vt 0.05626934 0.772518
vt 0.04859423 0.7765986
vt 0.0559833 0.7716271
vt 0.04774063 0.7765537
vt 0.04859423 0.7765986
vt 0.06545162 0.7777433
vt 0.06603223 0.7773839
vt 0.06225824 0.7747061
vt 0.06616914 0.7768142
vt 0.06234002 0.7740502
vt 0.06225824 0.7747061
vt 0.06422775 0.8053785
vt 0.06934988 0.8032874
vt 0.06860244 0.802771
vt 0.06422775 0.8053785
vt 0.06405818 0.8060785
vt 0.06959152 0.8040931
vt 0.06063634 0.804799
vt 0.06422775 0.8053785
vt 0.0638495 0.8045874
vt 0.06063634 0.804799
vt 0.06033945 0.8051248
vt 0.06405818 0.8060785
vt 0.06924235 0.7811467
vt 0.06967443 0.7809891
vt 0.06744754 0.7787135
vt 0.06992655 0.7805686
vt 0.06761044 0.778234
vt 0.06744754 0.7787135
vt 0.0735079 0.7989387
vt 0.07536846 0.7933205
vt 0.07462322 0.7934423
vt 0.0735079 0.7989387
vt 0.07410407 0.7995931
vt 0.07623809 0.7935908
vt 0.07431954 0.7884145
vt 0.07299017 0.7855577
vt 0.07260918 0.7857423
vt 0.07431954 0.7884145
vt 0.07496732 0.788301
vt 0.07346045 0.7853028
vt 0.07260918 0.7857423
vt 0.07299017 0.7855577
vt 0.07155293 0.7832972
vt 0.07346045 0.7853028
vt 0.07188713 0.7829517
vt 0.07155293 0.7832972
vt 0.06163042 0.775263
vt 0.06225824 0.7747061
vt 0.05626934 0.772518
vt 0.06234002 0.7740502
vt 0.0559833 0.7716271
vt 0.05626934 0.772518
vt 0.06696957 0.7789103
vt 0.06744754 0.7787135
vt 0.06603223 0.7773839
vt 0.06761044 0.778234
vt 0.06616914 0.7768142
vt 0.06603223 0.7773839
vt 0.07116973 0.7834437
vt 0.07155293 0.7832972
vt 0.06967443 0.7809891
vt 0.07188713 0.7829517
vt 0.06992655 0.7805686
vt 0.06967443 0.7809891
vt 0.07536846 0.7933205
vt 0.07431954 0.7884145
vt 0.07383477 0.7886442
vt 0.07536846 0.7933205
vt 0.07623809 0.7935908
vt 0.07496732 0.788301
vt 0.05974084 0.8045272
vt 0.06063634 0.804799
vt 0.06049603 0.8042406
vt 0.05974084 0.8045272
vt 0.05941987 0.8046707
vt 0.06033945 0.8051248
vt 0.05176448 0.7991364
vt 0.05632889 0.8026094
vt 0.05622762 0.8019844
vt 0.05176448 0.7991364
vt 0.05157023 0.7992414
vt 0.05602198 0.8027016
vt 0.04617452 0.789748
vt 0.04563647 0.7897057
vt 0.04631942 0.7913872
vt 0.04550391 0.7898118
vt 0.0461778 0.7914885
vt 0.04631942 0.7913872
vt 0.04914128 0.7774172
vt 0.04859423 0.7765986
vt 0.04569035 0.780879
vt 0.04774063 0.7765537
vt 0.04509413 0.7807929
vt 0.04569035 0.780879
vt 0.06934988 0.8032874
vt 0.0735079 0.7989387
vt 0.07267355 0.7987807
vt 0.06934988 0.8032874
vt 0.06959152 0.8040931
vt 0.07410407 0.7995931
vt 0.04079365 0.7818499
vt 0.03646284 0.7799024
vt 0.03576427 0.7853129
vt 0.04079365 0.7818499
vt 0.03576427 0.7853129
vt 0.04145103 0.7853456
vt 0.04145103 0.7853456
vt 0.04455733 0.7841439
vt 0.04079365 0.7818499
vt 0.03923362 0.7810942
vt 0.03925621 0.7822457
vt 0.04070514 0.7854711
vt 0.04070514 0.7854711
vt 0.03925621 0.7822457
vt 0.03896647 0.7835767
vt 0.04455733 0.7841439
vt 0.04145103 0.7853456
vt 0.04221558 0.7894711
vt 0.1088079 0.7952829
vt 0.1078068 0.7954597
vt 0.1083015 0.795865
vt 0.04591864 0.81703
vt 0.04657816 0.8186512
vt 0.04778337 0.8080506
vt 0.04416555 0.8144524
vt 0.04591864 0.81703
vt 0.04454302 0.8075607
vt 0.04657816 0.8186512
vt 0.04721796 0.8213578
vt 0.04778337 0.8080506
vt 0.1078068 0.7954597
vt 0.1088079 0.7952829
vt 0.1080241 0.7932212
vt 0.1104014 0.795
vt 0.1088079 0.7952829
vt 0.1088007 0.7962644
vt 0.05200612 0.8360666
vt 0.05391919 0.8313457
vt 0.04818481 0.8319625
vt 0.05390399 0.8215454
vt 0.04721796 0.8213578
vt 0.04837977 0.8247431
vt 0.04871565 0.8284229
vt 0.04818481 0.8319625
vt 0.05391919 0.8313457
vt 0.05771648 0.7901325
vt 0.05594104 0.7905026
vt 0.05776333 0.7910131
vt 0.05423498 0.7924441
vt 0.05382001 0.792373
vt 0.05406618 0.7944381
vt 0.05745357 0.7892884
vt 0.05581873 0.7901175
vt 0.05771648 0.7901325
vt 0.05382001 0.792373
vt 0.05344194 0.7921977
vt 0.0530548 0.7942259
vt 0.05696296 0.7885544
vt 0.05560594 0.7897866
vt 0.05745357 0.7892884
vt 0.05315041 0.7919308
vt 0.0515449 0.7931501
vt 0.05344194 0.7921977
vt 0.05631172 0.7879417
vt 0.05531877 0.7895341
vt 0.05696296 0.7885544
vt 0.05315041 0.7919308
vt 0.05292683 0.7915985
vt 0.0515449 0.7931501
vt 0.05551141 0.7875132
vt 0.05497968 0.7893821
vt 0.05631172 0.7879417
vt 0.05284649 0.7912263
vt 0.05082899 0.7914297
vt 0.05292683 0.7915985
vt 0.0546118 0.7873297
vt 0.05461609 0.7893474
vt 0.05551141 0.7875132
vt 0.05287498 0.7908451
vt 0.05076521 0.7907657
vt 0.05284649 0.7912263
vt 0.05426204 0.7894361
vt 0.05461609 0.7893474
vt 0.05381673 0.7873834
vt 0.05302494 0.7904915
vt 0.05095207 0.789772
vt 0.05287498 0.7908451
vt 0.05395323 0.7896583
vt 0.05426204 0.7894361
vt 0.05290198 0.787651
vt 0.05330443 0.7902136
vt 0.0513851 0.7888805
vt 0.05302494 0.7904915
vt 0.05372714 0.7900256
vt 0.05395323 0.7896583
vt 0.05205124 0.7881583
vt 0.05372714 0.7900256
vt 0.05205124 0.7881583
vt 0.05330443 0.7902136
vt 0.05729448 0.792638
vt 0.05566936 0.7916994
vt 0.05671405 0.7933959
vt 0.05539226 0.7920206
vt 0.05504739 0.7922611
vt 0.05671405 0.7933959
vt 0.05762684 0.7917945
vt 0.05586475 0.7913226
vt 0.05729448 0.792638
vt 0.05465078 0.7924076
vt 0.0550881 0.7943327
vt 0.05504739 0.7922611
vt 0.05776333 0.7910131
vt 0.05596327 0.7909147
vt 0.05762684 0.7917945
vt 0.0550881 0.7943327
vt 0.05465078 0.7924076
vt 0.05406618 0.7944381
vt 0.05942535 0.7897729
vt 0.05771648 0.7901325
vt 0.05952566 0.7909883
vt 0.05400687 0.7964019
vt 0.05406618 0.7944381
vt 0.05245226 0.7961638
vt 0.05903339 0.7885228
vt 0.05745357 0.7892884
vt 0.05942535 0.7897729
vt 0.05245226 0.7961638
vt 0.0530548 0.7942259
vt 0.05128479 0.7954056
vt 0.05696296 0.7885544
vt 0.05745357 0.7892884
vt 0.05834054 0.7873667
vt 0.05128479 0.7954056
vt 0.05224084 0.793781
vt 0.05021297 0.7943581
vt 0.05732709 0.7863883
vt 0.05631172 0.7879417
vt 0.05834054 0.7873667
vt 0.05021297 0.7943581
vt 0.0515449 0.7931501
vt 0.04948705 0.7930134
vt 0.05602383 0.7857092
vt 0.05551141 0.7875132
vt 0.05732709 0.7863883
vt 0.04948705 0.7930134
vt 0.05107504 0.7923081
vt 0.04912006 0.7916225
vt 0.0546118 0.7873297
vt 0.05551141 0.7875132
vt 0.05486279 0.7854152
vt 0.05082899 0.7914297
vt 0.05076521 0.7907657
vt 0.04912006 0.7916225
vt 0.05381673 0.7873834
vt 0.0546118 0.7873297
vt 0.05329704 0.7853979
vt 0.05076521 0.7907657
vt 0.05095207 0.789772
vt 0.04898703 0.7904503
vt 0.05197155 0.785779
vt 0.05290198 0.787651
vt 0.05329704 0.7853979
vt 0.05095207 0.789772
vt 0.0513851 0.7888805
vt 0.04924798 0.788916
vt 0.05063849 0.7865263
vt 0.05205124 0.7881583
vt 0.05197155 0.785779
vt 0.04964739 0.7877523
vt 0.0513851 0.7888805
vt 0.05063849 0.7865263
vt 0.05881989 0.7935099
vt 0.05729448 0.792638
vt 0.05804598 0.7946377
vt 0.05671405 0.7933959
vt 0.05597949 0.7939736
vt 0.05804598 0.7946377
vt 0.05762684 0.7917945
vt 0.05729448 0.792638
vt 0.05933803 0.7922839
vt 0.05696225 0.795584
vt 0.05597949 0.7939736
vt 0.05562096 0.796166
vt 0.05952566 0.7909883
vt 0.05776333 0.7910131
vt 0.05933803 0.7922839
vt 0.05562096 0.796166
vt 0.0550881 0.7943327
vt 0.05400687 0.7964019
vt 0.06137382 0.7893312
vt 0.05942535 0.7897729
vt 0.06151223 0.7909707
vt 0.05245226 0.7961638
vt 0.05188792 0.7985217
vt 0.05400687 0.7964019
vt 0.06084936 0.7876711
vt 0.05903339 0.7885228
vt 0.06137382 0.7893312
vt 0.05128479 0.7954056
vt 0.05054259 0.7970917
vt 0.05245226 0.7961638
vt 0.05996823 0.7860862
vt 0.05834054 0.7873667
vt 0.06084936 0.7876711
vt 0.05021297 0.7943581
vt 0.04917901 0.7953645
vt 0.05128479 0.7954056
vt 0.05864876 0.7846896
vt 0.05732709 0.7863883
vt 0.05996823 0.7860862
vt 0.04948705 0.7930134
vt 0.04804152 0.7934833
vt 0.05021297 0.7943581
vt 0.05602383 0.7857092
vt 0.05732709 0.7863883
vt 0.0570181 0.7836705
vt 0.04948705 0.7930134
vt 0.04912006 0.7916225
vt 0.04804152 0.7934833
vt 0.05486279 0.7854152
vt 0.05602383 0.7857092
vt 0.05552905 0.7830949
vt 0.04912006 0.7916225
vt 0.04898703 0.7904503
vt 0.0468834 0.7913931
vt 0.05329704 0.7853979
vt 0.05486279 0.7854152
vt 0.05356913 0.782825
vt 0.04898703 0.7904503
vt 0.04924798 0.788916
vt 0.04651087 0.7900014
vt 0.05197155 0.785779
vt 0.05329704 0.7853979
vt 0.05107939 0.7832344
vt 0.04924798 0.788916
vt 0.04964739 0.7877523
vt 0.04686343 0.787885
vt 0.05063849 0.7865263
vt 0.05197155 0.785779
vt 0.04885667 0.7844278
vt 0.04964739 0.7877523
vt 0.05063849 0.7865263
vt 0.0474019 0.7863321
vt 0.05881989 0.7935099
vt 0.05804598 0.7946377
vt 0.06071698 0.7944951
vt 0.05804598 0.7946377
vt 0.05696225 0.795584
vt 0.05966949 0.7961217
vt 0.06132334 0.7926786
vt 0.05933803 0.7922839
vt 0.06071698 0.7944951
vt 0.05562096 0.796166
vt 0.0563451 0.7982893
vt 0.05696225 0.795584
vt 0.05933803 0.7922839
vt 0.06132334 0.7926786
vt 0.05952566 0.7909883
vt 0.0563451 0.7982893
vt 0.05562096 0.796166
vt 0.05413568 0.798724
vt 0.06402164 0.7887074
vt 0.06137382 0.7893312
vt 0.06435555 0.7909772
vt 0.06332904 0.7865725
vt 0.06084936 0.7876711
vt 0.06402164 0.7887074
vt 0.06229913 0.7845362
vt 0.05996823 0.7860862
vt 0.06332904 0.7865725
vt 0.05864876 0.7846896
vt 0.05996823 0.7860862
vt 0.06079608 0.7824693
vt 0.0570181 0.7836705
vt 0.05864876 0.7846896
vt 0.05892187 0.7808829
vt 0.05552905 0.7830949
vt 0.0570181 0.7836705
vt 0.05684125 0.7797083
vt 0.05356913 0.782825
vt 0.05552905 0.7830949
vt 0.05411851 0.7788365
vt 0.04686343 0.787885
vt 0.04585009 0.7884338
vt 0.04651087 0.7900014
vt 0.05107939 0.7832344
vt 0.05356913 0.782825
vt 0.04980176 0.7791729
vt 0.0474019 0.7863321
vt 0.04547047 0.7853457
vt 0.04686343 0.787885
vt 0.04885667 0.7844278
vt 0.05107939 0.7832344
vt 0.04639905 0.7815465
vt 0.0474019 0.7863321
vt 0.04885667 0.7844278
vt 0.04547047 0.7853457
vt 0.06071698 0.7944951
vt 0.05966949 0.7961217
vt 0.06346356 0.795791
vt 0.05820739 0.7974183
vt 0.0602532 0.7998948
vt 0.05966949 0.7961217
vt 0.06132334 0.7926786
vt 0.06071698 0.7944951
vt 0.06419181 0.7933434
vt 0.0563451 0.7982893
vt 0.05782628 0.8013332
vt 0.05820739 0.7974183
vt 0.06151223 0.7909707
vt 0.06132334 0.7926786
vt 0.06435555 0.7909772
vt 0.05782628 0.8013332
vt 0.0563451 0.7982893
vt 0.05622762 0.8019844
vt 0.06605541 0.7881561
vt 0.06402164 0.7887074
vt 0.06656271 0.7907525
vt 0.06525236 0.7857636
vt 0.06332904 0.7865725
vt 0.06605541 0.7881561
vt 0.06419295 0.7834084
vt 0.06229913 0.7845362
vt 0.06525236 0.7857636
vt 0.06273508 0.7809319
vt 0.06079608 0.7824693
vt 0.06419295 0.7834084
vt 0.05892187 0.7808829
vt 0.06079608 0.7824693
vt 0.06102401 0.7788513
vt 0.05684125 0.7797083
vt 0.05892187 0.7808829
vt 0.05878669 0.7767005
vt 0.05579751 0.7737512
vt 0.05411851 0.7788365
vt 0.05878669 0.7767005
vt 0.04980176 0.7791729
vt 0.05411851 0.7788365
vt 0.04914128 0.7774172
vt 0.06584793 0.7966699
vt 0.06346356 0.795791
vt 0.06432795 0.7996589
vt 0.0602532 0.7998948
vt 0.06198322 0.8018229
vt 0.06213384 0.7980781
vt 0.06655877 0.7936223
vt 0.06419181 0.7933434
vt 0.06584793 0.7966699
vt 0.05782628 0.8013332
vt 0.05991959 0.8031771
vt 0.0602532 0.7998948
vt 0.06419181 0.7933434
vt 0.06655877 0.7936223
vt 0.06435555 0.7909772
vt 0.05991959 0.8031771
vt 0.05782628 0.8013332
vt 0.05960148 0.803996
vt 0.06605541 0.7881561
vt 0.06656271 0.7907525
vt 0.06908589 0.78731
vt 0.06525236 0.7857636
vt 0.06605541 0.7881561
vt 0.06811738 0.7846575
vt 0.06710869 0.7820452
vt 0.06419295 0.7834084
vt 0.06811738 0.7846575
vt 0.06600254 0.7790484
vt 0.06273508 0.7809319
vt 0.06710869 0.7820452
vt 0.06102401 0.7788513
vt 0.06273508 0.7809319
vt 0.06545162 0.7777433
vt 0.05878669 0.7767005
vt 0.06102401 0.7788513
vt 0.06163042 0.775263
vt 0.06584793 0.7966699
vt 0.06432795 0.7996589
vt 0.07013249 0.7981058
vt 0.06198322 0.8018229
vt 0.0638495 0.8045874
vt 0.06432795 0.7996589
vt 0.07055085 0.7937508
vt 0.06655877 0.7936223
vt 0.07013249 0.7981058
vt 0.05991959 0.8031771
vt 0.06049603 0.8042406
vt 0.06198322 0.8018229
vt 0.06655877 0.7936223
vt 0.07055085 0.7937508
vt 0.06656271 0.7907525
vt 0.07185626 0.7861653
vt 0.06908589 0.78731
vt 0.07332974 0.7890531
vt 0.06811738 0.7846575
vt 0.06908589 0.78731
vt 0.0705372 0.7837127
vt 0.06710869 0.7820452
vt 0.06811738 0.7846575
vt 0.06924235 0.7811467
vt 0.06600254 0.7790484
vt 0.06710869 0.7820452
vt 0.06696957 0.7789103
vt 0.07462322 0.7934423
vt 0.07055085 0.7937508
vt 0.07267355 0.7987807
vt 0.07055085 0.7937508
vt 0.07462322 0.7934423
vt 0.06994616 0.7902236
vt 0.07260918 0.7857423
vt 0.07185626 0.7861653
vt 0.07383477 0.7886442
vt 0.0705372 0.7837127
vt 0.07185626 0.7861653
vt 0.07116973 0.7834437
vt 0.09688347 0.8150024
vt 0.09968948 0.8123659
vt 0.09545969 0.8143799
vt 0.09968948 0.8123659
vt 0.1035948 0.812358
vt 0.09896266 0.8108459
vt 0.1064013 0.8151493
vt 0.1080331 0.8143592
vt 0.1035948 0.812358
vt 0.1064013 0.8151493
vt 0.1062905 0.8191587
vt 0.1080331 0.8143592
vt 0.1081209 0.819945
vt 0.1062905 0.8191587
vt 0.1040722 0.8234551
vt 0.1034976 0.8219734
vt 0.09958803 0.8218146
vt 0.1040722 0.8234551
vt 0.09958803 0.8218146
vt 0.09689736 0.8189085
vt 0.09896939 0.8234551
vt 0.09508341 0.819621
vt 0.09689736 0.8189085
vt 0.09545969 0.8143799
vt 0.01940983 0.7756631
vt 0.02286863 0.7824756
vt 0.02377986 0.774694
vt 0.02833169 0.7873074
vt 0.03042513 0.783674
vt 0.02286863 0.7824756
vt 0.02833169 0.7873074
vt 0.03512519 0.7894494
vt 0.03042513 0.783674
vt 0.04221558 0.7894711
vt 0.04145103 0.7853456
vt 0.03512519 0.7894494
vt 0.03775215 0.7553804
vt 0.03727334 0.7594137
vt 0.0439732 0.7578558
vt 0.04847478 0.7614072
vt 0.0439732 0.7578558
vt 0.04622745 0.763889
vt 0.03775215 0.7553804
vt 0.03036659 0.7559107
vt 0.03727334 0.7594137
vt 0.02304017 0.7599284
vt 0.02666598 0.7632954
vt 0.03036659 0.7559107
vt 0.02398425 0.7687623
vt 0.01940983 0.7676409
vt 0.02377986 0.774694
vt 0.02304017 0.7599284
vt 0.01940983 0.7676409
vt 0.02666598 0.7632954
vt 0.02377986 0.774694
vt 0.02631616 0.7798809
vt 0.02907788 0.773689
vt 0.03042513 0.783674
vt 0.03307956 0.7791386
vt 0.02631616 0.7798809
vt 0.03042513 0.783674
vt 0.03576427 0.7853129
vt 0.03307956 0.7791386
vt 0.03727334 0.7594137
vt 0.03701138 0.7644045
vt 0.0422523 0.761073
vt 0.04622745 0.763889
vt 0.0422523 0.761073
vt 0.04285424 0.7670211
vt 0.03727334 0.7594137
vt 0.03178685 0.7601775
vt 0.03701138 0.7644045
vt 0.02666598 0.7632954
vt 0.03083527 0.7670422
vt 0.03178685 0.7601775
vt 0.02927285 0.7701937
vt 0.02398425 0.7687623
vt 0.02907788 0.773689
vt 0.02666598 0.7632954
vt 0.02398425 0.7687623
vt 0.03083527 0.7670422
vt 0.02907788 0.773689
vt 0.03056317 0.7768434
vt 0.03478485 0.7728513
vt 0.03307956 0.7791386
vt 0.03585934 0.7746425
vt 0.03056317 0.7768434
vt 0.03307956 0.7791386
vt 0.03646284 0.7799024
vt 0.03585934 0.7746425
vt 0.03701138 0.7644045
vt 0.03712493 0.7699817
vt 0.04021096 0.7652698
vt 0.04285424 0.7670211
vt 0.04021096 0.7652698
vt 0.03914028 0.7706957
vt 0.03701138 0.7644045
vt 0.03373116 0.7650889
vt 0.03712493 0.7699817
vt 0.03083527 0.7670422
vt 0.03531157 0.7709005
vt 0.03373116 0.7650889
vt 0.03486245 0.771828
vt 0.02927285 0.7701937
vt 0.03478485 0.7728513
vt 0.03083527 0.7670422
vt 0.02927285 0.7701937
vt 0.03531157 0.7709005
vt 0.1038202 0.795248
vt 0.1061586 0.7942181
vt 0.1035495 0.794812
vt 0.1053165 0.7930072
vt 0.1040835 0.7922664
vt 0.1035495 0.794812
vt 0.1027001 0.7919329
vt 0.102638 0.7944127
vt 0.1040835 0.7922664
vt 0.1027001 0.7919329
vt 0.1013112 0.792209
vt 0.102638 0.7944127
vt 0.1021468 0.7945054
vt 0.1013112 0.792209
vt 0.101711 0.7947501
vt 0.1014181 0.7951576
vt 0.09922224 0.7940351
vt 0.1012696 0.7956424
vt 0.100069 0.7928898
vt 0.09922224 0.7940351
vt 0.101711 0.7947501
vt 0.09875237 0.7953973
vt 0.09889048 0.7968674
vt 0.1012696 0.7956424
vt 0.1061586 0.7942181
vt 0.1080241 0.7932212
vt 0.1053165 0.7930072
vt 0.1067191 0.7914579
vt 0.1048436 0.7903689
vt 0.1053165 0.7930072
vt 0.1027349 0.7898803
vt 0.1027001 0.7919329
vt 0.1048436 0.7903689
vt 0.1027349 0.7898803
vt 0.1006179 0.7903016
vt 0.1027001 0.7919329
vt 0.1013112 0.792209
vt 0.1006179 0.7903016
vt 0.100069 0.7928898
vt 0.09922224 0.7940351
vt 0.09741944 0.7930674
vt 0.09875237 0.7953973
vt 0.098724 0.7913379
vt 0.09741944 0.7930674
vt 0.100069 0.7928898
vt 0.09667766 0.7951118
vt 0.09679943 0.797332
vt 0.09875237 0.7953973
vt 0.1080241 0.7932212
vt 0.1094397 0.7924431
vt 0.1067191 0.7914579
vt 0.1104014 0.795
vt 0.1094397 0.7924431
vt 0.1088079 0.7952829
vt 0.1077875 0.7902592
vt 0.1054325 0.7888743
vt 0.1067191 0.7914579
vt 0.1027593 0.7882817
vt 0.1027349 0.7898803
vt 0.1054325 0.7888743
vt 0.1027593 0.7882817
vt 0.1000698 0.7887929
vt 0.1027349 0.7898803
vt 0.1006179 0.7903016
vt 0.1000698 0.7887929
vt 0.098724 0.7913379
vt 0.09741944 0.7930674
vt 0.09600806 0.7922971
vt 0.09667766 0.7951118
vt 0.09767919 0.7901271
vt 0.09600806 0.7922971
vt 0.098724 0.7913379
vt 0.09508341 0.7948693
vt 0.09519374 0.7976149
vt 0.09667766 0.7951118
vt 0.1033893 0.7992077
vt 0.1061537 0.8019674
vt 0.1039496 0.7977583
vt 0.1079367 0.8011807
vt 0.1061537 0.8019674
vt 0.1079242 0.8066397
vt 0.1079242 0.8066397
vt 0.1063236 0.8059243
vt 0.1043319 0.8102639
vt 0.1036841 0.8088127
vt 0.09971886 0.8088148
vt 0.1043319 0.8102639
vt 0.09898883 0.8106682
vt 0.09971886 0.8088148
vt 0.09508341 0.8066736
vt 0.09679335 0.8060709
vt 0.09678661 0.8021126
vt 0.09508341 0.8066736
vt 0.09522277 0.8013401
vt 0.09678661 0.8021126
vt 0.09897363 0.7977583
vt 0.09897363 0.7977583
vt 0.09954154 0.7993446
vt 0.1039496 0.7977583
vt 0.05157023 0.7992414
vt 0.0500403 0.7977025
vt 0.05117982 0.799315
vt 0.0500403 0.7977025
vt 0.04855233 0.7958652
vt 0.0496959 0.797843
vt 0.04855233 0.7958652
vt 0.04724955 0.7937807
vt 0.0482257 0.7960325
vt 0.04695516 0.7940122
vt 0.04724955 0.7937807
vt 0.04597604 0.7917342
vt 0.04529511 0.790053
vt 0.04550391 0.7898118
vt 0.04480057 0.7885536
vt 0.04480057 0.7885536
vt 0.0450837 0.788401
vt 0.04378056 0.7845734
vt 0.04378056 0.7845734
vt 0.04427415 0.7846441
vt 0.04432666 0.7808196
vt 0.05941987 0.8046707
vt 0.05602198 0.8027016
vt 0.05899697 0.804679
vt 0.0474677 0.7768404
vt 0.04774063 0.7765537
vt 0.05531477 0.7705449
vt 0.06237947 0.7732907
vt 0.06234002 0.7740502
vt 0.06628215 0.7762111
vt 0.06959152 0.8040931
vt 0.06405818 0.8060785
vt 0.06969016 0.8050045
vt 0.06405818 0.8060785
vt 0.06033945 0.8051248
vt 0.06371432 0.8068253
vt 0.06771892 0.7777062
vt 0.06761044 0.778234
vt 0.07011306 0.7801326
vt 0.07623809 0.7935908
vt 0.07410407 0.7995931
vt 0.07712352 0.7939554
vt 0.07346045 0.7853028
vt 0.07496732 0.788301
vt 0.07388633 0.7850472
vt 0.07217007 0.7825935
vt 0.07188713 0.7829517
vt 0.07388633 0.7850472
vt 0.05531477 0.7705449
vt 0.0559833 0.7716271
vt 0.06237947 0.7732907
vt 0.06628215 0.7762111
vt 0.06616914 0.7768142
vt 0.06771892 0.7777062
vt 0.07011306 0.7801326
vt 0.06992655 0.7805686
vt 0.07217007 0.7825935
vt 0.07496732 0.788301
vt 0.07623809 0.7935908
vt 0.07559573 0.7881967
vt 0.06033945 0.8051248
vt 0.05941987 0.8046707
vt 0.05984979 0.805387
vt 0.05602198 0.8027016
vt 0.05157023 0.7992414
vt 0.05555713 0.8026904
vt 0.04597604 0.7917342
vt 0.0461778 0.7914885
vt 0.04529511 0.790053
vt 0.04432666 0.7808196
vt 0.04509413 0.7807929
vt 0.0474677 0.7768404
vt 0.07410407 0.7995931
vt 0.06959152 0.8040931
vt 0.07460576 0.8003804
vt 0.06304752 0.7702626
vt 0.06237947 0.7732907
vt 0.06715631 0.7730846
vt 0.06863886 0.7746422
vt 0.06771892 0.7777062
vt 0.07133156 0.7774082
vt 0.0759226 0.7829378
vt 0.07388633 0.7850472
vt 0.07861107 0.7861802
vt 0.07372391 0.7802064
vt 0.07217007 0.7825935
vt 0.0759226 0.7829378
vt 0.05958652 0.7665089
vt 0.05531477 0.7705449
vt 0.06304752 0.7702626
vt 0.06715631 0.7730846
vt 0.06628215 0.7762111
vt 0.06863886 0.7746422
vt 0.07133156 0.7774082
vt 0.07011306 0.7801326
vt 0.07372391 0.7802064
vt 0.07861107 0.7861802
vt 0.07559573 0.7881967
vt 0.08234047 0.7925758
vt 0.0638653 0.7685952
vt 0.06304752 0.7702626
vt 0.06802874 0.7706226
vt 0.0696761 0.7717075
vt 0.06863886 0.7746422
vt 0.07287621 0.7737628
vt 0.0759226 0.7829378
vt 0.07861107 0.7861802
vt 0.07966428 0.7784303
vt 0.07617545 0.7760304
vt 0.07372391 0.7802064
vt 0.07966428 0.7784303
vt 0.06011384 0.7660165
vt 0.05958652 0.7665089
vt 0.0638653 0.7685952
vt 0.06802874 0.7706226
vt 0.06715631 0.7730846
vt 0.0696761 0.7717075
vt 0.07287621 0.7737628
vt 0.07133156 0.7774082
vt 0.07617545 0.7760304
vt 0.07861107 0.7861802
vt 0.08234047 0.7925758
vt 0.08367508 0.7812686
vt 0.06402522 0.7664392
vt 0.0638653 0.7685952
vt 0.06859743 0.7678503
vt 0.07052546 0.7686389
vt 0.0696761 0.7717075
vt 0.07425069 0.7700736
vt 0.07966428 0.7784303
vt 0.08367508 0.7812686
vt 0.08276957 0.773352
vt 0.07617545 0.7760304
vt 0.07966428 0.7784303
vt 0.07844465 0.7715796
vt 0.06053686 0.7652481
vt 0.06011384 0.7660165
vt 0.06402522 0.7664392
vt 0.06859743 0.7678503
vt 0.06802874 0.7706226
vt 0.07052546 0.7686389
vt 0.07425069 0.7700736
vt 0.07287621 0.7737628
vt 0.07844465 0.7715796
vt 0.08367508 0.7812686
vt 0.0900048 0.785895
vt 0.08764076 0.7754915
vt 0.04274594 0.7800152
vt 0.04394239 0.7787772
vt 0.04075187 0.7806572
vt 0.04702258 0.7768693
vt 0.05531477 0.7705449
vt 0.04526007 0.7707068
vt 0.04394239 0.7787772
vt 0.04702258 0.7768693
vt 0.04165691 0.7759352
vt 0.04378056 0.7845734
vt 0.04075187 0.7806572
vt 0.04070514 0.7854711
vt 0.05117982 0.799315
vt 0.0496959 0.797843
vt 0.04919987 0.7999333
vt 0.0496959 0.797843
vt 0.0482257 0.7960325
vt 0.04851859 0.7983576
vt 0.0482257 0.7960325
vt 0.04695516 0.7940122
vt 0.04756039 0.7963913
vt 0.04635745 0.7944372
vt 0.04695516 0.7940122
vt 0.0450136 0.7927561
vt 0.04431623 0.791879
vt 0.04529511 0.790053
vt 0.04377901 0.7892659
vt 0.04377901 0.7892659
vt 0.04480057 0.7885536
vt 0.04319292 0.7867505
vt 0.05899697 0.804679
vt 0.05555713 0.8026904
vt 0.04972755 0.8032372
vt 0.06371432 0.8068253
vt 0.05984979 0.805387
vt 0.05265098 0.8079314
vt 0.05984979 0.805387
vt 0.05899697 0.804679
vt 0.05170422 0.8045846
vt 0.05555713 0.8026904
vt 0.05117982 0.799315
vt 0.04966127 0.8021549
vt 0.0450136 0.7927561
vt 0.04597604 0.7917342
vt 0.04431623 0.791879
vt 0.07005321 0.7591424
vt 0.07052546 0.7686389
vt 0.07728409 0.7593371
vt 0.08276957 0.773352
vt 0.08764076 0.7754915
vt 0.08945488 0.7673024
vt 0.07844465 0.7715796
vt 0.08276957 0.773352
vt 0.08419704 0.762614
vt 0.06175446 0.7617768
vt 0.06859743 0.7678503
vt 0.07005321 0.7591424
vt 0.07425069 0.7700736
vt 0.07844465 0.7715796
vt 0.07728409 0.7593371
vt 0.06053686 0.7652481
vt 0.06402522 0.7664392
vt 0.06175446 0.7617768
vt 0.05390399 0.8215454
vt 0.05265098 0.8079314
vt 0.04721796 0.8213578
vt 0.04377901 0.7892659
vt 0.04152685 0.7918447
vt 0.04431623 0.791879
vt 0.04152685 0.7918447
vt 0.04080295 0.7956994
vt 0.04412043 0.7935436
vt 0.04080295 0.7956994
vt 0.04195141 0.7997903
vt 0.04438191 0.7959163
vt 0.04528141 0.7983677
vt 0.04195141 0.7997903
vt 0.04664212 0.8005668
vt 0.04664212 0.8005668
vt 0.0445196 0.8031415
vt 0.04830628 0.8021962
vt 0.04830628 0.8021962
vt 0.04779267 0.8050845
vt 0.04972755 0.8032372
vt 0.04319292 0.7867505
vt 0.03932136 0.7883152
vt 0.04377901 0.7892659
vt 0.03932136 0.7883152
vt 0.03634524 0.7938254
vt 0.04152685 0.7918447
vt 0.03634524 0.7938254
vt 0.03749334 0.8012223
vt 0.04080295 0.7956994
vt 0.04195141 0.7997903
vt 0.03749334 0.8012223
vt 0.0445196 0.8031415
vt 0.0445196 0.8031415
vt 0.04454302 0.8075607
vt 0.04779267 0.8050845
vt 0.04779267 0.8050845
vt 0.04778337 0.8080506
vt 0.05170422 0.8045846
vt 0.04378056 0.7845734
vt 0.04070514 0.7854711
vt 0.04319292 0.7867505
vt 0.04664212 0.8005668
vt 0.04851859 0.7983576
vt 0.04528141 0.7983677
vt 0.04528141 0.7983677
vt 0.04756039 0.7963913
vt 0.04438191 0.7959163
vt 0.04438191 0.7959163
vt 0.04635745 0.7944372
vt 0.04412043 0.7935436
vt 0.04851859 0.7983576
vt 0.04664212 0.8005668
vt 0.04919987 0.7999333
vt 0.04919987 0.7999333
vt 0.04830628 0.8021962
vt 0.04966127 0.8021549
vt 0.05271673 0.8447866
vt 0.04626095 0.8441029
vt 0.04960024 0.8499768
vt 0.0460022 0.8403199
vt 0.04626095 0.8441029
vt 0.05224049 0.8391963
vt 0.0460022 0.8403199
vt 0.05224049 0.8391963
vt 0.04572319 0.8365383
vt 0.05295395 0.7643824
vt 0.05531477 0.7705449
vt 0.06175446 0.7617768
vt 0.05531477 0.7705449
vt 0.05958652 0.7665089
vt 0.06053686 0.7652481
vt 0.09508341 0.7882465
vt 0.1075603 0.7882293
vt 0.09512501 0.7858555
vt 0.09512501 0.7858555
vt 0.1076191 0.7858392
vt 0.09516787 0.7836867
vt 0.09516787 0.7836867
vt 0.1076793 0.7836729
vt 0.09521132 0.7816148
vt 0.09521132 0.7816148
vt 0.1077401 0.7816046
vt 0.09525507 0.7796185
vt 0.1078623 0.7776822
vt 0.095299 0.7776822
vt 0.1078011 0.7796128
vt 0.06461638 0.7480727
vt 0.05794763 0.7491168
vt 0.06421416 0.7524493
vt 0.05670917 0.7601729
vt 0.06338363 0.7569742
vt 0.0582599 0.7547492
vt 0.06338363 0.7569742
vt 0.05670917 0.7601729
vt 0.06175446 0.7617768
vt 0.05522263 0.7441776
vt 0.05794763 0.7491168
vt 0.06460809 0.7438381
vt 0.05522263 0.7441776
vt 0.06460809 0.7438381
vt 0.06041795 0.7410058
vt 0.09508341 0.7756078
vt 0.09753781 0.7745826
vt 0.0975551 0.7720734
vt 0.09753781 0.7745826
vt 0.1001949 0.7747052
vt 0.09994584 0.7720734
vt 0.1001949 0.7747052
vt 0.1026672 0.7756864
vt 0.1020907 0.7723839
vt 0.1044647 0.777647
vt 0.1059925 0.7734966
vt 0.1026672 0.7756864
vt 0.05054259 0.7970917
vt 0.05021369 0.797604
vt 0.05188792 0.7985217
vt 0.05176448 0.7991364
vt 0.05021369 0.797604
vt 0.05157023 0.7992414
vt 0.04917901 0.7953645
vt 0.04871523 0.7957706
vt 0.05054259 0.7970917
vt 0.05021369 0.797604
vt 0.04871523 0.7957706
vt 0.0500403 0.7977025
vt 0.04804152 0.7934833
vt 0.0474168 0.7936857
vt 0.04917901 0.7953645
vt 0.0474168 0.7936857
vt 0.04724955 0.7937807
vt 0.04871523 0.7957706
vt 0.04804152 0.7934833
vt 0.0468834 0.7913931
vt 0.0474168 0.7936857
vt 0.04631942 0.7913872
vt 0.0461778 0.7914885
vt 0.0474168 0.7936857
vt 0.04617452 0.789748
vt 0.04585009 0.7884338
vt 0.04563647 0.7897057
vt 0.04526698 0.7883518
vt 0.0450837 0.788401
vt 0.04563647 0.7897057
vt 0.04585009 0.7884338
vt 0.04547047 0.7853457
vt 0.04526698 0.7883518
vt 0.04464036 0.7848167
vt 0.04427415 0.7846441
vt 0.04526698 0.7883518
vt 0.04547047 0.7853457
vt 0.04639905 0.7815465
vt 0.04464036 0.7848167
vt 0.04569035 0.780879
vt 0.04509413 0.7807929
vt 0.04464036 0.7848167
vt 0.05622762 0.8019844
vt 0.05632889 0.8026094
vt 0.05960148 0.803996
vt 0.05974084 0.8045272
vt 0.05632889 0.8026094
vt 0.05941987 0.8046707
vt 0.04914128 0.7774172
vt 0.05579751 0.7737512
vt 0.04859423 0.7765986
vt 0.05626934 0.772518
vt 0.0559833 0.7716271
vt 0.04859423 0.7765986
vt 0.06163042 0.775263
vt 0.06545162 0.7777433
vt 0.06225824 0.7747061
vt 0.06603223 0.7773839
vt 0.06616914 0.7768142
vt 0.06225824 0.7747061
vt 0.0638495 0.8045874
vt 0.06422775 0.8053785
vt 0.06860244 0.802771
vt 0.06934988 0.8032874
vt 0.06422775 0.8053785
vt 0.06959152 0.8040931
vt 0.06049603 0.8042406
vt 0.06063634 0.804799
vt 0.0638495 0.8045874
vt 0.06422775 0.8053785
vt 0.06063634 0.804799
vt 0.06405818 0.8060785
vt 0.06696957 0.7789103
vt 0.06924235 0.7811467
vt 0.06744754 0.7787135
vt 0.06967443 0.7809891
vt 0.06992655 0.7805686
vt 0.06744754 0.7787135
vt 0.07267355 0.7987807
vt 0.0735079 0.7989387
vt 0.07462322 0.7934423
vt 0.07536846 0.7933205
vt 0.0735079 0.7989387
vt 0.07623809 0.7935908
vt 0.07383477 0.7886442
vt 0.07431954 0.7884145
vt 0.07260918 0.7857423
vt 0.07299017 0.7855577
vt 0.07431954 0.7884145
vt 0.07346045 0.7853028
vt 0.07116973 0.7834437
vt 0.07260918 0.7857423
vt 0.07155293 0.7832972
vt 0.07299017 0.7855577
vt 0.07346045 0.7853028
vt 0.07155293 0.7832972
vt 0.05579751 0.7737512
vt 0.06163042 0.775263
vt 0.05626934 0.772518
vt 0.06225824 0.7747061
vt 0.06234002 0.7740502
vt 0.05626934 0.772518
vt 0.06545162 0.7777433
vt 0.06696957 0.7789103
vt 0.06603223 0.7773839
vt 0.06744754 0.7787135
vt 0.06761044 0.778234
vt 0.06603223 0.7773839
vt 0.06924235 0.7811467
vt 0.07116973 0.7834437
vt 0.06967443 0.7809891
vt 0.07155293 0.7832972
vt 0.07188713 0.7829517
vt 0.06967443 0.7809891
vt 0.07462322 0.7934423
vt 0.07536846 0.7933205
vt 0.07383477 0.7886442
vt 0.07431954 0.7884145
vt 0.07536846 0.7933205
vt 0.07496732 0.788301
vt 0.05960148 0.803996
vt 0.05974084 0.8045272
vt 0.06049603 0.8042406
vt 0.06063634 0.804799
vt 0.05974084 0.8045272
vt 0.06033945 0.8051248
vt 0.05188792 0.7985217
vt 0.05176448 0.7991364
vt 0.05622762 0.8019844
vt 0.05632889 0.8026094
vt 0.05176448 0.7991364
vt 0.05602198 0.8027016
vt 0.0468834 0.7913931
vt 0.04617452 0.789748
vt 0.04631942 0.7913872
vt 0.04563647 0.7897057
vt 0.04550391 0.7898118
vt 0.04631942 0.7913872
vt 0.04639905 0.7815465
vt 0.04914128 0.7774172
vt 0.04569035 0.780879
vt 0.04859423 0.7765986
vt 0.04774063 0.7765537
vt 0.04569035 0.780879
vt 0.06860244 0.802771
vt 0.06934988 0.8032874
vt 0.07267355 0.7987807
vt 0.0735079 0.7989387
vt 0.06934988 0.8032874
vt 0.07410407 0.7995931
vt 0.03931844 0.7858456
vt 0.04070514 0.7854711
vt 0.03896647 0.7835767
vt 0.04883038 0.7869733
vt 0.04455733 0.7841439
vt 0.04221558 0.7894711
vt 0.1088007 0.7962644
vt 0.1088079 0.7952829
vt 0.1083015 0.795865
vt 0.04454302 0.8075607
vt 0.04591864 0.81703
vt 0.04778337 0.8080506
vt 0.1061586 0.7942181
vt 0.1078068 0.7954597
vt 0.1080241 0.7932212
vt 0.1104014 0.7977232
vt 0.1104014 0.795
vt 0.1088007 0.7962644
vt 0.04699349 0.8346841
vt 0.05200612 0.8360666
vt 0.04818481 0.8319625
vt 0.05462741 0.8263466
vt 0.05390399 0.8215454
vt 0.04837977 0.8247431
vt 0.05462741 0.8263466
vt 0.04871565 0.8284229
vt 0.05391919 0.8313457
usemtl RElbowRollUV
f 1/1 2/2 3/3
f 5/4 6/5 7/6
f 9/7 1/8 4/9
f 11/10 12/11 6/12
f 13/13 9/14 10/15
f 16/16 12/17 11/18
f 17/19 13/20 14/21
f 19/22 20/23 16/24
f 21/25 17/26 18/27
f 24/28 20/29 19/30
f 25/31 21/32 22/33
f 28/34 24/35 23/36
f 25/37 26/38 30/39
f 32/40 28/41 27/42
f 29/43 30/44 34/45
f 36/46 32/47 31/48
f 33/49 34/50 38/51
f 38/52 36/53 35/54
f 39/55 40/56 41/57
f 43/58 44/59 41/60
f 45/61 39/62 42/63
f 48/64 44/65 43/66
f 2/67 45/68 46/69
f 47/70 8/71 7/72
f 4/73 3/74 49/75
f 7/76 6/77 51/78
f 10/79 4/80 50/81
f 6/82 12/83 54/84
f 10/85 53/86 55/87
f 12/88 16/89 56/90
f 18/91 14/92 55/93
f 16/94 20/95 58/96
f 22/97 18/98 57/99
f 20/100 24/101 60/102
f 22/103 59/104 61/105
f 28/106 62/107 60/108
f 26/109 61/110 63/111
f 32/112 64/113 62/114
f 34/115 30/116 63/117
f 36/118 66/119 64/120
f 38/121 34/122 65/123
f 36/124 38/125 67/126
f 42/127 41/128 68/129
f 44/130 70/131 68/132
f 42/133 69/134 71/135
f 44/136 48/137 72/138
f 3/139 46/140 71/141
f 48/142 7/143 52/144
f 50/145 49/146 73/147
f 75/148 76/149 52/150
f 53/151 50/152 74/153
f 78/154 75/155 51/156
f 55/157 53/158 77/159
f 80/160 78/161 54/162
f 57/163 55/164 79/165
f 82/166 80/167 56/168
f 57/169 81/170 83/171
f 60/172 84/173 82/174
f 59/175 83/176 85/177
f 62/178 86/179 84/180
f 61/181 85/182 87/183
f 64/184 88/185 86/186
f 63/187 87/188 89/189
f 66/190 90/191 88/192
f 65/193 89/194 91/195
f 67/196 91/197 90/198
f 68/199 92/200 93/201
f 70/202 94/203 92/204
f 71/205 69/206 93/207
f 96/208 94/209 70/210
f 95/211 73/212 49/213
f 72/214 52/215 76/216
f 74/217 73/218 97/219
f 77/220 74/221 98/222
f 79/223 77/224 99/225
f 79/226 100/227 101/228
f 81/229 101/230 102/231
f 83/232 102/233 103/234
f 85/235 103/236 104/237
f 105/238 106/239 86/240
f 87/241 104/242 107/243
f 108/244 105/245 88/246
f 89/247 107/248 109/249
f 91/250 109/251 108/252
f 92/253 110/254 111/255
f 112/256 110/257 92/258
f 93/259 111/260 113/261
f 114/262 112/263 94/264
f 95/265 113/266 97/267
f 96/268 76/269 115/270
f 98/271 97/272 116/273
f 99/274 98/275 117/276
f 100/277 99/278 118/279
f 101/280 100/281 119/282
f 101/283 120/284 121/285
f 102/286 121/287 122/288
f 104/289 103/290 122/291
f 104/292 123/293 124/294
f 111/295 110/296 125/297
f 127/298 125/299 110/300
f 113/301 111/302 126/303
f 129/304 127/305 112/306
f 128/307 116/308 97/309
f 114/310 115/311 130/312
f 116/313 131/314 132/315
f 117/316 132/317 133/318
f 119/319 118/320 133/321
f 120/322 119/323 134/324
f 120/325 135/326 136/327
f 121/328 136/329 137/330
f 125/331 138/332 139/333
f 140/334 138/335 125/336
f 128/337 126/338 139/339
f 142/340 140/341 127/342
f 141/343 131/344 116/345
f 132/346 131/347 143/348
f 132/349 144/350 145/351
f 133/352 145/353 146/354
f 134/355 146/356 147/357
f 139/358 138/359 148/360
f 141/361 139/362 148/363
f 149/364 143/365 131/366
f 144/367 143/368 150/369
f 144/370 151/371 152/372
f 122/373 137/374 123/375
f 135/376 147/377 136/378
f 145/379 152/380 146/381
f 143/382 149/383 150/384
f 130/385 142/386 129/387
f 76/388 75/389 115/390
f 84/391 86/392 106/393
f 107/394 124/395 109/396
f 153/397 154/398 155/399
f 157/400 158/401 154/402
f 160/403 158/404 157/405
f 161/406 162/407 160/408
f 161/409 163/410 164/411
f 165/412 166/413 164/414
f 167/415 168/416 166/417
f 167/418 156/419 155/420
f 169/421 170/422 171/423
f 172/424 170/425 169/426
f 169/427 171/428 173/429
f 174/430 171/431 175/432
f 173/433 171/434 174/435
f 174/436 175/437 176/438
f 177/439 175/440 178/441
f 176/442 175/443 177/444
f 177/445 178/446 179/447
f 180/448 178/449 181/450
f 179/451 178/452 180/453
f 180/454 181/455 182/456
f 183/457 181/458 184/459
f 185/460 183/461 184/462
f 183/463 182/464 181/465
f 186/466 184/467 187/468
f 185/469 184/470 186/471
f 186/472 187/473 188/474
f 189/475 187/476 190/477
f 188/478 187/479 189/480
f 189/481 190/482 191/483
f 192/484 190/485 170/486
f 172/487 192/488 170/489
f 192/490 191/491 190/492
f 193/493 194/494 195/495
f 198/496 194/497 193/498
f 199/499 200/500 198/501
f 202/502 200/503 199/504
f 204/505 205/506 206/507
f 206/508 205/509 207/510
f 209/511 210/512 204/513
f 212/514 210/515 209/516
f 213/517 196/518 195/519
f 213/520 214/521 212/522
f 194/523 215/524 216/525
f 217/526 215/527 194/528
f 200/529 218/530 217/531
f 219/532 220/533 205/534
f 205/535 220/536 221/537
f 210/538 222/539 219/540
f 223/541 222/542 210/543
f 214/544 195/545 216/546
f 214/547 224/548 223/549
f 215/550 225/551 226/552
f 227/553 225/554 215/555
f 218/556 228/557 227/558
f 229/559 230/560 220/561
f 220/562 230/563 231/564
f 222/565 232/566 229/567
f 233/568 232/569 222/570
f 224/571 216/572 226/573
f 224/574 234/575 233/576
f 235/577 236/578 237/579
f 239/580 240/581 237/582
f 242/583 240/584 239/585
f 243/586 244/587 242/588
f 243/589 245/590 246/591
f 247/592 248/593 249/594
f 247/595 250/596 246/597
f 251/598 252/599 249/600
f 253/601 254/602 236/603
f 255/604 239/605 236/606
f 241/607 239/608 255/609
f 257/610 243/611 241/612
f 257/613 258/614 245/615
f 259/616 260/617 248/618
f 259/619 247/620 245/621
f 261/622 251/623 248/624
f 262/625 263/626 254/627
f 262/628 253/629 265/630
f 266/631 255/632 254/633
f 256/634 255/635 266/636
f 268/637 257/638 256/639
f 268/640 269/641 258/642
f 270/643 271/644 260/645
f 270/646 259/647 258/648
f 272/649 261/650 260/651
f 273/652 274/653 275/654
f 276/655 277/656 273/657
f 273/658 277/659 274/660
f 278/661 275/662 274/663
f 279/664 278/665 280/666
f 278/667 274/668 280/669
f 281/670 279/671 280/672
f 282/673 281/674 283/675
f 281/676 280/677 283/678
f 284/679 285/680 286/681
f 282/682 283/683 284/684
f 284/685 283/686 285/687
f 287/688 286/689 285/690
f 288/691 287/692 289/693
f 287/694 285/695 289/696
f 290/697 288/698 289/699
f 291/700 290/701 292/702
f 290/703 289/704 292/705
f 293/706 291/707 292/708
f 294/709 293/710 295/711
f 293/712 292/713 295/714
f 296/715 294/716 295/717
f 276/718 296/719 277/720
f 296/721 295/722 277/723
f 297/724 298/725 299/726
f 297/727 301/728 302/729
f 301/730 303/731 304/732
f 305/733 306/734 304/735
f 305/736 307/737 308/738
f 309/739 310/740 308/741
f 309/742 311/743 312/744
f 311/745 300/746 299/747
f 314/748 315/749 316/750
f 317/751 318/752 315/753
f 319/754 320/755 318/756
f 319/757 321/758 322/759
f 323/760 324/761 325/762
f 324/763 327/764 328/765
f 327/766 329/767 330/768
f 332/769 333/770 334/771
f 335/772 336/773 337/774
f 339/775 340/776 341/777
f 344/778 345/779 346/780
f 347/781 348/782 345/783
f 349/784 350/785 351/786
f 354/787 355/788 356/789
f 358/790 359/791 360/792
f 361/793 357/794 360/795
f 336/796 339/797 342/798
f 340/799 349/800 352/801
f 350/802 361/803 362/804
f 353/805 356/806 359/807
f 331/808 334/809 348/810
f 313/811 316/812 333/813
f 321/814 323/815 326/816
f 329/817 335/818 338/819
f 343/820 346/821 355/822
f 342/823 341/824 363/825
f 352/826 351/827 365/828
f 360/829 359/830 367/831
f 362/832 360/833 368/834
f 337/835 342/836 364/837
f 341/838 352/839 366/840
f 351/841 362/842 369/843
f 359/844 356/845 371/846
f 364/847 363/848 372/849
f 366/850 365/851 374/852
f 367/853 376/854 377/855
f 369/856 368/857 377/858
f 370/859 364/860 373/861
f 363/862 366/863 375/864
f 365/865 369/866 378/867
f 371/868 380/869 376/870
f 373/871 372/872 381/873
f 375/874 374/875 383/876
f 376/877 385/878 386/879
f 377/880 386/881 387/882
f 379/883 373/884 382/885
f 372/886 375/887 384/888
f 374/889 378/890 387/891
f 380/892 389/893 385/894
f 391/895 392/896 393/897
f 337/898 395/899 396/900
f 394/901 396/902 392/903
f 393/904 218/905 397/906
f 393/907 397/908 398/909
f 315/910 399/911 400/912
f 318/913 401/914 399/915
f 320/916 402/917 401/918
f 320/919 322/920 403/921
f 326/922 325/923 404/924
f 325/925 328/926 406/927
f 333/928 407/929 408/930
f 348/931 409/932 410/933
f 334/934 408/935 409/936
f 316/937 400/938 407/939
f 322/940 326/941 405/942
f 384/943 383/944 411/945
f 385/946 413/947 414/948
f 386/949 414/950 415/951
f 381/952 384/953 412/954
f 387/955 415/956 411/957
f 385/958 389/959 413/960
f 382/961 381/962 416/963
f 410/964 418/965 419/966
f 420/967 421/968 405/969
f 422/970 423/971 421/972
f 424/973 425/974 423/975
f 424/976 426/977 427/978
f 426/979 428/980 429/981
f 428/982 409/983 408/984
f 430/985 420/986 404/987
f 431/988 422/989 420/990
f 432/991 424/992 422/993
f 432/994 433/995 426/996
f 433/997 418/998 428/999
f 418/1000 410/1001 409/1002
f 398/1003 430/1004 406/1005
f 399/1006 401/1007 425/1008
f 401/1009 402/1010 423/1011
f 402/1012 403/1013 421/1014
f 403/1015 405/1016 421/1017
f 427/1018 429/1019 400/1020
f 429/1021 408/1022 407/1023
f 434/1024 435/1025 436/1026
f 437/1027 436/1028 438/1029
f 434/1030 437/1031 439/1032
f 439/1033 441/1034 442/1035
f 208/1036 395/1037 443/1038
f 337/1039 388/1040 416/1041
f 370/1042 379/1043 388/1044
f 443/1045 395/1046 337/1047
f 156/1048 444/1049 153/1050
f 153/1051 444/1052 157/1053
f 157/1054 444/1055 159/1056
f 159/1057 444/1058 161/1059
f 161/1060 444/1061 163/1062
f 163/1063 444/1064 165/1065
f 165/1066 444/1067 167/1068
f 167/1069 444/1070 156/1071
f 297/1072 300/1073 445/1074
f 301/1075 297/1076 445/1077
f 303/1078 301/1079 445/1080
f 305/1081 303/1082 445/1083
f 307/1084 305/1085 445/1086
f 309/1087 307/1088 445/1089
f 311/1090 309/1091 445/1092
f 300/1093 311/1094 445/1095
f 398/1096 446/1097 430/1098
f 447/1099 448/1100 449/1101
f 448/1102 451/1103 452/1104
f 451/1105 453/1106 454/1107
f 453/1108 455/1109 456/1110
f 457/1111 456/1112 455/1113
f 459/1114 460/1115 461/1116
f 464/1117 461/1118 460/1119
f 463/1120 443/1121 416/1122
f 459/1123 462/1124 465/1125
f 465/1126 467/1127 468/1128
f 470/1129 471/1130 472/1131
f 473/1132 474/1133 471/1134
f 475/1135 476/1136 474/1137
f 478/1138 476/1139 475/1140
f 477/1141 479/1142 478/1143
f 480/1144 442/1145 441/1146
f 238/1147 237/1148 481/1149
f 237/1150 240/1151 481/1152
f 240/1153 242/1154 481/1155
f 242/1156 244/1157 481/1158
f 244/1159 246/1160 481/1161
f 250/1162 249/1163 481/1164
f 246/1165 250/1166 481/1167
f 249/1168 252/1169 481/1170
f 482/1171 483/1172 484/1173
f 483/1174 485/1175 484/1176
f 225/1177 486/1178 226/1179
f 227/1180 486/1181 225/1182
f 228/1183 486/1184 227/1185
f 229/1186 486/1187 230/1188
f 230/1189 486/1190 231/1191
f 232/1192 486/1193 229/1194
f 233/1195 486/1196 232/1197
f 226/1198 486/1199 234/1200
f 234/1201 486/1202 233/1203
f 228/1204 393/1205 392/1206
f 486/1207 228/1208 392/1209
f 228/1210 218/1211 393/1212
f 231/1213 392/1214 396/1215
f 221/1216 231/1217 396/1218
f 231/1219 486/1220 392/1221
f 207/1222 396/1223 395/1224
f 208/1225 207/1226 395/1227
f 207/1228 221/1229 396/1230
f 487/1231 488/1232 75/1233
f 487/1234 314/1235 313/1236
f 489/1237 487/1238 78/1239
f 489/1240 317/1241 314/1242
f 490/1243 489/1244 80/1245
f 319/1246 317/1247 489/1248
f 84/1249 491/1250 490/1251
f 321/1252 319/1253 490/1254
f 105/1255 492/1256 493/1257
f 324/1258 323/1259 493/1260
f 108/1261 494/1262 492/1263
f 327/1264 324/1265 492/1266
f 109/1267 495/1268 494/1269
f 329/1270 327/1271 494/1272
f 496/1273 497/1274 130/1275
f 496/1276 332/1277 331/1278
f 123/1279 498/1280 499/1281
f 336/1282 335/1283 499/1284
f 136/1285 500/1286 501/1287
f 340/1288 339/1289 501/1290
f 502/1291 503/1292 138/1293
f 502/1294 344/1295 343/1296
f 504/1297 502/1298 140/1299
f 504/1300 347/1301 344/1302
f 146/1303 505/1304 506/1305
f 350/1306 349/1307 506/1308
f 507/1309 508/1310 149/1311
f 507/1312 354/1313 353/1314
f 509/1315 510/1316 151/1317
f 509/1318 358/1319 357/1320
f 151/1321 510/1322 511/1323
f 357/1324 361/1325 511/1326
f 137/1327 501/1328 498/1329
f 339/1330 336/1331 498/1332
f 147/1333 506/1334 500/1335
f 349/1336 340/1337 500/1338
f 152/1339 511/1340 505/1341
f 361/1342 350/1343 505/1344
f 508/1345 509/1346 150/1347
f 508/1348 353/1349 358/1350
f 497/1351 504/1352 142/1353
f 497/1354 331/1355 347/1356
f 488/1357 496/1358 115/1359
f 488/1360 313/1361 332/1362
f 106/1363 493/1364 491/1365
f 323/1366 321/1367 491/1368
f 124/1369 499/1370 495/1371
f 335/1372 329/1373 495/1374
f 503/1375 507/1376 148/1377
f 503/1378 343/1379 354/1380
f 512/1381 218/1382 200/1383
f 512/1384 200/1385 202/1386
f 202/1387 513/1388 512/1389
f 397/1390 514/1391 398/1392
f 398/1393 514/1394 515/1395
f 513/1396 202/1397 201/1398
f 265/1399 517/1400 518/1401
f 520/1402 521/1403 418/1404
f 522/1405 520/1406 433/1407
f 521/1408 419/1409 418/1410
f 517/1411 265/1412 253/1413
f 264/1414 265/1415 519/1416
f 441/1417 524/1418 525/1419
f 417/1420 419/1421 482/1422
f 485/1423 525/1424 524/1425
f 4/1426 1/1427 3/1428
f 8/1429 5/1430 7/1431
f 10/1432 9/1433 4/1434
f 5/1435 11/1436 6/1437
f 14/1438 13/1439 10/1440
f 15/1441 16/1442 11/1443
f 18/1444 17/1445 14/1446
f 15/1447 19/1448 16/1449
f 22/1450 21/1451 18/1452
f 23/1453 24/1454 19/1455
f 26/1456 25/1457 22/1458
f 27/1459 28/1460 23/1461
f 29/1462 25/1463 30/1464
f 31/1465 32/1466 27/1467
f 33/1468 29/1469 34/1470
f 35/1471 36/1472 31/1473
f 37/1474 33/1475 38/1476
f 37/1477 38/1478 35/1479
f 42/1480 39/1481 41/1482
f 40/1483 43/1484 41/1485
f 46/1486 45/1487 42/1488
f 47/1489 48/1490 43/1491
f 3/1492 2/1493 46/1494
f 48/1495 47/1496 7/1497
f 50/1498 4/1499 49/1500
f 52/1501 7/1502 51/1503
f 53/1504 10/1505 50/1506
f 51/1507 6/1508 54/1509
f 14/1510 10/1511 55/1512
f 54/1513 12/1514 56/1515
f 57/1516 18/1517 55/1518
f 56/1519 16/1520 58/1521
f 59/1522 22/1523 57/1524
f 58/1525 20/1526 60/1527
f 26/1528 22/1529 61/1530
f 24/1531 28/1532 60/1533
f 30/1534 26/1535 63/1536
f 28/1537 32/1538 62/1539
f 65/1540 34/1541 63/1542
f 32/1543 36/1544 64/1545
f 67/1546 38/1547 65/1548
f 66/1549 36/1550 67/1551
f 69/1552 42/1553 68/1554
f 41/1555 44/1556 68/1557
f 46/1558 42/1559 71/1560
f 70/1561 44/1562 72/1563
f 49/1564 3/1565 71/1566
f 72/1567 48/1568 52/1569
f 74/1570 50/1571 73/1572
f 51/1573 75/1574 52/1575
f 77/1576 53/1577 74/1578
f 54/1579 78/1580 51/1581
f 79/1582 55/1583 77/1584
f 56/1585 80/1586 54/1587
f 81/1588 57/1589 79/1590
f 58/1591 82/1592 56/1593
f 59/1594 57/1595 83/1596
f 58/1597 60/1598 82/1599
f 61/1600 59/1601 85/1602
f 60/1603 62/1604 84/1605
f 63/1606 61/1607 87/1608
f 62/1609 64/1610 86/1611
f 65/1612 63/1613 89/1614
f 64/1615 66/1616 88/1617
f 67/1618 65/1619 91/1620
f 66/1621 67/1622 90/1623
f 69/1624 68/1625 93/1626
f 68/1627 70/1628 92/1629
f 95/1630 71/1631 93/1632
f 72/1633 96/1634 70/1635
f 71/1636 95/1637 49/1638
f 96/1639 72/1640 76/1641
f 98/1642 74/1643 97/1644
f 99/1645 77/1646 98/1647
f 100/1648 79/1649 99/1650
f 81/1651 79/1652 101/1653
f 83/1654 81/1655 102/1656
f 85/1657 83/1658 103/1659
f 87/1660 85/1661 104/1662
f 88/1663 105/1664 86/1665
f 89/1666 87/1667 107/1668
f 90/1669 108/1670 88/1671
f 91/1672 89/1673 109/1674
f 90/1675 91/1676 108/1677
f 93/1678 92/1679 111/1680
f 94/1681 112/1682 92/1683
f 95/1684 93/1685 113/1686
f 96/1687 114/1688 94/1689
f 73/1690 95/1691 97/1692
f 114/1693 96/1694 115/1695
f 117/1696 98/1697 116/1698
f 118/1699 99/1700 117/1701
f 119/1702 100/1703 118/1704
f 120/1705 101/1706 119/1707
f 102/1708 101/1709 121/1710
f 103/1711 102/1712 122/1713
f 123/1714 104/1715 122/1716
f 107/1717 104/1718 124/1719
f 126/1720 111/1721 125/1722
f 112/1723 127/1724 110/1725
f 128/1726 113/1727 126/1728
f 114/1729 129/1730 112/1731
f 113/1732 128/1733 97/1734
f 129/1735 114/1736 130/1737
f 117/1738 116/1739 132/1740
f 118/1741 117/1742 133/1743
f 134/1744 119/1745 133/1746
f 135/1747 120/1748 134/1749
f 121/1750 120/1751 136/1752
f 122/1753 121/1754 137/1755
f 126/1756 125/1757 139/1758
f 127/1759 140/1760 125/1761
f 141/1762 128/1763 139/1764
f 129/1765 142/1766 127/1767
f 128/1768 141/1769 116/1770
f 144/1771 132/1772 143/1773
f 133/1774 132/1775 145/1776
f 134/1777 133/1778 146/1779
f 135/1780 134/1781 147/1782
f 149/1783 141/1784 148/1785
f 141/1786 149/1787 131/1788
f 151/1789 144/1790 150/1791
f 145/1792 144/1793 152/1794
f 156/1795 153/1796 155/1797
f 153/1798 157/1799 154/1800
f 159/1801 160/1802 157/1803
f 159/1804 161/1805 160/1806
f 162/1807 161/1808 164/1809
f 163/1810 165/1811 164/1812
f 165/1813 167/1814 166/1815
f 168/1816 167/1817 155/1818
f 196/1819 193/1820 195/1821
f 197/1822 198/1823 193/1824
f 197/1825 199/1826 198/1827
f 201/1828 202/1829 199/1830
f 203/1831 204/1832 206/1833
f 208/1834 206/1835 207/1836
f 203/1837 209/1838 204/1839
f 211/1840 212/1841 209/1842
f 214/1843 213/1844 195/1845
f 211/1846 213/1847 212/1848
f 195/1849 194/1850 216/1851
f 198/1852 217/1853 194/1854
f 198/1855 200/1856 217/1857
f 204/1858 219/1859 205/1860
f 207/1861 205/1862 221/1863
f 204/1864 210/1865 219/1866
f 212/1867 223/1868 210/1869
f 224/1870 214/1871 216/1872
f 212/1873 214/1874 223/1875
f 216/1876 215/1877 226/1878
f 217/1879 227/1880 215/1881
f 217/1882 218/1883 227/1884
f 219/1885 229/1886 220/1887
f 221/1888 220/1889 231/1890
f 219/1891 222/1892 229/1893
f 223/1894 233/1895 222/1896
f 234/1897 224/1898 226/1899
f 223/1900 224/1901 233/1902
f 238/1903 235/1904 237/1905
f 236/1906 239/1907 237/1908
f 241/1909 242/1910 239/1911
f 241/1912 243/1913 242/1914
f 244/1915 243/1916 246/1917
f 250/1918 247/1919 249/1920
f 245/1921 247/1922 246/1923
f 248/1924 251/1925 249/1926
f 235/1927 253/1928 236/1929
f 254/1930 255/1931 236/1932
f 256/1933 241/1934 255/1935
f 256/1936 257/1937 241/1938
f 243/1939 257/1940 245/1941
f 247/1942 259/1943 248/1944
f 258/1945 259/1946 245/1947
f 260/1948 261/1949 248/1950
f 253/1951 262/1952 254/1953
f 264/1954 262/1955 265/1956
f 263/1957 266/1958 254/1959
f 267/1960 256/1961 266/1962
f 267/1963 268/1964 256/1965
f 257/1966 268/1967 258/1968
f 259/1969 270/1970 260/1971
f 269/1972 270/1973 258/1974
f 271/1975 272/1976 260/1977
f 300/1978 297/1979 299/1980
f 298/1981 297/1982 302/1983
f 302/1984 301/1985 304/1986
f 303/1987 305/1988 304/1989
f 306/1990 305/1991 308/1992
f 307/1993 309/1994 308/1995
f 310/1996 309/1997 312/1998
f 312/1999 311/2000 299/2001
f 313/2002 314/2003 316/2004
f 314/2005 317/2006 315/2007
f 317/2008 319/2009 318/2010
f 320/2011 319/2012 322/2013
f 326/2014 323/2015 325/2016
f 325/2017 324/2018 328/2019
f 328/2020 327/2021 330/2022
f 331/2023 332/2024 334/2025
f 338/2026 335/2027 337/2028
f 342/2029 339/2030 341/2031
f 343/2032 344/2033 346/2034
f 344/2035 347/2036 345/2037
f 352/2038 349/2039 351/2040
f 353/2041 354/2042 356/2043
f 357/2044 358/2045 360/2046
f 362/2047 361/2048 360/2049
f 337/2050 336/2051 342/2052
f 341/2053 340/2054 352/2055
f 351/2056 350/2057 362/2058
f 358/2059 353/2060 359/2061
f 347/2062 331/2063 348/2064
f 332/2065 313/2066 333/2067
f 322/2068 321/2069 326/2070
f 330/2071 329/2072 338/2073
f 354/2074 343/2075 355/2076
f 364/2077 342/2078 363/2079
f 366/2080 352/2081 365/2082
f 368/2083 360/2084 367/2085
f 369/2086 362/2087 368/2088
f 370/2089 337/2090 364/2091
f 363/2092 341/2093 366/2094
f 365/2095 351/2096 369/2097
f 367/2098 359/2099 371/2100
f 373/2101 364/2102 372/2103
f 375/2104 366/2105 374/2106
f 368/2107 367/2108 377/2109
f 378/2110 369/2111 377/2112
f 379/2113 370/2114 373/2115
f 372/2116 363/2117 375/2118
f 374/2119 365/2120 378/2121
f 367/2122 371/2123 376/2124
f 382/2125 373/2126 381/2127
f 384/2128 375/2129 383/2130
f 377/2131 376/2132 386/2133
f 378/2134 377/2135 387/2136
f 388/2137 379/2138 382/2139
f 381/2140 372/2141 384/2142
f 383/2143 374/2144 387/2145
f 376/2146 380/2147 385/2148
f 390/2149 391/2150 393/2151
f 394/2152 337/2153 396/2154
f 391/2155 394/2156 392/2157
f 328/2158 393/2159 398/2160
f 316/2161 315/2162 400/2163
f 315/2164 318/2165 399/2166
f 318/2167 320/2168 401/2169
f 402/2170 320/2171 403/2172
f 405/2173 326/2174 404/2175
f 404/2176 325/2177 406/2178
f 334/2179 333/2180 408/2181
f 345/2182 348/2183 410/2184
f 348/2185 334/2186 409/2187
f 333/2188 316/2189 407/2190
f 403/2191 322/2192 405/2193
f 412/2194 384/2195 411/2196
f 386/2197 385/2198 414/2199
f 387/2200 386/2201 415/2202
f 416/2203 381/2204 412/2205
f 383/2206 387/2207 411/2208
f 388/2209 382/2210 416/2211
f 417/2212 410/2213 419/2214
f 404/2215 420/2216 405/2217
f 420/2218 422/2219 421/2220
f 422/2221 424/2222 423/2223
f 425/2224 424/2225 427/2226
f 427/2227 426/2228 429/2229
f 429/2230 428/2231 408/2232
f 406/2233 430/2234 404/2235
f 430/2236 431/2237 420/2238
f 431/2239 432/2240 422/2241
f 424/2242 432/2243 426/2244
f 426/2245 433/2246 428/2247
f 428/2248 418/2249 409/2250
f 328/2251 398/2252 406/2253
f 427/2254 399/2255 425/2256
f 425/2257 401/2258 423/2259
f 423/2260 402/2261 421/2262
f 399/2263 427/2264 400/2265
f 400/2266 429/2267 407/2268
f 437/2269 434/2270 436/2271
f 440/2272 434/2273 439/2274
f 440/2275 439/2276 442/2277
f 443/2278 337/2279 416/2280
f 337/2281 370/2282 388/2283
f 450/2284 447/2285 449/2286
f 449/2287 448/2288 452/2289
f 452/2290 451/2291 454/2292
f 454/2293 453/2294 456/2295
f 458/2296 457/2297 455/2298
f 462/2299 459/2300 461/2301
f 463/2302 464/2303 460/2304
f 464/2305 463/2306 416/2307
f 466/2308 459/2309 465/2310
f 466/2311 465/2312 468/2313
f 469/2314 470/2315 472/2316
f 470/2317 473/2318 471/2319
f 473/2320 475/2321 474/2322
f 477/2323 478/2324 475/2325
f 78/2326 487/2327 75/2328
f 488/2329 487/2330 313/2331
f 80/2332 489/2333 78/2334
f 487/2335 489/2336 314/2337
f 82/2338 490/2339 80/2340
f 490/2341 319/2342 489/2343
f 82/2344 84/2345 490/2346
f 491/2347 321/2348 490/2349
f 106/2350 105/2351 493/2352
f 492/2353 324/2354 493/2355
f 105/2356 108/2357 492/2358
f 494/2359 327/2360 492/2361
f 108/2362 109/2363 494/2364
f 495/2365 329/2366 494/2367
f 115/2368 496/2369 130/2370
f 497/2371 496/2372 331/2373
f 124/2374 123/2375 499/2376
f 498/2377 336/2378 499/2379
f 137/2380 136/2381 501/2382
f 500/2383 340/2384 501/2385
f 140/2386 502/2387 138/2388
f 503/2389 502/2390 343/2391
f 142/2392 504/2393 140/2394
f 502/2395 504/2396 344/2397
f 147/2398 146/2399 506/2400
f 505/2401 350/2402 506/2403
f 148/2404 507/2405 149/2406
f 508/2407 507/2408 353/2409
f 150/2410 509/2411 151/2412
f 510/2413 509/2414 357/2415
f 152/2416 151/2417 511/2418
f 510/2419 357/2420 511/2421
f 123/2422 137/2423 498/2424
f 501/2425 339/2426 498/2427
f 136/2428 147/2429 500/2430
f 506/2431 349/2432 500/2433
f 146/2434 152/2435 505/2436
f 511/2437 361/2438 505/2439
f 149/2440 508/2441 150/2442
f 509/2443 508/2444 358/2445
f 130/2446 497/2447 142/2448
f 504/2449 497/2450 347/2451
f 75/2452 488/2453 115/2454
f 496/2455 488/2456 332/2457
f 84/2458 106/2459 491/2460
f 493/2461 323/2462 491/2463
f 109/2464 124/2465 495/2466
f 499/2467 335/2468 495/2469
f 138/2470 503/2471 148/2472
f 507/2473 503/2474 354/2475
f 446/2476 398/2477 515/2478
f 516/2479 513/2480 201/2481
f 519/2482 265/2483 518/2484
f 433/2485 520/2486 418/2487
f 235/2488 517/2489 253/2490
f 523/2491 264/2492 519/2493
f 480/2494 441/2495 525/2496
f 484/2497 417/2498 482/2499
f 484/2500 485/2501 524/2502
