mtllib RHipRoll.mtl
o RHipRoll
usemtl nao_texture
v -0.427 0.111321 0.1211209
v 0.086 0.111321 0.1211209
v 0.086 0.1362991 0.09284409
v -0.427 0.136299 0.09284409
v -0.427 0.05804417 0.1567194
v 0.086 0.0580442 0.1567192
v -0.427 -0.00480011 0.1692198
v 0.086 -0.004800072 0.1692198
v -0.427 -0.06764435 0.1567194
v 0.086 -0.06764435 0.1567194
v -0.427 -0.1209212 0.1211209
v 0.086 -0.1209211 0.1211209
v -0.427 -0.1458992 0.09284409
v 0.086 -0.1458992 0.09284409
v 0.08599999 0.1362991 -0.173156
v -0.427 0.136299 -0.173156
v -0.427 -0.1458992 -0.1731558
v 0.08599999 -0.1458992 -0.173156
v -0.2709669 -0.1448001 -0.187878
v -0.2709669 -0.1258001 -0.2118779
v -0.2418306 -0.1258001 -0.2478307
v -0.2418306 -0.1448001 -0.2238307
v -0.1308778 -0.1258001 -0.321967
v -0.1308778 -0.1448001 -0.2979671
v -1e-08 -0.1258001 -0.3480002
v -1e-08 -0.1448001 -0.3240002
v 0.1308778 -0.1258001 -0.321967
v 0.1308778 -0.1448001 -0.2979671
v 0.2418306 -0.1258001 -0.2478307
v 0.2418306 -0.1448001 -0.2238307
v -0.4269668 -0.1258001 -0.2118779
v -0.4269668 -0.1448001 -0.1878778
v -0.2418306 -0.1448001 -0.2238307
v -0.1308778 -0.1448001 -0.2979671
v -1e-08 -0.1448001 -0.3240002
v 0.1308778 -0.1448001 -0.2979671
v 0.2418306 -0.1448001 -0.2238307
v -0.2709669 -0.1448001 -0.187878
v -0.4269668 -0.1448001 -0.1878778
v -0.4269668 0.1161999 -0.2118779
v -0.4269668 0.1351999 -0.1878778
v -0.2709669 0.1351999 -0.187878
v -0.2709669 0.1161999 -0.2118779
v 0.2418306 0.1161999 -0.2478307
v 0.1308778 0.1161999 -0.321967
v 0.1308778 0.1351999 -0.2979671
v 0.2418306 0.1351999 -0.2238307
v -2e-08 0.1161999 -0.3480003
v -2e-08 0.1351999 -0.3240002
v -0.1308778 0.1161999 -0.321967
v -0.1308778 0.1351999 -0.2979671
v -0.2418306 0.1161999 -0.2478307
v -0.2418306 0.1351999 -0.2238307
v -0.2709669 0.1351999 -0.187878
v -0.4269668 0.1351999 -0.1878778
v -2e-08 0.1351999 -0.3240002
v -0.1308778 0.1351999 -0.2979671
v -0.2418306 0.1351999 -0.2238307
v 0.1308778 0.1351999 -0.2979671
v 0.2418306 0.1351999 -0.2238307
v -0.4269668 -0.1258001 -0.2118779
v -0.4269668 -0.1448001 -0.1878778
v -0.4269668 0.1351999 -0.1878778
v -0.4269668 0.1161999 -0.2118779
v -0.427 0.136299 -0.173156
v -0.427 -0.1458992 -0.1731558
v -0.427 0.136299 0.09284409
v -0.427 -0.1458992 0.09284409
v -0.427 -0.1209212 0.1211209
v -0.427 0.111321 0.1211209
v -0.427 -0.06764435 0.1567194
v -0.427 0.05804417 0.1567194
v -0.427 -0.00480011 0.1692198
v 0.086 0.1362991 0.09284409
v 0.086 -0.1458992 0.09284409
v 0.08599999 -0.1458992 -0.173156
v 0.08599999 0.1362991 -0.173156
v 0.086 0.111321 0.1211209
v 0.086 -0.1209211 0.1211209
v 0.086 0.0580442 0.1567192
v 0.086 -0.06764435 0.1567194
v 0.086 -0.004800072 0.1692198
v 0.2418306 0.1351999 -0.2238307
v 0.2418306 0.1351999 -0.1738307
v 0.2418306 -0.1448001 -0.1738307
v 0.2418306 -0.1448001 -0.2238307
v 0.08599999 0.1362991 -0.173156
v 0.08599999 -0.1458992 -0.173156
v 0.2418306 -0.1448001 -0.1738307
v 0.2418306 0.1351999 -0.1738307
v 0.2418306 0.1351999 -0.1738307
v 0.2418306 -0.1448001 -0.1738307
vt 0.03155726 0.1600518
vt 0.09956985 0.1600526
vt 0.09956991 0.1550505
vt 0.03155726 0.1600518
vt 0.03155714 0.1685468
vt 0.09956973 0.1685476
vt 0.09956961 0.1770427
vt 0.09956973 0.1685476
vt 0.03155714 0.1685468
vt 0.09956949 0.1855377
vt 0.09956961 0.1770427
vt 0.03155702 0.1770418
vt 0.03155678 0.1940318
vt 0.09956938 0.1940327
vt 0.09956949 0.1855377
vt 0.03155672 0.1990339
vt 0.09956932 0.1990348
vt 0.09956938 0.1940327
vt 0.09956991 0.1550505
vt 0.09957033 0.1197846
vt 0.03155767 0.1197839
vt 0.0315563 0.2342997
vt 0.09956884 0.2343005
vt 0.09956932 0.1990348
vt 0.1615284 0.1737596
vt 0.1605145 0.18018
vt 0.1640401 0.1784642
vt 0.163972 0.1963929
vt 0.1640401 0.1784642
vt 0.1605145 0.18018
vt 0.1650373 0.2146921
vt 0.163972 0.1963929
vt 0.1600904 0.197709
vt 0.1617717 0.2318502
vt 0.1657047 0.2330052
vt 0.1650373 0.2146921
vt 0.1619683 0.2483388
vt 0.1653449 0.251078
vt 0.1657047 0.2330052
vt 0.1590974 0.1523998
vt 0.1615284 0.1737596
vt 0.1657049 0.1724629
vt 0.05610555 0.2410235
vt 0.07081615 0.2508516
vt 0.08816796 0.254302
vt 0.1055194 0.2508495
vt 0.1202289 0.2410197
vt 0.05224239 0.2362572
vt 0.0315563 0.2342997
vt 0.03156065 0.2362568
vt 0.05224239 0.2362572
vt 0.126963 0.1523051
vt 0.1228979 0.1518751
vt 0.1202932 0.1742852
vt 0.1340705 0.2511691
vt 0.1318672 0.2346648
vt 0.1281064 0.2363965
vt 0.1318672 0.2346648
vt 0.1304571 0.2176731
vt 0.126187 0.2180402
vt 0.1289437 0.2003642
vt 0.1248247 0.1994972
vt 0.126187 0.2180402
vt 0.1266037 0.1822996
vt 0.1226147 0.1807825
vt 0.1248247 0.1994972
vt 0.1248864 0.175411
vt 0.1202932 0.1742852
vt 0.1226147 0.1807825
vt 0.1289437 0.2003642
vt 0.1304571 0.2176731
vt 0.1607967 0.2149007
vt 0.1607967 0.2149007
vt 0.1304571 0.2176731
vt 0.1318672 0.2346648
vt 0.1617717 0.2318502
vt 0.1318672 0.2346648
vt 0.1340705 0.2511691
vt 0.1605145 0.18018
vt 0.1266037 0.1822996
vt 0.1289437 0.2003642
vt 0.1615284 0.1737596
vt 0.1248864 0.175411
vt 0.1266037 0.1822996
vt 0.1615284 0.1737596
vt 0.1590974 0.1523998
vt 0.126963 0.1523051
vt 0.03155767 0.1197839
vt 0.09957033 0.1197846
vt 0.05224418 0.1178269
vt 0.08816999 0.0997831
vt 0.07081818 0.1032331
vt 0.0561074 0.1130607
vt 0.05224418 0.1178269
vt 0.1202304 0.113066
vt 0.1055213 0.103236
vt 0.1575608 0.1486304
vt 0.1204389 0.1486305
vt 0.122958 0.1518124
vt 0.1202932 0.1466787
vt 0.1204389 0.1486305
vt 0.1575608 0.1486304
vt 0.1202932 0.1114128
vt 0.1202932 0.1466787
vt 0.1577066 0.1466786
vt 0.1202932 0.1114128
vt 0.1577066 0.1114128
vt 0.1543951 0.1076639
vt 0.1236047 0.107664
vt 0.1543951 0.1076639
vt 0.1473316 0.1029444
vt 0.1306681 0.1029444
vt 0.1473316 0.1029444
vt 0.1389999 0.1012871
vt 0.1951826 0.1165466
vt 0.1577693 0.1165466
vt 0.1577693 0.1518124
vt 0.1951826 0.1165466
vt 0.1918711 0.1127977
vt 0.1610808 0.1127977
vt 0.1848077 0.1080781
vt 0.1681442 0.1080781
vt 0.1610808 0.1127977
vt 0.1848077 0.1080781
vt 0.1764759 0.1064207
vt 0.1681442 0.1080781
vt 0.1619683 0.2483388
vt 0.1340705 0.2511691
vt 0.1311782 0.254302
vt 0.1574151 0.1012244
vt 0.1574151 0.0945955
vt 0.1202932 0.0945955
vt 0.1951826 0.0856981
vt 0.1577693 0.0856981
vt 0.157915 0.106358
vt 0.09957033 0.1197846
vt 0.1202305 0.1196949
vt 0.1202304 0.113066
vt 0.1202289 0.2410197
vt 0.1202291 0.2343908
vt 0.09956884 0.2343005
vt 0.03155732 0.1550497
vt 0.03155726 0.1600518
vt 0.09956991 0.1550505
vt 0.09956985 0.1600526
vt 0.03155726 0.1600518
vt 0.09956973 0.1685476
vt 0.03155702 0.1770418
vt 0.09956961 0.1770427
vt 0.03155714 0.1685468
vt 0.0315569 0.1855369
vt 0.09956949 0.1855377
vt 0.03155702 0.1770418
vt 0.0315569 0.1855369
vt 0.03155678 0.1940318
vt 0.09956949 0.1855377
vt 0.03155678 0.1940318
vt 0.03155672 0.1990339
vt 0.09956938 0.1940327
vt 0.03155732 0.1550497
vt 0.09956991 0.1550505
vt 0.03155767 0.1197839
vt 0.03155672 0.1990339
vt 0.0315563 0.2342997
vt 0.09956932 0.1990348
vt 0.1657049 0.1724629
vt 0.1615284 0.1737596
vt 0.1640401 0.1784642
vt 0.1600904 0.197709
vt 0.163972 0.1963929
vt 0.1605145 0.18018
vt 0.1607967 0.2149007
vt 0.1650373 0.2146921
vt 0.1600904 0.197709
vt 0.1607967 0.2149007
vt 0.1617717 0.2318502
vt 0.1650373 0.2146921
vt 0.1617717 0.2318502
vt 0.1619683 0.2483388
vt 0.1657047 0.2330052
vt 0.1628242 0.1519211
vt 0.1590974 0.1523998
vt 0.1657049 0.1724629
vt 0.1055194 0.2508495
vt 0.05610555 0.2410235
vt 0.08816796 0.254302
vt 0.05610555 0.2410235
vt 0.1055194 0.2508495
vt 0.05224239 0.2362572
vt 0.09956884 0.2343005
vt 0.0315563 0.2342997
vt 0.05224239 0.2362572
vt 0.1248864 0.175411
vt 0.126963 0.1523051
vt 0.1202932 0.1742852
vt 0.1311782 0.254302
vt 0.1340705 0.2511691
vt 0.1281064 0.2363965
vt 0.1281064 0.2363965
vt 0.1318672 0.2346648
vt 0.126187 0.2180402
vt 0.1304571 0.2176731
vt 0.1289437 0.2003642
vt 0.126187 0.2180402
vt 0.1289437 0.2003642
vt 0.1266037 0.1822996
vt 0.1248247 0.1994972
vt 0.1266037 0.1822996
vt 0.1248864 0.175411
vt 0.1226147 0.1807825
vt 0.1600904 0.197709
vt 0.1289437 0.2003642
vt 0.1607967 0.2149007
vt 0.1617717 0.2318502
vt 0.1607967 0.2149007
vt 0.1318672 0.2346648
vt 0.1619683 0.2483388
vt 0.1617717 0.2318502
vt 0.1340705 0.2511691
vt 0.1600904 0.197709
vt 0.1605145 0.18018
vt 0.1289437 0.2003642
vt 0.1605145 0.18018
vt 0.1615284 0.1737596
vt 0.1266037 0.1822996
vt 0.1248864 0.175411
vt 0.1615284 0.1737596
vt 0.126963 0.1523051
vt 0.03156208 0.1178267
vt 0.03155767 0.1197839
vt 0.05224418 0.1178269
vt 0.1055213 0.103236
vt 0.08816999 0.0997831
vt 0.0561074 0.1130607
vt 0.0561074 0.1130607
vt 0.05224418 0.1178269
vt 0.1055213 0.103236
vt 0.1550419 0.1518124
vt 0.1575608 0.1486304
vt 0.122958 0.1518124
vt 0.1577066 0.1466786
vt 0.1202932 0.1466787
vt 0.1575608 0.1486304
vt 0.1577066 0.1114128
vt 0.1202932 0.1114128
vt 0.1577066 0.1466786
vt 0.1236047 0.107664
vt 0.1202932 0.1114128
vt 0.1543951 0.1076639
vt 0.1306681 0.1029444
vt 0.1236047 0.107664
vt 0.1473316 0.1029444
vt 0.1951826 0.1518124
vt 0.1951826 0.1165466
vt 0.1577693 0.1518124
vt 0.1577693 0.1165466
vt 0.1951826 0.1165466
vt 0.1610808 0.1127977
vt 0.1918711 0.1127977
vt 0.1848077 0.1080781
vt 0.1610808 0.1127977
vt 0.1653449 0.251078
vt 0.1619683 0.2483388
vt 0.1311782 0.254302
vt 0.1202932 0.1012244
vt 0.1574151 0.1012244
vt 0.1202932 0.0945955
vt 0.1950368 0.106358
vt 0.1951826 0.0856981
vt 0.157915 0.106358
vt 0.05224418 0.1178269
vt 0.09957033 0.1197846
vt 0.1202304 0.113066
vt 0.05224239 0.2362572
vt 0.1202289 0.2410197
vt 0.09956884 0.2343005
usemtl RHipRollUV
f 1/1 2/2 3/3
f 1/4 5/5 6/6
f 8/7 6/8 5/9
f 10/10 8/11 7/12
f 11/13 12/14 10/15
f 13/16 14/17 12/18
f 3/19 15/20 16/21
f 17/22 18/23 14/24
f 20/25 21/26 22/27
f 24/28 22/29 21/30
f 26/31 24/32 23/33
f 27/34 28/35 26/36
f 29/37 30/38 28/39
f 31/40 20/41 19/42
f 33/43 34/44 35/45
f 36/46 37/47 38/48
f 17/49 39/50 38/51
f 40/52 41/53 42/54
f 44/55 45/56 46/57
f 45/58 48/59 49/60
f 50/61 51/62 49/63
f 52/64 53/65 51/66
f 43/67 42/68 53/69
f 50/70 48/71 25/72
f 25/73 48/74 45/75
f 27/76 45/77 44/78
f 21/79 52/80 50/81
f 20/82 43/83 52/84
f 20/85 31/86 40/87
f 16/88 15/89 54/90
f 56/91 57/92 58/93
f 54/94 60/95 59/96
f 62/97 63/98 64/99
f 65/100 63/101 62/102
f 67/103 65/104 66/105
f 67/106 68/107 69/108
f 70/109 69/110 71/111
f 72/112 71/113 73/114
f 74/115 75/116 76/117
f 74/118 78/119 79/120
f 80/121 81/122 79/123
f 80/124 82/125 81/126
f 29/127 44/128 47/129
f 83/130 84/131 85/132
f 87/133 88/134 89/135
f 15/136 91/137 60/138
f 37/139 92/140 18/141
f 4/142 1/143 3/144
f 2/145 1/146 6/147
f 7/148 8/149 5/150
f 9/151 10/152 7/153
f 9/154 11/155 10/156
f 11/157 13/158 12/159
f 4/160 3/161 16/162
f 13/163 17/164 14/165
f 19/166 20/167 22/168
f 23/169 24/170 21/171
f 25/172 26/173 23/174
f 25/175 27/176 26/177
f 27/178 29/179 28/180
f 32/181 31/182 19/183
f 36/184 33/185 35/186
f 33/187 36/188 38/189
f 18/190 17/191 38/192
f 43/193 40/194 42/195
f 47/196 44/197 46/198
f 46/199 45/200 49/201
f 48/202 50/203 49/204
f 50/205 52/206 51/207
f 52/208 43/209 53/210
f 23/211 50/212 25/213
f 27/214 25/215 45/216
f 29/217 27/218 44/219
f 23/220 21/221 50/222
f 21/223 20/224 52/225
f 43/226 20/227 40/228
f 55/229 16/230 54/231
f 59/232 56/233 58/234
f 58/235 54/236 59/237
f 61/238 62/239 64/240
f 66/241 65/242 62/243
f 68/244 67/245 66/246
f 70/247 67/248 69/249
f 72/250 70/251 71/252
f 77/253 74/254 76/255
f 75/256 74/257 79/258
f 78/259 80/260 79/261
f 30/262 29/263 47/264
f 86/265 83/266 85/267
f 90/268 87/269 89/270
f 54/271 15/272 60/273
f 38/274 37/275 18/276
