mtllib RShoulderPitch.mtl
o RShoulderPitch
usemtl nao_texture
v -0.2974453 0.2556358 0.1106758
v -0.2474453 0.03999275 0.1106857
v -0.2818279 0.2556237 -0.1496926
v -0.2168824 0.2556204 -0.2212823
v -0.1868825 0.0793074 -0.2212742
v -0.2318279 0.05012279 -0.1496831
v -0.1268426 0.255618 -0.2748734
v -0.1268426 0.1182952 -0.274867
v -0.04976547 0.2556165 -0.3061246
v -0.04976547 0.1701994 -0.3061207
v 0.1895306 0.2556191 -0.2506378
v 0.1895306 0.2447342 -0.2506373
v 0.0274671 0.2556162 -0.3125041
v 0.1129432 0.2556171 -0.2934952
v 0.1129432 0.2380823 -0.2934944
v 0.0274671 0.2091629 -0.312502
v 0.2769999 0.2447528 0.1514522
v 0.2769999 0.2556376 0.1514517
v 0.06803182 0.2556449 0.3078834
v 0.06803182 0.22576 0.3078848
v -0.01136601 0.2556452 0.314263
v -0.01136601 0.1905895 0.314266
v -0.3133875 0.2556317 0.02329338
v -0.3080373 0.2556276 -0.06590488
v -0.2580373 0.03310608 -0.0658946
v -0.2633876 0.0296357 0.02330384
v -0.241502 0.2556394 0.1891631
v -0.211502 0.0633382 0.189172
v -0.09264464 0.2556443 0.2952542
v -0.1584697 0.2556423 0.2523968
v -0.1584697 0.09778075 0.2524042
v -0.09264464 0.14053 0.2952595
v 0.2527644 0.255622 -0.187404
v 0.2956217 0.2556256 -0.1089167
v 0.2956217 0.2447408 -0.1089162
v 0.2527644 0.2447371 -0.1874035
v 0.2234089 0.255641 0.223041
v 0.1518196 0.2556434 0.2766321
v 0.1518196 0.2447586 0.2766326
v 0.2234089 0.2447561 0.2230415
v 0.3146306 0.2556297 -0.02153429
v 0.3082511 0.2556338 0.06766395
v 0.3082511 0.2447489 0.06766444
v 0.3146306 0.2447448 -0.02153379
v -0.2474453 0.03999275 0.1106857
v -0.2613857 0.03038021 0.1164649
v -0.23183 0.05012279 -0.1496831
v -0.1868825 0.0793074 -0.2212742
v -0.1976354 0.07176407 -0.2329665
v -0.2449463 0.04104336 -0.1576076
v -0.1268426 0.1182952 -0.274867
v -0.1344356 0.1128038 -0.2893801
v -0.04976547 0.1701994 -0.3061207
v -0.05330169 0.1674399 -0.3222786
v 0.1895306 0.2447342 -0.2506373
v 0.198589 0.2458975 -0.2638751
v 0.0274671 0.2091629 -0.312502
v 0.1129432 0.2380823 -0.2934944
v 0.1179706 0.2388955 -0.3089879
v 0.02799576 0.2084541 -0.3289958
v 0.2906618 0.2459171 0.159377
v 0.2769999 0.2447528 0.1514522
v 0.06803182 0.22576 0.3078848
v 0.07069545 0.2259247 0.3240428
v -0.01136601 0.1905895 0.314266
v -0.01288121 0.1889031 0.3307598
v -0.2633876 0.0296357 0.02330384
v -0.2580373 0.03310608 -0.0658946
v -0.2725351 0.0231311 -0.06940909
v -0.278167 0.01947803 0.02448398
v -0.211502 0.0633382 0.189172
v -0.2235507 0.05495434 0.199082
v -0.09264464 0.14053 0.2952595
v -0.1584697 0.09778075 0.2524042
v -0.1677272 0.0912097 0.2656422
v -0.09843765 0.1362089 0.3107531
v 0.2527644 0.2447371 -0.1874035
v 0.2956217 0.2447408 -0.1089162
v 0.3102638 0.2459044 -0.114695
v 0.2651508 0.2459006 -0.1973133
v 0.2234089 0.2447561 0.2230415
v 0.1518196 0.2447586 0.2766326
v 0.1588931 0.2459232 0.2911458
v 0.2342503 0.2459206 0.2347341
v 0.3146306 0.2447448 -0.02153379
v 0.3082511 0.2447489 0.06766444
v 0.3235577 0.245913 0.07117937
v 0.330273 0.2459087 -0.02271351
v 0.2906618 0.2459171 0.159377
v 0.2906618 0.2579171 0.1593764
v -0.01288121 0.1889031 0.3307598
v 0.1179706 0.2388955 -0.3089879
v -0.05330169 0.1674399 -0.3222786
v -0.2449463 0.04104336 -0.1576076
v -0.2725351 0.0231311 -0.06940909
v -0.278167 0.01947803 0.02448398
v -0.2613857 0.03038021 0.1164649
v -0.2235507 0.05495434 0.199082
v -0.09843765 0.1362089 0.3107531
v -0.1677272 0.0912097 0.2656422
v -0.1976354 0.07176407 -0.2329665
v -0.1344356 0.1128038 -0.2893801
v -0.2705 0.1114728 -0.1576062
v -0.3017882 0.1013128 -0.06941272
v -0.3081749 0.09924193 0.02448029
v -0.2891447 0.1054295 0.1164615
v -0.2462397 0.119374 0.1990791
v -0.1829355 0.1399459 0.26564
v -0.01688121 0.1939031 0.3307597
v -0.1043608 0.1654784 0.3107518
v 0.02799576 0.2084541 -0.3289958
v -0.06130169 0.1794399 -0.3222792
v -0.2168515 0.1289028 -0.2329692
v -0.1451826 0.1521868 -0.2893819
v -0.2863615 0.1757214 -0.1576138
v -0.3189372 0.1711472 -0.06941594
v -0.3255871 0.170217 0.024477
v -0.3057724 0.173006 0.1164583
v -0.2610984 0.1792884 0.1990763
v -0.1951842 0.1885551 0.2656377
v -0.11337 0.2000553 0.3107502
v 0.07069545 0.2259247 0.3240428
v -0.02228364 0.2128577 0.3307588
v 0.02444357 0.2193942 -0.3289963
v -0.06853555 0.2063272 -0.3222805
v -0.2304986 0.183569 -0.2329717
v -0.1558749 0.194054 -0.2893839
v -0.2898705 0.2459025 -0.157617
v -0.2898705 0.2579024 -0.1576176
v -0.3227664 0.2459065 -0.06941939
v -0.3227664 0.2579065 -0.06941995
v -0.3294817 0.2459109 0.02447349
v -0.3294817 0.2579108 0.02447293
v -0.3094722 0.2459151 0.116455
v -0.3094722 0.2579151 0.1164544
v -0.2643591 0.2459189 0.1990732
v -0.2643591 0.2579189 0.1990727
v -0.1977972 0.245922 0.2656351
v -0.1977972 0.257922 0.2656345
v -0.1151789 0.2459241 0.3107481
v -0.1151789 0.257924 0.3107475
v -0.02319741 0.245925 0.3307573
v -0.02319741 0.257925 0.3307567
v 0.07069545 0.2459247 0.3240419
v 0.07069545 0.2579247 0.3240413
v 0.2342503 0.2579205 0.2347336
v 0.2342503 0.2459206 0.2347341
v 0.1588931 0.2459232 0.2911458
v 0.1588931 0.2579232 0.2911453
v 0.3235577 0.245913 0.07117937
v 0.3235577 0.257913 0.07117881
v 0.330273 0.2459087 -0.02271351
v 0.330273 0.2579087 -0.02271406
v 0.3102638 0.2459044 -0.114695
v 0.3102638 0.2579044 -0.1146955
v 0.2651508 0.2459006 -0.1973133
v 0.2651508 0.2579006 -0.1973138
v 0.198589 0.2458975 -0.2638751
v 0.198589 0.2578975 -0.2638757
v 0.1159706 0.2458955 -0.3089882
v 0.1159706 0.2578954 -0.3089887
v 0.02398903 0.2458946 -0.3289976
v 0.02398903 0.2578945 -0.3289981
v -0.06990386 0.2458949 -0.3222822
v -0.06990386 0.2578948 -0.3222828
v -0.1581015 0.2458964 -0.2893862
v -0.1581015 0.2578964 -0.2893868
v -0.2334586 0.2578989 -0.2329751
v -0.2334586 0.245899 -0.2329746
vt 0.1544384 0.6954846
vt 0.1435201 0.6828812
vt 0.1410741 0.6878263
vt 0.1449267 0.7747584
vt 0.1439477 0.7731729
vt 0.1305266 0.7790713
vt 0.1644316 0.7522639
vt 0.1627213 0.7514918
vt 0.1549545 0.7637546
vt 0.0546084 0.7753156
vt 0.08087533 0.7617554
vt 0.0727747 0.7474198
vt 0.07902187 0.7041593
vt 0.09011816 0.6964968
vt 0.06630897 0.667236
vt 0.07314455 0.71326
vt 0.07902187 0.7041593
vt 0.04898589 0.6799382
vt 0.03085356 0.7370611
vt 0.06909608 0.734728
vt 0.06967973 0.7238374
vt 0.03879261 0.7582307
vt 0.0727747 0.7474198
vt 0.06909608 0.734728
vt 0.07805246 0.7848446
vt 0.09008973 0.7719729
vt 0.08087533 0.7617554
vt 0.09797769 0.7867793
vt 0.1014012 0.7783888
vt 0.09008973 0.7719729
vt 0.1310305 0.7808996
vt 0.1305266 0.7790713
vt 0.1159791 0.7811211
vt 0.1158735 0.7842898
vt 0.1159791 0.7811211
vt 0.1014012 0.7783888
vt 0.1662172 0.7224839
vt 0.166622 0.73726
vt 0.1685567 0.7374924
vt 0.161583 0.7087816
vt 0.1662172 0.7224839
vt 0.1680585 0.7221383
vt 0.1435201 0.6828812
vt 0.1296952 0.6712428
vt 0.128675 0.6838064
vt 0.1296952 0.6712428
vt 0.108775 0.6623574
vt 0.1153934 0.6841901
vt 0.0308535 0.7158832
vt 0.06967973 0.7238374
vt 0.07314455 0.71326
vt 0.08722519 0.6610742
vt 0.06630897 0.667236
vt 0.09011816 0.6964968
vt 0.108775 0.6623574
vt 0.08722519 0.6610742
vt 0.1036139 0.6885354
vt 0.1563491 0.764982
vt 0.1549545 0.7637546
vt 0.1439477 0.7731729
vt 0.1631978 0.7079551
vt 0.1544384 0.6954846
vt 0.1530348 0.6968529
vt 0.1685567 0.7374924
vt 0.166622 0.73726
vt 0.1627213 0.7514918
vt 0.2164129 0.6763567
vt 0.2011366 0.6811625
vt 0.2024348 0.6835594
vt 0.2802968 0.7306707
vt 0.2776134 0.7306994
vt 0.2762717 0.745846
vt 0.2707635 0.7009383
vt 0.268573 0.7023782
vt 0.2750288 0.7158695
vt 0.2324029 0.7867789
vt 0.2321979 0.7838593
vt 0.2170814 0.7838719
vt 0.1686331 0.7321897
vt 0.1709825 0.7477189
vt 0.1738179 0.7467777
vt 0.1709825 0.7477189
vt 0.1776017 0.7619859
vt 0.180112 0.7603326
vt 0.2012873 0.7823416
vt 0.2026268 0.7796648
vt 0.1899725 0.771598
vt 0.2164952 0.7867793
vt 0.2170814 0.7838719
vt 0.2026268 0.7796648
vt 0.249056 0.7813118
vt 0.248055 0.7786436
vt 0.2321979 0.7838593
vt 0.2623611 0.7733669
vt 0.2607182 0.771123
vt 0.248055 0.7786436
vt 0.2789106 0.746578
vt 0.2762717 0.745846
vt 0.2710425 0.7596927
vt 0.27333 0.7612358
vt 0.2710425 0.7596927
vt 0.2607182 0.771123
vt 0.246105 0.6831944
vt 0.2586858 0.6912002
vt 0.2603672 0.689185
vt 0.2318037 0.6790065
vt 0.246105 0.6831944
vt 0.2471328 0.6807642
vt 0.2011366 0.6811625
vt 0.188383 0.6895271
vt 0.1903329 0.6914951
vt 0.188383 0.6895271
vt 0.1771112 0.7023218
vt 0.1796312 0.7036447
vt 0.1879744 0.7738458
vt 0.1899725 0.771598
vt 0.180112 0.7603326
vt 0.1707328 0.7166417
vt 0.1686331 0.7321897
vt 0.1715819 0.7320225
vt 0.1771112 0.7023218
vt 0.1707328 0.7166417
vt 0.1735741 0.7172492
vt 0.277556 0.7151111
vt 0.2750288 0.7158695
vt 0.2776134 0.7306994
vt 0.2320824 0.6763567
vt 0.2164129 0.6763567
vt 0.2169283 0.6790031
vt 0.2707635 0.7009383
vt 0.2603672 0.689185
vt 0.2586858 0.6912002
vt 0.0375213 0.840741
vt 0.03556758 0.8398383
vt 0.0308535 0.8556712
vt 0.03095608 0.8720106
vt 0.03302323 0.8716753
vt 0.03295582 0.8559577
vt 0.0448684 0.825837
vt 0.05823498 0.8162722
vt 0.05663734 0.8129484
vt 0.05663734 0.8129484
vt 0.07128393 0.8032575
vt 0.07043409 0.8023767
vt 0.05663734 0.8129484
vt 0.07261127 0.8065882
vt 0.07128393 0.8032575
vt 0.0883938 0.797908
vt 0.08818536 0.7916401
vt 0.07043409 0.8023767
vt 0.1092588 0.9167313
vt 0.09109169 0.91892571
vt 0.1096351 0.91892577
vt 0.09121018 0.91757399
vt 0.07376861 0.91775579
vt 0.09109169 0.91892571
vt 0.1071404 0.91238088
vt 0.09121018 0.91757399
vt 0.09109169 0.91892571
vt 0.1272367 0.91304559
vt 0.1096351 0.91892577
vt 0.1278497 0.91591877
vt 0.1427646 0.9024911
vt 0.1272367 0.91304559
vt 0.1278497 0.91591877
vt 0.1597027 0.8685439
vt 0.1541806 0.8869458
vt 0.1668462 0.8929842
vt 0.1590075 0.8494925
vt 0.1597027 0.8685439
vt 0.1771987 0.8705754
vt 0.1527554 0.8314508
vt 0.1590075 0.8494925
vt 0.1780202 0.8455974
vt 0.1527554 0.8314508
vt 0.1696237 0.8224631
vt 0.1544741 0.8031568
vt 0.1411439 0.8161566
vt 0.1544741 0.8031568
vt 0.1333034 0.7906094
vt 0.1256766 0.804584
vt 0.1333034 0.7906094
vt 0.109738 0.7868557
vt 0.1074076 0.7981818
vt 0.109738 0.7868557
vt 0.08818536 0.7916401
vt 0.1494145 0.90866334
vt 0.1668462 0.8929842
vt 0.1541806 0.8869458
vt 0.1444722 0.8826722
vt 0.1541806 0.8869458
vt 0.1597027 0.8685439
vt 0.1475681 0.8673535
vt 0.1597027 0.8685439
vt 0.1590075 0.8494925
vt 0.1460815 0.8521264
vt 0.1590075 0.8494925
vt 0.1527554 0.8314508
vt 0.131703 0.8251753
vt 0.1404162 0.8380398
vt 0.1527554 0.8314508
vt 0.119753 0.8146507
vt 0.131703 0.8251753
vt 0.1411439 0.8161566
vt 0.1051771 0.8074666
vt 0.119753 0.8146507
vt 0.1256766 0.804584
vt 0.08893656 0.804607
vt 0.1051771 0.8074666
vt 0.1074076 0.7981818
vt 0.07261127 0.8065882
vt 0.08893656 0.804607
vt 0.0883938 0.797908
vt 0.1092588 0.9167313
vt 0.1096351 0.91892577
vt 0.1272367 0.91304559
vt 0.1246199 0.9084667
vt 0.1272367 0.91304559
vt 0.1427646 0.9024911
vt 0.136689 0.8969028
vt 0.1427646 0.9024911
vt 0.1541806 0.8869458
vt 0.1372012 0.8672959
vt 0.1352045 0.8798922
vt 0.1444722 0.8826722
vt 0.1356251 0.8549387
vt 0.1372012 0.8672959
vt 0.1475681 0.8673535
vt 0.1305071 0.8433136
vt 0.1356251 0.8549387
vt 0.1460815 0.8521264
vt 0.1305071 0.8433136
vt 0.1404162 0.8380398
vt 0.131703 0.8251753
vt 0.1231392 0.8323564
vt 0.131703 0.8251753
vt 0.119753 0.8146507
vt 0.1134594 0.8230181
vt 0.119753 0.8146507
vt 0.1051771 0.8074666
vt 0.1016169 0.8160137
vt 0.1051771 0.8074666
vt 0.08893656 0.804607
vt 0.0879963 0.8121321
vt 0.08893656 0.804607
vt 0.07261127 0.8065882
vt 0.0733298 0.8120649
vt 0.07261127 0.8065882
vt 0.05663734 0.8129484
vt 0.1092588 0.9167313
vt 0.1246199 0.9084667
vt 0.1201019 0.90342689
vt 0.1295819 0.8923041
vt 0.1201019 0.90342689
vt 0.1246199 0.9084667
vt 0.1352045 0.8798922
vt 0.1295819 0.8923041
vt 0.136689 0.8969028
vt 0.1352045 0.8798922
vt 0.1372012 0.8672959
vt 0.1355805 0.8672577
vt 0.1355805 0.8672577
vt 0.1372012 0.8672959
vt 0.1356251 0.8549387
vt 0.1340677 0.8553601
vt 0.1356251 0.8549387
vt 0.1305071 0.8433136
vt 0.1218166 0.8334541
vt 0.1290329 0.8441243
vt 0.1305071 0.8433136
vt 0.1123889 0.8244077
vt 0.1218166 0.8334541
vt 0.1231392 0.8323564
vt 0.1123889 0.8244077
vt 0.1134594 0.8230181
vt 0.1016169 0.8160137
vt 0.08772504 0.8139715
vt 0.1008962 0.8176639
vt 0.1016169 0.8160137
vt 0.07357668 0.8139942
vt 0.08772504 0.8139715
vt 0.0879963 0.8121321
vt 0.05913364 0.8181546
vt 0.07357668 0.8139942
vt 0.0733298 0.8120649
vt 0.04648333 0.8273826
vt 0.05913364 0.8181546
vt 0.05823498 0.8162722
vt 0.0448684 0.825837
vt 0.03556758 0.8398383
vt 0.0375213 0.840741
vt 0.03302323 0.8716753
vt 0.03095608 0.8720106
vt 0.03577381 0.8873648
vt 0.04648208 0.8994741
vt 0.03760904 0.886482
vt 0.03577381 0.8873648
vt 0.04486113 0.9009617
vt 0.05788493 0.91154403
vt 0.05895006 0.90970779
vt 0.07417511 0.91547305
vt 0.05895006 0.90970779
vt 0.05788493 0.91154403
vt 0.07417511 0.91547305
vt 0.07376861 0.91775579
vt 0.09121018 0.91757399
vt 0.09084349 0.91539509
vt 0.09121018 0.91757399
vt 0.1071404 0.91238088
vt 0.1062076 0.9105019
vt 0.1071404 0.91238088
vt 0.1201019 0.90342689
vt 0.1188301 0.90201259
vt 0.1201019 0.90342689
vt 0.1295819 0.8923041
vt 0.1352045 0.8798922
vt 0.1336219 0.8794095
vt 0.1280154 0.8912884
vt 0.1530348 0.6968529
vt 0.1544384 0.6954846
vt 0.1410741 0.6878263
vt 0.1310305 0.7808996
vt 0.1449267 0.7747584
vt 0.1305266 0.7790713
vt 0.1563491 0.764982
vt 0.1644316 0.7522639
vt 0.1549545 0.7637546
vt 0.03879261 0.7582307
vt 0.0546084 0.7753156
vt 0.0727747 0.7474198
vt 0.04898589 0.6799382
vt 0.07902187 0.7041593
vt 0.06630897 0.667236
vt 0.03765791 0.6967142
vt 0.07314455 0.71326
vt 0.04898589 0.6799382
vt 0.0308535 0.7158832
vt 0.03085356 0.7370611
vt 0.06967973 0.7238374
vt 0.03085356 0.7370611
vt 0.03879261 0.7582307
vt 0.06909608 0.734728
vt 0.0546084 0.7753156
vt 0.07805246 0.7848446
vt 0.08087533 0.7617554
vt 0.07805246 0.7848446
vt 0.09797769 0.7867793
vt 0.09008973 0.7719729
vt 0.1158735 0.7842898
vt 0.1310305 0.7808996
vt 0.1159791 0.7811211
vt 0.09797769 0.7867793
vt 0.1158735 0.7842898
vt 0.1014012 0.7783888
vt 0.1680585 0.7221383
vt 0.1662172 0.7224839
vt 0.1685567 0.7374924
vt 0.1631978 0.7079551
vt 0.161583 0.7087816
vt 0.1680585 0.7221383
vt 0.1410741 0.6878263
vt 0.1435201 0.6828812
vt 0.128675 0.6838064
vt 0.128675 0.6838064
vt 0.1296952 0.6712428
vt 0.1153934 0.6841901
vt 0.03765791 0.6967142
vt 0.0308535 0.7158832
vt 0.07314455 0.71326
vt 0.1036139 0.6885354
vt 0.08722519 0.6610742
vt 0.09011816 0.6964968
vt 0.1153934 0.6841901
vt 0.108775 0.6623574
vt 0.1036139 0.6885354
vt 0.1449267 0.7747584
vt 0.1563491 0.764982
vt 0.1439477 0.7731729
vt 0.161583 0.7087816
vt 0.1631978 0.7079551
vt 0.1530348 0.6968529
vt 0.1644316 0.7522639
vt 0.1685567 0.7374924
vt 0.1627213 0.7514918
vt 0.2169283 0.6790031
vt 0.2164129 0.6763567
vt 0.2024348 0.6835594
vt 0.2789106 0.746578
vt 0.2802968 0.7306707
vt 0.2762717 0.745846
vt 0.277556 0.7151111
vt 0.2707635 0.7009383
vt 0.2750288 0.7158695
vt 0.2164952 0.7867793
vt 0.2324029 0.7867789
vt 0.2170814 0.7838719
vt 0.1715819 0.7320225
vt 0.1686331 0.7321897
vt 0.1738179 0.7467777
vt 0.1738179 0.7467777
vt 0.1709825 0.7477189
vt 0.180112 0.7603326
vt 0.1879744 0.7738458
vt 0.2012873 0.7823416
vt 0.1899725 0.771598
vt 0.2012873 0.7823416
vt 0.2164952 0.7867793
vt 0.2026268 0.7796648
vt 0.2324029 0.7867789
vt 0.249056 0.7813118
vt 0.2321979 0.7838593
vt 0.249056 0.7813118
vt 0.2623611 0.7733669
vt 0.248055 0.7786436
vt 0.27333 0.7612358
vt 0.2789106 0.746578
vt 0.2710425 0.7596927
vt 0.2623611 0.7733669
vt 0.27333 0.7612358
vt 0.2607182 0.771123
vt 0.2471328 0.6807642
vt 0.246105 0.6831944
vt 0.2603672 0.689185
vt 0.2320824 0.6763567
vt 0.2318037 0.6790065
vt 0.2471328 0.6807642
vt 0.2024348 0.6835594
vt 0.2011366 0.6811625
vt 0.1903329 0.6914951
vt 0.1903329 0.6914951
vt 0.188383 0.6895271
vt 0.1796312 0.7036447
vt 0.1776017 0.7619859
vt 0.1879744 0.7738458
vt 0.180112 0.7603326
vt 0.1735741 0.7172492
vt 0.1707328 0.7166417
vt 0.1715819 0.7320225
vt 0.1796312 0.7036447
vt 0.1771112 0.7023218
vt 0.1735741 0.7172492
vt 0.2802968 0.7306707
vt 0.277556 0.7151111
vt 0.2776134 0.7306994
vt 0.2318037 0.6790065
vt 0.2320824 0.6763567
vt 0.2169283 0.6790031
vt 0.268573 0.7023782
vt 0.2707635 0.7009383
vt 0.2586858 0.6912002
vt 0.03295582 0.8559577
vt 0.0375213 0.840741
vt 0.0308535 0.8556712
vt 0.0308535 0.8556712
vt 0.03095608 0.8720106
vt 0.03295582 0.8559577
vt 0.07128393 0.8032575
vt 0.0883938 0.797908
vt 0.07043409 0.8023767
vt 0.1092588 0.9167313
vt 0.1071404 0.91238088
vt 0.09109169 0.91892571
vt 0.1494145 0.90866334
vt 0.1427646 0.9024911
vt 0.1278497 0.91591877
vt 0.1771987 0.8705754
vt 0.1597027 0.8685439
vt 0.1668462 0.8929842
vt 0.1780202 0.8455974
vt 0.1590075 0.8494925
vt 0.1771987 0.8705754
vt 0.1696237 0.8224631
vt 0.1527554 0.8314508
vt 0.1780202 0.8455974
vt 0.1411439 0.8161566
vt 0.1527554 0.8314508
vt 0.1544741 0.8031568
vt 0.1256766 0.804584
vt 0.1411439 0.8161566
vt 0.1333034 0.7906094
vt 0.1074076 0.7981818
vt 0.1256766 0.804584
vt 0.109738 0.7868557
vt 0.0883938 0.797908
vt 0.1074076 0.7981818
vt 0.08818536 0.7916401
vt 0.1427646 0.9024911
vt 0.1494145 0.90866334
vt 0.1541806 0.8869458
vt 0.1475681 0.8673535
vt 0.1444722 0.8826722
vt 0.1597027 0.8685439
vt 0.1460815 0.8521264
vt 0.1475681 0.8673535
vt 0.1590075 0.8494925
vt 0.1404162 0.8380398
vt 0.1460815 0.8521264
vt 0.1527554 0.8314508
vt 0.1411439 0.8161566
vt 0.131703 0.8251753
vt 0.1527554 0.8314508
vt 0.1256766 0.804584
vt 0.119753 0.8146507
vt 0.1411439 0.8161566
vt 0.1074076 0.7981818
vt 0.1051771 0.8074666
vt 0.1256766 0.804584
vt 0.0883938 0.797908
vt 0.08893656 0.804607
vt 0.1074076 0.7981818
vt 0.07128393 0.8032575
vt 0.07261127 0.8065882
vt 0.0883938 0.797908
vt 0.1246199 0.9084667
vt 0.1092588 0.9167313
vt 0.1272367 0.91304559
vt 0.136689 0.8969028
vt 0.1246199 0.9084667
vt 0.1427646 0.9024911
vt 0.1444722 0.8826722
vt 0.136689 0.8969028
vt 0.1541806 0.8869458
vt 0.1475681 0.8673535
vt 0.1372012 0.8672959
vt 0.1444722 0.8826722
vt 0.1460815 0.8521264
vt 0.1356251 0.8549387
vt 0.1475681 0.8673535
vt 0.1404162 0.8380398
vt 0.1305071 0.8433136
vt 0.1460815 0.8521264
vt 0.1231392 0.8323564
vt 0.1305071 0.8433136
vt 0.131703 0.8251753
vt 0.1134594 0.8230181
vt 0.1231392 0.8323564
vt 0.119753 0.8146507
vt 0.1016169 0.8160137
vt 0.1134594 0.8230181
vt 0.1051771 0.8074666
vt 0.0879963 0.8121321
vt 0.1016169 0.8160137
vt 0.08893656 0.804607
vt 0.0733298 0.8120649
vt 0.0879963 0.8121321
vt 0.07261127 0.8065882
vt 0.05823498 0.8162722
vt 0.0733298 0.8120649
vt 0.05663734 0.8129484
vt 0.1071404 0.91238088
vt 0.1092588 0.9167313
vt 0.1201019 0.90342689
vt 0.136689 0.8969028
vt 0.1295819 0.8923041
vt 0.1246199 0.9084667
vt 0.1444722 0.8826722
vt 0.1352045 0.8798922
vt 0.136689 0.8969028
vt 0.1336219 0.8794095
vt 0.1352045 0.8798922
vt 0.1355805 0.8672577
vt 0.1340677 0.8553601
vt 0.1355805 0.8672577
vt 0.1356251 0.8549387
vt 0.1290329 0.8441243
vt 0.1340677 0.8553601
vt 0.1305071 0.8433136
vt 0.1231392 0.8323564
vt 0.1218166 0.8334541
vt 0.1305071 0.8433136
vt 0.1134594 0.8230181
vt 0.1123889 0.8244077
vt 0.1231392 0.8323564
vt 0.1008962 0.8176639
vt 0.1123889 0.8244077
vt 0.1016169 0.8160137
vt 0.0879963 0.8121321
vt 0.08772504 0.8139715
vt 0.1016169 0.8160137
vt 0.0733298 0.8120649
vt 0.07357668 0.8139942
vt 0.0879963 0.8121321
vt 0.05823498 0.8162722
vt 0.05913364 0.8181546
vt 0.0733298 0.8120649
vt 0.0448684 0.825837
vt 0.04648333 0.8273826
vt 0.05823498 0.8162722
vt 0.04648333 0.8273826
vt 0.0448684 0.825837
vt 0.0375213 0.840741
vt 0.03760904 0.886482
vt 0.03302323 0.8716753
vt 0.03577381 0.8873648
vt 0.04486113 0.9009617
vt 0.04648208 0.8994741
vt 0.03577381 0.8873648
vt 0.04648208 0.8994741
vt 0.04486113 0.9009617
vt 0.05895006 0.90970779
vt 0.07376861 0.91775579
vt 0.07417511 0.91547305
vt 0.05788493 0.91154403
vt 0.09084349 0.91539509
vt 0.07417511 0.91547305
vt 0.09121018 0.91757399
vt 0.1062076 0.9105019
vt 0.09084349 0.91539509
vt 0.1071404 0.91238088
vt 0.1188301 0.90201259
vt 0.1062076 0.9105019
vt 0.1201019 0.90342689
vt 0.1280154 0.8912884
vt 0.1188301 0.90201259
vt 0.1295819 0.8923041
vt 0.1295819 0.8923041
vt 0.1352045 0.8798922
vt 0.1280154 0.8912884
usemtl RShoulderPitchUV
f 39/1 20/2 19/3
f 36/4 33/5 11/6
f 44/7 41/8 34/9
f 8/10 7/11 4/12
f 1/13 27/14 28/15
f 23/16 1/17 2/18
f 6/19 3/20 24/21
f 5/22 4/23 3/24
f 10/25 9/26 7/27
f 16/28 13/29 9/30
f 12/31 11/32 14/33
f 15/34 14/35 13/36
f 18/37 42/38 43/39
f 37/40 18/41 17/42
f 20/43 22/44 21/45
f 22/46 32/47 29/48
f 25/49 24/50 23/51
f 31/52 28/53 27/54
f 32/55 31/56 30/57
f 35/58 34/59 33/60
f 40/61 39/62 38/63
f 43/64 42/65 41/66
f 83/67 64/68 63/69
f 80/70 77/71 55/72
f 88/73 85/74 78/75
f 52/76 51/77 48/78
f 72/79 46/80 45/81
f 46/82 70/83 67/84
f 50/85 47/86 68/87
f 49/88 48/89 47/90
f 54/91 53/92 51/93
f 60/94 57/95 53/96
f 56/97 55/98 58/99
f 59/100 58/101 57/102
f 62/103 86/104 87/105
f 81/106 62/107 61/108
f 64/109 66/110 65/111
f 66/112 76/113 73/114
f 69/115 68/116 67/117
f 75/118 72/119 71/120
f 76/121 75/122 74/123
f 79/124 78/125 77/126
f 84/127 83/128 82/129
f 88/130 87/131 86/132
f 146/133 147/134 89/135
f 150/136 151/137 90/138
f 148/139 144/140 122/141
f 122/142 109/143 91/144
f 122/145 123/146 109/147
f 110/148 99/149 91/150
f 124/151 92/152 111/153
f 160/154 158/155 92/156
f 162/157 160/158 92/159
f 112/160 111/161 93/162
f 114/163 112/164 93/165
f 103/166 113/167 101/168
f 104/169 103/170 94/171
f 105/172 104/173 95/174
f 105/175 96/176 97/177
f 106/178 97/179 98/180
f 107/181 98/182 100/183
f 108/184 100/185 99/186
f 102/187 101/188 113/189
f 126/190 113/191 103/192
f 115/193 103/194 104/195
f 116/196 104/197 105/198
f 118/199 117/200 105/201
f 119/202 118/203 106/204
f 120/205 119/206 107/207
f 121/208 120/209 108/210
f 123/211 121/212 110/213
f 124/214 111/215 112/216
f 125/217 112/218 114/219
f 127/220 114/221 113/222
f 128/223 169/224 126/225
f 130/226 128/227 115/228
f 132/229 130/230 116/231
f 132/232 117/233 118/234
f 134/235 118/236 119/237
f 136/238 119/239 120/240
f 138/241 120/242 121/243
f 140/244 121/245 123/246
f 142/247 123/248 122/249
f 124/250 125/251 164/252
f 166/253 164/254 125/255
f 169/256 166/257 127/258
f 169/259 128/260 129/261
f 129/262 128/263 130/264
f 131/265 130/266 132/267
f 135/268 133/269 132/270
f 137/271 135/272 134/273
f 137/274 136/275 138/276
f 141/277 139/278 138/279
f 143/280 141/281 140/282
f 145/283 143/284 142/285
f 149/286 145/287 144/288
f 148/289 147/290 146/291
f 151/292 150/293 152/294
f 155/295 153/296 152/297
f 154/298 156/299 157/300
f 159/301 157/302 156/303
f 159/304 158/305 160/306
f 161/307 160/308 162/309
f 163/310 162/311 164/312
f 165/313 164/314 166/315
f 169/316 168/317 167/318
f 38/319 39/320 19/321
f 12/322 36/323 11/324
f 35/325 44/326 34/327
f 5/328 8/329 4/330
f 2/331 1/332 28/333
f 26/334 23/335 2/336
f 25/337 6/338 24/339
f 6/340 5/341 3/342
f 8/343 10/344 7/345
f 10/346 16/347 9/348
f 15/349 12/350 14/351
f 16/352 15/353 13/354
f 17/355 18/356 43/357
f 40/358 37/359 17/360
f 19/361 20/362 21/363
f 21/364 22/365 29/366
f 26/367 25/368 23/369
f 30/370 31/371 27/372
f 29/373 32/374 30/375
f 36/376 35/377 33/378
f 37/379 40/380 38/381
f 44/382 43/383 41/384
f 82/385 83/386 63/387
f 56/388 80/389 55/390
f 79/391 88/392 78/393
f 49/394 52/395 48/396
f 71/397 72/398 45/399
f 45/400 46/401 67/402
f 69/403 50/404 68/405
f 50/406 49/407 47/408
f 52/409 54/410 51/411
f 54/412 60/413 53/414
f 59/415 56/416 58/417
f 60/418 59/419 57/420
f 61/421 62/422 87/423
f 84/424 81/425 61/426
f 63/427 64/428 65/429
f 65/430 66/431 73/432
f 70/433 69/434 67/435
f 74/436 75/437 71/438
f 73/439 76/440 74/441
f 80/442 79/443 77/444
f 81/445 84/446 82/447
f 85/448 88/449 86/450
f 90/451 146/452 89/453
f 89/454 150/455 90/456
f 109/457 110/458 91/459
f 124/460 162/461 92/462
f 102/463 114/464 93/465
f 94/466 103/467 101/468
f 95/469 104/470 94/471
f 96/472 105/473 95/474
f 106/475 105/476 97/477
f 107/478 106/479 98/480
f 108/481 107/482 100/483
f 110/484 108/485 99/486
f 114/487 102/488 113/489
f 115/490 126/491 103/492
f 116/493 115/494 104/495
f 117/496 116/497 105/498
f 106/499 118/500 105/501
f 107/502 119/503 106/504
f 108/505 120/506 107/507
f 110/508 121/509 108/510
f 109/511 123/512 110/513
f 125/514 124/515 112/516
f 127/517 125/518 114/519
f 126/520 127/521 113/522
f 115/523 128/524 126/525
f 116/526 130/527 115/528
f 117/529 132/530 116/531
f 134/532 132/533 118/534
f 136/535 134/536 119/537
f 138/538 136/539 120/540
f 140/541 138/542 121/543
f 142/544 140/545 123/546
f 144/547 142/548 122/549
f 162/550 124/551 164/552
f 127/553 166/554 125/555
f 126/556 169/557 127/558
f 168/559 169/560 129/561
f 131/562 129/563 130/564
f 133/565 131/566 132/567
f 134/568 135/569 132/570
f 136/571 137/572 134/573
f 139/574 137/575 138/576
f 140/577 141/578 138/579
f 142/580 143/581 140/582
f 144/583 145/584 142/585
f 148/586 149/587 144/588
f 149/589 148/590 146/591
f 153/592 151/593 152/594
f 154/595 155/596 152/597
f 155/598 154/599 157/600
f 158/601 159/602 156/603
f 161/604 159/605 160/606
f 163/607 161/608 162/609
f 165/610 163/611 164/612
f 167/613 165/614 166/615
f 166/616 169/617 167/618
